<svg width="16" height="15" viewBox="0 0 16 15" fill="none" xmlns="http://www.w3.org/2000/svg">
<path d="M13.9766 7.09473L7.65186 1.60533C7.60331 1.56348 7.54137 1.54004 7.47607 1.54004H5.99449C5.87061 1.54004 5.81369 1.69406 5.90744 1.77441L11.7702 6.8637H1.97328C1.89962 6.8637 1.83936 6.92397 1.83936 6.99763V8.00209C1.83936 8.07575 1.89962 8.13602 1.97328 8.13602H11.7685L5.90576 13.2253C5.81201 13.3073 5.86893 13.4597 5.99282 13.4597H7.52462C7.55643 13.4597 7.58824 13.448 7.61168 13.4262L13.9766 7.905C14.0346 7.8546 14.0811 7.79235 14.1129 7.72246C14.1447 7.65257 14.1612 7.57666 14.1612 7.49986C14.1612 7.42306 14.1447 7.34715 14.1129 7.27726C14.0811 7.20737 14.0346 7.14512 13.9766 7.09473V7.09473Z" fill="white"/>
</svg>
