<svg width="186" height="154" viewBox="0 0 186 154" fill="none" xmlns="http://www.w3.org/2000/svg">
<path d="M119.906 34.4957L119.904 34.5056C119.752 35.2664 120.035 35.8945 120.59 36.6353C121.059 37.2607 121.868 37.6016 122.718 37.6016H126.801C128.111 37.6016 129.252 36.6167 129.416 35.3177L129.418 35.2998L129.421 35.282C129.827 33.2528 130.7 31.633 132.048 30.5232C133.396 29.413 135.169 28.854 137.299 28.854C141.586 28.854 143.508 31.1141 144.168 32.6419C145.212 34.7418 145.009 37.0782 143.725 38.7893C142.785 40.0438 141.826 40.8278 140.826 41.6453C140.54 41.8794 140.25 42.1162 139.957 42.3677L139.934 42.3872L139.909 42.4039C138.179 43.5569 136.64 44.7762 135.456 46.5649C134.275 48.3469 133.421 50.7338 133.133 54.2554C133.136 55.1561 133.318 55.7691 133.763 56.2143C134.252 56.7026 135.096 57.0401 135.742 57.0401H139.63C141.124 57.0401 142.241 55.8817 142.241 54.6247V54.6069L142.242 54.5891C142.34 53.2095 142.541 52.3217 143.005 51.6256C143.45 50.958 144.109 50.519 144.932 49.971L144.98 49.9394C145.13 49.8268 145.287 49.7111 145.449 49.5912C146.978 48.462 149.003 46.9667 150.882 44.2323L150.888 44.2238L150.894 44.2156C154.271 39.7121 154.655 33.5038 152.017 28.4164L152.007 28.3973L151.999 28.3775C149.759 22.9657 143.943 19.5511 137.298 19.5508L119.906 34.4957ZM119.906 34.4957L119.907 34.4857M119.906 34.4957L119.907 34.4857M119.907 34.4857C120.478 30.8735 122.044 27.1381 124.847 24.3116C127.64 21.4949 131.69 19.551 137.297 19.5508L119.907 34.4857Z" stroke="url(#paint0_linear_4_514)"/>
<path d="M143.602 67.4565C143.602 70.615 141.041 73.1766 137.881 73.1766C134.722 73.1766 132.161 70.6151 132.161 67.4565C132.161 64.2964 134.722 61.735 137.881 61.735C141.041 61.735 143.602 64.2964 143.602 67.4565Z" stroke="url(#paint1_linear_4_514)"/>
<path d="M89.9761 87.8681V63.8741H98.8902V82.8141V83.3141H99.3902H174.623H175.123V82.8141V9.91405V9.41405H174.623H99.1958H98.6958V9.91405V32.548H89.7817V5.05405C89.7817 2.42708 91.8778 0.5 94.3358 0.5H179.631L179.632 0.500143H179.678C182.28 0.500143 184.262 2.38506 185.204 5.13637L185.202 87.6742C185.202 90.3012 183.105 92.2283 180.647 92.2283H156.153H155.515L155.668 92.8479L169.078 147.265C169.079 147.267 169.079 147.27 169.08 147.272C169.608 149.753 168.187 152.179 165.769 152.697L165.707 152.711L165.65 152.739C165.381 152.873 165.109 152.88 164.707 152.88C162.584 152.88 160.855 151.655 160.332 149.565L146.141 92.8002L146.047 92.4215H145.656H129.521H129.131L129.036 92.8002L114.845 149.565L114.843 149.573L114.841 149.582C114.323 152.002 111.892 153.423 109.409 152.891L109.304 153.38L109.409 152.891C106.99 152.373 105.57 149.947 106.098 147.466C106.098 147.464 106.099 147.461 106.099 147.459L119.51 93.0418L119.662 92.4222H119.024H94.5302C91.9032 92.4222 89.9761 90.3261 89.9761 87.8681Z" stroke="url(#paint2_linear_4_514)"/>
<path d="M59.1492 54.9037H58.6465L58.6492 55.4063L58.8452 91.9538L58.8453 91.9734L58.8469 91.9929L63.3178 145.259L63.3181 145.262C63.682 149.261 60.7804 152.895 56.6015 153.271H56.0405C52.2272 153.271 48.9349 150.175 48.5677 146.338C48.5677 146.338 48.5676 146.337 48.5675 146.336L44.2912 95.2142L44.2529 94.7559H43.7929H40.4883H40.0284L39.9901 95.2142L35.7136 146.338C35.7135 146.338 35.7135 146.339 35.7134 146.34C35.3473 150.353 31.8859 153.442 27.7014 153.077C23.6881 152.712 20.5989 149.25 20.9632 145.065L20.9634 145.063L25.4342 91.7978L25.436 91.777V91.756V86.702L24.4891 86.4777C24.3417 86.7714 24.0319 87.0816 23.7407 87.2267L23.6885 87.2527L23.6437 87.29C22.5894 88.1679 21.1599 88.5357 19.8806 88.5357C17.8776 88.5357 15.7109 87.6231 14.4579 85.8335L14.4551 85.8296L1.8241 68.145C1.8234 68.144 1.8227 68.143 1.82199 68.1419C0.178504 65.7647 0.0158461 62.888 1.62538 60.5562C1.63987 60.5366 1.66036 60.5083 1.68689 60.4716C2.84021 58.8778 15.402 41.5187 42.2374 41.5187H96.2806C99.8746 41.5187 102.779 44.5818 102.778 48.211V48.2112C102.778 51.8229 99.6967 54.9037 96.0852 54.9037H59.1492ZM24.7223 77.2727L25.6292 78.5424V76.9821V58.9022V58.1289L24.924 58.4462C20.971 60.2249 18.0118 62.5954 16.0471 64.3628L15.715 64.6616L15.9747 65.0251L24.7223 77.2727ZM47.2042 75.5536L44.1719 53.5712H45.1536C45.51 53.5712 45.8249 53.3981 46.0409 53.1824C46.2569 52.9666 46.4306 52.6515 46.4306 52.2942V47.6282C46.4306 47.2719 46.2575 46.9569 46.0418 46.741C45.826 46.5249 45.5109 46.3512 45.1536 46.3512H39.3212C38.9648 46.3512 38.6499 46.5243 38.4339 46.74C38.2179 46.9558 38.0442 47.2709 38.0442 47.6282V52.2942C38.0442 52.6506 38.2173 52.9655 38.433 53.1815C38.6488 53.3975 38.9639 53.5712 39.3212 53.5712H40.3029L37.2706 75.5536L37.2659 75.5876V75.6219L37.2659 75.6371C37.2657 75.8395 37.2652 76.2103 37.5964 76.5487L41.283 80.6236L41.2914 80.6329L41.3002 80.6417C41.549 80.8905 41.8629 81.08 42.2368 81.08C42.6108 81.08 42.9247 80.8905 43.1735 80.6417L43.1823 80.6329L43.1907 80.6236L46.8779 76.5479C46.9782 76.4443 47.0431 76.3284 47.0857 76.2287C47.1011 76.1927 47.1144 76.1568 47.1259 76.1219H47.2826L47.2042 75.5536ZM47.2082 75.6471C47.2082 75.6461 47.2082 75.6464 47.2082 75.6474L47.2082 75.6471Z" stroke="url(#paint3_linear_4_514)"/>
<path d="M57.677 20.8005C57.677 29.3289 50.764 36.242 42.2355 36.242C33.7085 36.242 26.7954 29.3289 26.7954 20.8005C26.7954 12.2734 33.7085 5.36035 42.2355 5.36035C50.764 5.36035 57.677 12.2734 57.677 20.8005Z" stroke="url(#paint4_linear_4_514)"/>
<defs>
<linearGradient id="paint0_linear_4_514" x1="136.805" y1="19.0508" x2="136.805" y2="57.5401" gradientUnits="userSpaceOnUse">
<stop stop-color="#5AB4D6"/>
<stop offset="1" stop-color="#FFD419"/>
</linearGradient>
<linearGradient id="paint1_linear_4_514" x1="137.881" y1="61.235" x2="137.881" y2="73.6766" gradientUnits="userSpaceOnUse">
<stop stop-color="#5AB4D6"/>
<stop offset="1" stop-color="#FFD419"/>
</linearGradient>
<linearGradient id="paint2_linear_4_514" x1="137.493" y1="0" x2="137.493" y2="153.502" gradientUnits="userSpaceOnUse">
<stop stop-color="#5AB4D6"/>
<stop offset="1" stop-color="#FFD419"/>
</linearGradient>
<linearGradient id="paint3_linear_4_514" x1="51.6388" y1="41.0187" x2="51.6388" y2="153.771" gradientUnits="userSpaceOnUse">
<stop stop-color="#5AB4D6"/>
<stop offset="1" stop-color="#FFD419"/>
</linearGradient>
<linearGradient id="paint4_linear_4_514" x1="42.2362" y1="4.86035" x2="42.2362" y2="36.742" gradientUnits="userSpaceOnUse">
<stop stop-color="#5AB4D6"/>
<stop offset="1" stop-color="#FFD419"/>
</linearGradient>
</defs>
</svg>
