<svg width="65" height="158" viewBox="0 0 65 158" fill="none" xmlns="http://www.w3.org/2000/svg">
<path d="M54.6009 76.3001C54.6063 64.4119 53.0673 56.7967 51.2342 52.1545C51.017 51.6044 50.7979 51.0994 50.5783 50.6332L64.6169 87.679C64.4552 90.2059 62.1645 92.1576 59.4317 92.1566C59.3281 92.1566 59.2257 92.1535 59.1232 92.1484C56.2569 91.9967 54.0663 89.7478 54.2345 87.1272C54.4873 83.1751 54.6009 79.5761 54.6009 76.3001ZM54.6009 76.3001H55.1009M54.6009 76.3001H55.1009M55.1009 76.3001C55.1063 64.3747 53.5633 56.6914 51.6993 51.9709L51.6993 51.9708C51.3106 50.9866 50.9151 50.1415 50.5192 49.4011L49.5783 49.6368V138.606C49.5783 142.347 46.2471 145.452 42.0422 145.452C37.8382 145.452 34.5072 142.347 34.5072 138.606V84.9723V84.4723H34.0072H30.9949H30.4949L30.4949 84.9723L30.496 138.604C30.496 142.344 27.1648 145.449 22.9599 145.449C18.7559 145.449 15.4249 142.344 15.4249 138.604V49.6081L14.4839 49.3725M55.1009 76.3001L14.4839 49.3725M14.4839 49.3725C12.1763 53.6911 9.87568 61.8644 9.89797 76.2965M14.4839 49.3725L5.85835 91.648M5.85835 91.648C8.49098 91.5055 10.4176 89.4556 10.2698 87.1532C10.0142 83.1937 9.89798 79.5841 9.89797 76.2965M5.85835 91.648C5.76161 91.6527 5.6681 91.6555 5.57721 91.6555L5.85835 91.648ZM9.89797 76.2965C9.89797 76.2964 9.89797 76.2962 9.89797 76.2961H10.398L9.89798 76.2969C9.89798 76.2968 9.89797 76.2966 9.89797 76.2965ZM64.1179 87.6473C63.9754 89.8725 61.941 91.6575 59.4319 91.6566H59.4317C59.3381 91.6566 59.2442 91.6538 59.1485 91.6491C56.517 91.5092 54.5858 89.46 54.7334 87.1592L54.7335 87.1591C54.9869 83.1974 55.1009 79.5878 55.1009 76.3003L64.1179 87.6473ZM57.1605 42.768C61.3469 48.6142 64.4722 58.4151 64.5 76.3008L5.57702 91.6555C3.06575 91.6544 1.02979 89.8705 0.887644 87.6471L0.887621 87.6467C0.62209 83.5384 0.5 79.7649 0.5 76.2959C0.509126 62.8737 2.29524 54.0321 4.92906 47.9483L4.92965 47.9469C7.52473 41.9029 11.2127 38.539 14.5772 37.0114L14.5795 37.0103C16.0392 36.3387 17.374 36.0241 18.4326 35.8851L18.4732 35.8798L18.5124 35.8679C18.9654 35.7308 19.4467 35.6542 19.9478 35.6542H45.0545C45.559 35.6542 46.0401 35.7309 46.4938 35.8688L46.5333 35.8808L46.5742 35.8862C47.5868 36.0189 48.8479 36.3131 50.2283 36.9255L50.2284 36.9258L50.4222 37.0142C52.648 38.0296 55.0793 39.8719 57.1605 42.768Z" stroke="url(#paint0_linear_4_529)"/>
<path d="M32.5029 8.47253C36.871 8.47253 40.49 11.7207 40.49 15.8191C40.49 19.9177 36.8709 23.1647 32.5029 23.1647C28.1362 23.1647 24.516 19.9178 24.5159 15.8193L32.5029 8.47253ZM32.5029 8.47253C28.135 8.47253 24.5148 11.7216 24.5159 15.8191L32.5029 8.47253ZM19.1567 18.4781L19.0649 18.0942L18.6703 18.0943L15.9005 18.0947C15.7745 17.3477 15.7002 16.5907 15.7002 15.8196C15.7002 15.0487 15.7745 14.2911 15.9005 13.5445H18.6715H19.066L19.1578 13.1608C19.5054 11.7075 20.134 10.3499 20.9886 9.13106L21.2407 8.77147L20.9166 8.47506L18.9987 6.72089C20.0013 5.48659 21.2017 4.39467 22.5608 3.48252L24.5361 5.2883L24.8082 5.53704L25.1262 5.35065C26.4653 4.56595 27.9611 3.98543 29.5652 3.66459L29.9671 3.5842V3.1743V0.688826C30.7981 0.570255 31.6426 0.500885 32.5027 0.500885C33.3628 0.500885 34.207 0.57022 35.0364 0.688713V3.1743V3.5845L35.4387 3.66466C37.0436 3.98448 38.5392 4.56495 39.8784 5.34964L40.1964 5.53597L40.4685 5.28736L42.4439 3.48235C43.8027 4.39361 45.0032 5.48627 46.0066 6.72152L44.0868 8.47568L43.7623 8.77225L44.0149 9.13209C44.8706 10.351 45.5001 11.7074 45.8465 13.1602L45.9381 13.5442H46.3329H49.1042C49.2306 14.2908 49.3042 15.0479 49.3042 15.8194C49.3042 16.5907 49.2306 17.3484 49.1043 18.0945H46.3329H45.9378L45.8464 18.4789C45.5012 19.9312 44.8707 21.2875 44.0149 22.5067L43.7622 22.8666L44.0869 23.1632L46.0065 24.9163C45.0034 26.1512 43.8029 27.2431 42.4438 28.1553L40.4685 26.3504L40.1963 26.1017L39.8782 26.2882C38.5405 27.0728 37.0437 27.6533 35.4384 27.9742L35.0364 28.0545V28.4645V30.95C34.2061 31.0685 33.3617 31.1379 32.5016 31.1379C31.6415 31.1379 30.797 31.0685 29.966 30.9499V28.4645V28.0548L29.5643 27.9742C27.9601 27.6524 26.4643 27.0718 25.1251 26.2871L24.807 26.1007L24.5349 26.3494L22.5595 28.1553C21.2006 27.2439 20.0002 26.1515 18.9977 24.9178L20.9155 23.1637L21.2395 22.8673L20.9874 22.5077C20.1328 21.2889 19.5042 19.9323 19.1567 18.4781Z" stroke="url(#paint1_linear_4_529)"/>
<mask id="path-3-inside-1_4_529" fill="white">
<path d="M36.1441 15.8188C36.1441 17.6575 34.5137 19.1488 32.5015 19.1488C30.4903 19.1488 28.8589 17.6574 28.8589 15.8188C28.8589 13.9792 30.4904 12.4888 32.5015 12.4888C34.5138 12.4888 36.1441 13.9793 36.1441 15.8188"/>
</mask>
<path d="M35.1441 15.8188C35.1441 17.0228 34.0476 18.1488 32.5015 18.1488V20.1488C34.9798 20.1488 37.1441 18.2921 37.1441 15.8188H35.1441ZM32.5015 18.1488C30.9562 18.1488 29.8589 17.0225 29.8589 15.8188H27.8589C27.8589 18.2922 30.0243 20.1488 32.5015 20.1488V18.1488ZM29.8589 15.8188C29.8589 14.6142 30.9561 13.4888 32.5015 13.4888V11.4888C30.0246 11.4888 27.8589 13.3441 27.8589 15.8188H29.8589ZM32.5015 13.4888C34.0479 13.4888 35.1441 14.6141 35.1441 15.8188H37.1441C37.1441 13.3445 34.9798 11.4888 32.5015 11.4888V13.4888Z" fill="url(#paint2_linear_4_529)" mask="url(#path-3-inside-1_4_529)"/>
<mask id="path-5-inside-2_4_529" fill="white">
<path d="M26.2912 156.843V157.833H25.721V157.076C25.721 156.937 25.7165 156.841 25.7076 156.786C25.7009 156.733 25.6909 156.693 25.6764 156.668C25.6519 156.636 25.6207 156.61 25.5829 156.591C25.5439 156.573 25.5005 156.562 25.4537 156.562C25.3345 156.562 25.241 156.605 25.1731 156.689C25.1074 156.77 25.0751 156.886 25.0751 157.035V157.833H24.5049V156.208H25.0751V156.448C25.1575 156.354 25.2466 156.285 25.3423 156.241C25.4403 156.195 25.5472 156.172 25.6631 156.172C25.868 156.172 26.0239 156.229 26.1308 156.343C26.2377 156.457 26.2911 156.624 26.2911 156.843L26.2912 156.843Z"/>
</mask>
<path d="M26.2912 156.843H27.2912V154.28L25.5553 156.166L26.2912 156.843ZM26.2912 157.833V158.833H27.2912V157.833H26.2912ZM25.721 157.833H24.721V158.833H25.721V157.833ZM25.7076 156.786L24.7152 156.909L24.7175 156.928L24.7205 156.946L25.7076 156.786ZM25.6764 156.668L26.5367 156.159L26.5087 156.111L26.4756 156.067L25.6764 156.668ZM25.5829 156.591L26.0378 155.7L26.0232 155.693L26.0084 155.686L25.5829 156.591ZM25.1731 156.689L24.3974 156.058L24.3948 156.061L25.1731 156.689ZM25.0751 157.833V158.833H26.0751V157.833H25.0751ZM24.5049 157.833H23.5049V158.833H24.5049V157.833ZM24.5049 156.208V155.208H23.5049V156.208H24.5049ZM25.0751 156.208H26.0751V155.208H25.0751V156.208ZM25.0751 156.448H24.0751V159.121L25.8294 157.105L25.0751 156.448ZM25.3423 156.241L25.7581 157.15L25.7658 157.147L25.3423 156.241ZM26.2911 156.843H25.2911V159.407L27.027 157.521L26.2911 156.843ZM25.2912 156.843V157.833H27.2912V156.843H25.2912ZM26.2912 156.833H25.721V158.833H26.2912V156.833ZM26.721 157.833V157.076H24.721V157.833H26.721ZM26.721 157.076C26.721 156.939 26.718 156.77 26.6947 156.627L24.7205 156.946C24.7178 156.93 24.7171 156.921 24.7174 156.924C24.7175 156.925 24.7181 156.932 24.7187 156.946C24.72 156.974 24.721 157.016 24.721 157.076H26.721ZM26.7 156.664C26.6909 156.59 26.6635 156.373 26.5367 156.159L24.8161 157.178C24.7586 157.081 24.7355 157 24.7274 156.969C24.7179 156.933 24.7153 156.91 24.7152 156.909L26.7 156.664ZM26.4756 156.067C26.3521 155.903 26.1989 155.783 26.0378 155.7L25.1279 157.482C25.0426 157.438 24.9518 157.369 24.8772 157.269L26.4756 156.067ZM26.0084 155.686C25.8372 155.606 25.6486 155.562 25.4537 155.562V157.562C25.3524 157.562 25.2506 157.54 25.1574 157.496L26.0084 155.686ZM25.4537 155.562C25.0633 155.562 24.6732 155.719 24.3974 156.058L25.9487 157.32C25.8905 157.391 25.8086 157.459 25.7058 157.506C25.6053 157.551 25.5151 157.562 25.4537 157.562V155.562ZM24.3948 156.061C24.1335 156.385 24.0751 156.757 24.0751 157.035H26.0751C26.0751 157.015 26.0812 157.156 25.9514 157.317L24.3948 156.061ZM24.0751 157.035V157.833H26.0751V157.035H24.0751ZM25.0751 156.833H24.5049V158.833H25.0751V156.833ZM25.5049 157.833V156.208H23.5049V157.833H25.5049ZM24.5049 157.208H25.0751V155.208H24.5049V157.208ZM24.0751 156.208V156.448H26.0751V156.208H24.0751ZM25.8294 157.105C25.8359 157.097 25.8143 157.125 25.7581 157.15L24.9266 155.331C24.6788 155.445 24.479 155.61 24.3208 155.792L25.8294 157.105ZM25.7658 157.147C25.747 157.155 25.7272 157.162 25.7077 157.166C25.6884 157.17 25.673 157.172 25.6631 157.172V155.172C25.4082 155.172 25.1559 155.224 24.9188 155.335L25.7658 157.147ZM25.6631 157.172C25.6748 157.172 25.6447 157.173 25.5902 157.153C25.5307 157.132 25.4614 157.091 25.4013 157.027L26.8603 155.659C26.5104 155.285 26.0541 155.172 25.6631 155.172V157.172ZM25.4013 157.027C25.3415 156.963 25.3117 156.899 25.2987 156.858C25.287 156.822 25.2911 156.812 25.2911 156.843H27.2911C27.2911 156.473 27.2009 156.022 26.8603 155.659L25.4013 157.027ZM27.027 157.521L27.027 157.521L25.5553 156.166L25.5553 156.166L27.027 157.521Z" fill="url(#paint3_linear_4_529)" mask="url(#path-5-inside-2_4_529)"/>
<defs>
<linearGradient id="paint0_linear_4_529" x1="32.5" y1="35.1542" x2="32.5" y2="145.952" gradientUnits="userSpaceOnUse">
<stop stop-color="#5AB4D6"/>
<stop offset="1" stop-color="#FFD419"/>
</linearGradient>
<linearGradient id="paint1_linear_4_529" x1="32.5022" y1="0.00088501" x2="32.5022" y2="31.6379" gradientUnits="userSpaceOnUse">
<stop stop-color="#5AB4D6"/>
<stop offset="1" stop-color="#FFD419"/>
</linearGradient>
<linearGradient id="paint2_linear_4_529" x1="32.5015" y1="12.4888" x2="32.5015" y2="19.1488" gradientUnits="userSpaceOnUse">
<stop stop-color="#5AB4D6"/>
<stop offset="1" stop-color="#FFD419"/>
</linearGradient>
<linearGradient id="paint3_linear_4_529" x1="25.398" y1="156.172" x2="25.398" y2="157.833" gradientUnits="userSpaceOnUse">
<stop stop-color="#5AB4D6"/>
<stop offset="1" stop-color="#FFD419"/>
</linearGradient>
</defs>
</svg>
