<svg width="38" height="38" viewBox="0 0 38 38" fill="none" xmlns="http://www.w3.org/2000/svg">
<path d="M8.83643 16.0711V2.85389C8.83643 2.63543 8.83643 2.5262 8.85922 2.42128C8.87066 2.3686 8.88635 2.31692 8.90613 2.26676C8.94551 2.16688 9.00623 2.07609 9.12768 1.8945C9.21408 1.76531 9.25728 1.70071 9.3094 1.644C9.33562 1.61547 9.36347 1.58849 9.39282 1.5632C9.45117 1.51291 9.51711 1.47179 9.64898 1.38955L9.64898 1.38955L10.1326 1.08797C10.3525 0.950846 10.4624 0.882283 10.5847 0.844082C10.707 0.805881 10.8365 0.799689 11.0953 0.787303L11.4223 0.771654L11.9144 0.794059C12.1131 0.803105 12.2124 0.807628 12.3084 0.831349C12.4043 0.85507 12.4943 0.897377 12.6743 0.981992L12.7886 1.03571C12.9404 1.10709 13.0163 1.14278 13.085 1.19035C13.1536 1.23791 13.2137 1.29648 13.3338 1.4136L13.3889 1.46728L13.3889 1.46729C13.4497 1.52659 13.4801 1.55624 13.5079 1.58832C13.5357 1.6204 13.5606 1.65476 13.6106 1.72349L13.6692 1.80415L13.6692 1.80415C13.8587 2.06487 13.9535 2.19522 14.0024 2.3459C14.0514 2.49658 14.0514 2.65774 14.0514 2.98005V4.48392C14.0514 6.60241 14.0514 7.66166 14.6801 7.91307C15.3088 8.16448 16.0392 7.39731 17.4999 5.86298L21.9857 1.15123C22.1464 0.982473 22.2267 0.898095 22.3233 0.834814C22.4199 0.771533 22.5293 0.731568 22.7482 0.651639L22.8303 0.621667C23.1785 0.494493 23.3526 0.430906 23.5339 0.432443C23.7151 0.43398 23.8881 0.500512 24.2342 0.633575L24.3879 0.692681L24.3879 0.692685C24.5429 0.752311 24.6205 0.782125 24.6917 0.824075C24.763 0.866027 24.8267 0.919357 24.954 1.02602L25.382 1.38438C25.4663 1.45492 25.5084 1.49019 25.5461 1.5295C25.5886 1.57381 25.627 1.62193 25.6607 1.67327C25.6906 1.71882 25.7155 1.76774 25.7655 1.86558L25.7655 1.86562C25.8478 2.027 25.889 2.10769 25.9148 2.19242C25.9438 2.28789 25.9584 2.38716 25.958 2.48695C25.9577 2.57551 25.9415 2.66463 25.909 2.84288L25.6839 4.07815C25.6264 4.39396 25.5976 4.55186 25.5229 4.69087C25.4482 4.82987 25.3323 4.94096 25.1006 5.16315L12.2207 17.5146C10.7747 18.9013 10.0518 19.5946 9.44409 19.3354C8.83643 19.0762 8.83643 18.0745 8.83643 16.0711Z" fill="#78C192"/>
<path d="M0.912049 36.7662L0.623281 36.5346C0.45276 36.3978 0.320223 36.2195 0.238369 36.0168C0.177035 35.865 0.145508 35.7027 0.145508 35.5389V35.5104C0.145508 35.4235 0.153474 35.3367 0.169307 35.2512L0.195116 35.1119C0.304589 34.5209 0.591045 33.977 1.01654 33.5525L33.5686 1.0704C34.0118 0.628122 34.6124 0.37973 35.2385 0.37973H35.3788C35.9151 0.37973 36.4296 0.592492 36.8092 0.971333C36.9917 1.15345 37.1378 1.36875 37.2395 1.60566L37.3291 1.81427C37.5945 2.43224 37.6572 3.12477 37.511 3.78125C37.376 4.38769 37.0682 4.94874 36.627 5.38611L4.97414 36.7603C4.7986 36.9343 4.59571 37.0784 4.37355 37.1867C4.06487 37.3373 3.72596 37.4155 3.38253 37.4155H3.06912H2.82904C2.4357 37.4155 2.04583 37.3418 1.67959 37.1983L1.61471 37.1729C1.36128 37.0736 1.12437 36.9365 0.912049 36.7662Z" fill="#5AB4D6"/>
<path d="M36.7109 27.6638L28.3308 36.4061C27.9446 36.809 27.4618 37.1066 26.9284 37.2706C26.6163 37.3666 26.2917 37.4153 25.9653 37.4153H25.6224H25.2577C24.947 37.4153 24.6392 37.3543 24.352 37.2357L24.3216 37.2232C23.9988 37.0899 23.7116 36.8828 23.4833 36.6185L23.3773 36.4958C23.206 36.2976 23.0864 36.0601 23.0291 35.8045C22.9844 35.6052 22.9786 35.3991 23.0119 35.1975L23.07 34.8463C23.1008 34.6599 23.158 34.4789 23.24 34.3087C23.3432 34.0946 23.484 33.9007 23.6557 33.7364L33.4231 24.3877C33.8258 24.0023 34.342 23.7569 34.8951 23.6879L35.0535 23.6682C35.5253 23.6093 36.0041 23.7105 36.4121 23.9548C36.7111 24.1338 36.962 24.384 37.1416 24.6827C37.3867 25.0903 37.4878 25.5685 37.4287 26.0405L37.409 26.198C37.3399 26.749 37.0952 27.263 36.7109 27.6638Z" fill="#6D3979"/>
<path d="M36.3813 16.6896L16.2905 36.3334C16.1092 36.5107 15.9005 36.6577 15.6726 36.7688C15.3494 36.9263 14.9946 37.0082 14.6351 37.0082H14.3461H13.9564C13.6641 37.0082 13.3766 36.934 13.1209 36.7924L13.0958 36.7785C12.8714 36.6544 12.6801 36.4784 12.5376 36.2652C12.3945 36.0509 12.305 35.8054 12.2766 35.5494L12.2578 35.3796V34.9724C12.2578 34.7049 12.3215 34.4411 12.4436 34.203L12.5067 34.0801C12.6185 33.8621 12.765 33.6638 12.9404 33.4929L34.5783 12.4194C34.7933 12.2099 35.0912 12.1082 35.3895 12.1424C35.5582 12.1618 35.7192 12.2238 35.8573 12.3226L36.1253 12.5143C36.3331 12.663 36.5143 12.8456 36.6613 13.0545L36.7452 13.1738C36.848 13.3199 36.9381 13.4745 37.0146 13.636L37.1319 13.8839C37.2482 14.1295 37.31 14.3973 37.3132 14.6691C37.316 14.9023 37.2755 15.1341 37.1937 15.3525L37.115 15.563C36.9561 15.9878 36.7056 16.3725 36.3813 16.6896Z" fill="#5773A7"/>
<path d="M0.148497 2.94494L0.543526 26.7928C0.557766 27.6525 1.57845 28.0946 2.21527 27.5169L5.02834 24.9651C5.23965 24.7734 5.35902 24.5006 5.35642 24.2153L5.15958 2.6369C5.15816 2.48128 5.12044 2.32813 5.04941 2.18965L4.8144 1.73145C4.76497 1.63508 4.70021 1.54738 4.62265 1.47177L4.49483 1.34717C4.38131 1.2365 4.2431 1.15441 4.0916 1.10767L3.98352 1.07432C3.88802 1.04486 3.78865 1.02988 3.68871 1.02988H1.96574C1.91123 1.02988 1.85682 1.03433 1.80304 1.0432L1.29104 1.12763C1.0891 1.16093 0.902247 1.25538 0.755697 1.39825L0.729905 1.42339C0.620214 1.53032 0.536556 1.66103 0.485386 1.80542L0.205798 2.59435C0.165927 2.70686 0.14652 2.82559 0.148497 2.94494Z" fill="#FFD419"/>
</svg>
