<svg width="61" height="60" viewBox="0 0 61 60" fill="none" xmlns="http://www.w3.org/2000/svg">
<path d="M36.3554 46.62C36.3704 46.7961 36.2402 46.9511 36.0641 46.9665C35.888 46.9816 35.7329 46.8514 35.7175 46.6753L35.683 46.2792L30.7246 42.3209L25.3541 46.608L25.3484 46.6753C25.3334 46.8514 25.178 46.9816 25.0019 46.9665C24.8258 46.9515 24.6955 46.7961 24.7106 46.62L25.5611 36.8194C24.3547 36.7441 23.2692 36.2235 22.4666 35.4209C21.597 34.5513 21.0587 33.349 21.0587 32.0218C21.0587 30.6946 21.597 29.4922 22.4666 28.6227C23.3361 27.7533 24.5385 27.2148 25.8657 27.2148C26.0431 27.2148 26.2193 27.2245 26.392 27.2436L26.7064 23.6205L23.2544 23.5997V25.6508C23.2544 25.8276 23.1111 25.9709 22.9344 25.9709H21.283C21.1062 25.9709 20.9629 25.8276 20.9629 25.6508V18.6662C20.9629 18.4894 21.1062 18.3461 21.283 18.3461H22.9344C23.1111 18.3461 23.2544 18.4894 23.2544 18.6662V22.9622L26.7617 22.983L27.5546 13.8424H27.5274C26.7995 13.8424 26.1299 13.588 25.6026 13.1631C25.0648 12.7301 24.6771 12.1208 24.5258 11.4223C24.5034 11.3192 24.486 11.211 24.4739 11.0982C24.4619 10.986 24.4555 10.8766 24.4555 10.7694C24.4555 9.92131 24.7994 9.15352 25.3555 8.59741C25.9116 8.04129 26.6794 7.69741 27.5275 7.69741C27.717 7.69741 27.9035 7.71515 28.0836 7.74797L28.0974 7.59361C28.1084 7.42721 28.247 7.29528 28.4165 7.29528H30.2141L30.2044 1.34954C30.2044 1.17342 30.3467 1.03113 30.5228 1.03113C30.699 1.03113 30.8413 1.17343 30.8413 1.34954L30.851 7.29528H32.6493C32.814 7.29528 32.9533 7.42084 32.9677 7.58792L33.4917 13.6255H35.0285V10.2592C35.0285 10.0824 35.1718 9.93911 35.3486 9.93911H36.4703C36.6471 9.93911 36.7904 10.0824 36.7904 10.2592V15.0056C36.7904 15.1824 36.6471 15.3257 36.4703 15.3257H35.3486C35.1718 15.3257 35.0285 15.1824 35.0285 15.0056V14.2633H33.5476L33.8366 17.5914C34.1078 17.5442 34.387 17.5195 34.6716 17.5195C35.9988 17.5195 37.2012 18.0578 38.0707 18.9274C38.9403 19.797 39.4787 20.9993 39.4787 22.3265C39.4787 23.6537 38.9403 24.8561 38.0707 25.7256C37.2011 26.5951 35.9988 27.1335 34.6716 27.1335H34.6643L35.6004 37.9232C35.6045 37.9423 35.6061 37.9624 35.6061 37.9825V37.9865L36.3548 46.6188L36.3554 46.62ZM25.9454 10.3843C25.9199 10.4914 25.8118 10.5571 25.7046 10.5316C25.5975 10.5062 25.5319 10.398 25.5573 10.2909C25.6484 9.91654 25.8429 9.58273 26.1084 9.3229C26.3739 9.06274 26.7118 8.87491 27.0878 8.79154C27.1949 8.76743 27.3014 8.8354 27.3255 8.94288C27.3496 9.05002 27.2816 9.1565 27.1742 9.1806C26.8725 9.24689 26.6023 9.39824 26.3887 9.60717C26.1744 9.81676 26.0184 10.0846 25.9454 10.3846L25.9454 10.3843ZM25.866 35.0786C25.9765 35.0786 26.0659 35.1683 26.0659 35.2785C26.0659 35.389 25.9762 35.4783 25.866 35.4783C25.1716 35.4783 24.525 35.2728 23.983 34.9199C23.4238 34.5559 22.9765 34.0343 22.7036 33.4181C22.6587 33.3174 22.7053 33.1988 22.806 33.155C22.9068 33.1101 23.0253 33.1567 23.0692 33.2574C23.3099 33.8022 23.706 34.2639 24.1996 34.5853C24.6781 34.8974 25.251 35.0782 25.866 35.0782L25.866 35.0786ZM35.346 19.2686C35.2379 19.2455 35.1692 19.139 35.1933 19.0308C35.2164 18.9227 35.3229 18.8541 35.4311 18.8782C36.1549 19.0366 36.7958 19.4182 37.2783 19.9463C37.7574 20.4703 38.0809 21.1399 38.1743 21.8799C38.188 21.9887 38.111 22.0888 38.0015 22.1022C37.8927 22.1159 37.7926 22.0389 37.7792 21.9295C37.6961 21.2725 37.4095 20.6789 36.9846 20.2141C36.5567 19.7461 35.9886 19.4086 35.3464 19.2676L35.346 19.2686ZM32.558 13.6262L30.5899 11.0212C30.529 11.7692 30.2012 12.4412 29.7003 12.9421C29.4066 13.2357 29.0531 13.4708 28.6603 13.6261L32.558 13.6262ZM30.4931 9.96386L30.5547 9.91732L32.0179 7.93654H28.7156C29.0869 8.0919 29.4204 8.31824 29.7002 8.59816C30.0729 8.97082 30.3508 9.4399 30.4931 9.96393L30.4931 9.96386ZM30.9562 10.447L32.7843 12.8661L32.4043 8.48594L30.9561 10.4467L30.9562 10.447ZM29.2472 9.05115C28.8073 8.61119 28.1992 8.33898 27.5279 8.33898C26.8566 8.33898 26.2485 8.61086 25.8085 9.05115C25.3686 9.4911 25.0964 10.0992 25.0964 10.7705C25.0964 10.8632 25.101 10.9506 25.1091 11.0313C25.1178 11.1154 25.1322 11.2011 25.1506 11.2875C25.2705 11.8402 25.5778 12.3234 26.0027 12.6649C26.4196 13.001 26.9499 13.2016 27.5275 13.2016C28.1988 13.2016 28.8069 12.9297 29.2468 12.4894C29.6868 12.0495 29.959 11.4414 29.959 10.7701C29.959 10.0988 29.6871 9.49072 29.2468 9.05075L29.2472 9.05115ZM31.0335 19.1851L30.5878 18.5058L27.6448 22.988L29.9111 23.0018C29.9038 22.9489 29.8974 22.8963 29.8921 22.8427C29.8736 22.6693 29.8639 22.4979 29.8639 22.3284C29.8639 21.1267 30.3049 20.0286 31.0335 19.1862L31.0335 19.1851ZM30.2055 17.9235L28.1192 14.7461L27.484 22.0693L30.2058 17.9236L30.2055 17.9235ZM28.5679 14.2652L30.5878 17.3413L32.6078 14.2652H28.5679ZM30.9702 17.9235L31.4935 18.7211C31.9854 18.2868 32.568 17.9523 33.2078 17.7484L32.9597 14.8931L30.9702 17.9242V17.9235ZM36.1509 10.5802H35.6694V14.6864H36.1509V10.5802ZM22.6149 18.9859H21.6037V25.3307H22.6149V18.9859ZM33.7226 29.8887L27.3184 23.9808L27.0258 27.3561C27.8873 27.5697 28.6577 28.0154 29.2658 28.6234C29.6281 28.9857 29.9321 29.4049 30.1651 29.8673L33.7226 29.888L33.7226 29.8887ZM27.8779 23.6279L34.2268 29.4846L34.0188 27.0919C33.1326 26.9711 32.323 26.6088 31.6587 26.0734C30.894 25.4567 30.3211 24.6109 30.0465 23.6406L27.8779 23.6279ZM37.6185 19.3813C36.8641 18.627 35.8225 18.1606 34.672 18.1606C33.5209 18.1606 32.4793 18.627 31.7256 19.3813C30.9713 20.1357 30.5049 21.1773 30.5049 22.3278C30.5049 22.4831 30.5129 22.6318 30.528 22.7741C30.543 22.9204 30.5672 23.0667 30.5993 23.2134C30.8042 24.1606 31.3312 24.9879 32.0594 25.5749C32.7739 26.1501 33.6827 26.4949 34.673 26.4949C35.8242 26.4949 36.8658 26.0285 37.6195 25.2742C38.3738 24.5198 38.8402 23.4782 38.8402 22.3278C38.8402 21.1766 38.3738 20.135 37.6195 19.3813H37.6185ZM25.7993 36.1891C25.8425 36.173 25.8897 36.166 25.9393 36.17C25.9664 36.1723 25.9929 36.178 26.0186 36.1867C26.7522 36.1603 27.4386 35.9443 28.0282 35.586L29.0835 34.6723C29.6778 33.9525 30.0348 33.029 30.0348 32.0219C30.0348 31.454 29.9213 30.9116 29.7147 30.4177C29.6538 30.3608 29.6146 30.2808 29.6122 30.1921C29.4083 29.7762 29.1378 29.3992 28.8137 29.0751C28.0593 28.3208 27.0177 27.8544 25.8673 27.8544C24.7161 27.8544 23.6745 28.3208 22.9208 29.0751C22.1665 29.8295 21.7001 30.8711 21.7001 32.0215C21.7001 33.1727 22.1665 34.2143 22.9208 34.968C23.6601 35.7073 24.6769 36.1703 25.801 36.188L25.7993 36.1891ZM26.2041 36.8179L26.1713 37.1932L26.6682 36.7629C26.5155 36.7884 26.3608 36.8068 26.2041 36.8182V36.8179ZM30.4872 33.3515L30.5471 33.4034L33.8703 30.5259L30.4293 30.5059C30.5876 30.9826 30.6734 31.4923 30.6734 32.022C30.6734 32.4837 30.6084 32.9293 30.4869 33.3516L30.4872 33.3515ZM29.548 35.113C29.4583 35.2195 29.3639 35.3226 29.2658 35.421C29.0043 35.6825 28.713 35.9139 28.3969 36.1098L26.6273 37.6426L34.4923 37.6627L30.5484 34.2475L29.5493 35.113L29.548 35.113ZM31.0353 33.8259L34.8928 37.1668L34.3538 30.9525L31.0353 33.8259ZM35.608 45.4008L35.0415 38.8744L31.2376 41.9113L35.608 45.4001L35.608 45.4008ZM30.2137 41.9119L26.0512 38.5888L25.4311 45.7296L30.2134 41.9119H30.2137ZM26.688 38.2798L30.7256 41.5031L34.7367 38.3005L26.688 38.2798Z" fill="#FAFAFA"/>
<path d="M6.22338 48.0121H6.22204H6.2207V48.0107V48.0094H6.22204H6.22338H6.22204V48.0107V48.0121H6.22338V48.0107V48.0121Z" fill="#FAFAFA"/>
<path d="M6.22497 48.0107V48.0121H6.22363V48.0094H6.22497V48.0107V48.0094V48.0107Z" fill="#FAFAFA"/>
<path d="M6.22826 48.0107H6.22693V48.0121C6.2276 48.0121 6.22826 48.0117 6.22826 48.0107V48.0121H6.22693H6.22559V48.0107L6.22693 48.0094V48.0107H6.22826Z" fill="#FAFAFA"/>
<path d="M6.22986 48.0107V48.0121V48.0107ZM6.23119 48.0107V48.0121H6.22986H6.22852V48.0107H6.22986H6.22852V48.0094H6.22986V48.0107H6.23119Z" fill="#FAFAFA"/>
<path d="M6.2323 48.0094V48.0107V48.0121H6.23096V48.0107V48.0094H6.2323Z" fill="#FAFAFA"/>
<path d="M6.23559 48.0107H6.23425V48.0121C6.23492 48.0121 6.23559 48.0117 6.23559 48.0107V48.0121H6.23425H6.23291V48.0107L6.23425 48.0094V48.0107H6.23559Z" fill="#FAFAFA"/>
<path d="M6.23718 48.0107V48.0094H6.23852V48.0121H6.23718H6.23584V48.0107L6.23718 48.0094V48.0107ZM6.23718 48.0121V48.0107V48.0121Z" fill="#FAFAFA"/>
<path d="M6.24109 48.0121V48.0107V48.0121ZM6.24109 48.0107V48.0094C6.24176 48.0094 6.24242 48.0101 6.24242 48.0107V48.0121H6.24109H6.23975V48.0094H6.24109V48.0107Z" fill="#FAFAFA"/>
<path d="M6.24268 48.0094H6.24401V48.0107V48.0094H6.24535L6.24401 48.0121V48.0134H6.24268V48.0121H6.24401L6.24268 48.0094Z" fill="#FAFAFA"/>
<path d="M6.24792 48.0094V48.0107V48.0121H6.24926V48.0107C6.24926 48.0101 6.24859 48.0094 6.24792 48.0094ZM6.24792 48.0094H6.24926V48.0107V48.0121H6.24792H6.24658V48.0107V48.0094H6.24792Z" fill="#FAFAFA"/>
<path d="M6.25 48.0094H6.25134V48.0121H6.25V48.0094Z" fill="#FAFAFA"/>
<path d="M6.25414 48.0107H6.2528V48.0121C6.25347 48.0121 6.25414 48.0117 6.25414 48.0107V48.0121H6.2528H6.25146V48.0107L6.2528 48.0094V48.0107H6.25414Z" fill="#FAFAFA"/>
<path d="M6.25707 48.0107V48.0121H6.25573V48.0107V48.0121H6.25439V48.0094H6.25573V48.0107V48.0094C6.2564 48.0094 6.25707 48.0101 6.25707 48.0107Z" fill="#FAFAFA"/>
<path d="M6.25866 48.0107V48.0121V48.0107ZM6.26 48.0107V48.0121H6.25866H6.25732V48.0107H6.25866H6.25732V48.0094H6.25866V48.0107H6.26Z" fill="#FAFAFA"/>
<path d="M6.26123 48.0094H6.26257H6.26391V48.0107H6.26257V48.0121H6.26123V48.0094ZM6.26257 48.0094V48.0107V48.0094Z" fill="#FAFAFA"/>
<path d="M6.2655 48.0107V48.0121V48.0107ZM6.26684 48.0107V48.0121H6.2655H6.26416V48.0107H6.2655H6.26416V48.0094H6.2655V48.0107H6.26684Z" fill="#FAFAFA"/>
<path d="M6.26977 48.0107V48.0121H6.26843V48.0107V48.0121H6.26709V48.0094H6.26843V48.0107V48.0094C6.2691 48.0094 6.26977 48.0101 6.26977 48.0107Z" fill="#FAFAFA"/>
<path d="M6.27087 48.0107V48.0121V48.0107ZM6.27221 48.0107V48.0121H6.27087H6.26953V48.0107H6.27087H6.26953V48.0094H6.27087V48.0107H6.27221Z" fill="#FAFAFA"/>
<path d="M6.27514 48.0094V48.0107H6.2738C6.27447 48.0107 6.27514 48.0114 6.27514 48.0121H6.2738H6.27246H6.2738V48.0107H6.27246L6.2738 48.0094H6.27514Z" fill="#FAFAFA"/>
<path d="M6.27575 48.0107V48.0121V48.0107ZM6.27575 48.0094V48.0107H6.27709C6.27709 48.0117 6.27642 48.0121 6.27575 48.0121H6.27441V48.0107L6.27575 48.0094Z" fill="#FAFAFA"/>
<path d="M6.27783 48.0094H6.27917V48.0107V48.0094H6.28051L6.27917 48.0121L6.27783 48.0094Z" fill="#FAFAFA"/>
<path d="M6.28246 48.0094V48.0107H6.28112C6.28179 48.0107 6.28246 48.0114 6.28246 48.0121H6.28112H6.27979H6.28112V48.0107H6.27979L6.28112 48.0094H6.28246Z" fill="#FAFAFA"/>
<path d="M6.28271 48.0094H6.28405V48.0107V48.0094H6.28539L6.28405 48.0107L6.28539 48.0121H6.28405V48.0107V48.0121H6.28271V48.0094Z" fill="#FAFAFA"/>
<path d="M6.2865 48.0107V48.0121V48.0107ZM6.28784 48.0107V48.0121H6.2865H6.28516V48.0107H6.2865H6.28516V48.0094H6.2865V48.0107H6.28784Z" fill="#FAFAFA"/>
<path d="M6.22204 48.0134V48.0161H6.2207V48.0134H6.22204Z" fill="#FAFAFA"/>
<path d="M6.22351 48.0148V48.0161H6.22217V48.0134H6.22351V48.0148V48.0134V48.0148Z" fill="#FAFAFA"/>
<path d="M6.22595 48.0148V48.0161V48.0148ZM6.22595 48.0134V48.0148H6.22729C6.22729 48.0158 6.22662 48.0161 6.22595 48.0161H6.22461V48.0148L6.22595 48.0134Z" fill="#FAFAFA"/>
<path d="M6.22973 48.0148V48.0134C6.2304 48.0134 6.23107 48.0141 6.23107 48.0148V48.0161H6.22973V48.0148V48.0161H6.22839V48.0148V48.0161H6.22705V48.0134H6.22839V48.0148V48.0134V48.0148H6.22973Z" fill="#FAFAFA"/>
<path d="M6.23425 48.0134V48.0148V48.0161H6.23291V48.0148V48.0134H6.23425Z" fill="#FAFAFA"/>
<path d="M6.23754 48.0148V48.0161H6.2362V48.0148V48.0161H6.23486V48.0134H6.2362V48.0148V48.0134C6.23687 48.0134 6.23754 48.0141 6.23754 48.0148Z" fill="#FAFAFA"/>
<path d="M6.23998 48.0148H6.23864V48.0161C6.23931 48.0161 6.23998 48.0158 6.23998 48.0148V48.0161H6.23864H6.2373V48.0148L6.23864 48.0134V48.0148H6.23998Z" fill="#FAFAFA"/>
<path d="M6.2417 48.0134H6.24304L6.24438 48.0148V48.0134V48.0161L6.24304 48.0148V48.0161H6.2417V48.0134Z" fill="#FAFAFA"/>
<path d="M6.24597 48.0148V48.0161V48.0148ZM6.24597 48.0134V48.0148H6.24731C6.24731 48.0158 6.24664 48.0161 6.24597 48.0161H6.24463V48.0148L6.24597 48.0134Z" fill="#FAFAFA"/>
<path d="M6.24805 48.0148V48.0134H6.24939V48.0148V48.0161V48.0148V48.0134H6.25073V48.0161H6.24939H6.24805V48.0148Z" fill="#FAFAFA"/>
<path d="M6.25317 48.0148V48.0161H6.25183V48.0148V48.0161H6.25049V48.0134H6.25183V48.0148V48.0134C6.2525 48.0134 6.25317 48.0141 6.25317 48.0148Z" fill="#FAFAFA"/>
<path d="M6.25488 48.0134H6.25622H6.25756V48.0148H6.25622V48.0161H6.25488V48.0134ZM6.25622 48.0134V48.0148V48.0134Z" fill="#FAFAFA"/>
<path d="M6.25915 48.0148V48.0161H6.25781V48.0134H6.25915V48.0148V48.0134V48.0148Z" fill="#FAFAFA"/>
<path d="M6.26111 48.0148V48.0161V48.0148ZM6.26111 48.0134V48.0148H6.26244C6.26244 48.0158 6.26177 48.0161 6.26111 48.0161H6.25977V48.0148L6.26111 48.0134Z" fill="#FAFAFA"/>
<path d="M6.2627 48.0134H6.26403V48.0161H6.2627V48.0174V48.0134ZM6.2627 48.0134H6.26403H6.2627Z" fill="#FAFAFA"/>
<path d="M6.26635 48.0148H6.26501V48.0161C6.26568 48.0161 6.26635 48.0158 6.26635 48.0148V48.0161H6.26501H6.26367V48.0148L6.26501 48.0134V48.0148H6.26635Z" fill="#FAFAFA"/>
<path d="M6.26928 48.0134V48.0148H6.26794V48.0161H6.26928H6.26794H6.2666V48.0148L6.26794 48.0134H6.26928Z" fill="#FAFAFA"/>
<path d="M6.27038 48.0134V48.0148V48.0161H6.26904V48.0148V48.0134H6.27038Z" fill="#FAFAFA"/>
</svg>
