<svg width="16" height="15" viewBox="0 0 16 15" fill="none" xmlns="http://www.w3.org/2000/svg">
<path d="M13.9771 7.09473L7.65234 1.60533C7.6038 1.56348 7.54185 1.54004 7.47656 1.54004H5.99498C5.87109 1.54004 5.81417 1.69406 5.90792 1.77441L11.7706 6.8637H1.97377C1.90011 6.8637 1.83984 6.92397 1.83984 6.99763V8.00209C1.83984 8.07575 1.90011 8.13602 1.97377 8.13602H11.769L5.90625 13.2253C5.8125 13.3073 5.86942 13.4597 5.9933 13.4597H7.52511C7.55692 13.4597 7.58873 13.448 7.61217 13.4262L13.9771 7.905C14.0351 7.8546 14.0815 7.79235 14.1134 7.72246C14.1452 7.65257 14.1617 7.57666 14.1617 7.49986C14.1617 7.42306 14.1452 7.34715 14.1134 7.27726C14.0815 7.20737 14.0351 7.14512 13.9771 7.09473V7.09473Z" fill="white"/>
</svg>
