<svg width="15" height="15" viewBox="0 0 15 15" fill="none" xmlns="http://www.w3.org/2000/svg">
<path d="M13.4771 7.09473L7.15234 1.60533C7.1038 1.56348 7.04185 1.54004 6.97656 1.54004H5.49498C5.37109 1.54004 5.31417 1.69406 5.40792 1.77441L11.2706 6.8637H1.47377C1.40011 6.8637 1.33984 6.92397 1.33984 6.99763V8.00209C1.33984 8.07575 1.40011 8.13602 1.47377 8.13602H11.269L5.40625 13.2253C5.3125 13.3073 5.36942 13.4597 5.4933 13.4597H7.02511C7.05692 13.4597 7.08873 13.448 7.11217 13.4262L13.4771 7.905C13.5351 7.8546 13.5815 7.79235 13.6134 7.72246C13.6452 7.65257 13.6617 7.57666 13.6617 7.49986C13.6617 7.42306 13.6452 7.34715 13.6134 7.27726C13.5815 7.20737 13.5351 7.14512 13.4771 7.09473V7.09473Z" fill="white"/>
</svg>
