<svg width="22" height="22" viewBox="0 0 22 22" fill="none" xmlns="http://www.w3.org/2000/svg">
<g clip-path="url(#clip0_6_752)">
<path d="M22 11.0001C22 4.92495 17.0751 8.57382e-05 11 8.57382e-05C4.92486 8.57382e-05 0 4.92495 0 11.0001C0 16.4905 4.02254 21.0412 9.28125 21.8665V14.1798H6.48828V11.0001H9.28125V8.57665C9.28125 5.81977 10.9235 4.29696 13.4361 4.29696C14.6396 4.29696 15.8984 4.5118 15.8984 4.5118V7.21884H14.5114C13.1449 7.21884 12.7188 8.06676 12.7188 8.93666V11.0001H15.7695L15.2818 14.1798H12.7188V21.8665C17.9775 21.0412 22 16.4905 22 11.0001Z" fill="white"/>
<path d="M15.2818 14.1797L15.7695 11H12.7188V8.93658C12.7188 8.06667 13.1449 7.21875 14.5114 7.21875H15.8984V4.51172C15.8984 4.51172 14.6396 4.29687 13.4361 4.29687C10.9235 4.29687 9.28125 5.81969 9.28125 8.57656V11H6.48828V14.1797H9.28125V21.8664C9.84128 21.9542 10.4153 22 11 22C11.5847 22 12.1587 21.9542 12.7188 21.8664V14.1797H15.2818Z" fill="#262626"/>
</g>
<defs>
<clipPath id="clip0_6_752">
<rect width="22" height="22" fill="white"/>
</clipPath>
</defs>
</svg>
