<svg width="33" height="33" viewBox="0 0 33 33" fill="none" xmlns="http://www.w3.org/2000/svg">
<path d="M7.54395 13.1451V2.29012C7.54395 2.14029 7.54395 2.06538 7.5547 1.99264C7.56915 1.8949 7.59801 1.79984 7.64034 1.71056C7.67183 1.64411 7.71348 1.58184 7.79677 1.4573L7.79677 1.4573L7.79678 1.4573C7.85605 1.36867 7.88569 1.32435 7.91951 1.28379C7.96495 1.22929 8.01606 1.17979 8.07198 1.13611C8.11359 1.1036 8.15883 1.07539 8.2493 1.01896L8.24931 1.01896L8.61076 0.793555C8.83064 0.656429 8.94058 0.587867 9.0629 0.549666C9.18522 0.511465 9.31464 0.505272 9.57348 0.492887L9.7887 0.482589L10.1633 0.499643C10.362 0.508689 10.4613 0.513212 10.5572 0.536933C10.6531 0.560654 10.7431 0.602961 10.9231 0.687576L10.9346 0.692949C11.0864 0.764315 11.1623 0.799998 11.2309 0.847551L11.231 0.847587C11.2996 0.895145 11.3604 0.954393 11.4819 1.07289C11.5402 1.12975 11.5694 1.15818 11.5958 1.18845L11.6017 1.19521C11.6278 1.22572 11.6515 1.25827 11.6988 1.32336C11.8783 1.57026 11.968 1.69371 12.0167 1.83553C12.0203 1.84598 12.0237 1.85649 12.027 1.86706C12.0709 2.01042 12.0709 2.16303 12.0709 2.46826V3.04531C12.0709 5.1638 12.0709 6.22305 12.6996 6.47446C13.3283 6.72587 14.0587 5.9587 15.5195 4.42437L18.9384 0.833202C19.0767 0.688007 19.1458 0.615409 19.227 0.558374C19.2445 0.546107 19.2624 0.534402 19.2806 0.523279C19.3653 0.47156 19.4595 0.437176 19.6478 0.368406C19.9472 0.259045 20.097 0.204365 20.2524 0.197915C20.2857 0.196534 20.319 0.196817 20.3523 0.198762C20.5076 0.207848 20.6563 0.26506 20.9539 0.379485L21.0027 0.398264C21.1578 0.457893 21.2353 0.487708 21.3066 0.529659C21.3778 0.57161 21.4415 0.624938 21.5689 0.731592L21.5689 0.731599L21.9067 1.01448C21.9593 1.05853 21.9856 1.08056 22.0102 1.10411C22.0742 1.16557 22.1297 1.23528 22.1753 1.31139C22.1928 1.34056 22.2084 1.37111 22.2396 1.4322L22.2396 1.43223C22.291 1.53298 22.3167 1.58335 22.3363 1.635C22.3873 1.77004 22.4086 1.91454 22.3985 2.05856C22.3946 2.11366 22.3845 2.16929 22.3642 2.28056L22.1841 3.26884C22.1266 3.58465 22.0978 3.74256 22.0231 3.88156C21.9484 4.02056 21.8325 4.13166 21.6008 4.35384L10.9282 14.5886C9.48226 15.9752 8.75928 16.6685 8.15161 16.4094C7.54395 16.1502 7.54395 15.1485 7.54395 13.1451Z" fill="#78C192"/>
<path d="M0.665414 31.7285L0.414742 31.5274C0.266717 31.4087 0.151665 31.2539 0.0806107 31.078C0.027368 30.9461 0 30.8053 0 30.6631V30.6383C0 30.5629 0.00691536 30.4876 0.0206594 30.4134L0.0430635 30.2924C0.138094 29.7794 0.386759 29.3073 0.756116 28.9387L29.0137 0.74189C29.3984 0.357956 29.9198 0.142334 30.4633 0.142334H30.5851C31.0507 0.142334 31.4972 0.327027 31.8268 0.655889C31.9852 0.813984 32.112 1.00088 32.2003 1.20653L32.2781 1.38762C32.5085 1.92406 32.5629 2.52523 32.436 3.09511C32.3188 3.62154 32.0516 4.10857 31.6686 4.48824L4.19161 31.7234C4.03922 31.8744 3.8631 31.9995 3.67025 32.0935C3.4023 32.2242 3.10809 32.2921 2.80997 32.2921H2.53791H2.3295C1.98805 32.2921 1.64962 32.2282 1.3317 32.1036L1.27537 32.0815C1.05538 31.9953 0.849727 31.8763 0.665414 31.7285Z" fill="#5AB4D6"/>
<path d="M31.7412 23.8269L24.4666 31.4158C24.1314 31.7656 23.7124 32.0239 23.2493 32.1663C22.9784 32.2496 22.6966 32.292 22.4132 32.292H22.1156H21.799C21.5293 32.292 21.2621 32.239 21.0128 32.136L20.9864 32.1251C20.7061 32.0094 20.4569 31.8297 20.2587 31.6002L20.1667 31.4938C20.018 31.3217 19.9142 31.1155 19.8644 30.8936C19.8256 30.7206 19.8205 30.5417 19.8495 30.3667L19.8999 30.0618C19.9266 29.9 19.9763 29.7429 20.0475 29.5952C20.137 29.4093 20.2593 29.241 20.4083 29.0984L28.8872 20.983C29.2368 20.6484 29.6848 20.4354 30.165 20.3755L30.3024 20.3584C30.712 20.3073 31.1277 20.3952 31.4818 20.6072C31.7414 20.7626 31.9592 20.9798 32.1151 21.239C32.3279 21.5929 32.4156 22.008 32.3643 22.4178L32.3472 22.5545C32.2873 23.0328 32.0748 23.479 31.7412 23.8269Z" fill="#6D3979"/>
<path d="M31.4546 14.3005L14.0144 31.3528C13.8569 31.5067 13.6758 31.6343 13.4779 31.7308C13.1974 31.8675 12.8894 31.9386 12.5773 31.9386H12.3265H11.9882C11.7345 31.9386 11.4849 31.8742 11.2629 31.7513L11.2411 31.7392C11.0463 31.6315 10.8802 31.4787 10.7566 31.2936C10.6323 31.1076 10.5546 30.8945 10.53 30.6722L10.5137 30.5249V30.1714C10.5137 29.9391 10.569 29.7102 10.675 29.5035L10.7297 29.3968C10.8267 29.2076 10.9539 29.0354 11.1062 28.8871L29.8895 10.5937C30.0762 10.4119 30.3347 10.3236 30.5937 10.3533C30.7401 10.3701 30.8799 10.4239 30.9998 10.5097L31.2324 10.6761C31.4128 10.8052 31.5701 10.9637 31.6977 11.145L31.7706 11.2486C31.8598 11.3754 31.938 11.5097 32.0044 11.6498L32.1062 11.865C32.2071 12.0782 32.2608 12.3107 32.2636 12.5466C32.266 12.7491 32.2308 12.9502 32.1599 13.1399L32.0916 13.3226C31.9536 13.6914 31.7362 14.0253 31.4546 14.3005Z" fill="#5773A7"/>
<path d="M0.00298936 2.39301L0.340685 22.7797C0.354925 23.6394 1.37561 24.0815 2.01243 23.5038L4.19483 21.5241C4.40614 21.3324 4.52551 21.0596 4.52291 20.7743L4.35287 2.13303C4.35145 1.9774 4.31373 1.82425 4.2427 1.68577L4.06279 1.33501C4.01336 1.23863 3.9486 1.15093 3.87104 1.07532L3.79832 1.00443C3.6848 0.893763 3.54659 0.811672 3.39509 0.764932L3.35068 0.751231C3.25518 0.721768 3.15581 0.706787 3.05587 0.706787H1.5909C1.53639 0.706787 1.48198 0.711243 1.4282 0.720112L1.01213 0.78872C0.825297 0.819528 0.652416 0.906921 0.516827 1.0391C0.415339 1.13803 0.337938 1.25896 0.290595 1.39255L0.0602904 2.04242C0.0204189 2.15493 0.00101242 2.27366 0.00298936 2.39301Z" fill="#FFD419"/>
</svg>
