<svg width="38" height="38" viewBox="0 0 38 38" fill="none" xmlns="http://www.w3.org/2000/svg">
<path d="M8.83691 16.0711V2.85389C8.83691 2.63543 8.83691 2.5262 8.85971 2.42128C8.87115 2.3686 8.88684 2.31692 8.90661 2.26676C8.946 2.16688 9.00672 2.07609 9.12817 1.8945C9.21457 1.76531 9.25777 1.70071 9.30989 1.644C9.33611 1.61547 9.36396 1.58849 9.39331 1.5632C9.45166 1.51291 9.51759 1.47179 9.64947 1.38955L9.64947 1.38955L10.1331 1.08797C10.3529 0.950846 10.4629 0.882283 10.5852 0.844082C10.7075 0.805881 10.8369 0.799689 11.0958 0.787303L11.4228 0.771654L11.9149 0.794059C12.1136 0.803105 12.2129 0.807628 12.3088 0.831349C12.4048 0.85507 12.4948 0.897377 12.6748 0.981992L12.789 1.03571C12.9409 1.10709 13.0168 1.14278 13.0855 1.19035C13.1541 1.23791 13.2142 1.29648 13.3343 1.4136L13.3894 1.46728L13.3894 1.46729C13.4502 1.52659 13.4806 1.55624 13.5084 1.58832C13.5361 1.6204 13.5611 1.65476 13.6111 1.72349L13.6697 1.80415L13.6697 1.80415C13.8592 2.06487 13.954 2.19522 14.0029 2.3459C14.0519 2.49658 14.0519 2.65774 14.0519 2.98005V4.48392C14.0519 6.60241 14.0519 7.66166 14.6806 7.91307C15.3093 8.16448 16.0397 7.39731 17.5004 5.86298L21.9862 1.15123C22.1469 0.982473 22.2272 0.898095 22.3238 0.834814C22.4204 0.771533 22.5298 0.731568 22.7487 0.651639L22.8308 0.621667C23.179 0.494493 23.3531 0.430906 23.5344 0.432443C23.7156 0.43398 23.8886 0.500512 24.2347 0.633575L24.3884 0.692681L24.3884 0.692685C24.5434 0.752311 24.621 0.782125 24.6922 0.824075C24.7635 0.866027 24.8272 0.919357 24.9545 1.02602L25.3825 1.38438C25.4668 1.45492 25.5089 1.49019 25.5466 1.5295C25.5891 1.57381 25.6275 1.62193 25.6612 1.67327C25.691 1.71882 25.716 1.76774 25.7659 1.86558L25.766 1.86562C25.8483 2.027 25.8895 2.10769 25.9153 2.19242C25.9443 2.28789 25.9589 2.38716 25.9585 2.48695C25.9582 2.57551 25.942 2.66463 25.9095 2.84288L25.6844 4.07815C25.6269 4.39396 25.5981 4.55186 25.5234 4.69087C25.4486 4.82987 25.3328 4.94096 25.1011 5.16315L12.2212 17.5146C10.7752 18.9013 10.0522 19.5946 9.44458 19.3354C8.83691 19.0762 8.83691 18.0745 8.83691 16.0711Z" fill="#78C192"/>
<path d="M0.912049 36.7662L0.623281 36.5346C0.45276 36.3978 0.320223 36.2196 0.238369 36.0169C0.177035 35.865 0.145508 35.7027 0.145508 35.5389V35.5104C0.145508 35.4235 0.153474 35.3368 0.169307 35.2513L0.195116 35.1119C0.304589 34.5209 0.591045 33.9771 1.01654 33.5525L33.5686 1.07043C34.0118 0.628152 34.6124 0.379761 35.2385 0.379761H35.3788C35.9151 0.379761 36.4296 0.592523 36.8092 0.971364C36.9917 1.15349 37.1378 1.36878 37.2395 1.60569L37.3291 1.8143C37.5945 2.43227 37.6572 3.1248 37.511 3.78128C37.376 4.38772 37.0682 4.94877 36.627 5.38614L4.97414 36.7604C4.7986 36.9344 4.59571 37.0784 4.37355 37.1868C4.06487 37.3373 3.72596 37.4155 3.38253 37.4155H3.06912H2.82904C2.4357 37.4155 2.04583 37.3419 1.67959 37.1984L1.61471 37.1729C1.36128 37.0736 1.12437 36.9365 0.912049 36.7662Z" fill="#5AB4D6"/>
<path d="M36.7114 27.6638L28.3313 36.4061C27.945 36.809 27.4623 37.1066 26.9289 37.2706C26.6168 37.3666 26.2922 37.4153 25.9657 37.4153H25.6229H25.2582C24.9475 37.4153 24.6397 37.3543 24.3525 37.2357L24.3221 37.2232C23.9992 37.0899 23.7121 36.8828 23.4838 36.6185L23.3778 36.4958C23.2065 36.2976 23.0869 36.0601 23.0296 35.8045C22.9849 35.6052 22.979 35.3991 23.0124 35.1975L23.0704 34.8463C23.1013 34.6599 23.1585 34.4789 23.2405 34.3087C23.3437 34.0946 23.4844 33.9007 23.6561 33.7364L33.4236 24.3877C33.8263 24.0023 34.3425 23.7569 34.8956 23.6879L35.054 23.6682C35.5258 23.6093 36.0046 23.7105 36.4126 23.9548C36.7116 24.1338 36.9625 24.384 37.1421 24.6827C37.3872 25.0903 37.4883 25.5685 37.4292 26.0405L37.4094 26.198C37.3404 26.749 37.0957 27.263 36.7114 27.6638Z" fill="#6D3979"/>
<path d="M36.3813 16.6896L16.2905 36.3334C16.1092 36.5107 15.9005 36.6577 15.6726 36.7688C15.3494 36.9264 14.9946 37.0082 14.6351 37.0082H14.3461H13.9564C13.6641 37.0082 13.3766 36.934 13.1209 36.7925L13.0958 36.7785C12.8714 36.6544 12.6801 36.4784 12.5376 36.2652C12.3945 36.051 12.305 35.8055 12.2766 35.5494L12.2578 35.3796V34.9725C12.2578 34.7049 12.3215 34.4411 12.4436 34.203L12.5067 34.0801C12.6185 33.8622 12.765 33.6639 12.9404 33.493L34.5783 12.4195C34.7933 12.21 35.0912 12.1083 35.3895 12.1425C35.5582 12.1618 35.7192 12.2238 35.8573 12.3226L36.1253 12.5143C36.3331 12.663 36.5143 12.8456 36.6613 13.0545L36.7452 13.1738C36.848 13.3199 36.9381 13.4746 37.0146 13.636L37.1319 13.8839C37.2482 14.1295 37.31 14.3974 37.3132 14.6691C37.316 14.9023 37.2755 15.1341 37.1937 15.3526L37.115 15.563C36.9561 15.9879 36.7056 16.3725 36.3813 16.6896Z" fill="#5773A7"/>
<path d="M0.148497 2.94497L0.543526 26.7929C0.557766 27.6525 1.57845 28.0946 2.21527 27.517L5.02834 24.9651C5.23965 24.7734 5.35902 24.5006 5.35642 24.2153L5.15958 2.63693C5.15816 2.48131 5.12044 2.32816 5.04941 2.18968L4.8144 1.73148C4.76497 1.63511 4.70021 1.54741 4.62265 1.4718L4.49483 1.3472C4.38131 1.23653 4.2431 1.15444 4.0916 1.1077L3.98352 1.07435C3.88802 1.04489 3.78865 1.02991 3.68871 1.02991H1.96574C1.91123 1.02991 1.85682 1.03436 1.80304 1.04323L1.29104 1.12766C1.0891 1.16096 0.902247 1.25541 0.755697 1.39828L0.729905 1.42342C0.620214 1.53035 0.536556 1.66106 0.485386 1.80545L0.205798 2.59438C0.165927 2.70689 0.14652 2.82562 0.148497 2.94497Z" fill="#FFD419"/>
</svg>
