<svg width="26" height="22" viewBox="0 0 26 22" fill="none" xmlns="http://www.w3.org/2000/svg">
<g clip-path="url(#clip0_6_757)">
<rect width="26" height="22" fill="#262626"/>
<path d="M18.7321 18.5911H15.4746V13.528C15.4746 12.3207 15.4529 10.7665 13.7804 10.7665C12.0838 10.7665 11.8243 12.0819 11.8243 13.4401V18.5907H8.56678V8.17909H11.6939V9.60195H11.7377C12.0507 9.07088 12.5029 8.63399 13.0462 8.33782C13.5896 8.04165 14.2037 7.89729 14.8232 7.92011C18.1247 7.92011 18.7335 10.0755 18.7335 12.8794L18.7321 18.5911ZM4.89128 6.75589C4.5174 6.75595 4.1519 6.64599 3.84099 6.43989C3.53009 6.23379 3.28776 5.94081 3.14463 5.59801C3.00149 5.25522 2.96398 4.87799 3.03685 4.51404C3.10972 4.15009 3.28971 3.81576 3.55403 3.55332C3.81835 3.29089 4.15515 3.11214 4.52183 3.03968C4.88851 2.96723 5.26859 3.00431 5.61403 3.14625C5.95947 3.2882 6.25475 3.52861 6.46252 3.83711C6.67029 4.14561 6.78122 4.50832 6.78129 4.87939C6.78133 5.12577 6.73248 5.36975 6.63752 5.59739C6.54256 5.82504 6.40337 6.03189 6.22787 6.20614C6.05236 6.38038 5.84398 6.51862 5.61465 6.61294C5.38532 6.70727 5.13952 6.75584 4.89128 6.75589M6.52001 18.5911H3.25915V8.17909H6.52001V18.5911ZM20.3561 0.00124243H1.62229C1.19708 -0.00351999 0.787348 0.159457 0.483153 0.454359C0.178958 0.749261 0.00518939 1.15196 0 1.57397V20.2443C0.00501178 20.6665 0.178679 21.0695 0.482863 21.3647C0.787047 21.6599 1.19687 21.8232 1.62229 21.8187H20.3561C20.7824 21.824 21.1933 21.6612 21.4987 21.366C21.8041 21.0708 21.9789 20.6674 21.9848 20.2443V1.57262C21.9787 1.14978 21.8038 0.746619 21.4984 0.451724C21.193 0.156829 20.7821 -0.00568203 20.3561 -0.000105206" fill="white"/>
</g>
<defs>
<clipPath id="clip0_6_757">
<rect width="26" height="22" fill="white"/>
</clipPath>
</defs>
</svg>
