<svg width="22" height="22" viewBox="0 0 22 22" fill="none" xmlns="http://www.w3.org/2000/svg">
<g clip-path="url(#clip0_6_759)">
<path d="M19.25 22H2.75C1.232 22 0 20.768 0 19.25V2.75C0 1.232 1.232 0 2.75 0H19.25C20.768 0 22 1.232 22 2.75V19.25C22 20.768 20.768 22 19.25 22Z" fill="white"/>
<path d="M8.44836 16.5881C13.6349 16.5881 16.4729 12.2871 16.4729 8.56361C16.4729 8.44261 16.4729 8.32161 16.4674 8.20061C17.0174 7.80461 17.4959 7.30411 17.8754 6.73761C17.3694 6.96311 16.8249 7.11161 16.2529 7.18311C16.8359 6.83661 17.2814 6.28111 17.4959 5.62111C16.9514 5.94561 16.3464 6.17661 15.7029 6.30311C15.1859 5.75311 14.4544 5.41211 13.6459 5.41211C12.0894 5.41211 10.8244 6.67711 10.8244 8.23361C10.8244 8.45361 10.8519 8.66811 10.8959 8.87711C8.55286 8.76161 6.47386 7.63411 5.08236 5.92911C4.84036 6.34711 4.70286 6.83111 4.70286 7.34811C4.70286 8.32711 5.20336 9.19061 5.95686 9.69661C5.49486 9.68011 5.06036 9.55361 4.68086 9.34461C4.68086 9.35561 4.68086 9.36661 4.68086 9.38311C4.68086 10.7471 5.65436 11.8911 6.94136 12.1496C6.70486 12.2156 6.45736 12.2486 6.19886 12.2486C6.01736 12.2486 5.84136 12.2321 5.67086 12.1991C6.02836 13.3211 7.07336 14.1351 8.30536 14.1571C7.33736 14.9161 6.12186 15.3671 4.80186 15.3671C4.57636 15.3671 4.35086 15.3561 4.13086 15.3286C5.37386 16.1206 6.85886 16.5881 8.44836 16.5881Z" fill="#262626"/>
</g>
<defs>
<clipPath id="clip0_6_759">
<rect width="22" height="22" fill="white"/>
</clipPath>
</defs>
</svg>
