<svg width="15" height="15" viewBox="0 0 15 15" fill="none" xmlns="http://www.w3.org/2000/svg">
<path d="M13.4766 7.09473L7.15186 1.60533C7.10331 1.56348 7.04137 1.54004 6.97607 1.54004H5.49449C5.37061 1.54004 5.31369 1.69406 5.40744 1.77441L11.2702 6.8637H1.47328C1.39962 6.8637 1.33936 6.92397 1.33936 6.99763V8.00209C1.33936 8.07575 1.39962 8.13602 1.47328 8.13602H11.2685L5.40576 13.2253C5.31201 13.3073 5.36893 13.4597 5.49282 13.4597H7.02462C7.05643 13.4597 7.08824 13.448 7.11168 13.4262L13.4766 7.905C13.5346 7.8546 13.5811 7.79235 13.6129 7.72246C13.6447 7.65257 13.6612 7.57666 13.6612 7.49986C13.6612 7.42306 13.6447 7.34715 13.6129 7.27726C13.5811 7.20737 13.5346 7.14512 13.4766 7.09473V7.09473Z" fill="white"/>
</svg>
