<svg width="24" height="25" viewBox="0 0 24 25" fill="none" xmlns="http://www.w3.org/2000/svg">
<path d="M23.4626 0H0.537313C0.39476 0 0.258054 0.0608292 0.157356 0.168954C0.0566581 0.27708 0 0.423855 0 0.576916V18.2691C0 18.4221 0.0566534 18.5689 0.157356 18.677C0.258059 18.7852 0.39476 18.846 0.537313 18.846H3.94027V24.4231C3.94027 24.6287 4.04225 24.8189 4.20783 24.9221C4.3736 25.0253 4.57792 25.0261 4.74424 24.9238L6.98507 23.5491L9.2259 24.9238C9.39221 25.0259 9.59654 25.0253 9.7623 24.9221C9.92789 24.8189 10.0299 24.6287 10.0299 24.4231V18.846H23.4627C23.6052 18.846 23.7419 18.7852 23.8426 18.677C23.9433 18.5689 24 18.4221 24 18.2691V0.576916C24 0.423855 23.9433 0.277075 23.8426 0.168954C23.7419 0.0608343 23.6052 0 23.4627 0H23.4626ZM8.95511 23.4285L7.25162 22.3833C7.08641 22.2821 6.88354 22.2821 6.71835 22.3833L5.01486 23.4285V18.428L6.59043 20.2586C6.69205 20.3767 6.83515 20.4438 6.98501 20.4438C7.13487 20.4438 7.27797 20.3767 7.37959 20.2586L8.95517 18.428L8.95511 23.4285ZM9.99919 14.7087L10.5977 16.7774L8.62994 17.2552H8.63013C8.52413 17.2809 8.42781 17.3406 8.35416 17.4263L6.98491 19.0172L5.61566 17.4263C5.54201 17.3406 5.4457 17.2809 5.3397 17.2552L3.37191 16.7774L3.97045 14.7087L3.97063 14.7089C4.0028 14.5975 4.0028 14.4782 3.97063 14.3667L3.3721 12.298L5.33988 11.8202H5.3397C5.4457 11.7945 5.54201 11.7349 5.61566 11.6493L6.98491 10.0585L8.35416 11.6493C8.42781 11.7349 8.52413 11.7945 8.63013 11.8202L10.5979 12.298L9.99938 14.3667H9.99919C9.96703 14.4782 9.96703 14.5975 9.99919 14.7087V14.7087ZM11.0751 14.5376L11.7966 12.0441C11.841 11.8905 11.8237 11.7239 11.7487 11.5847C11.6738 11.4454 11.5481 11.3459 11.4021 11.3104L9.03003 10.7345L7.37955 8.81692C7.27538 8.7035 7.13338 8.63972 6.98497 8.63972C6.83657 8.63972 6.69457 8.7035 6.5904 8.81692L4.93992 10.7345L3.58204 11.0641V3.84642H20.4176V15H11.2087L11.0751 14.5376ZM22.9251 17.6922H11.5621C11.774 17.5574 11.8712 17.2835 11.7966 17.0313L11.5428 16.1538H20.9552C21.0978 16.1538 21.2345 16.0929 21.3352 15.9848C21.4359 15.8767 21.4925 15.7299 21.4925 15.5769V3.26935C21.4925 3.11629 21.4359 2.9695 21.3352 2.86138C21.2345 2.75326 21.0978 2.69243 20.9552 2.69243H3.04496C2.90241 2.69243 2.7657 2.75326 2.66501 2.86138C2.56431 2.96951 2.50765 3.11629 2.50765 3.26935V11.3325C2.23516 11.4334 2.08694 11.7491 2.17357 12.0442L2.50765 13.1988V15.577C2.50838 15.6413 2.51935 15.7049 2.54 15.7653L2.17357 17.0316V17.0314C2.099 17.2836 2.19623 17.5575 2.40805 17.6923H1.07482V1.15402H22.9254L22.9251 17.6922Z" fill="#FAFAFA"/>
<path d="M6.98516 12.23C6.41512 12.23 5.86851 12.4732 5.46535 12.9059C5.06237 13.3385 4.83594 13.9257 4.83594 14.5377C4.83594 15.1497 5.06237 15.7366 5.46535 16.1693C5.86852 16.6022 6.41516 16.8453 6.98516 16.8453C7.55516 16.8453 8.10181 16.6022 8.50497 16.1693C8.90795 15.7366 9.13438 15.1497 9.13438 14.5377C9.13384 13.9258 8.90721 13.3391 8.50422 12.9066C8.10124 12.4739 7.55497 12.2306 6.98511 12.23L6.98516 12.23ZM6.98516 15.6915C6.70024 15.6915 6.42681 15.5699 6.22526 15.3534C6.02367 15.1372 5.91054 14.8436 5.91054 14.5377C5.91054 14.2316 6.02367 13.9382 6.22526 13.7218C6.42684 13.5053 6.70023 13.3839 6.98516 13.3839C7.27009 13.3839 7.54351 13.5053 7.74506 13.7218C7.94665 13.9382 8.05978 14.2316 8.05978 14.5377C8.05941 14.8436 7.9461 15.1368 7.7447 15.3532C7.5433 15.5695 7.27005 15.6911 6.98517 15.6915L6.98516 15.6915Z" fill="#FAFAFA"/>
<path d="M16.2988 5.76936H7.70185C7.40504 5.76936 7.16455 6.0276 7.16455 6.34626C7.16455 6.66492 7.40506 6.92315 7.70185 6.92315H16.2988C16.5956 6.92315 16.8361 6.66492 16.8361 6.34626C16.8361 6.0276 16.5956 5.76936 16.2988 5.76936Z" fill="#FAFAFA"/>
</svg>
