<svg width="24" height="25" viewBox="0 0 24 25" fill="none" xmlns="http://www.w3.org/2000/svg">
<path d="M20.594 16.2832C21.0487 16.1144 21.3542 15.663 21.3542 15.16C21.3542 14.3552 20.6952 13.832 19.9022 14.012L15.2054 14.9833C15.2802 14.8359 15.3265 14.6709 15.3265 14.493C15.3265 13.9097 14.871 13.4351 14.3109 13.4351L11.7284 13.4353L9.86396 12.26H6.68972V12.0113C6.68972 11.6456 6.40418 11.3482 6.05317 11.3482H2.64575V18.7021H6.05317C6.40419 18.7021 6.68972 18.4047 6.68972 18.0391V17.246L11.0797 19.8055L20.594 16.2832ZM6.29786 18.0391C6.29786 18.1796 6.18804 18.294 6.05317 18.294H3.0375V11.7565H6.05304C6.1879 11.7565 6.29772 11.8709 6.29772 12.0113L6.29786 18.0391ZM6.68974 16.8246V12.6682H9.75472L11.6191 13.8434H14.311C14.6549 13.8434 14.9347 14.1349 14.9347 14.4931C14.9347 14.8514 14.6549 15.1428 14.311 15.1428H11.611V15.551H14.3111C14.3726 15.551 14.4323 15.5431 14.4908 15.532L14.4937 15.5468L19.9825 14.4118C20.5478 14.2832 20.9627 14.6291 20.9627 15.1601C20.9627 15.4909 20.7618 15.7877 20.4629 15.8987L11.1162 19.3588L6.70882 16.7893L6.68974 16.8246Z" fill="#FAFAFA"/>
<path d="M18.9822 17.3075L19.3514 17.1708L19.4827 17.5554L19.1134 17.6921L18.9822 17.3075Z" fill="#FAFAFA"/>
<path d="M18.3754 17.9671L18.2441 17.5825L18.6134 17.4458L18.7446 17.8304L18.3754 17.9671Z" fill="#FAFAFA"/>
<path d="M18.0072 18.1032L17.638 18.2398L17.5068 17.8551L17.8761 17.7186L18.0072 18.1032Z" fill="#FAFAFA"/>
<path d="M16.531 18.65L16.1618 18.7867L16.0305 18.4021L16.3998 18.2654L16.531 18.65Z" fill="#FAFAFA"/>
<path d="M15.6614 18.5371L15.7926 18.9218L15.495 19.032L15.3638 18.6474L15.6614 18.5371Z" fill="#FAFAFA"/>
<path d="M16.7676 18.1275L17.1368 17.9909L17.268 18.3756L16.8987 18.5121L16.7676 18.1275Z" fill="#FAFAFA"/>
<path d="M8.84973 17.575L8.50781 17.3758L8.69906 17.0196L9.04098 17.2188L8.84973 17.575Z" fill="#FAFAFA"/>
<path d="M8.16565 17.1764L7.82373 16.9772L8.01498 16.621L8.3569 16.8203L8.16565 17.1764Z" fill="#FAFAFA"/>
<path d="M9.53333 17.9739L9.19141 17.7747L9.38266 17.4185L9.72458 17.6178L9.53333 17.9739Z" fill="#FAFAFA"/>
<path d="M4.71295 12.1871H3.45068V13.2483H3.84257V12.5954H4.71298L4.71295 12.1871Z" fill="#FAFAFA"/>
<path d="M3.45068 13.6871H3.84257V14.3876H3.45068V13.6871Z" fill="#FAFAFA"/>
<path d="M4.95901 16.1871C4.54076 16.1871 4.20044 16.5415 4.20044 16.9772C4.20044 17.4129 4.54075 17.7672 4.95901 17.7672C5.37727 17.7672 5.71745 17.4129 5.71745 16.9772C5.71745 16.5415 5.37727 16.1871 4.95901 16.1871ZM4.95901 17.359C4.75678 17.359 4.59233 17.1877 4.59233 16.9772C4.59233 16.7667 4.75679 16.5954 4.95901 16.5954C5.16111 16.5954 5.32556 16.7667 5.32556 16.9772C5.32556 17.1877 5.16109 17.359 4.95901 17.359Z" fill="#FAFAFA"/>
<path d="M13.3672 9.84821H13.7591V10.3391H13.3672V9.84821Z" fill="#FAFAFA"/>
<path d="M18.6912 9.84821H19.083V10.3391H18.6912V9.84821Z" fill="#FAFAFA"/>
<path d="M12.927 6.26036H13.3189V6.66858H12.927V6.26036Z" fill="#FAFAFA"/>
<path d="M12.5101 6.28178C12.3687 6.30173 12.2286 6.33536 12.0935 6.38195L12.2167 6.76938C12.3287 6.73088 12.4451 6.70283 12.5625 6.68637L12.5101 6.28178Z" fill="#FAFAFA"/>
<path d="M11.7017 6.56036C11.5773 6.63207 11.4584 6.71606 11.3484 6.81009L11.5971 7.12551C11.6887 7.04725 11.7875 6.97722 11.8912 6.91751L11.7017 6.56036Z" fill="#FAFAFA"/>
<path d="M11.2767 12.3318H21.173V8.68107C21.173 7.79393 20.48 7.07196 19.6282 7.07196H18.2769C17.948 6.58886 17.7345 6.10307 17.6405 5.62511C18.2956 4.92296 18.7636 3.77214 18.7636 2.83882C18.7636 2.30214 18.6049 1.77675 18.314 1.33757L18.3211 1.33227L18.1899 1.16472C17.7059 0.547933 16.989 0.19429 16.2229 0.19429C14.8379 0.19429 13.7299 1.32361 13.6867 2.74172C13.6865 2.74311 13.6867 2.74437 13.6865 2.74576C13.6865 2.74744 13.6863 2.74897 13.6861 2.75051L13.6825 2.86951L13.685 2.87118C13.6955 3.79893 14.1597 4.93132 14.807 5.62507C14.7154 6.0994 14.5018 6.58533 14.1702 7.07222H12.8214C11.9697 7.07222 11.2766 7.79404 11.2766 8.68133L11.2767 12.3318ZM17.2925 5.41178C17.054 5.64951 16.6747 5.93286 16.223 5.93286C15.7704 5.93286 15.3927 5.64979 15.1551 5.41164C14.5868 4.84607 14.1639 3.902 14.0911 3.08211C14.2864 3.15632 14.4933 3.19873 14.7053 3.19873C15.5768 3.19873 16.3005 2.56006 16.4628 1.69831C16.6637 1.77685 16.8779 1.81758 17.0942 1.81758C17.4116 1.81758 17.7175 1.73081 17.9903 1.56731C18.2371 1.93909 18.3719 2.38398 18.3719 2.83881C18.3719 3.70752 17.918 4.78956 17.2926 5.41177L17.2925 5.41178ZM17.7339 1.24928C16.899 1.69375 16.2121 1.08201 16.1156 1.04825L16.1039 1.38628C16.0767 2.17382 15.4624 2.79057 14.7052 2.79057C14.4883 2.79057 14.2771 2.73923 14.0872 2.64157C14.1859 1.44403 15.1412 0.602356 16.2228 0.602356C16.8029 0.602356 17.3509 0.852774 17.734 1.24925L17.7339 1.24928ZM15.1403 5.93071C15.4853 6.19857 15.8544 6.34086 16.223 6.34086C16.5913 6.34086 16.9612 6.19828 17.3078 5.92971C17.42 6.35493 17.6129 6.78157 17.8865 7.20357C16.7708 7.823 15.6791 7.82286 14.5611 7.20343C14.8362 6.77961 15.0293 6.3534 15.1403 5.93068L15.1403 5.93071ZM11.6685 8.68086C11.6685 8.01875 12.1856 7.47996 12.8214 7.47996H14.2343C14.8951 7.87393 15.56 8.07261 16.2245 8.07261C16.8892 8.07261 17.5535 7.87381 18.2131 7.47996H19.6283C20.2639 7.47996 20.7812 8.01861 20.7812 8.68086L20.781 11.9233H19.0827V10.6839H18.6908V11.9233H13.7588V10.6839H13.3669V11.9233H11.6686L11.6685 8.68086Z" fill="#FAFAFA"/>
<path d="M19.4529 3.69143L19.0694 3.60689C19.0441 3.73203 19.0126 3.85926 18.9761 3.9851L19.3511 4.10355C19.3909 3.96655 19.4252 3.82773 19.4529 3.69144L19.4529 3.69143Z" fill="#FAFAFA"/>
<path d="M18.7029 4.71536L19.0559 4.89253C19.1143 4.76642 19.169 4.6357 19.2182 4.50414L18.8534 4.35542C18.8076 4.47736 18.757 4.59845 18.7029 4.71535L18.7029 4.71536Z" fill="#FAFAFA"/>
<path d="M19.5431 2.83914H19.1512C19.1512 2.96303 19.144 3.09221 19.1296 3.22336L19.519 3.2694C19.5352 3.12305 19.5431 2.97838 19.5431 2.83915L19.5431 2.83914Z" fill="#FAFAFA"/>
<path d="M17.4552 3.64821C17.2987 4.11499 17.0399 4.55821 16.7627 4.83389L17.0334 5.12909C17.3579 4.80626 17.6465 4.31562 17.825 3.78284L17.4552 3.64821Z" fill="#FAFAFA"/>
<path d="M3.03467 10.4718H5.80218V10.88H3.03467V10.4718Z" fill="#FAFAFA"/>
<path d="M3.32129 9.46286H5.51571V9.87108H3.32129V9.46286Z" fill="#FAFAFA"/>
<path d="M4.98438 4.56143H5.37626V4.96965H4.98438V4.56143Z" fill="#FAFAFA"/>
<path d="M3.41699 4.56143H3.80888V4.96965H3.41699V4.56143Z" fill="#FAFAFA"/>
<path d="M4.20068 4.56143H4.59257V4.96965H4.20068V4.56143Z" fill="#FAFAFA"/>
<path d="M6.58252 1.53307H6.9744V1.94128H6.58252V1.53307Z" fill="#FAFAFA"/>
<path d="M8.1499 1.53307H8.54179V1.94128H8.1499V1.53307Z" fill="#FAFAFA"/>
<path d="M7.36621 1.53307H7.7581V1.94128H7.36621V1.53307Z" fill="#FAFAFA"/>
<path d="M8.57812 3.88965H8.97001V4.29786H8.57812V3.88965Z" fill="#FAFAFA"/>
<path d="M10.1455 3.88965H10.5374V4.29786H10.1455V3.88965Z" fill="#FAFAFA"/>
<path d="M9.36157 3.88965H9.75346V4.29786H9.36157V3.88965Z" fill="#FAFAFA"/>
<path d="M4.96242 0.676359H4.53036V0.226288H4.13847V0.676359H3.7063V1.08457H4.13847V1.53465H4.53036V1.08457H4.96242V0.676359Z" fill="#FAFAFA"/>
<path d="M11.2248 1.09164V1.54172H10.7927V1.94993H11.2248V2.40011H11.6167V1.94993H12.0489V1.54172H11.6167V1.09164H11.2248Z" fill="#FAFAFA"/>
<path d="M6.94409 6.60357H7.37616V7.05374H7.76805V6.60357H8.20022V6.19549H7.76805V5.74532H7.37616V6.19549H6.94409V6.60357Z" fill="#FAFAFA"/>
<path d="M8.19946 11.3711H8.59135V11.7793H8.19946V11.3711Z" fill="#FAFAFA"/>
<path d="M7.41602 11.3711H7.8079V11.7793H7.41602V11.3711Z" fill="#FAFAFA"/>
<path d="M8.98315 11.3711H9.37504V11.7793H8.98315V11.3711Z" fill="#FAFAFA"/>
</svg>
