<svg width="38" height="38" viewBox="0 0 38 38" fill="none" xmlns="http://www.w3.org/2000/svg">
<path d="M8.83667 16.0711V2.85389C8.83667 2.63543 8.83667 2.5262 8.85946 2.42128C8.87091 2.3686 8.88659 2.31692 8.90637 2.26676C8.94575 2.16688 9.00648 2.07609 9.12792 1.8945C9.21432 1.76531 9.25752 1.70071 9.30965 1.644C9.33587 1.61547 9.36372 1.58849 9.39307 1.5632C9.45141 1.51291 9.51735 1.47179 9.64922 1.38955L9.64923 1.38955L10.1328 1.08797C10.3527 0.950846 10.4626 0.882283 10.585 0.844082C10.7073 0.805881 10.8367 0.799689 11.0955 0.787303L11.4226 0.771654L11.9147 0.794059C12.1133 0.803105 12.2127 0.807628 12.3086 0.831349C12.4045 0.85507 12.4945 0.897377 12.6745 0.981992L12.7888 1.03571C12.9407 1.10709 13.0166 1.14278 13.0852 1.19035C13.1538 1.23791 13.2139 1.29648 13.3341 1.4136L13.3891 1.46728L13.3891 1.46729C13.45 1.52659 13.4804 1.55624 13.5081 1.58832C13.5359 1.6204 13.5609 1.65476 13.6108 1.72349L13.6695 1.80415L13.6695 1.80415C13.859 2.06487 13.9537 2.19522 14.0027 2.3459C14.0517 2.49658 14.0517 2.65774 14.0517 2.98005V4.48392C14.0517 6.60241 14.0517 7.66166 14.6804 7.91307C15.3091 8.16448 16.0394 7.39731 17.5002 5.86298L21.986 1.15123C22.1467 0.982473 22.227 0.898095 22.3236 0.834814C22.4201 0.771533 22.5296 0.731568 22.7484 0.651639L22.8305 0.621667C23.1787 0.494493 23.3529 0.430906 23.5341 0.432443C23.7154 0.43398 23.8884 0.500512 24.2344 0.633575L24.3881 0.692681L24.3881 0.692685C24.5432 0.752311 24.6207 0.782125 24.692 0.824075C24.7632 0.866027 24.8269 0.919357 24.9543 1.02602L25.3823 1.38438C25.4665 1.45492 25.5086 1.49019 25.5463 1.5295C25.5889 1.57381 25.6272 1.62193 25.6609 1.67327C25.6908 1.71882 25.7158 1.76774 25.7657 1.86558L25.7657 1.86562C25.8481 2.027 25.8893 2.10769 25.915 2.19242C25.9441 2.28789 25.9586 2.38716 25.9583 2.48695C25.958 2.57551 25.9417 2.66463 25.9093 2.84288L25.6842 4.07815C25.6266 4.39396 25.5979 4.55186 25.5231 4.69087C25.4484 4.82987 25.3326 4.94096 25.1009 5.16315L12.221 17.5146C10.775 18.9013 10.052 19.5946 9.44433 19.3354C8.83667 19.0762 8.83667 18.0745 8.83667 16.0711Z" fill="#78C192"/>
<path d="M0.912537 36.7662L0.623769 36.5346C0.453248 36.3978 0.320711 36.2196 0.238858 36.0169C0.177523 35.865 0.145996 35.7027 0.145996 35.5389V35.5104C0.145996 35.4235 0.153962 35.3368 0.169795 35.2513L0.195604 35.1119C0.305078 34.5209 0.591534 33.9771 1.01702 33.5525L33.569 1.07043C34.0123 0.628152 34.6129 0.379761 35.239 0.379761H35.3793C35.9156 0.379761 36.43 0.592523 36.8097 0.971364C36.9922 1.15349 37.1383 1.36878 37.24 1.60569L37.3296 1.8143C37.595 2.43227 37.6577 3.1248 37.5115 3.78128C37.3764 4.38772 37.0687 4.94877 36.6274 5.38614L4.97463 36.7604C4.79909 36.9344 4.5962 37.0784 4.37404 37.1868C4.06536 37.3373 3.72644 37.4155 3.38302 37.4155H3.06961H2.82953C2.43618 37.4155 2.04632 37.3419 1.68008 37.1984L1.6152 37.1729C1.36177 37.0736 1.12486 36.9365 0.912537 36.7662Z" fill="#5AB4D6"/>
<path d="M36.7112 27.6638L28.331 36.4061C27.9448 36.809 27.4621 37.1066 26.9286 37.2706C26.6166 37.3666 26.292 37.4153 25.9655 37.4153H25.6226H25.258C24.9472 37.4153 24.6395 37.3543 24.3522 37.2357L24.3218 37.2232C23.999 37.0899 23.7119 36.8828 23.4835 36.6185L23.3775 36.4958C23.2063 36.2976 23.0867 36.0601 23.0293 35.8045C22.9846 35.6052 22.9788 35.3991 23.0121 35.1975L23.0702 34.8463C23.101 34.6599 23.1583 34.4789 23.2403 34.3087C23.3434 34.0946 23.4842 33.9007 23.6559 33.7364L33.4234 24.3877C33.8261 24.0023 34.3423 23.7569 34.8954 23.6879L35.0537 23.6682C35.5255 23.6093 36.0044 23.7105 36.4123 23.9548C36.7113 24.1338 36.9623 24.384 37.1418 24.6827C37.387 25.0903 37.4881 25.5685 37.4289 26.0405L37.4092 26.198C37.3402 26.749 37.0954 27.263 36.7112 27.6638Z" fill="#6D3979"/>
<path d="M36.3816 16.6896L16.2908 36.3334C16.1094 36.5107 15.9008 36.6577 15.6728 36.7688C15.3496 36.9264 14.9948 37.0082 14.6353 37.0082H14.3464H13.9566C13.6644 37.0082 13.3769 36.934 13.1211 36.7925L13.096 36.7785C12.8717 36.6544 12.6803 36.4784 12.5379 36.2652C12.3948 36.051 12.3052 35.8055 12.2769 35.5494L12.2581 35.3796V34.9725C12.2581 34.7049 12.3218 34.4411 12.4439 34.203L12.5069 34.0801C12.6187 33.8622 12.7652 33.6639 12.9407 33.493L34.5785 12.4195C34.7936 12.21 35.0914 12.1083 35.3897 12.1425C35.5585 12.1618 35.7195 12.2238 35.8576 12.3226L36.1256 12.5143C36.3333 12.663 36.5145 12.8456 36.6615 13.0545L36.7455 13.1738C36.8483 13.3199 36.9384 13.4746 37.0148 13.636L37.1321 13.8839C37.2484 14.1295 37.3103 14.3974 37.3135 14.6691C37.3162 14.9023 37.2757 15.1341 37.194 15.3526L37.1153 15.563C36.9564 15.9879 36.7059 16.3725 36.3816 16.6896Z" fill="#5773A7"/>
<path d="M0.148985 2.94497L0.544014 26.7929C0.558254 27.6525 1.57894 28.0946 2.21576 27.517L5.02883 24.9651C5.24013 24.7734 5.35951 24.5006 5.3569 24.2153L5.16007 2.63693C5.15865 2.48131 5.12093 2.32816 5.0499 2.18968L4.81489 1.73148C4.76546 1.63511 4.7007 1.54741 4.62314 1.4718L4.49532 1.3472C4.3818 1.23653 4.24358 1.15444 4.09209 1.1077L3.98401 1.07435C3.88851 1.04489 3.78914 1.02991 3.6892 1.02991H1.96622C1.91172 1.02991 1.8573 1.03436 1.80352 1.04323L1.29153 1.12766C1.08959 1.16096 0.902736 1.25541 0.756186 1.39828L0.730394 1.42342C0.620702 1.53035 0.537044 1.66106 0.485874 1.80545L0.206287 2.59438C0.166415 2.70689 0.147009 2.82562 0.148985 2.94497Z" fill="#FFD419"/>
</svg>
