<svg width="33" height="33" viewBox="0 0 33 33" fill="none" xmlns="http://www.w3.org/2000/svg">
<path d="M7.54419 13.1451V2.29012C7.54419 2.14029 7.54419 2.06538 7.55495 1.99264C7.5694 1.8949 7.59826 1.79984 7.64058 1.71056C7.67208 1.64411 7.71372 1.58184 7.79702 1.4573L7.79702 1.4573L7.79702 1.4573C7.8563 1.36867 7.88593 1.32435 7.91975 1.28379C7.96519 1.22929 8.0163 1.17979 8.07222 1.13611C8.11384 1.1036 8.15907 1.07539 8.24955 1.01896L8.24955 1.01896L8.611 0.793555C8.83088 0.656429 8.94083 0.587867 9.06314 0.549666C9.18546 0.511465 9.31488 0.505272 9.57373 0.492887L9.78894 0.482589L10.1635 0.499643C10.3622 0.508689 10.4615 0.513212 10.5575 0.536933C10.6534 0.560654 10.7434 0.602961 10.9234 0.687576L10.9348 0.692949C11.0866 0.764315 11.1625 0.799998 11.2312 0.847551L11.2312 0.847587C11.2998 0.895145 11.3606 0.954393 11.4822 1.07289C11.5405 1.12975 11.5696 1.15818 11.5961 1.18845L11.6019 1.19521C11.6281 1.22572 11.6517 1.25827 11.6991 1.32336C11.8785 1.57026 11.9683 1.69371 12.017 1.83553C12.0206 1.84598 12.024 1.85649 12.0272 1.86706C12.0712 2.01042 12.0712 2.16303 12.0712 2.46826V3.04531C12.0712 5.1638 12.0712 6.22305 12.6999 6.47446C13.3286 6.72587 14.059 5.9587 15.5197 4.42437L18.9387 0.833202C19.0769 0.688007 19.146 0.615409 19.2273 0.558374C19.2447 0.546107 19.2626 0.534402 19.2808 0.523279C19.3655 0.47156 19.4597 0.437176 19.648 0.368406C19.9475 0.259045 20.0972 0.204365 20.2526 0.197915C20.2859 0.196534 20.3192 0.196817 20.3525 0.198762C20.5078 0.207848 20.6566 0.26506 20.9542 0.379485L21.003 0.398264C21.1581 0.457893 21.2356 0.487708 21.3068 0.529659C21.3781 0.57161 21.4418 0.624938 21.5691 0.731592L21.5692 0.731599L21.907 1.01448C21.9596 1.05853 21.9859 1.08056 22.0104 1.10411C22.0744 1.16557 22.13 1.23528 22.1756 1.31139C22.1931 1.34056 22.2087 1.37111 22.2398 1.4322L22.2399 1.43223C22.2913 1.53298 22.317 1.58335 22.3365 1.635C22.3876 1.77004 22.4088 1.91454 22.3987 2.05856C22.3949 2.11366 22.3847 2.16929 22.3644 2.28056L22.1844 3.26884C22.1268 3.58465 22.0981 3.74256 22.0233 3.88156C21.9486 4.02056 21.8328 4.13166 21.6011 4.35384L10.9285 14.5886C9.48251 15.9752 8.75952 16.6685 8.15185 16.4094C7.54419 16.1502 7.54419 15.1485 7.54419 13.1451Z" fill="#78C192"/>
<path d="M0.665414 31.7285L0.414742 31.5274C0.266717 31.4087 0.151665 31.2539 0.0806107 31.078C0.027368 30.9461 0 30.8053 0 30.6631V30.6383C0 30.5629 0.00691536 30.4876 0.0206594 30.4134L0.0430635 30.2924C0.138094 29.7794 0.386759 29.3073 0.756116 28.9387L29.0137 0.74189C29.3984 0.357956 29.9198 0.142334 30.4633 0.142334H30.5851C31.0507 0.142334 31.4972 0.327027 31.8268 0.655889C31.9852 0.813984 32.112 1.00088 32.2003 1.20653L32.2781 1.38762C32.5085 1.92406 32.5629 2.52523 32.436 3.09511C32.3188 3.62154 32.0516 4.10857 31.6686 4.48824L4.19161 31.7234C4.03922 31.8744 3.8631 31.9995 3.67025 32.0935C3.4023 32.2242 3.10809 32.2921 2.80997 32.2921H2.53791H2.3295C1.98805 32.2921 1.64962 32.2282 1.3317 32.1036L1.27537 32.0815C1.05538 31.9953 0.849727 31.8763 0.665414 31.7285Z" fill="#5AB4D6"/>
<path d="M31.7417 23.8269L24.4671 31.4158C24.1319 31.7656 23.7128 32.0239 23.2498 32.1663C22.9789 32.2496 22.6971 32.292 22.4137 32.292H22.1161H21.7995C21.5298 32.292 21.2626 32.239 21.0133 32.136L20.9869 32.1251C20.7066 32.0094 20.4574 31.8297 20.2592 31.6002L20.1672 31.4938C20.0185 31.3217 19.9147 31.1155 19.8649 30.8936C19.8261 30.7206 19.821 30.5417 19.85 30.3667L19.9004 30.0618C19.9271 29.9 19.9768 29.7429 20.048 29.5952C20.1375 29.4093 20.2597 29.241 20.4088 29.0984L28.8877 20.983C29.2373 20.6484 29.6853 20.4354 30.1655 20.3755L30.3029 20.3584C30.7125 20.3073 31.1282 20.3952 31.4823 20.6072C31.7419 20.7626 31.9597 20.9798 32.1156 21.239C32.3284 21.5929 32.4161 22.008 32.3648 22.4178L32.3477 22.5545C32.2878 23.0328 32.0753 23.479 31.7417 23.8269Z" fill="#6D3979"/>
<path d="M31.4551 14.3005L14.0148 31.3528C13.8574 31.5067 13.6763 31.6343 13.4784 31.7308C13.1979 31.8675 12.8899 31.9386 12.5778 31.9386H12.327H11.9887C11.7349 31.9386 11.4854 31.8742 11.2634 31.7513L11.2416 31.7392C11.0468 31.6315 10.8807 31.4787 10.7571 31.2936C10.6328 31.1076 10.5551 30.8945 10.5305 30.6722L10.5142 30.5249V30.1714C10.5142 29.9391 10.5695 29.7102 10.6755 29.5035L10.7302 29.3968C10.8272 29.2076 10.9544 29.0354 11.1067 28.8871L29.89 10.5937C30.0767 10.4119 30.3352 10.3236 30.5942 10.3533C30.7406 10.3701 30.8804 10.4239 31.0003 10.5097L31.2329 10.6761C31.4133 10.8052 31.5705 10.9637 31.6982 11.145L31.771 11.2486C31.8603 11.3754 31.9385 11.5097 32.0049 11.6498L32.1067 11.865C32.2076 12.0782 32.2613 12.3107 32.2641 12.5466C32.2665 12.7491 32.2313 12.9502 32.1604 13.1399L32.0921 13.3226C31.9541 13.6914 31.7367 14.0253 31.4551 14.3005Z" fill="#5773A7"/>
<path d="M0.00298936 2.39301L0.340685 22.7797C0.354925 23.6394 1.37561 24.0815 2.01243 23.5038L4.19483 21.5241C4.40614 21.3324 4.52551 21.0596 4.52291 20.7743L4.35287 2.13303C4.35145 1.9774 4.31373 1.82425 4.2427 1.68577L4.06279 1.33501C4.01336 1.23863 3.9486 1.15093 3.87104 1.07532L3.79832 1.00443C3.6848 0.893763 3.54659 0.811672 3.39509 0.764932L3.35068 0.751231C3.25518 0.721768 3.15581 0.706787 3.05587 0.706787H1.5909C1.53639 0.706787 1.48198 0.711243 1.4282 0.720112L1.01213 0.78872C0.825297 0.819528 0.652416 0.906921 0.516827 1.0391C0.415339 1.13803 0.337938 1.25896 0.290595 1.39255L0.0602904 2.04242C0.0204189 2.15493 0.00101242 2.27366 0.00298936 2.39301Z" fill="#FFD419"/>
</svg>
