<svg width="24" height="25" viewBox="0 0 24 25" fill="none" xmlns="http://www.w3.org/2000/svg">
<path d="M17.7813 15.88C18.3408 15.3849 18.9859 14.4556 19.4647 13.4545C19.7756 12.8047 20.2791 11.5711 20.1586 10.6124L19.5119 5.4685L19.5117 5.46864C19.4829 5.22659 19.3671 5.00493 19.1873 4.84868C19.0076 4.69229 18.7777 4.61291 18.5439 4.62644C18.3062 4.6383 18.0819 4.74404 17.9166 4.92234C17.7513 5.10063 17.6576 5.33794 17.6546 5.58569L17.6142 10.5464C17.4954 10.8946 17.3241 11.2208 17.1067 11.5129C17.0802 11.5535 17.0538 11.5948 17.0258 11.6367L17.2696 9.98947C17.3107 9.65995 17.197 9.32987 16.964 9.1029C16.7309 8.87606 16.4071 8.77994 16.0942 8.84467C15.7814 8.90954 15.5177 9.12746 15.3858 9.43021C15.2145 9.87385 15.0875 10.3348 15.0069 10.8055C14.8739 11.4556 14.7484 12.0697 14.3751 12.616C13.7178 13.5788 12.9015 14.776 13.4423 16.2996C13.5729 16.6674 13.7008 17.0962 13.836 17.5502C13.8445 17.5788 13.8532 17.6076 13.8619 17.6365V17.6364C13.7416 17.6926 13.6435 17.79 13.5836 17.9123C13.5239 18.0347 13.5059 18.1748 13.5331 18.3091L13.7368 19.3124C13.7644 19.4471 13.8354 19.5679 13.938 19.6547C14.0406 19.7413 14.1687 19.7889 14.3009 19.7893C14.3411 19.7891 14.3813 19.7848 14.4206 19.7762L18.0227 18.9828C18.1722 18.9494 18.3029 18.8557 18.3862 18.7222C18.4695 18.5887 18.4987 18.4261 18.4674 18.2703L18.2633 17.267C18.2347 17.1282 18.1601 17.0044 18.0526 16.9173C17.945 16.8303 17.8114 16.7857 17.6753 16.7914C17.5781 16.3212 17.613 16.0288 17.7814 15.8799L17.7813 15.88ZM14.7957 12.928C15.2306 12.2903 15.3735 11.5925 15.5115 10.9175C15.5851 10.4827 15.7013 10.0568 15.8581 9.64661C15.9496 9.42758 16.1808 9.31081 16.4025 9.37164C16.638 9.42521 16.7939 9.65917 16.7597 9.90764L16.279 13.1546C16.2592 13.293 16.3445 13.4241 16.4753 13.4562C16.6061 13.4881 16.7386 13.4103 16.7799 13.2771C16.9624 12.7539 17.2163 12.2607 17.5337 11.8129C17.7983 11.4611 17.998 11.0614 18.1231 10.6339C18.1267 10.6162 18.1286 10.5981 18.1287 10.5798L18.1692 5.59014V5.59028C18.1729 5.36037 18.348 5.17314 18.5685 5.16339C18.7843 5.15069 18.9726 5.31434 18.9992 5.53782L19.6459 10.6814C19.8076 11.9749 18.5239 14.5167 17.4462 15.4703C17.0454 15.8248 17.0622 16.3848 17.1667 16.8939L14.3645 17.5117C14.3523 17.4713 14.3403 17.4311 14.3283 17.3909C14.1909 16.9299 14.0611 16.4944 13.9259 16.1133C13.4799 14.8559 14.1486 13.8759 14.7956 12.928L14.7957 12.928ZM17.7583 17.3784L17.962 18.3817C17.9684 18.416 17.9475 18.4494 17.9149 18.4573L14.3142 19.2506C14.2812 19.2573 14.2492 19.2355 14.2417 19.2015L14.038 18.1981C14.0316 18.1639 14.0525 18.1305 14.0852 18.1228L17.6862 17.3292C17.719 17.3226 17.7511 17.3442 17.7585 17.3784L17.7583 17.3784ZM8.99282 10.8055C8.91219 10.3348 8.78523 9.87386 8.61393 9.43022C8.48201 9.12748 8.21831 8.90957 7.90545 8.84468C7.59259 8.77995 7.26876 8.87607 7.03572 9.10291C6.80269 9.3299 6.68899 9.65998 6.7301 9.98948L6.97385 11.6367C6.94693 11.5945 6.92054 11.5535 6.89295 11.5129C6.67599 11.2211 6.50511 10.895 6.38655 10.5472L6.34611 5.58653C6.34303 5.33876 6.24928 5.10146 6.08401 4.92317C5.91874 4.74488 5.69442 4.63913 5.45682 4.62727C5.22298 4.61374 4.99304 4.69312 4.81328 4.84937C4.63368 5.00576 4.5177 5.22744 4.4889 5.46948L3.84217 10.6134C3.72097 11.5728 4.22521 12.8062 4.53605 13.4555C5.01485 14.4566 5.65997 15.3859 6.21941 15.881C6.38776 16.0298 6.42151 16.3231 6.32548 16.7924V16.7923C6.18941 16.7865 6.05561 16.8312 5.94806 16.9181C5.84052 17.0052 5.76592 17.129 5.73753 17.2679L5.53235 18.2704C5.50101 18.4262 5.53021 18.5887 5.61351 18.7222C5.69681 18.8557 5.82753 18.9495 5.97701 18.9828L9.57804 19.7763V19.7762C9.61754 19.7849 9.65772 19.7892 9.69804 19.7893C9.83023 19.7889 9.95826 19.7413 10.061 19.6547C10.1636 19.5679 10.2346 19.4471 10.2621 19.3125L10.4659 18.3091C10.493 18.1748 10.4751 18.0347 10.4154 17.9124C10.3555 17.79 10.2573 17.6927 10.1371 17.6364L10.1628 17.5509C10.2982 17.0968 10.4255 16.6667 10.5566 16.2995C11.0983 14.7761 10.282 13.5788 9.62476 12.6167C9.25122 12.0697 9.12587 11.4555 8.99287 10.8054L8.99282 10.8055ZM9.96167 18.198L9.75796 19.2014H9.7581C9.7506 19.2354 9.71859 19.2572 9.68564 19.2505L6.08495 18.4572C6.05227 18.4493 6.03138 18.4159 6.03781 18.3816L6.24152 17.3782C6.245 17.3618 6.25464 17.3474 6.26817 17.3385C6.27808 17.3317 6.28973 17.328 6.30152 17.3279C6.30567 17.3279 6.30982 17.3283 6.31384 17.3291L9.91487 18.1227C9.94755 18.1303 9.96844 18.1638 9.96201 18.198L9.96167 18.198ZM10.0732 16.1138C9.93783 16.4952 9.80805 16.931 9.67037 17.3925C9.65859 17.4323 9.64653 17.4723 9.63461 17.5123L6.83203 16.8941C6.93689 16.385 6.95324 15.825 6.55252 15.4705C5.47492 14.5171 4.1903 11.9758 4.35275 10.6816L4.99948 5.53802V5.53788C5.02613 5.31453 5.21444 5.15074 5.43018 5.16345C5.65076 5.17322 5.8258 5.36044 5.82954 5.59034L5.87092 10.58V10.5798C5.87106 10.5981 5.87293 10.6163 5.87655 10.634C6.00163 11.0614 6.20132 11.4611 6.46595 11.813C6.78336 12.2608 7.03729 12.754 7.21969 13.2771C7.26107 13.4104 7.39353 13.4882 7.52438 13.4562C7.65509 13.4242 7.7404 13.293 7.72058 13.1546L7.2399 9.9077C7.20575 9.6591 7.36164 9.42513 7.59722 9.3717C7.81901 9.31102 8.05003 9.42778 8.14151 9.64667C8.29834 10.0568 8.41459 10.4827 8.4881 10.9176C8.62618 11.5925 8.76908 12.2905 9.20395 12.9281C9.85096 13.8759 10.5197 14.8559 10.0733 16.1132L10.0732 16.1138ZM13.6249 4.11375H12.8283V3.28411C12.8284 3.21282 12.8012 3.14446 12.7529 3.0941C12.7045 3.04359 12.6389 3.01528 12.5705 3.01528H11.4287C11.2864 3.01556 11.1711 3.13581 11.1711 3.28411V4.11364H10.3747C10.2323 4.11364 10.1169 4.2339 10.1169 4.3822V5.57191C10.1168 5.6432 10.1439 5.71156 10.1923 5.76206C10.2406 5.81243 10.3063 5.84074 10.3747 5.84074H11.1711V6.67028C11.1711 6.74157 11.1982 6.80993 11.2466 6.86029C11.2951 6.91066 11.3607 6.93897 11.4291 6.93883H12.5713C12.6396 6.93869 12.7051 6.9101 12.7533 6.85959C12.8015 6.80909 12.8285 6.74059 12.8283 6.66944V5.83991H13.6246C13.6931 5.83991 13.7587 5.81158 13.807 5.76122C13.8554 5.71072 13.8826 5.64236 13.8824 5.57107V4.38136C13.8824 4.2332 13.7673 4.11308 13.625 4.11281L13.6249 4.11375ZM13.3668 5.30347H12.5709C12.5024 5.30347 12.4367 5.33165 12.3883 5.38215C12.34 5.43251 12.3128 5.50087 12.3128 5.57216V6.39987H11.6863V5.57034L11.6861 5.57048C11.6861 5.42204 11.5707 5.30178 11.4283 5.30178H10.632V4.64918H11.4283C11.5708 4.64904 11.6861 4.52878 11.6861 4.38034V3.55081H12.3127V4.38034H12.3128C12.3128 4.45163 12.34 4.51999 12.3883 4.57036C12.4367 4.62086 12.5023 4.64918 12.5709 4.64918H13.3669L13.3668 5.30347ZM16.83 3.46893C16.9666 2.82804 16.8741 2.15714 16.5696 1.58236C16.2652 1.00743 15.77 0.568001 15.1767 0.346465C14.2287 0.00229747 12.9355 0.244344 11.9997 1.85722C11.064 0.244358 9.77076 0.00232247 8.82283 0.346465C8.22951 0.568005 7.73425 1.00747 7.42983 1.58236C7.12541 2.15714 7.03287 2.82804 7.16947 3.46893C7.40478 4.58472 8.41058 6.3675 11.8673 8.5325C11.9491 8.58356 12.0515 8.58356 12.1333 8.5325C15.5893 6.36747 16.5956 4.58393 16.8301 3.46893H16.83ZM11.9998 7.98822C8.63864 5.85275 7.84544 4.17143 7.67298 3.35357C7.56208 2.841 7.63508 2.30375 7.87816 1.84339C8.12124 1.38286 8.51766 1.03104 8.99272 0.854001C9.18933 0.781315 9.39636 0.743651 9.60503 0.742673C10.4434 0.742673 11.2233 1.37674 11.7676 2.5376C11.811 2.62982 11.9008 2.68827 11.9994 2.68827C12.098 2.68827 12.1878 2.62982 12.2312 2.5376C12.9069 1.0976 13.9444 0.468387 15.0065 0.853458C15.4815 1.03035 15.878 1.38235 16.121 1.84271C16.3641 2.30324 16.4371 2.84035 16.3262 3.35303C16.1541 4.17124 15.361 5.8526 11.9997 7.98803L11.9998 7.98822Z" fill="#FAFAFA"/>
</svg>
