<svg width="694" height="511" viewBox="0 0 694 511" fill="none" xmlns="http://www.w3.org/2000/svg">
<path d="M323.029 236.863C326.199 238.506 328.908 240.692 330.974 243.273C333.335 246.827 343.23 249.14 343.23 249.14H346.884L348.383 263.372C344.616 263.474 340.86 263.774 337.139 264.272C334.946 264.673 332.713 264.907 330.468 264.97C330.468 264.97 318.869 252.88 316.939 250.568C315.008 248.255 314.802 243.459 315.664 242.559C316.526 241.659 323.029 236.863 323.029 236.863Z" fill="white" stroke="#263238" stroke-width="0.75" stroke-linecap="round" stroke-linejoin="round"/>
<path d="M307.57 261.06C307.57 261.06 301.124 262.845 303.916 264.273C305.351 264.802 306.95 264.948 308.491 264.693C310.031 264.437 311.438 263.791 312.517 262.845C313.585 261.417 310.193 260.346 307.57 261.06Z" fill="white" stroke="#263238" stroke-width="0.75" stroke-linecap="round" stroke-linejoin="round"/>
<path d="M300.486 244.702C300.486 244.702 319.6 239.006 320.462 239.534C321.324 240.062 322.823 244.873 322.823 244.873C322.823 244.873 336.128 251.454 337.214 253.953C338.076 257.831 338.076 261.808 337.214 265.686C336.559 266.586 332.923 267.642 331.593 267.999C330.251 268.274 328.849 268.274 327.507 267.999C326.87 267.828 316.545 261.791 316.545 261.791C316.545 261.791 306.032 262.675 303.671 262.675C301.31 262.675 298.93 262.504 298.93 262.504L300.486 244.702Z" fill="white" stroke="#263238" stroke-width="0.75" stroke-linecap="round" stroke-linejoin="round"/>
<path d="M324.322 251.409C324.322 251.409 331.406 254.621 332.924 256.391C334.441 258.16 335.922 265.827 335.922 265.827" stroke="#263238" stroke-width="0.75" stroke-linecap="round" stroke-linejoin="round"/>
<path d="M321.324 254.668C321.324 254.668 329.701 258.393 330.544 260.178C331.346 262.455 331.972 264.773 332.418 267.116" stroke="#263238" stroke-width="0.75" stroke-linecap="round" stroke-linejoin="round"/>
<path d="M325.615 240.246C325.615 240.246 316.377 248.783 314.222 249.683C312.067 250.583 311.655 249.497 310.474 248.783C309.294 248.069 317.351 238.477 317.145 237.763C318.271 237.075 319.642 236.718 321.041 236.749C322.44 236.78 323.786 237.197 324.866 237.934" fill="white"/>
<path d="M325.615 240.246C325.615 240.246 316.377 248.783 314.222 249.683C312.067 250.583 311.655 249.497 310.474 248.783C309.294 248.069 317.351 238.477 317.145 237.763C318.271 237.075 319.642 236.718 321.041 236.749C322.44 236.78 323.786 237.197 324.866 237.934" stroke="#263238" stroke-width="0.75" stroke-linecap="round" stroke-linejoin="round"/>
<path d="M312.067 259.169L311.73 260.131C311.051 261.833 310.654 263.603 310.549 265.393C310.98 266.107 313.566 266.821 314.428 265.75C315.29 264.679 316.996 259.355 316.565 258.641C316.134 257.928 314.447 254.839 312.067 259.169Z" fill="white" stroke="#263238" stroke-width="0.75" stroke-linecap="round" stroke-linejoin="round"/>
<path d="M320.237 258.39C319.562 259.088 316.489 266.755 317.239 267.702C317.988 268.649 321.099 268.959 321.961 267.888C322.823 266.817 325.821 260.128 324.959 258.576C324.097 257.024 323.31 255.363 320.237 258.39Z" fill="white" stroke="#263238" stroke-width="0.75" stroke-linecap="round" stroke-linejoin="round"/>
<path d="M325.615 259.991L325.296 260.612C324.359 262.459 321.68 268.031 322.392 269.071C323.104 270.111 327.32 270.623 328.182 268.9C329.044 267.177 332.061 260.534 330.056 258.936C329.742 258.626 329.326 258.398 328.858 258.28C328.391 258.162 327.892 258.159 327.422 258.27C326.953 258.382 326.532 258.604 326.211 258.909C325.89 259.215 325.683 259.59 325.615 259.991V259.991Z" fill="white" stroke="#263238" stroke-width="0.75" stroke-linecap="round" stroke-linejoin="round"/>
<path d="M177.781 110.39C177.781 110.39 178.905 116.117 177.612 118.398C176.319 120.68 174.389 125.46 174.389 125.46L202.91 146.413C202.91 146.413 211.605 137.333 213.217 135.548C214.828 133.764 216.965 131.404 216.965 131.404C216.965 131.404 202.948 124.063 200.099 118.724C197.251 113.385 198.656 106.587 192.604 105.516C186.551 104.445 179.561 107.193 177.781 110.39Z" fill="white" stroke="#263238" stroke-width="0.75" stroke-linecap="round" stroke-linejoin="round"/>
<path d="M232.068 75.0326C232.068 75.0326 243.986 74.8929 241.569 65.4254C239.152 55.9579 211.286 53.9402 206.133 58.3481C200.98 62.7559 201.786 64.5563 201.786 64.5563C201.786 64.5563 177.781 64.0286 171.653 74.8308C165.525 85.6331 168.28 99.6636 172.309 106.989C176.338 114.315 183.103 115.122 186.644 114.191C190.186 113.26 192.753 111.521 192.753 108.852C192.753 106.182 195.021 99.7878 197.757 101.386C200.493 102.985 203.378 103.513 208.232 99.6481C213.085 95.7835 219.981 90.9721 217.414 87.1075C214.847 83.2429 210.481 83.1032 212.898 81.3649C215.315 79.6266 229.014 78.2608 230.288 77.0968C230.998 76.4829 231.597 75.7877 232.068 75.0326V75.0326Z" fill="#263238" stroke="#263238" stroke-width="0.75" stroke-linecap="round" stroke-linejoin="round"/>
<path d="M231.488 69.351C231.488 69.351 233.174 72.1602 217.134 75.6523C201.093 79.1444 174.033 79.8428 173.228 88.2394" stroke="white" stroke-width="0.75" stroke-linecap="round" stroke-linejoin="round"/>
<path d="M200.287 85.447C200.287 85.447 180.873 90.336 176.638 95.9389C172.403 101.542 178.343 106.415 178.343 106.415" stroke="white" stroke-width="0.75" stroke-linecap="round" stroke-linejoin="round"/>
<path d="M232.07 75.0338C232.07 75.0338 236.586 87.6985 236.586 90.2439C236.586 92.7893 233.363 95.3036 234.806 98.1128C236.249 100.922 241.084 106.385 241.084 108.123C241.084 109.862 234 111.585 234 111.585C234 111.585 228.041 130.209 226.748 132.537C225.455 134.865 221.126 135.207 215.954 134.089C210.782 132.972 197.121 127.012 193.467 122.356C189.813 117.7 192.493 109.8 192.493 109.8C192.493 109.8 184.997 107.006 183.479 101.139C181.961 95.2725 187.508 91.3924 192.343 92.7272C193.702 93.0602 194.962 93.6241 196.043 94.3831C197.124 95.142 198.002 96.0793 198.621 97.135C198.621 97.135 199.108 98.5939 200.495 98.2059C201.881 97.8179 203.23 95.3967 204.523 95.257C205.816 95.1173 214.999 92.4633 213.893 89.5299C212.787 86.5966 201.319 86.4259 202.125 83.12C202.931 79.8141 232.07 75.0338 232.07 75.0338Z" fill="white" stroke="#263238" stroke-width="0.75" stroke-linecap="round" stroke-linejoin="round"/>
<path d="M217.734 108.914L213.068 111.583" stroke="#263238" stroke-width="0.75" stroke-linecap="round" stroke-linejoin="round"/>
<path d="M215.953 110.652C215.953 110.652 217.415 113.849 223.449 114.92Z" fill="white"/>
<path d="M215.953 110.652C215.953 110.652 217.415 113.849 223.449 114.92" stroke="#263238" stroke-width="0.75" stroke-linecap="round" stroke-linejoin="round"/>
<path d="M216.121 111.583C216.121 111.583 213.385 117.791 216.758 119.188C220.131 120.585 221.593 114.796 221.593 114.796L216.121 111.583Z" fill="black"/>
<path d="M234.318 99.1209C234.13 102.365 233.137 104.957 232.107 104.91C231.076 104.863 230.42 102.209 230.626 98.9657C230.832 95.7219 231.807 93.1455 232.837 93.1765C233.868 93.2076 234.524 95.8771 234.318 99.1209Z" fill="white" stroke="#263238" stroke-width="0.75" stroke-linecap="round" stroke-linejoin="round"/>
<path d="M230.626 95.8456H197.757" stroke="#263238" stroke-width="0.75" stroke-linecap="round" stroke-linejoin="round"/>
<path d="M228.359 92.2433C228.605 91.5156 229.053 90.8457 229.668 90.2877C230.284 89.7297 231.048 89.2991 231.901 89.0306C234.656 88.3632 235.124 89.5738 235.124 89.5738" fill="white"/>
<path d="M228.359 92.2433C228.605 91.5156 229.053 90.8457 229.668 90.2877C230.284 89.7297 231.048 89.2991 231.901 89.0306C234.656 88.3632 235.124 89.5738 235.124 89.5738" stroke="#263238" stroke-width="0.75" stroke-linecap="round" stroke-linejoin="round"/>
<path d="M116.617 318.348L216.497 315.865C216.497 315.865 222.719 373.136 221.219 374.393C219.72 375.65 120.702 379.049 120.702 379.049C120.702 379.049 113.038 379.499 111.951 376.659C110.864 373.819 116.617 318.348 116.617 318.348Z" fill="white" stroke="#263238" stroke-width="0.75" stroke-linecap="round" stroke-linejoin="round"/>
<path d="M116.617 318.346C116.617 318.346 107.247 375.089 108.878 376.703C110.508 378.317 118.247 379.481 120.702 379.016C122.951 378.674 116.617 318.346 116.617 318.346Z" fill="white" stroke="#263238" stroke-width="0.75" stroke-linecap="round" stroke-linejoin="round"/>
<path d="M146.038 473.831C140.547 476.609 137.886 481.296 139.179 485.037C140.472 488.777 140.884 489.134 144.332 489.693C147.78 490.252 163.222 488.265 179.937 485.953C196.652 483.64 199.07 483.112 200.55 481.157C202.03 479.201 204.635 477.246 188.088 474.949C171.542 472.651 170.043 470.137 170.043 470.137C170.043 470.137 154.845 469.377 146.038 473.831Z" fill="#92E3A9" stroke="#263238" stroke-width="0.75" stroke-linecap="round" stroke-linejoin="round"/>
<path d="M200.1 477.524C198.975 479.433 195.452 482.863 184.378 483.965C172.666 485.129 151.471 486.883 140.284 487.674C141.052 488.994 141.989 489.226 144.332 489.661C147.761 490.189 163.221 488.233 179.936 485.921C196.652 483.608 199.069 483.08 200.55 481.125C201.505 479.945 202.798 478.766 200.1 477.524Z" fill="#263238" stroke="#263238" stroke-width="0.75" stroke-linecap="round" stroke-linejoin="round"/>
<path d="M175.682 478.628C175.682 478.628 192.866 485.395 202.329 486.994C211.793 488.593 214.135 488.779 213.067 491.262C211.999 493.745 211.774 494.475 197.382 497.315C182.99 500.155 167.306 496.958 160.428 495.887C153.551 494.816 151.415 496.43 148.417 495.359C145.418 494.289 146.262 488.95 146.262 488.95L175.682 478.628Z" fill="#92E3A9" stroke="#263238" stroke-width="0.75" stroke-linecap="round" stroke-linejoin="round"/>
<path d="M197.383 497.314C209.47 494.924 211.55 494.04 212.543 492.332C199.426 496.988 182.036 495.064 168.769 493.807C160.223 492.984 152.072 492.255 146.282 491.867C146.251 492.556 146.437 493.24 146.821 493.852C147.206 494.464 147.775 494.983 148.474 495.359C151.472 496.43 153.627 494.831 160.486 495.886C167.344 496.942 182.992 500.155 197.383 497.314Z" fill="#263238" stroke="#263238" stroke-width="0.75" stroke-linecap="round" stroke-linejoin="round"/>
<path d="M156.362 347.884C156.362 347.884 153.345 368.154 147.33 376.876C141.315 385.599 133.163 391.636 131.87 404.27C130.577 416.904 134.869 468.494 135.3 472.948C135.731 477.402 133.426 478.815 135.731 481.655C137.175 483.398 138.752 485.062 140.453 486.637L147.555 481.484C147.555 481.484 152.708 467.78 151.415 441.628C150.122 415.476 150.347 397.875 155.931 380.43C161.516 362.985 162.584 358.376 159.998 351.609C157.412 344.842 156.362 347.884 156.362 347.884Z" fill="#263238" stroke="#263238" stroke-width="0.75" stroke-linecap="round" stroke-linejoin="round"/>
<path d="M142.832 305.853C142.832 305.853 149.916 316.919 151.527 319.821C153.139 322.724 156.831 356.388 153.945 367.593C151.059 378.799 139.815 397.843 140.827 414.558C141.839 431.274 142.701 475.585 142.701 476.113C142.055 478.755 142.055 481.479 142.701 484.121C143.769 488.917 146.993 490.329 146.993 490.329C152.461 488.221 158.134 486.497 163.952 485.177C174.483 482.678 177.481 479.124 177.481 479.124C176.562 476.819 175.486 474.56 174.258 472.357C172.759 469.873 170.192 465.962 170.623 464.705C171.054 463.448 173.846 422.552 179.43 409.033C185.014 395.515 188.219 381.283 192.96 368.82C197.701 356.357 209.001 322.972 209.001 314.436V303.944L141.989 302.873L142.832 305.853Z" fill="#263238" stroke="#263238" stroke-width="0.75" stroke-linecap="round" stroke-linejoin="round"/>
<path d="M148.36 385.566C146.486 390.331 144.406 395.67 142.832 399.907C139.084 409.995 142.832 466.645 142.832 466.645C143.242 470.774 143.36 474.92 143.188 479.061C142.832 484.199 143.188 486.232 144.724 487.613" stroke="white" stroke-width="0.75" stroke-linecap="round" stroke-linejoin="round"/>
<path d="M153.14 373.523C153.14 373.523 151.754 376.953 149.898 381.656" stroke="white" stroke-width="0.75" stroke-linecap="round" stroke-linejoin="round"/>
<path d="M172.31 120.663C172.31 120.663 179.806 122.79 191.049 130.938C202.293 139.086 213.761 146.815 211.344 149.562C208.927 152.31 204.41 161.979 204.41 161.979C204.41 161.979 200.232 156.236 187.826 148.01C175.421 139.785 165.901 132.397 165.901 132.397C165.901 132.397 171.017 122.402 172.31 120.663Z" fill="white" stroke="#263238" stroke-width="0.75" stroke-linecap="round" stroke-linejoin="round"/>
<path d="M162.321 133.731C162.321 133.731 138.316 147.87 134.213 161.482C130.109 175.093 128.403 181.767 128.741 207.78C129.078 233.792 130.989 250.213 130.989 251.408C130.989 252.603 124.674 300.918 124.674 301.446C124.674 301.973 135.918 310.525 167.362 311.053C188.703 311.166 210.016 309.785 231.076 306.924L217.377 213.258C217.377 213.258 212.055 173.355 206.583 165.89C201.112 158.424 162.321 133.731 162.321 133.731Z" fill="#92E3A9" stroke="#263238" stroke-width="0.75" stroke-linecap="round" stroke-linejoin="round"/>
<path d="M176.171 263.56C176.171 263.56 196.147 266.897 209.902 262.753" stroke="#263238" stroke-width="0.75" stroke-linecap="round" stroke-linejoin="round"/>
<path d="M176.171 268.481C176.171 268.481 196.147 271.818 209.902 267.689" stroke="#263238" stroke-width="0.75" stroke-linecap="round" stroke-linejoin="round"/>
<path d="M297.038 242.031L301.985 243.987L298.968 262.487L294.04 261.774L297.038 242.031Z" fill="white" stroke="#263238" stroke-width="0.75" stroke-linecap="round" stroke-linejoin="round"/>
<path d="M183.628 158.067C180.817 158.802 178.298 160.154 176.339 161.978C173.115 165.083 155.725 182.962 157 190.8C158.274 198.638 180.892 227.258 188.388 236.166C197.616 247.456 210.908 256.048 226.372 260.72C245.28 266.416 294.471 263.576 294.471 263.576L297.075 241.49C297.075 241.49 270.241 234.381 251.764 229.756C241.488 227.239 231.437 224.128 221.688 220.444C221.688 220.444 217.396 211.722 214.379 210.309C211.362 208.897 210.95 207.997 210.95 207.997C210.95 207.997 205.159 181.845 202.142 173.293C199.125 164.741 195.059 162.63 195.059 162.63" fill="#92E3A9"/>
<path d="M183.628 158.067C180.817 158.802 178.298 160.154 176.339 161.978C173.115 165.083 155.725 182.962 157 190.8C158.274 198.638 180.892 227.258 188.388 236.166C197.616 247.456 210.908 256.048 226.372 260.72C245.28 266.416 294.471 263.576 294.471 263.576L297.075 241.49C297.075 241.49 270.241 234.381 251.764 229.756C241.488 227.239 231.437 224.128 221.688 220.444C221.688 220.444 217.396 211.722 214.379 210.309C211.362 208.897 210.95 207.997 210.95 207.997C210.95 207.997 205.159 181.845 202.142 173.293C199.125 164.741 195.059 162.63 195.059 162.63" stroke="#263238" stroke-width="0.75" stroke-linecap="round" stroke-linejoin="round"/>
<path d="M434.734 469.704C427.072 473.368 419.107 476.579 410.898 479.311C399.935 482.695 397.349 483.967 399.504 485.892C401.659 487.816 420.342 489.275 430.855 487.444C441.368 485.613 445.472 484.433 450.194 484.604C454.916 484.775 461.437 485.845 463.724 483.176C466.01 480.506 466.947 479.979 465.223 475.524C463.499 471.07 434.734 469.704 434.734 469.704Z" fill="#92E3A9" stroke="#263238" stroke-width="0.75" stroke-linecap="round" stroke-linejoin="round"/>
<path d="M430.855 487.488C441.386 485.719 445.471 484.477 450.194 484.648C454.916 484.819 461.437 485.89 463.723 483.22C465.41 481.311 466.328 480.489 466.084 478.564C458.439 478.036 443.691 480.039 426.114 483.22C417.218 485.014 407.993 485.404 398.923 484.369C398.821 484.646 398.821 484.942 398.925 485.219C399.028 485.496 399.23 485.74 399.504 485.921C401.659 487.845 420.342 489.273 430.855 487.488Z" fill="#263238" stroke="#263238" stroke-width="0.75" stroke-linecap="round" stroke-linejoin="round"/>
<path d="M475.324 481.454C471.022 485.308 466.434 488.936 461.588 492.318C454.486 497.114 442.249 503.71 443.542 506.55C444.835 509.391 453.624 512.06 472.101 508.102C483.925 505.425 495.111 501.095 505.175 495.298C507.239 494.981 509.081 494.027 510.329 492.628C511.846 490.487 510.123 487.119 510.123 487.119L475.324 481.454Z" fill="#92E3A9" stroke="#263238" stroke-width="0.75" stroke-linecap="round" stroke-linejoin="round"/>
<path d="M472.101 508.131C483.926 505.453 495.112 501.123 505.176 495.326C507.24 495.009 509.082 494.055 510.329 492.657C511.147 491.017 511.147 489.175 510.329 487.535C483.607 504.282 458.609 507.712 445.379 508.208C448.864 510.195 457.447 511.235 472.101 508.131Z" fill="#263238" stroke="#263238" stroke-width="0.75" stroke-linecap="round" stroke-linejoin="round"/>
<path d="M443.242 274.192C443.242 274.192 431.867 275.449 423.697 272.95C415.526 270.452 407.806 268.512 407.806 268.512C407.806 268.512 403.29 317.075 408.237 336.647C413.184 356.218 426.283 380.104 426.489 385.567C426.751 392.139 427.685 398.681 429.281 405.123C430.78 410.105 438.088 448.58 438.519 452.802C438.806 454.932 438.806 457.082 438.519 459.212C438.519 459.212 433.366 460.64 433.366 461.881V470.945C437.616 472.796 442.079 474.288 446.69 475.4C454.635 477.355 465.804 478.954 465.804 478.954C466.762 475.369 467.476 471.741 467.94 468.089C467.94 465.606 466.066 459.026 466.066 455.456C466.066 451.886 467.153 409.205 467.153 409.205C467.153 409.205 477.666 445.678 477.666 457.768C477.666 469.859 477.459 473.786 477.459 473.786C477.459 473.786 472.737 472.544 472.737 475.213C472.737 477.883 472.512 484.277 472.512 484.277C472.512 484.277 489.265 487.832 497.21 489.787C501.948 490.971 506.955 491.215 511.827 490.501C511.827 490.501 516.118 476.983 515.687 472.544C515.256 468.105 509.897 464.349 509.897 461.866C509.897 459.383 512.689 434.829 508.604 413.473C504.519 392.117 493.781 382.339 493.35 371.847C492.919 361.355 495.224 323.64 495.505 317.525C495.786 311.41 503.226 298.668 504.313 292.972C505.4 287.276 504.519 270.39 504.519 270.39C504.519 270.39 456.359 276.148 443.242 274.192Z" fill="#263238" stroke="#263238" stroke-width="0.75" stroke-linecap="round" stroke-linejoin="round"/>
<path d="M422.704 298.574L434.303 304.797" stroke="white" stroke-width="0.75" stroke-linecap="round" stroke-linejoin="round"/>
<path d="M464.567 403.755C466.178 407.216 467.172 409.219 467.172 409.219" stroke="white" stroke-width="0.75" stroke-linecap="round" stroke-linejoin="round"/>
<path d="M430.443 303.199C430.443 303.199 438.163 340.727 447.402 364.21C452.143 376.254 457.221 387.801 461.044 396.167" stroke="white" stroke-width="0.75" stroke-linecap="round" stroke-linejoin="round"/>
<path d="M343.229 246.657C343.436 247.185 344.504 266.586 344.504 266.586L406.156 261.929L404.882 236.848L343.229 246.657Z" fill="#263238" stroke="#263238" stroke-width="0.75" stroke-linecap="round" stroke-linejoin="round"/>
<path d="M464.154 145.044C464.154 145.044 450.193 149.126 447.401 151.982C444.609 154.838 428.062 203.029 422.628 217.261C417.193 231.493 415.544 274.547 415.544 274.547C418.549 275.468 421.638 276.184 424.783 276.689C427.877 277.122 431.016 277.298 434.152 277.217C434.152 277.217 452.198 226.868 461.006 209.625C469.813 192.382 484.617 167.642 490.22 158.035C495.823 148.428 500.733 146.643 500.096 142.018C499.459 137.393 496.873 135.608 493.649 135.251C490.426 134.894 464.154 145.044 464.154 145.044Z" fill="white" stroke="#263238" stroke-width="0.75" stroke-linecap="round" stroke-linejoin="round"/>
<path d="M465.897 143.632C465.897 143.632 451.937 147.714 449.144 150.569C446.352 153.425 429.824 201.616 424.502 215.849C419.18 230.081 417.363 273.135 417.363 273.135C420.367 274.055 423.457 274.772 426.601 275.276C429.697 275.7 432.834 275.877 435.971 275.804C435.971 275.804 454.017 225.456 462.824 208.197C471.632 190.938 486.454 166.292 492.039 156.607C497.623 146.922 502.551 145.23 501.914 140.605C501.277 135.98 498.691 134.195 495.468 133.838C492.245 133.481 465.897 143.632 465.897 143.632Z" fill="#92E3A9" stroke="#263238" stroke-width="0.75" stroke-linecap="round" stroke-linejoin="round"/>
<path d="M484.767 149.486C476.012 161.89 468.335 174.794 461.793 188.101C452.986 206.958 445.902 223.798 436.87 248.941C431.441 264.466 429.622 280.704 431.51 296.791C431.51 296.791 435.802 302.844 461.156 303.558C486.51 304.272 518.292 297.505 518.292 297.505C518.292 297.505 513.982 276.149 513.551 263.531C513.12 250.912 525.375 206.601 530.528 195.039C535.682 183.476 546.85 171.913 536.15 160.707C525.45 149.502 499.852 136.868 499.852 136.868C499.852 136.868 487.559 145.575 484.767 149.486Z" fill="#263238" stroke="#263238" stroke-width="0.75" stroke-linecap="round" stroke-linejoin="round"/>
<path d="M455.778 149.314C455.778 149.314 449.125 156.252 443.11 171.043C437.095 185.834 425.926 225.132 420.773 241.847C415.62 258.563 413.034 295.75 413.034 295.75C413.034 295.75 410.242 295.579 404.451 295.579C400.636 295.485 396.893 294.696 393.489 293.267C393.489 293.267 397.574 256.794 401.228 239.721C404.882 222.649 415.62 192.213 417.55 180.293C419.48 168.373 420.117 165.362 422.703 163.748C425.289 162.134 445.471 152.015 449.556 149.702C453.642 147.39 455.778 149.314 455.778 149.314Z" fill="#263238" stroke="#263238" stroke-width="0.75" stroke-linecap="round" stroke-linejoin="round"/>
<path d="M506.467 140.776C506.467 140.776 494.231 160.875 491.008 164.615C489.139 166.751 487.485 169.008 486.06 171.367L475.323 174.75L479.614 180.446C479.614 180.446 457.933 212.605 452.349 223.314C446.764 234.023 441.105 245.555 441.105 245.555" stroke="white" stroke-width="0.75" stroke-linecap="round" stroke-linejoin="round"/>
<path d="M418.225 231.339C417.832 234.894 417.757 236.306 417.757 236.306" stroke="white" stroke-width="0.75" stroke-linecap="round" stroke-linejoin="round"/>
<path d="M444.835 155.539L432.804 170.842L435.596 174.396L428.925 181.163C428.925 181.163 421.842 205.531 419.912 218.692C419.537 221.253 419.218 223.488 418.975 225.428" stroke="white" stroke-width="0.75" stroke-linecap="round" stroke-linejoin="round"/>
<path d="M447.196 148.958L444.834 158.379L457.071 151.628L447.196 148.958Z" fill="white" stroke="#263238" stroke-width="0.75" stroke-linecap="round" stroke-linejoin="round"/>
<path d="M457.502 141.49C457.277 142.017 447.195 148.955 447.195 148.955L458.57 152.866L460.931 145.214L457.502 141.49Z" fill="white" stroke="#263238" stroke-width="0.75" stroke-linecap="round" stroke-linejoin="round"/>
<path d="M453.418 70.4995C448.57 73.0009 444.748 76.6583 442.456 80.9913C438.595 88.2859 435.597 91.3124 436.459 93.625C437.077 95.1893 437.504 96.8012 437.733 98.4363C437.733 98.964 428.72 106.088 428.495 108.214C428.27 110.341 434.304 114.267 434.304 114.267C434.304 114.267 434.941 126.544 434.941 127.615C434.941 128.686 435.372 134.196 441.612 135.608C445.857 136.418 450.275 136.36 454.486 135.437L458.571 152.867C458.571 152.867 487.149 138.277 490.147 137.036C493.145 135.794 496.799 134.196 497.024 132.24C497.249 130.284 495.3 119.42 495.3 119.42C495.3 119.42 510.554 107.857 510.292 94.3389C510.029 80.8206 501.334 72.2843 485.425 68.2645C469.515 64.2447 453.418 70.4995 453.418 70.4995Z" fill="white" stroke="#263238" stroke-width="0.75" stroke-linecap="round" stroke-linejoin="round"/>
<path d="M510.329 94.3397C510.122 80.8213 501.315 72.285 485.424 68.1876C469.533 64.0902 453.418 70.5002 453.418 70.5002C452.162 71.1234 450.982 71.8459 449.895 72.6575C455.142 71.8815 463.78 71.3383 469.964 74.5976C479.334 79.5797 473.394 84.5617 470.17 87.2313C466.947 89.9008 466.31 90.9562 468.671 93.4395C471.032 95.9227 475.549 95.9227 474.462 98.2353C473.375 100.548 470.17 103.761 472.756 104.645C475.342 105.53 477.685 103.574 478.772 100.905C479.859 98.2353 485.199 98.2353 487.354 103.761C488.135 105.838 488.12 108.065 487.311 110.135C486.503 112.206 484.94 114.018 482.838 115.323C481.107 116.385 478.969 116.887 476.823 116.736C480.513 118.288 484.404 119.485 488.422 120.305C490.754 120.467 493.102 120.315 495.375 119.855C495.375 119.576 495.375 119.405 495.375 119.405C495.375 119.405 510.553 107.858 510.329 94.3397Z" fill="#263238" stroke="#263238" stroke-width="0.75" stroke-linecap="round" stroke-linejoin="round"/>
<path d="M447.833 101.277C447.833 102.659 447.309 103.776 446.653 103.776C445.997 103.776 445.472 102.659 445.472 101.277C445.472 99.8959 445.997 98.7939 446.653 98.7939C447.309 98.7939 447.833 99.9114 447.833 101.277Z" fill="black"/>
<path d="M442.249 93.8109C442.249 93.8109 443.111 91.3121 447.87 91.4983C452.63 91.6846 452.817 94.5248 452.817 94.5248" fill="white"/>
<path d="M442.249 93.8109C442.249 93.8109 443.111 91.3121 447.87 91.4983C452.63 91.6846 452.817 94.5248 452.817 94.5248" stroke="#263238" stroke-width="0.75" stroke-linecap="round" stroke-linejoin="round"/>
<path d="M434.303 114.267C435.615 114.659 437.023 114.784 438.406 114.63C439.789 114.476 441.107 114.048 442.248 113.382C445.677 111.07 442.885 109.098 442.885 109.098" fill="white"/>
<path d="M434.303 114.267C435.615 114.659 437.023 114.784 438.406 114.63C439.789 114.476 441.107 114.048 442.248 113.382C445.677 111.07 442.885 109.098 442.885 109.098" stroke="#263238" stroke-width="0.75" stroke-linecap="round" stroke-linejoin="round"/>
<path d="M435.165 117.109C435.165 117.109 446.54 112.453 451.693 112.313C456.846 112.173 462.224 119.483 460.107 125.692C457.989 131.9 455.609 135.004 448.301 137.441C440.993 139.877 434.115 139.396 432.841 135.299C431.567 131.201 437.339 125.35 440.131 124.279C442.923 123.208 445.078 123.038 444.647 124.993C444.216 126.949 442.923 128.361 448.301 127.477C453.679 126.592 456.677 125.35 456.884 120.539C457.09 115.727 455.01 113.958 449.388 114.672C443.766 115.386 435.427 119.111 435.427 119.111L435.165 117.109Z" fill="#263238" stroke="#263238" stroke-width="0.75" stroke-linecap="round" stroke-linejoin="round"/>
<path d="M439.662 120.849C439.662 120.849 448.694 120.492 451.917 117.465Z" fill="white"/>
<path d="M439.662 120.849C439.662 120.849 448.694 120.492 451.917 117.465" stroke="#263238" stroke-width="0.75" stroke-linecap="round" stroke-linejoin="round"/>
<path d="M475.978 116.581C475.992 118.042 475.612 119.486 474.866 120.81C474.121 122.134 473.028 123.303 471.668 124.233" fill="white"/>
<path d="M475.978 116.581C475.992 118.042 475.612 119.486 474.866 120.81C474.121 122.134 473.028 123.303 471.668 124.233" stroke="#263238" stroke-width="0.75" stroke-linecap="round" stroke-linejoin="round"/>
<path d="M458.57 152.869L464.81 164.789C464.81 164.789 488.421 150.199 494.231 144.503C500.04 138.807 504.537 135.967 501.314 132.087C498.091 128.207 493.369 131.373 492.507 131.73C491.645 132.087 458.57 152.869 458.57 152.869Z" fill="white" stroke="#263238" stroke-width="0.75" stroke-linecap="round" stroke-linejoin="round"/>
<path d="M411.385 258.002C408.711 250.796 406.564 243.462 404.958 236.041C403.665 229.227 403.084 222.29 403.084 222.29C392.708 221.507 382.566 219.282 373.082 215.709C358.915 210.029 355.898 207.949 355.898 207.949C355.898 207.949 375.012 259.539 378.891 270.388C382.77 281.237 383.614 283.549 383.614 283.549C389.744 286.064 396.236 287.921 402.934 289.074C408.252 289.896 413.641 290.368 419.05 290.487L411.385 258.002Z" fill="white" stroke="#263238" stroke-width="0.75" stroke-linecap="round" stroke-linejoin="round"/>
<path d="M432.805 258.002C428.262 257.302 423.851 256.107 419.687 254.448C416.564 252.947 413.154 251.897 409.606 251.344H408.744L411.311 257.924C408.141 258.505 404.906 258.806 401.66 258.824C396.507 258.824 385.751 257.396 385.338 257.924C384.94 259.2 384.794 260.521 384.907 261.835C384.907 263.093 392.628 270.744 397.144 273.414C401.66 276.083 405.727 277.852 409.812 277.852C413.897 277.852 435.803 275.369 435.803 275.369L432.805 258.002Z" fill="white" stroke="#263238" stroke-width="0.75" stroke-linecap="round" stroke-linejoin="round"/>
<path d="M495.299 188.628C495.299 188.628 496.367 208.556 497.023 222.959C497.679 237.362 498.747 238.619 498.747 238.619C498.747 238.619 450.625 253.565 443.317 254.807C436.008 256.049 430.443 257.476 430.443 257.476L433.666 276.861C449.413 277.962 465.271 276.759 480.514 273.307C503.938 267.611 540.011 261.915 540.667 259.261C541.323 256.607 540.667 248.583 540.667 246.845C540.667 245.107 540.011 206.818 540.011 189.745C540.011 172.672 541.51 168.746 538.943 165.192C536.376 161.637 523.258 159.853 515.744 163.407" fill="#263238"/>
<path d="M495.299 188.628C495.299 188.628 496.367 208.556 497.023 222.959C497.679 237.362 498.747 238.619 498.747 238.619C498.747 238.619 450.625 253.565 443.317 254.807C436.008 256.049 430.443 257.476 430.443 257.476L433.666 276.861C449.413 277.962 465.271 276.759 480.514 273.307C503.938 267.611 540.011 261.915 540.667 259.261C541.323 256.607 540.667 248.583 540.667 246.845C540.667 245.107 540.011 206.818 540.011 189.745C540.011 172.672 541.51 168.746 538.943 165.192C536.376 161.637 523.258 159.853 515.744 163.407" stroke="#263238" stroke-width="0.75" stroke-linecap="round" stroke-linejoin="round"/>
<path d="M458.963 250.057L498.746 238.618L495.223 194.711" stroke="white" stroke-width="0.75" stroke-linecap="round" stroke-linejoin="round"/>
<path d="M447.795 253.271L453.548 251.626" stroke="white" stroke-width="0.75" stroke-linecap="round" stroke-linejoin="round"/>
<path d="M509.017 172.58C509.017 172.58 524.008 157.06 538.906 165.146" stroke="white" stroke-width="0.75" stroke-linecap="round" stroke-linejoin="round"/>
<path d="M385.75 259.79C385.75 259.79 395.644 265.3 402.296 266.2" stroke="#263238" stroke-width="0.75" stroke-linecap="round" stroke-linejoin="round"/>
<path d="M387.474 265.129C390.389 267.254 393.731 268.94 397.349 270.111L401.865 271.166" stroke="#263238" stroke-width="0.75" stroke-linecap="round" stroke-linejoin="round"/>
<path d="M398.267 274.021C400.824 274.796 403.497 275.277 406.213 275.448" stroke="#263238" stroke-width="0.75" stroke-linecap="round" stroke-linejoin="round"/>
<path d="M215.858 207.405C215.858 207.405 212.898 182.339 209.412 164.677C207.538 154.915 200.398 146.596 192.94 139.146C186.775 132.938 177.462 127.257 172.327 120.661C170.547 118.395 161.215 134.785 161.196 134.8C159.322 138.292 181.528 149.358 184.526 151.873C188.462 155.132 192.022 158.981 195.601 162.489C197.232 164.041 201.523 169.954 203.978 170.451L207.95 171.273L204.971 178.677L215.858 207.405Z" fill="#92E3A9" stroke="#263238" stroke-width="0.75" stroke-linecap="round" stroke-linejoin="round"/>
</svg>
