<svg width="610" height="362" viewBox="0 0 610 362" fill="none" xmlns="http://www.w3.org/2000/svg">
<path d="M455.399 120.592H508.498C510.033 120.589 511.554 120.847 512.972 121.349C514.391 121.851 515.681 122.589 516.767 123.519C517.853 124.449 518.715 125.554 519.303 126.771C519.891 127.987 520.193 129.291 520.193 130.608V165.174C520.193 167.831 518.963 170.378 516.774 172.257C514.584 174.135 511.615 175.19 508.518 175.19H464.617L444.557 190.232L454.196 175.122C451.323 174.868 448.663 173.71 446.729 171.871C444.794 170.032 443.724 167.643 443.724 165.166V130.608C443.724 127.951 444.954 125.404 447.144 123.525C449.333 121.647 452.303 120.592 455.399 120.592Z" fill="white" stroke="#263238" stroke-linecap="round" stroke-linejoin="round"/>
<path d="M475.308 157.053V150.324C477.153 149.065 478.856 147.659 480.393 146.124C481.86 144.682 483.07 143.061 483.984 141.314C484.858 139.618 485.306 137.782 485.298 135.928C485.375 134.836 485.021 133.754 484.295 132.856C483.948 132.504 483.509 132.228 483.014 132.05C482.519 131.872 481.981 131.797 481.446 131.832C480.963 131.813 480.48 131.88 480.028 132.028C479.576 132.176 479.164 132.402 478.818 132.692C478.482 132.992 478.219 133.347 478.047 133.736C477.874 134.124 477.796 134.539 477.815 134.955C477.822 135.445 477.906 135.931 478.066 136.401C478.216 136.822 478.367 137.261 478.527 137.769L470.142 139.395C469.86 138.645 469.632 137.881 469.46 137.106C469.3 136.354 469.219 135.591 469.219 134.826C469.136 133.503 469.379 132.179 469.934 130.942C470.489 129.705 471.343 128.583 472.439 127.649C474.579 125.928 477.651 125.068 481.657 125.068C485.662 125.068 488.805 125.997 491.085 127.856C493.292 129.703 494.395 132.348 494.395 135.79C494.412 137.871 493.976 139.937 493.111 141.882C492.219 143.821 490.966 145.623 489.4 147.217C487.693 148.958 485.773 150.536 483.673 151.924V157.087L475.308 157.053ZM475.007 168.145V160.495H484.034V168.119L475.007 168.145Z" fill="#263238"/>
<path d="M306.691 326.721L291.155 272.741L171.145 273.473C164.876 282.534 151.486 313.219 145.708 326.721H306.691Z" fill="#263238" stroke="#263238" stroke-linecap="round" stroke-linejoin="round"/>
<path d="M383.995 245.905L393.183 247.256C393.183 247.256 412.079 246.128 413.654 246.128C415.229 246.128 426.523 254.011 426.523 254.011L407.355 253.787C407.355 253.787 393.714 257.16 388.99 257.16C384.266 257.16 378.489 252.436 378.489 252.436L383.995 245.905Z" fill="white" stroke="#263238" stroke-linecap="round" stroke-linejoin="round"/>
<path d="M387.677 251.087C387.677 251.087 404.728 251.534 406.573 251.311C408.419 251.087 412.351 249.056 412.351 251.087C412.351 253.118 409.723 252.438 407.336 253.789C405.937 254.594 404.445 255.272 402.882 255.811C402.882 255.811 399.201 256.715 396.052 257.162C392.902 257.61 392.12 257.386 388.971 257.162C387.091 257.031 385.281 256.489 383.715 255.587" fill="white"/>
<path d="M387.677 251.087C387.677 251.087 404.728 251.534 406.573 251.311C408.419 251.087 412.351 249.056 412.351 251.087C412.351 253.118 409.723 252.438 407.336 253.789C405.937 254.594 404.445 255.272 402.882 255.811C402.882 255.811 399.201 256.715 396.052 257.162C392.902 257.61 392.12 257.386 388.971 257.162C387.091 257.031 385.281 256.489 383.715 255.587" stroke="#263238" stroke-linecap="round" stroke-linejoin="round"/>
<path d="M340.376 198.45L327.336 175.285C327.336 175.285 327.888 149.307 327.336 145.529C326.785 141.752 326.243 138.206 317.708 136.064C309.172 133.921 258.791 137.475 258.791 137.475C258.791 137.475 245.371 138.611 233.495 140.409C221.619 142.208 195.381 142.337 194.037 145.882C192.693 149.427 186.514 230.211 186.514 230.211L161.88 277.762C161.88 277.762 184.95 294.06 232.903 291.694C280.857 289.328 297.627 276.661 297.627 276.661L284.137 235.357C284.137 235.357 306.434 218.353 306.985 213.156C307.537 207.959 307.808 203.94 307.808 203.94C307.808 203.94 321.579 222.131 324.327 223.551C327.076 224.971 378.991 256.181 378.991 256.181L386.153 245.313L342.231 201.815L340.376 198.527" fill="#858585"/>
<path d="M340.376 198.45L327.336 175.285C327.336 175.285 327.888 149.307 327.336 145.529C326.785 141.752 326.243 138.206 317.708 136.064C309.172 133.921 258.791 137.475 258.791 137.475C258.791 137.475 245.371 138.611 233.495 140.409C221.619 142.208 195.381 142.337 194.037 145.882C192.693 149.427 186.514 230.211 186.514 230.211L161.88 277.762C161.88 277.762 184.95 294.06 232.903 291.694C280.857 289.328 297.627 276.661 297.627 276.661L284.137 235.357C284.137 235.357 306.434 218.353 306.985 213.156C307.537 207.959 307.808 203.94 307.808 203.94C307.808 203.94 321.579 222.131 324.327 223.551C327.076 224.971 378.991 256.181 378.991 256.181L386.153 245.313L342.231 201.815L340.376 198.527" stroke="#263238" stroke-linecap="round" stroke-linejoin="round"/>
<path d="M307.806 203.862L312.46 165.863" stroke="#263238" stroke-linecap="round" stroke-linejoin="round"/>
<path d="M311.308 178.203C311.308 178.203 319.944 171.543 323.395 163.153" stroke="#263238" stroke-linecap="round" stroke-linejoin="round"/>
<path d="M319.873 180.234C321.281 179.914 322.651 179.482 323.965 178.944" stroke="#263238" stroke-linecap="round" stroke-linejoin="round"/>
<path d="M310.445 182.153C310.445 182.153 313.454 181.654 316.714 180.957" stroke="#263238" stroke-linecap="round" stroke-linejoin="round"/>
<path d="M247.515 136.556L237.606 167.026L248.348 174.77L236.502 184.692C236.502 184.692 240.905 199.57 247.244 211.144C253.583 222.717 257.706 227.958 257.706 227.958C257.706 227.958 283.313 217.563 289.912 208.356C296.512 199.148 305.329 184.735 305.329 184.735L297.625 178.126L308.909 172.963C308.909 172.963 305.198 159.333 302.891 150.762C301.577 145.766 299.556 140.925 296.873 136.349L247.515 136.556Z" fill="#92E3A9" stroke="#263238" stroke-linecap="round" stroke-linejoin="round"/>
<path d="M255.781 140.495C255.781 140.495 255.54 167.704 254.597 177.256C253.654 186.807 254.597 201.014 256.022 207.107C257.446 213.199 260.284 222.346 260.284 222.346C260.284 222.346 279.693 208.733 282.3 203.045C284.908 197.357 289.632 174.821 289.632 174.821L293.895 148.816L255.781 140.495Z" fill="white" stroke="#263238" stroke-linecap="round" stroke-linejoin="round"/>
<path d="M256.725 135.62L254.599 173.809L273.536 163.242L289.403 178.275L293.426 146.996L256.725 135.62Z" fill="white" stroke="#263238" stroke-linecap="round" stroke-linejoin="round"/>
<path d="M263.594 148.621L271.447 179.487L285.891 154.309C285.891 154.309 268.779 153.724 263.594 148.621Z" fill="white" stroke="#263238" stroke-linecap="round" stroke-linejoin="round"/>
<path d="M247.727 117.022C245.248 113.675 243.03 110.191 241.087 106.593C238.559 101.679 239.02 99.7087 241.538 94.5973C244.056 89.486 254.377 74.737 261.257 72.1727C265.251 70.6575 269.513 69.7268 273.865 69.4191C273.865 69.4191 299.311 68.834 310.976 79.4525C322.641 90.0711 322.892 108.167 320.144 112.892C318.124 116.393 314.584 119.074 310.284 120.361C307.997 120.954 306.182 121.505 306.182 121.505C306.182 121.505 303.414 121.505 301.578 121.505C299.743 121.505 290.114 116.79 281.628 110.689C277.705 107.997 273.955 105.124 270.395 102.084C270.395 102.084 260.535 108.176 257.105 110.93C253.674 113.683 252.742 115.456 252.742 115.456L251.408 119.887L247.727 117.022Z" fill="#263238" stroke="#263238" stroke-linecap="round" stroke-linejoin="round"/>
<path d="M247.506 120.956C247.506 120.956 239.02 119.777 234.206 123.709C229.391 127.642 228.93 137.477 233.514 140.429C238.098 143.38 248.559 145.996 253.464 144.731C258.368 143.466 259.883 139.413 259.883 135.266C259.883 131.118 255.068 122.875 254.146 121.308C253.223 119.742 247.506 120.956 247.506 120.956Z" fill="#263238" stroke="#263238" stroke-linecap="round" stroke-linejoin="round"/>
<path d="M251.438 119.88C251.438 119.88 247.326 114.175 244.156 119.019C240.987 123.864 245.741 128.528 249.171 130.154C250.844 131.018 252.66 131.659 254.557 132.056L251.438 119.88Z" fill="white" stroke="#263238" stroke-linecap="round" stroke-linejoin="round"/>
<path d="M306.211 121.504C306.211 121.504 312.229 118.518 312.861 122.864C313.493 127.209 309.06 131.555 306.843 132.914C304.626 134.274 303.042 135.358 303.042 135.358L306.211 121.504Z" fill="white" stroke="#263238" stroke-linecap="round" stroke-linejoin="round"/>
<path d="M250.806 111.998C250.806 111.998 254.607 138.123 258.408 143.51C262.21 148.897 269.181 158.448 278.047 158.448C286.914 158.448 296.723 150.033 300.525 142.15C304.326 134.268 306.222 121.498 306.222 121.498C306.222 121.498 291.337 116.335 279.622 106.009C267.907 95.6833 270.766 94.3237 270.766 94.3237C270.766 94.3237 257.135 109.555 250.806 111.998Z" fill="white" stroke="#263238" stroke-linecap="round" stroke-linejoin="round"/>
<path d="M274.778 135.899C274.778 135.899 280.515 139.832 285.56 136.295" stroke="#263238" stroke-linecap="round" stroke-linejoin="round"/>
<path d="M271.348 141.607C271.348 141.607 279.142 148.096 289.222 141.409" stroke="#263238" stroke-linecap="round" stroke-linejoin="round"/>
<path d="M269.995 123.056C269.908 123.431 269.698 123.778 269.39 124.055C269.082 124.332 268.689 124.529 268.256 124.622C267.824 124.715 267.369 124.701 266.945 124.581C266.521 124.461 266.146 124.24 265.863 123.944C265.579 123.649 265.4 123.29 265.344 122.91C265.289 122.53 265.361 122.145 265.551 121.799C265.741 121.452 266.042 121.159 266.419 120.954C266.795 120.748 267.232 120.639 267.678 120.638C268.356 120.701 268.978 120.99 269.411 121.442C269.845 121.894 270.054 122.473 269.995 123.056V123.056Z" fill="#263238"/>
<path d="M293.614 124.293C293.528 124.671 293.319 125.02 293.011 125.3C292.703 125.58 292.309 125.779 291.874 125.874C291.439 125.969 290.982 125.956 290.555 125.836C290.129 125.717 289.75 125.496 289.465 125.199C289.179 124.902 288.998 124.541 288.942 124.16C288.886 123.778 288.957 123.39 289.148 123.042C289.339 122.693 289.642 122.399 290.02 122.192C290.399 121.985 290.838 121.876 291.287 121.875C291.966 121.938 292.589 122.226 293.024 122.678C293.458 123.13 293.67 123.709 293.614 124.293Z" fill="#263238"/>
<path d="M262.422 115.843C262.422 115.843 266.775 113.477 273.886 115.447" stroke="#263238" stroke-linecap="round" stroke-linejoin="round"/>
<path d="M287.847 116.822C287.847 116.822 291.057 114.069 301.147 119.774" stroke="#263238" stroke-linecap="round" stroke-linejoin="round"/>
<path d="M275.207 117.921L262.648 117.345C260.363 117.24 258.412 118.744 258.29 120.704L258.022 125.001C257.9 126.961 259.653 128.634 261.938 128.739L274.497 129.315C276.782 129.42 278.733 127.916 278.855 125.956L279.123 121.66C279.245 119.7 277.492 118.026 275.207 117.921Z" stroke="#263238" stroke-linecap="round" stroke-linejoin="round"/>
<path d="M301.415 118.337L288.837 117.798C286.55 117.699 284.602 119.211 284.488 121.174L284.237 125.476C284.123 127.439 285.885 129.11 288.172 129.208L300.75 129.747C303.038 129.845 304.985 128.334 305.1 126.371L305.35 122.069C305.465 120.106 303.703 118.435 301.415 118.337Z" stroke="#263238" stroke-width="1.00125" stroke-linecap="round" stroke-linejoin="round"/>
<path d="M279.102 120.703L283.655 120.963" stroke="#263238" stroke-linecap="round" stroke-linejoin="round"/>
<path d="M258.307 120.584L251.155 118.708" stroke="#263238" stroke-linecap="round" stroke-linejoin="round"/>
<path d="M304.156 122.83L306.212 121.505" stroke="#263238" stroke-linecap="round" stroke-linejoin="round"/>
<path d="M148.701 192.827L145.953 185.943C145.953 185.943 143.747 179.334 141.269 176.477C138.792 173.62 134.118 172.7 132.182 170.574C130.246 168.449 127.779 162.546 126.164 160.894C124.549 159.241 121.209 160.653 122.031 164.43C122.854 168.208 124.78 169.395 125.612 170.815C126.445 172.235 128.36 175.978 128.36 175.978C128.36 175.978 110.467 173.397 109.363 173.147C108.26 172.898 104.96 169.843 104.138 167.984C103.315 166.125 103.586 158.519 100.276 160.902C96.9663 163.286 98.9021 168.225 99.4538 169.404C100.005 170.583 99.4538 178.869 100.828 183.103C102.202 187.337 106.846 191.605 113.767 194.436C120.687 197.267 134.148 198.222 134.148 198.222L139.373 202.705L148.701 192.827Z" fill="white" stroke="#263238" stroke-linecap="round" stroke-linejoin="round"/>
<path d="M97.4963 181.249C97.4963 181.249 93.9155 175.725 93.9155 171.681C93.9155 167.636 94.2365 163.867 96.6838 164.848C99.1312 165.829 98.6898 165.709 99.3819 169.452C99.9505 172.326 100.899 175.135 102.21 177.825C102.541 178.246 105.139 183.848 102.862 183.969C100.586 184.089 97.4963 181.249 97.4963 181.249Z" fill="white" stroke="#263238" stroke-linecap="round" stroke-linejoin="round"/>
<path d="M104.948 181.249C104.948 181.249 99.9935 169.202 97.516 171.327C95.0386 173.452 95.3094 176.051 97.516 181.249C99.7227 186.446 104.397 190.465 108.248 190.938L112.11 191.411L104.948 181.249Z" fill="white" stroke="#263238" stroke-linecap="round" stroke-linejoin="round"/>
<path d="M135.21 190.465C135.21 190.465 129.192 186.214 125.3 186.214C121.409 186.214 112.361 187.393 112.361 187.393C112.361 187.393 106.032 169.202 104.107 172.274C102.181 175.346 102.723 178.418 104.658 183.142C106.594 187.866 109.332 192.117 113.685 194.475C118.038 196.832 134.067 198.261 134.067 198.261" fill="white"/>
<path d="M135.21 190.465C135.21 190.465 129.192 186.214 125.3 186.214C121.409 186.214 112.361 187.393 112.361 187.393C112.361 187.393 106.032 169.202 104.107 172.274C102.181 175.346 102.723 178.418 104.658 183.142C106.594 187.866 109.332 192.117 113.685 194.475C118.038 196.832 134.067 198.261 134.067 198.261" stroke="#263238" stroke-linecap="round" stroke-linejoin="round"/>
<path d="M155.039 196.139L148.7 190.701L134.667 202.274L141.548 206.998L155.039 196.139Z" fill="white" stroke="#263238" stroke-linecap="round" stroke-linejoin="round"/>
<path d="M218.73 141.932C218.73 141.932 199.081 142.517 194.407 144.401C189.733 146.286 189.171 149.126 188.9 150.313C188.63 151.501 180.365 214.558 180.365 214.558L153.384 192.589L136.042 206.96C136.042 206.96 159.994 233.885 165.5 241.208C171.007 248.531 175.962 255.38 180.636 256.086C185.31 256.791 186.975 257.032 192.752 255.621C198.529 254.21 205.972 243.17 206.253 242.24C206.533 241.311 218.92 181.739 218.92 181.739" fill="#858585"/>
<path d="M218.73 141.932C218.73 141.932 199.081 142.517 194.407 144.401C189.733 146.286 189.171 149.126 188.9 150.313C188.63 151.501 180.365 214.558 180.365 214.558L153.384 192.589L136.042 206.96C136.042 206.96 159.994 233.885 165.5 241.208C171.007 248.531 175.962 255.38 180.636 256.086C185.31 256.791 186.975 257.032 192.752 255.621C198.529 254.21 205.972 243.17 206.253 242.24C206.533 241.311 218.92 181.739 218.92 181.739" stroke="#263238" stroke-linecap="round" stroke-linejoin="round"/>
<path d="M194.277 221.469L197.948 223.294" stroke="#263238" stroke-linecap="round" stroke-linejoin="round"/>
<path d="M180.364 214.559L192.019 220.35" stroke="#263238" stroke-linecap="round" stroke-linejoin="round"/>
<path d="M224.998 245.807C222.781 246.598 220.735 247.287 218.98 247.829" stroke="#263238" stroke-linecap="round" stroke-linejoin="round"/>
<path d="M265.529 229.875C265.529 229.875 246.933 237.619 231.777 243.324" stroke="#263238" stroke-linecap="round" stroke-linejoin="round"/>
<path d="M274.926 230.977L251.436 241.596" stroke="#263238" stroke-linecap="round" stroke-linejoin="round"/>
<path d="M469.232 251.149H499.944C499.944 251.149 504.388 251.149 502.773 257.043C501.158 262.938 494.689 295.172 493.876 307.305C493.064 319.438 492.261 326.718 492.261 326.718H373.094L387.467 255.632C387.742 254.282 388.564 253.059 389.788 252.179C391.012 251.298 392.56 250.818 394.157 250.822L469.232 251.149Z" fill="#263238" stroke="#263238" stroke-linecap="round" stroke-linejoin="round"/>
<path d="M373.263 204.994C373.263 204.994 338.379 213.375 337.817 216.249C337.255 219.123 322.471 289.28 322.471 289.28C322.471 289.28 249.382 272.999 245.159 272.999C240.937 272.999 224.778 284.728 222.552 286.165C220.325 287.602 217.246 288.807 216.965 291.672C216.684 294.538 213.896 299.098 216.965 301.249C220.034 303.401 221.98 305.328 223.103 304.124C224.227 302.919 222.832 298.857 222.552 298.1C222.271 297.343 240.134 289.495 240.134 289.495L247.386 288.058C244.797 290.039 241.993 291.803 239.011 293.324C234.267 295.716 232.602 299.795 235.109 300.028C237.617 300.26 237.898 299.313 245.139 297.394C252.381 295.475 258.529 289.254 258.529 289.254C258.529 289.254 329.141 317.513 333.053 317.513C336.965 317.513 336.403 318.227 339.753 314.398C343.103 310.569 353.986 283.274 353.986 283.274L358.168 318.709V326.617H467.877C467.877 326.617 467.315 224.605 466.764 223.168C466.212 221.731 423.374 198.574 423.374 198.574L373.263 204.994Z" fill="#92E3A9" stroke="#263238" stroke-linecap="round" stroke-linejoin="round"/>
<path d="M343.652 271.931L341.235 269.272" stroke="#263238" stroke-linecap="round" stroke-linejoin="round"/>
<path d="M354.006 283.301L345.781 274.274" stroke="#263238" stroke-linecap="round" stroke-linejoin="round"/>
<path d="M343.474 254.068L342.21 250.583" stroke="#263238" stroke-linecap="round" stroke-linejoin="round"/>
<path d="M348.416 251.152L354.003 283.292L344.775 257.701" stroke="#263238" stroke-linecap="round" stroke-linejoin="round"/>
<path d="M432.21 203.41L423.374 198.6L373.224 204.993L396.664 248.337L432.21 203.41Z" fill="white" stroke="#263238" stroke-linecap="round" stroke-linejoin="round"/>
<path d="M370.743 141.016C364.073 144.957 354.565 153.579 356.701 159.086C358.948 164.869 362.318 166.151 362.318 166.151C362.318 166.151 359.309 174.179 361.947 176.752C363.512 178.288 364.776 180.032 365.688 181.915C365.688 181.915 360.071 195.408 362.679 197.017L365.297 198.618C365.297 198.618 369.79 214.038 373.161 214.967C376.531 215.896 386.641 213.358 386.641 213.358L396.822 236.824L423.411 198.6L420.783 190.856C420.783 190.856 436.511 168.698 430.151 152.994C426.491 143.95 417.002 137.703 406.531 135.078C394.966 132.187 384.976 135.371 374.224 139.321C373.003 139.788 371.837 140.356 370.743 141.016V141.016Z" fill="#C2C2C2" stroke="#263238" stroke-linecap="round" stroke-linejoin="round"/>
<path d="M430.114 152.994C426.453 143.95 416.964 137.703 406.493 135.078C394.928 132.187 384.938 135.371 374.186 139.321C372.984 139.799 371.839 140.376 370.766 141.042C364.096 144.983 354.587 153.605 356.723 159.112C358.97 164.895 362.34 166.177 362.34 166.177C363.511 166.296 364.698 166.19 365.815 165.867C366.932 165.544 367.952 165.012 368.8 164.309C371.588 161.917 378.83 157.606 384.707 158.286C390.585 158.966 390.565 164.989 388.609 167.863C386.653 170.737 386.102 174.093 391.127 175.049C396.152 176.004 397.546 176.004 397.546 179.351C397.546 182.698 397.265 185.375 400.334 184.858C403.403 184.342 403.684 183.18 405.078 180.556C406.473 177.931 412.611 173.852 415.961 181.993C419.311 190.133 412.611 193.962 412.611 193.962C415.537 193.059 418.349 191.906 421.006 190.52C423.002 187.577 435.991 167.545 430.114 152.994Z" fill="#263238" stroke="#263238" stroke-linecap="round" stroke-linejoin="round"/>
<path d="M369.069 180.573C369.069 180.573 377.164 177.458 382.47 180.573" stroke="#263238" stroke-linecap="round" stroke-linejoin="round"/>
<path d="M368.799 202.12C368.799 202.12 377.445 204.994 383.032 199.728" stroke="#263238" stroke-linecap="round" stroke-linejoin="round"/>
<path d="M365.338 198.6L369.912 199.255" stroke="#263238" stroke-linecap="round" stroke-linejoin="round"/>
<path d="M379.12 186.011C379.12 187.362 378.247 188.464 377.114 188.464C375.98 188.464 375.158 187.362 375.158 186.011C375.158 184.66 376.03 183.567 377.114 183.567C378.197 183.567 379.12 184.66 379.12 186.011Z" fill="#263238"/>
<path d="M386.682 213.373C386.682 213.373 396.712 210.026 399.501 208.348C402.289 206.67 403.964 205.474 403.964 205.474L390.283 221.04L386.682 213.373Z" fill="#263238"/>
<path d="M269.914 277.828C257.135 275.118 246.664 273.001 245.159 273.001C240.967 273.001 224.778 284.73 222.552 286.167C220.325 287.604 217.246 288.808 216.965 291.674C216.684 294.539 213.896 299.1 216.965 301.251C220.034 303.402 221.98 305.33 223.103 304.125C224.227 302.921 222.832 298.859 222.552 298.102C222.271 297.345 240.134 289.497 240.134 289.497L247.386 288.06C244.797 290.041 241.993 291.805 239.011 293.326C234.267 295.718 232.602 299.797 235.109 300.029C237.617 300.262 237.898 299.315 245.139 297.396C252.381 295.477 258.529 289.256 258.529 289.256C258.529 289.256 261.789 290.564 266.935 292.603C268.561 290.438 269.662 288.014 270.174 285.476C270.686 282.937 270.597 280.337 269.914 277.828V277.828Z" fill="#C2C2C2" stroke="#263238" stroke-linecap="round" stroke-linejoin="round"/>
<path d="M258.548 289.278L261.617 283.057" stroke="#263238" stroke-linecap="round" stroke-linejoin="round"/>
<path d="M231.196 286.644C231.196 286.644 217.525 294.07 215.008 295.507C212.49 296.944 203.844 298.614 204.687 300.051C205.529 301.488 207.475 302.211 211.387 301.247C215.851 300.31 220.234 299.111 224.506 297.659C228.97 295.981 240.133 289.518 240.133 289.518" fill="#C2C2C2"/>
<path d="M231.196 286.644C231.196 286.644 217.525 294.07 215.008 295.507C212.49 296.944 203.844 298.614 204.687 300.051C205.529 301.488 207.475 302.211 211.387 301.247C215.851 300.31 220.234 299.111 224.506 297.659C228.97 295.981 240.133 289.518 240.133 289.518" stroke="#263238" stroke-linecap="round" stroke-linejoin="round"/>
<path d="M453.925 215.57C453.925 215.57 472.902 222.755 475.41 226.825C477.917 230.895 482.952 319.759 483.223 322.341C483.322 323.258 482.998 324.172 482.322 324.888C481.645 325.603 480.669 326.064 479.602 326.17C478.208 326.411 389.171 325.937 386.664 325.937C384.156 325.937 378.008 325.456 374.377 324.019C370.746 322.581 367.957 323.063 367.677 319.226C367.586 316.432 367.68 313.637 367.957 310.853C367.957 309.416 366.844 305.346 367.957 302.945C369.071 300.544 371.308 300.553 372.421 300.312C374.187 300.188 375.961 300.188 377.727 300.312C378.71 299.654 379.884 299.241 381.121 299.115C382.359 298.989 383.613 299.156 384.748 299.597C388.93 301.035 395.911 309.648 395.911 309.648C395.911 309.648 402.611 311.326 413.213 309.889C423.815 308.452 447.817 304.141 447.817 304.141L438.328 253.139" fill="#92E3A9"/>
<path d="M453.925 215.57C453.925 215.57 472.902 222.755 475.41 226.825C477.917 230.895 482.952 319.759 483.223 322.341C483.322 323.258 482.998 324.172 482.322 324.888C481.645 325.603 480.669 326.064 479.602 326.17C478.208 326.411 389.171 325.937 386.664 325.937C384.156 325.937 378.008 325.456 374.377 324.019C370.746 322.581 367.957 323.063 367.677 319.226C367.586 316.432 367.68 313.637 367.957 310.853C367.957 309.416 366.844 305.346 367.957 302.945C369.071 300.544 371.308 300.553 372.421 300.312C374.187 300.188 375.961 300.188 377.727 300.312C378.71 299.654 379.884 299.241 381.121 299.115C382.359 298.989 383.613 299.156 384.748 299.597C388.93 301.035 395.911 309.648 395.911 309.648C395.911 309.648 402.611 311.326 413.213 309.889C423.815 308.452 447.817 304.141 447.817 304.141L438.328 253.139" stroke="#263238" stroke-linecap="round" stroke-linejoin="round"/>
<path d="M447.775 304.122L449.179 312.744" stroke="#263238" stroke-linecap="round" stroke-linejoin="round"/>
<path d="M402.28 325.99C399.351 317.669 401.688 312.91 404.005 310.449C401.265 310.46 398.533 310.186 395.871 309.632C395.871 309.632 388.849 301.027 384.707 299.581C383.572 299.139 382.318 298.972 381.08 299.098C379.843 299.224 378.669 299.638 377.686 300.295C375.92 300.172 374.146 300.172 372.38 300.295C371.267 300.536 369.03 300.536 367.917 302.929C366.803 305.321 367.917 309.4 367.917 310.837C367.639 313.621 367.545 316.416 367.636 319.209C367.917 323.047 370.705 322.565 374.336 324.002C377.967 325.439 384.105 325.921 386.623 325.921L402.28 325.99Z" fill="#C2C2C2" stroke="#263238" stroke-linecap="round" stroke-linejoin="round"/>
<path d="M235.938 322.193H118.285L98.0442 250.806H215.687L235.938 322.193Z" fill="white" stroke="#263238" stroke-linecap="round" stroke-linejoin="round"/>
<path d="M181.024 287.849C181.024 290.061 173.421 291.85 164.053 291.85C154.685 291.85 147.072 290.078 147.072 287.849C147.072 285.62 154.665 283.856 164.043 283.856C173.421 283.856 181.024 285.663 181.024 287.849Z" fill="white" stroke="#263238" stroke-linecap="round" stroke-linejoin="round"/>
<path d="M311.033 322.192H118.285V326.719H311.033V322.192Z" fill="#C2C2C2" stroke="#263238" stroke-linecap="round" stroke-linejoin="round"/>
<path d="M311.032 322.192H237.582V326.719H311.032V322.192Z" fill="white" stroke="#263238" stroke-linecap="round" stroke-linejoin="round"/>
<path d="M249.638 323.484H243.279V324.473H249.638V323.484Z" fill="white" stroke="#263238" stroke-linecap="round" stroke-linejoin="round"/>
<path d="M265.818 323.484H259.458V324.473H265.818V323.484Z" fill="white" stroke="#263238" stroke-linecap="round" stroke-linejoin="round"/>
</svg>
