<svg width="26" height="22" viewBox="0 0 26 22" fill="none" xmlns="http://www.w3.org/2000/svg">
<g clip-path="url(#clip0_10_654)">
<rect width="26" height="22" fill="#262626"/>
<path d="M18.7316 18.5911H15.4742V13.528C15.4742 12.3207 15.4524 10.7665 13.7799 10.7665C12.0833 10.7665 11.8238 12.0819 11.8238 13.4401V18.5907H8.56629V8.17909H11.6935V9.60195H11.7372C12.0502 9.07088 12.5024 8.63399 13.0458 8.33782C13.5891 8.04165 14.2032 7.89729 14.8227 7.92011C18.1242 7.92011 18.733 10.0755 18.733 12.8794L18.7316 18.5911ZM4.89079 6.75589C4.51692 6.75595 4.15141 6.64599 3.8405 6.43989C3.5296 6.23379 3.28728 5.94081 3.14414 5.59801C3.001 5.25522 2.96349 4.87799 3.03636 4.51404C3.10923 4.15009 3.28922 3.81576 3.55354 3.55332C3.81786 3.29089 4.15466 3.11214 4.52134 3.03968C4.88802 2.96723 5.2681 3.00431 5.61354 3.14625C5.95898 3.2882 6.25426 3.52861 6.46203 3.83711C6.6698 4.14561 6.78074 4.50832 6.7808 4.87939C6.78085 5.12577 6.73199 5.36975 6.63703 5.59739C6.54207 5.82504 6.40288 6.03189 6.22738 6.20614C6.05188 6.38038 5.84349 6.51862 5.61416 6.61294C5.38483 6.70727 5.13904 6.75584 4.89079 6.75589M6.51952 18.5911H3.25867V8.17909H6.51952V18.5911ZM20.3556 0.00124243H1.6218C1.19659 -0.00351999 0.786859 0.159457 0.482665 0.454359C0.17847 0.749261 0.00470111 1.15196 -0.000488281 1.57397V20.2443C0.0045235 20.6665 0.178191 21.0695 0.482375 21.3647C0.786559 21.6599 1.19638 21.8232 1.6218 21.8187H20.3556C20.7819 21.824 21.1928 21.6612 21.4982 21.366C21.8036 21.0708 21.9784 20.6674 21.9843 20.2443V1.57262C21.9783 1.14978 21.8033 0.746619 21.4979 0.451724C21.1925 0.156829 20.7817 -0.00568203 20.3556 -0.000105206" fill="white"/>
</g>
<defs>
<clipPath id="clip0_10_654">
<rect width="26" height="22" fill="white"/>
</clipPath>
</defs>
</svg>
