<svg width="24" height="25" viewBox="0 0 24 25" fill="none" xmlns="http://www.w3.org/2000/svg">
<path d="M12.3813 19.6016C11.9278 19.2505 11.4447 19.1319 11.0166 19.1319C10.7765 19.1319 10.5754 19.1705 10.4282 19.2032L10.1808 19.258L10.1886 19.2546L10.1976 19.2501C10.3579 19.1709 10.6533 19.0941 10.99 19.0941C11.4329 19.0941 11.9389 19.2194 12.3813 19.6016ZM12.9561 20.1916L12.924 20.1538L13.191 20.0878C13.3893 20.0387 13.5835 20.0148 13.75 20.0135H13.7646C14.3954 20.0135 14.9351 20.3433 15.2861 20.7245C14.9638 20.4384 14.4567 20.1106 13.7912 20.1106C13.7847 20.1106 13.778 20.1106 13.7712 20.1105C13.6213 20.1103 13.3828 20.11 13.1372 20.2011L12.9327 20.277L12.9561 20.1916ZM14.8114 24.2843L14.767 24.4475L14.7497 24.4283C14.8056 24.4905 14.0707 23.373 12.8572 23.373C12.6472 23.373 12.3714 23.4024 12.083 23.5213H12.013L12.0017 23.5088C12.0017 23.5088 12.0017 23.5088 12.0017 23.5088L12.0016 23.5087C11.4476 22.6649 10.7037 22.4239 10.1094 22.4239C9.87136 22.4239 9.66367 22.4615 9.51574 22.497C9.44608 22.5138 9.38843 22.5304 9.34778 22.5425H9.28657L9.28182 22.5451C9.28212 22.5371 9.28328 22.5275 9.28597 22.5165L9.33725 22.3265H9.9495H10.1096C10.5554 22.3265 11.0658 22.4504 11.4847 22.823L12.0859 23.3577L12.1085 23.2756H12.7241H12.8842C13.4018 23.2756 13.8794 23.5075 14.2449 23.8121L14.8114 24.2843Z" fill="#FAFAFA" stroke="#262626"/>
<path d="M22.7902 17.7632V17.7635C22.7902 17.779 22.7872 17.7901 22.7842 17.7972H16.7531C16.7501 17.7901 16.7471 17.779 16.7471 17.7635C16.7471 17.748 16.7501 17.7369 16.7531 17.7298H22.7843C22.7873 17.7369 22.7902 17.7478 22.7902 17.7632Z" fill="#FAFAFA" stroke="#262626"/>
<path d="M3.68179 7.68499H3.6647C2.90533 7.68033 2.19219 7.36522 1.63583 6.84027C2.18689 7.34059 2.89545 7.64705 3.68172 7.64716H3.68179C4.43441 7.64716 5.11582 7.36641 5.65605 6.90362C5.10618 7.39534 4.41476 7.68499 3.68179 7.68499ZM1.15308 1.93515C1.74455 1.05767 2.67535 0.5 3.68179 0.5C4.86907 0.5 5.94726 1.25996 6.49147 2.40758C5.9461 1.34325 4.90855 0.597355 3.68179 0.597355C2.62976 0.597355 1.73163 1.12949 1.15308 1.93515Z" fill="#FAFAFA" stroke="#262626"/>
<path d="M3.75054 4.16253L2.98774 4.81904C2.98486 4.80784 2.98404 4.79686 2.985 4.78727C2.98585 4.7787 2.98761 4.77428 2.98861 4.77246L3.62802 4.23955L3.76703 4.12369C3.76543 4.13009 3.76271 4.13827 3.75882 4.1469C3.75568 4.15387 3.75268 4.15915 3.75054 4.16253ZM2.98935 4.77141C2.98938 4.77144 2.9892 4.77176 2.98871 4.77227L2.98935 4.77141Z" fill="#FAFAFA" stroke="#262626"/>
<path d="M17.7327 6.09922L17.7309 6.12048C17.6876 6.64977 17.8385 7.15259 18.1413 7.56145L17.7327 6.09922ZM17.7327 6.09922C17.83 4.97152 18.6942 4.23368 19.5642 4.29457C20.4424 4.38515 21.1986 5.31378 21.1098 6.42543L21.1097 6.42542L21.1092 6.43386C21.0432 7.48321 20.2408 8.21901 19.4204 8.21901H19.2604C18.8239 8.16876 18.4266 7.94653 18.1414 7.56153L17.7327 6.09922Z" fill="#FAFAFA" stroke="#262626"/>
<path d="M17.3885 21.949L17.4076 21.8814H22.7649L22.7639 21.8928V21.9153C22.7639 21.9309 22.7609 21.9419 22.7579 21.949H17.3885ZM22.8103 21.8814C22.8098 21.8814 22.8092 21.8814 22.8086 21.8814H22.8103L22.8103 21.8814Z" fill="#FAFAFA" stroke="#262626"/>
<path d="M22.139 8.21415L22.2398 8.05411L22.2381 8.04404C22.2759 7.97484 22.3109 7.90496 22.3432 7.83442C22.7111 8.3903 23.0416 8.99381 23.2547 9.60277C23.5783 10.5277 23.6102 11.3992 23.1775 12.1447L23.176 12.1473C22.7389 12.9108 21.9645 13.2006 21.0221 13.2006C19.8932 13.2006 18.685 12.8149 17.7714 12.4377L17.3819 12.2769L17.1574 12.6334L14.7296 16.4886C14.44 16.9484 14.0066 17.1744 13.5786 17.1744C13.5214 17.1744 13.4949 17.1741 13.4714 17.1722C13.4535 17.1708 13.4385 17.1685 13.4188 17.163L13.3532 17.1448H13.2852H10.2171H10.0471L9.91228 17.2485L3.24245 22.3788L3.24023 22.3805C3.05912 22.5215 2.81978 22.6013 2.61343 22.6013C2.24941 22.6013 1.88147 22.4213 1.65485 22.0434L1.65088 22.0368L1.64671 22.0303C1.25521 21.421 1.41369 20.5513 1.96133 20.1142L3.95914 18.5745L4.11198 18.4567L4.14606 18.2668C4.16931 18.1372 4.18946 18.0497 4.22791 17.9413L7.42575 10.0328L7.42587 10.0328L7.42978 10.0225C7.59001 9.59957 7.89247 9.34408 8.24459 9.26585L8.24479 9.26581C8.61141 9.1842 8.96665 9.28216 9.24354 9.56947L9.24353 9.56948L9.24696 9.57297L12.7153 13.102L13.1579 13.5523L13.4948 13.0183L14.9354 10.7348L15.1215 10.4398L14.9089 10.1633C14.2951 9.36491 13.5827 8.28451 13.181 7.1894C12.7753 6.08306 12.7264 5.07883 13.2455 4.31347L13.2469 4.31138C13.7069 3.62568 14.4185 3.37893 15.2828 3.40203C15.8993 3.41851 16.559 3.57412 17.1806 3.7853C17.0593 3.91938 16.9453 4.06836 16.8397 4.23708C16.5363 4.69708 16.3568 5.23199 16.2949 5.77522C15.9513 5.674 15.6251 5.60224 15.3524 5.58064L14.58 5.51948L14.8424 6.24843C15.0817 6.913 15.6783 7.88054 16.3259 8.7502L16.4758 8.95156H16.7269C16.992 8.95156 17.2796 9.03484 17.5325 9.22576C17.7972 9.45541 17.9853 9.75609 18.0918 10.0873L18.1644 10.3131L18.3851 10.3998C19.3046 10.7607 20.3907 11.0572 21.0489 11.0572H21.7511L21.5214 10.3937C21.4112 10.0752 21.2046 9.71029 20.9657 9.34106C21.4201 9.08069 21.8273 8.709 22.139 8.21415ZM8.33551 14.0575L8.91469 14.4105L9.07095 14.6568C9.23679 14.5516 9.36011 14.5016 9.42813 14.4889L10.3509 14.3172L9.69353 13.6472L9.37343 13.3209L8.8259 12.7629L8.54897 13.494L8.33551 14.0575Z" fill="#FAFAFA" stroke="#262626"/>
<path d="M22.7907 19.8394V19.8397C22.7907 19.8552 22.7877 19.8663 22.7847 19.8734H17.0576C17.0393 19.8508 17.0207 19.8283 17.0017 19.8058H22.7847C22.7877 19.8129 22.7907 19.8239 22.7907 19.8394Z" fill="#FAFAFA" stroke="#262626"/>
</svg>
