<svg width="22" height="22" viewBox="0 0 22 22" fill="none" xmlns="http://www.w3.org/2000/svg">
<g clip-path="url(#clip0_10_656)">
<path d="M19.25 22H2.75C1.232 22 0 20.768 0 19.25V2.75C0 1.232 1.232 0 2.75 0H19.25C20.768 0 22 1.232 22 2.75V19.25C22 20.768 20.768 22 19.25 22Z" fill="white"/>
<path d="M8.44812 16.5881C13.6346 16.5881 16.4726 12.2871 16.4726 8.56361C16.4726 8.44261 16.4726 8.32161 16.4671 8.20061C17.0171 7.80461 17.4956 7.30411 17.8751 6.73761C17.3691 6.96311 16.8246 7.11161 16.2526 7.18311C16.8356 6.83661 17.2811 6.28111 17.4956 5.62111C16.9511 5.94561 16.3461 6.17661 15.7026 6.30311C15.1856 5.75311 14.4541 5.41211 13.6456 5.41211C12.0891 5.41211 10.8241 6.67711 10.8241 8.23361C10.8241 8.45361 10.8516 8.66811 10.8956 8.87711C8.55262 8.76161 6.47362 7.63411 5.08212 5.92911C4.84012 6.34711 4.70262 6.83111 4.70262 7.34811C4.70262 8.32711 5.20312 9.19061 5.95662 9.69661C5.49462 9.68011 5.06012 9.55361 4.68062 9.34461C4.68062 9.35561 4.68062 9.36661 4.68062 9.38311C4.68062 10.7471 5.65412 11.8911 6.94112 12.1496C6.70462 12.2156 6.45712 12.2486 6.19862 12.2486C6.01712 12.2486 5.84112 12.2321 5.67062 12.1991C6.02812 13.3211 7.07312 14.1351 8.30512 14.1571C7.33712 14.9161 6.12162 15.3671 4.80162 15.3671C4.57612 15.3671 4.35062 15.3561 4.13062 15.3286C5.37362 16.1206 6.85862 16.5881 8.44812 16.5881Z" fill="#262626"/>
</g>
<defs>
<clipPath id="clip0_10_656">
<rect width="22" height="22" fill="white"/>
</clipPath>
</defs>
</svg>
