<svg width="24" height="20" viewBox="0 0 24 20" fill="none" xmlns="http://www.w3.org/2000/svg">
<g clip-path="url(#clip0_10_661)">
<path d="M23.4985 3.12307C23.2225 1.89371 22.4093 0.925646 21.3766 0.597098C19.505 9.03683e-07 12 5.96046e-07 12 5.96046e-07C12 5.96046e-07 4.49499 9.03683e-07 2.62335 0.597098C1.59076 0.925646 0.777485 1.89371 0.501509 3.12307C0 5.35118 0 10 0 10C0 10 0 14.6488 0.501509 16.8771C0.777485 18.1063 1.59076 19.0743 2.62335 19.403C4.49499 20 12 20 12 20C12 20 19.505 20 21.3766 19.403C22.4093 19.0743 23.2225 18.1063 23.4985 16.8771C24 14.6488 24 10 24 10C24 10 24 5.35118 23.4985 3.12307Z" fill="white"/>
<path d="M9.54541 14.2207L15.8181 10.0001L9.54541 5.77917V14.2207Z" fill="#262626"/>
</g>
<defs>
<clipPath id="clip0_10_661">
<rect width="24" height="20" fill="white"/>
</clipPath>
</defs>
</svg>
