<svg width="94" height="166" viewBox="0 0 94 166" fill="none" xmlns="http://www.w3.org/2000/svg">
<path d="M18.5994 56.8654L18.5104 57.3075L11.0475 94.394C10.9565 94.8467 10.9439 95.2959 10.9958 95.7325L11.0007 95.7732L10.9988 95.8143C10.996 95.8765 10.9929 95.9202 10.9903 95.957C10.9869 96.006 10.9843 96.0427 10.9843 96.0949V158.426C10.9843 162.334 14.153 165.501 18.0596 165.501C21.9672 165.501 25.1361 162.334 25.1361 158.426V105.551V104.096L26.0305 105.244C27.6496 107.321 30.372 108.397 33.1051 107.776L33.1051 107.775L52.4126 103.386L52.8951 103.276L53.0098 103.757L58.6396 127.382C59.4069 130.6 62.2783 132.766 65.4481 132.766C65.9847 132.766 66.5319 132.704 67.0801 132.574C70.8432 131.676 73.1677 127.898 72.2707 124.134L64.9166 93.2839C64.0237 89.5395 60.3008 87.2238 56.5491 88.0767L56.4382 87.5891L56.549 88.0767L45.3089 90.6311L44.5555 90.8023L44.708 90.0449L48.652 70.4481L48.9053 69.1894L49.57 70.2879C50.4553 71.7512 51.4011 73.2797 52.381 74.7416C53.7466 76.7559 55.1628 78.6584 56.8669 80.2837C57.7223 81.0916 58.6476 81.831 59.7707 82.4371L18.5994 56.8654ZM18.5994 56.8654L18.2177 56.7467M18.5994 56.8654L18.2177 56.7467M18.2177 56.7467C16.3308 55.6973 14.0036 54.1226 11.6471 51.8113L11.6453 51.8096C6.46432 46.7777 1.42471 37.9748 1.47399 24.755V24.7531C1.47399 18.6971 2.48154 11.7129 4.86598 3.65383L4.86599 3.65377C5.55541 1.32257 8.00296 -0.00733794 10.3343 0.682082L10.3345 0.682139C12.6654 1.37039 13.9956 3.81894 13.3071 6.15062C11.1225 13.5358 10.2761 19.6778 10.2761 24.7531L10.2761 24.755C10.316 35.1568 13.693 41.0654 17.1265 44.8227L17.1285 44.8249C20.2335 48.1822 23.5692 49.6598 24.5782 50.0462L24.6173 50.0612L24.6584 50.0695L47.5072 54.6652C47.5075 54.6652 47.5077 54.6653 47.508 54.6653C47.8783 54.7405 48.227 54.8654 48.5548 55.0282L48.5858 55.0436L48.6187 55.0546C48.9435 55.1632 49.2581 55.3057 49.555 55.4903C51.0779 56.5114 51.795 57.4867 52.6407 58.6368C52.7327 58.7619 52.8262 58.889 52.9224 59.0185C53.8255 60.3056 54.7086 61.7518 55.6352 63.2892C55.7578 63.4936 55.8812 63.6997 56.0054 63.9071C57.7321 66.7905 59.6016 69.9122 61.3005 72.0685C61.9433 72.9182 62.5897 73.5916 63.0834 74.0393L63.5407 74.4539L63.8513 73.9205C64.3953 72.9863 65.1321 71.2727 65.8064 68.7808C66.4527 66.4364 68.8739 65.0611 71.2188 65.7048C73.5625 66.3508 74.9398 68.7733 74.2944 71.1165C73.5409 73.8425 72.7254 76.0331 71.722 77.8822C70.7135 79.7135 69.5172 81.2654 67.7406 82.3646L67.7404 82.3647C66.5953 83.0742 65.175 83.4963 63.8286 83.4952H63.8282H63.7718C62.238 83.4941 60.8812 83.0319 59.7719 82.4377L18.2177 56.7467ZM31.3853 63.1613L30.8536 62.8301L30.6486 63.4221L22.4908 86.9804L22.4212 87.1814L22.5178 87.371L26.5244 95.2368L26.7983 95.7746L27.2757 95.4054C27.8923 94.9287 28.59 94.5468 29.3593 94.2946L29.4521 94.2642L29.5267 94.2011L34.6979 89.8219L34.8603 89.6844L34.8738 89.4721L36.459 64.5902L36.4989 63.9647L35.8802 64.0648C35.1213 64.1876 34.3548 64.1804 33.6163 64.0399L33.57 64.0167H33.5014C32.7596 63.8619 32.0436 63.5713 31.3853 63.1613ZM32.8292 55.8075L32.4475 55.7307L32.2795 56.0819L30.2334 60.3594L30.1406 60.5533L30.2175 60.754L30.3367 61.0655L30.3648 61.1388L30.4141 61.2001C31.2713 62.2656 32.4466 62.9489 33.7152 63.2052L33.7157 63.2052C34.9853 63.4604 36.3368 63.2826 37.5414 62.6302L37.6104 62.5928L37.6646 62.5361L37.8927 62.2976L38.0414 62.1421L38.0307 61.9272L37.7957 57.1923L37.7764 56.8037L37.395 56.7269L35.1127 56.2672L35.1127 56.2672L32.8292 55.8075Z" stroke="url(#paint0_linear_4_522)"/>
<mask id="path-2-inside-1_4_522" fill="white">
<path d="M42.4406 21.6449C49.9047 23.1468 54.7378 30.4164 53.236 37.8805C51.7342 45.3447 44.4646 50.1777 37.0005 48.676C29.5363 47.1743 24.7021 39.9046 26.205 32.4404C27.7068 24.9763 34.9752 20.1432 42.4406 21.6449"/>
</mask>
<path d="M53.236 37.8805L54.2164 38.0778L54.2164 38.0778L53.236 37.8805ZM26.205 32.4404L27.1853 32.6378L27.1854 32.6377L26.205 32.4404ZM42.2433 22.6253C49.1659 24.0182 53.6485 30.7604 52.2557 37.6833L54.2164 38.0778C55.827 30.0723 50.6435 22.2754 42.6378 20.6646L42.2433 22.6253ZM52.2557 37.6833C50.8628 44.6059 44.1206 49.0884 37.1977 47.6956L36.8032 49.6563C44.8087 51.267 52.6056 46.0835 54.2164 38.0778L52.2557 37.6833ZM37.1977 47.6956C30.275 46.3028 25.7915 39.5604 27.1853 32.6378L25.2247 32.243C23.6127 40.2487 28.7976 48.0457 36.8032 49.6563L37.1977 47.6956ZM27.1854 32.6377C28.5782 25.715 35.3193 21.2325 42.2434 22.6253L42.6378 20.6646C34.6311 19.054 26.8355 24.2375 25.2246 32.2432L27.1854 32.6377Z" fill="url(#paint1_linear_4_522)" mask="url(#path-2-inside-1_4_522)"/>
<path d="M36.7476 136.462H92.5261V165.28H36.7476V136.462Z" stroke="url(#paint2_linear_4_522)"/>
<defs>
<linearGradient id="paint0_linear_4_522" x1="37.9636" y1="0" x2="37.9636" y2="166.001" gradientUnits="userSpaceOnUse">
<stop stop-color="#5AB4D6"/>
<stop offset="1" stop-color="#FFD419"/>
</linearGradient>
<linearGradient id="paint1_linear_4_522" x1="39.7203" y1="21.3714" x2="39.7203" y2="48.9495" gradientUnits="userSpaceOnUse">
<stop stop-color="#5AB4D6"/>
<stop offset="1" stop-color="#FFD419"/>
</linearGradient>
<linearGradient id="paint2_linear_4_522" x1="64.6368" y1="135.962" x2="64.6368" y2="165.78" gradientUnits="userSpaceOnUse">
<stop stop-color="#5AB4D6"/>
<stop offset="1" stop-color="#FFD419"/>
</linearGradient>
</defs>
</svg>
