<svg width="133" height="222" viewBox="0 0 133 222" fill="none" xmlns="http://www.w3.org/2000/svg">
<mask id="path-1-inside-1_4_506" fill="white">
<path d="M57.6303 91.7234C57.6303 100.338 50.6475 107.321 42.0327 107.321C33.4178 107.321 26.4351 100.338 26.4351 91.7234C26.4351 83.1085 33.4178 76.1258 42.0327 76.1258C50.6475 76.1258 57.6303 83.1085 57.6303 91.7234"/>
</mask>
<path d="M56.6303 91.7234C56.6303 99.7859 50.0952 106.321 42.0327 106.321V108.321C51.1998 108.321 58.6303 100.89 58.6303 91.7234H56.6303ZM42.0327 106.321C33.9701 106.321 27.4351 99.7859 27.4351 91.7234H25.4351C25.4351 100.891 32.8655 108.321 42.0327 108.321V106.321ZM27.4351 91.7234C27.4351 83.6608 33.9701 77.1258 42.0327 77.1258V75.1258C32.8655 75.1258 25.4351 82.5562 25.4351 91.7234H27.4351ZM42.0327 77.1258C50.0952 77.1258 56.6303 83.6608 56.6303 91.7234H58.6303C58.6303 82.5562 51.1998 75.1258 42.0327 75.1258V77.1258Z" fill="url(#paint0_linear_4_506)" mask="url(#path-1-inside-1_4_506)"/>
<path d="M84.3728 96.8785L84.4119 96.8808C88.0789 97.1163 90.6543 100.141 90.6528 103.363V103.364C90.6528 104.606 90.4246 108.284 89.246 112.453C88.066 116.626 85.9501 121.232 82.2161 124.4L82.2121 124.404C78.835 127.331 74.7842 128.463 70.251 128.009C66.9858 127.682 64.1913 127.242 61.6776 126.847C60.6172 126.68 59.6067 126.521 58.632 126.381L58.0565 126.299L58.0612 126.88L58.7611 213.245C58.7611 213.246 58.7611 213.246 58.7611 213.247C58.76 217.403 55.4819 220.66 51.5787 220.66H51.5656L51.5525 220.66C47.4402 220.876 44.1639 217.406 44.1639 213.477L44.1639 213.473L43.6978 164.119L43.6932 163.624H43.1979H40.1709H39.7722L39.6835 164.012L28.0459 214.985C28.0455 214.987 28.0451 214.989 28.0447 214.99C27.1685 218.481 24.1167 220.659 20.8486 220.659C20.1548 220.659 19.7594 220.657 19.1437 220.453L19.1194 220.445L19.0943 220.439C15.1859 219.571 12.7826 215.657 13.6533 211.728C13.6535 211.727 13.6538 211.725 13.654 211.724L25.7551 160.748L25.7686 160.691V160.633V156.209L24.8214 155.985C24.7203 156.188 24.6327 156.313 24.5373 156.408C24.442 156.504 24.3175 156.591 24.1152 156.692L24.0675 156.716L24.026 156.749C22.9516 157.608 21.6655 158.036 20.3808 158.036C18.2282 158.036 16.2768 156.962 14.964 155.214L2.62885 137.99L2.62106 137.98L2.61271 137.969C0.894662 135.823 0.891224 132.808 2.39973 130.654L2.39983 130.654L2.40597 130.644C2.83617 130 15.2751 112.01 42.0317 112.01C48.7843 112.01 53.6862 112.831 58.9052 113.704C59.2273 113.758 59.5506 113.812 59.8756 113.866L59.8836 113.868L59.8916 113.869C61.0757 114.027 62.297 114.213 63.5786 114.409C66.0366 114.785 68.7162 115.194 71.7803 115.501L71.8052 115.503H71.8301C72.8305 115.503 73.4439 115.254 73.8041 114.901C75.0762 113.749 75.977 111.654 76.5903 109.493C77.2122 107.302 77.5665 104.939 77.6846 103.163L77.6857 103.146V103.13C77.6857 99.4652 80.6975 96.6629 84.3728 96.8785ZM24.8624 146.487L25.7504 147.745L25.7708 146.205L26.0032 128.745L26.0135 127.969L25.3027 128.281C21.5323 129.931 18.4504 132.059 16.5365 133.973L16.2387 134.27L16.4816 134.615L24.8624 146.487Z" stroke="url(#paint1_linear_4_506)"/>
<path d="M86.6958 70.5386C86.6958 73.9909 83.896 76.7906 80.4437 76.7906C76.9917 76.7906 74.1934 73.991 74.1934 70.5386C74.1934 67.0863 76.9915 64.2882 80.4437 64.2882C83.8961 64.2882 86.6958 67.0865 86.6958 70.5386Z" stroke="url(#paint2_linear_4_506)"/>
<path d="M75.7543 84.041C75.7543 86.8502 73.4758 89.1286 70.6667 89.1286C67.8576 89.1286 65.5791 86.8501 65.5791 84.041C65.5791 81.2319 67.8576 78.9534 70.6667 78.9534C73.4758 78.9534 75.7543 81.2319 75.7543 84.041Z" stroke="url(#paint3_linear_4_506)"/>
<path d="M128.367 21.6514C128.367 23.5552 127.968 25.4693 127.353 27.2038H126.495L127.349 28.0573C130.512 31.2206 132.078 35.2648 131.63 39.524L131.628 39.55V39.5762C131.628 48.8452 123.937 56.5362 114.668 56.5362C113.798 56.5362 112.688 56.3155 111.506 56.0798L111.213 56.0212L111.023 56.2523C107.86 60.092 103.348 62.1225 98.6041 62.1225C93.874 62.1225 89.3508 59.8696 86.176 56.2409L85.9853 56.0229L85.7012 56.0799C85.5305 56.1142 85.3663 56.1481 85.2071 56.1809C84.2572 56.3767 83.4842 56.5362 82.5406 56.5362C73.0434 56.5362 65.5806 48.8496 65.5806 39.5762C65.5806 35.2969 67.3837 31.2235 70.3366 28.044L70.5468 27.8176L70.4384 27.5283C69.7566 25.7095 69.3059 23.6746 69.3059 21.6514C69.3059 12.1543 76.9924 4.6914 86.2659 4.6914C87.2057 4.6914 88.0765 4.69378 88.9379 4.90874L89.2265 4.98076L89.4275 4.76153C91.9009 2.06412 95.2613 0.5 98.8366 0.5C102.426 0.5 106.004 2.07374 108.23 4.7438L108.421 4.97216L108.712 4.91393C109.825 4.69169 110.485 4.6914 111.407 4.6914C120.904 4.6914 128.367 12.378 128.367 21.6514ZM109.94 31.0381L110.045 30.9027V30.8805C112.392 27.2763 112.849 22.9549 110.928 18.8775L110.923 18.867L110.917 18.8567C108.725 14.7149 104.352 12.3046 99.3015 12.3046C91.3394 12.3046 86.9692 17.8736 86.2357 23.4353C85.9427 24.9593 87.1806 26.1107 88.592 26.1107H91.6189C92.841 26.1107 93.695 25.1899 93.9667 24.1014L93.9748 24.0688L93.9785 24.0354C94.0857 23.069 94.4593 22.0222 95.2611 21.2206C96.0538 20.4281 97.3152 19.8247 99.3015 19.8247C102.322 19.8247 103.57 21.531 103.976 22.3418L103.982 22.3542L103.989 22.3662C104.808 23.7974 104.62 25.217 103.787 26.4784C102.909 27.5719 102.033 28.2327 101.113 28.9228C99.813 29.7512 98.644 30.6688 97.7472 32.0602C96.847 33.4568 96.2482 35.2875 96.0102 37.9022L96.0082 37.9248V37.9475C96.0082 38.6262 96.2117 39.2708 96.6212 39.7546C97.0378 40.2467 97.6438 40.5423 98.3708 40.5423H101.164C101.75 40.5423 102.328 40.3243 102.765 39.96C103.197 39.5992 103.516 39.0706 103.526 38.4419C103.64 37.4323 103.804 36.8928 104.057 36.5013C104.315 36.1033 104.697 35.8039 105.399 35.3367L105.417 35.3247L105.433 35.3112C105.574 35.1986 105.723 35.0818 105.879 34.9595C106.995 34.0835 108.47 32.9258 109.94 31.0381ZM95.31 47.7248C95.31 50.0762 97.1434 52.1822 99.7673 52.1822C102.138 52.1822 104.225 50.0958 104.225 47.7248C104.225 45.3734 102.391 43.2674 99.7673 43.2674C97.416 43.2674 95.31 45.1009 95.31 47.7248Z" stroke="url(#paint4_linear_4_506)"/>
<defs>
<linearGradient id="paint0_linear_4_506" x1="42.0327" y1="76.1258" x2="42.0327" y2="107.321" gradientUnits="userSpaceOnUse">
<stop stop-color="#5AB4D6"/>
<stop offset="1" stop-color="#FFD419"/>
</linearGradient>
<linearGradient id="paint1_linear_4_506" x1="45.9739" y1="96.3669" x2="45.9739" y2="221.17" gradientUnits="userSpaceOnUse">
<stop stop-color="#5AB4D6"/>
<stop offset="1" stop-color="#FFD419"/>
</linearGradient>
<linearGradient id="paint2_linear_4_506" x1="80.4446" y1="63.7882" x2="80.4446" y2="77.2906" gradientUnits="userSpaceOnUse">
<stop stop-color="#5AB4D6"/>
<stop offset="1" stop-color="#FFD419"/>
</linearGradient>
<linearGradient id="paint3_linear_4_506" x1="70.6667" y1="78.4534" x2="70.6667" y2="89.6286" gradientUnits="userSpaceOnUse">
<stop stop-color="#5AB4D6"/>
<stop offset="1" stop-color="#FFD419"/>
</linearGradient>
<linearGradient id="paint4_linear_4_506" x1="98.643" y1="0" x2="98.643" y2="62.6225" gradientUnits="userSpaceOnUse">
<stop stop-color="#5AB4D6"/>
<stop offset="1" stop-color="#FFD419"/>
</linearGradient>
</defs>
</svg>
