<svg width="69" height="145" viewBox="0 0 69 145" fill="none" xmlns="http://www.w3.org/2000/svg">
<path d="M5.91659 87.5989H5.83358C3.19655 87.5989 1.05626 85.7249 0.907878 83.3823L0.907829 83.3815C0.628538 79.077 0.500004 75.1243 0.5 71.4929C0.509862 57.4355 2.3812 48.1731 5.13739 41.7973L5.1378 41.7964C7.86002 35.463 11.7251 31.9326 15.2579 30.3318L15.2579 30.3318L15.2609 30.3305C16.7896 29.6259 18.1881 29.2955 19.3 29.15L19.3409 29.1447L19.3803 29.1327C19.8567 28.9882 20.3633 28.9074 20.8905 28.9074C20.8905 28.9074 20.8905 28.9074 20.8905 28.9074L47.1845 28.9104C47.714 28.9104 48.2206 28.9912 48.6969 29.1357L48.7363 29.1477L48.7772 29.1531C49.8882 29.2986 51.2866 29.6289 52.8107 30.3324L52.8127 30.3333C55.1504 31.4005 57.6992 33.3311 59.884 36.3647C64.2707 42.495 67.5455 52.7649 67.5719 71.4973C67.5719 75.1287 67.4444 79.0796 67.1717 83.3851C67.0235 85.7265 64.8789 87.6036 62.2431 87.6027H62.2429C62.1444 87.6027 62.0467 87.6 61.9466 87.5944L61.9453 87.5943C59.176 87.4476 57.1417 85.2933 57.2984 82.8675L57.2984 82.8672C57.5636 78.7186 57.683 74.9396 57.6808 71.4944M5.91659 87.5989L10.3901 71.4929C10.3901 71.4928 10.3901 71.4927 10.3901 71.4925C10.3659 56.3812 12.7749 47.8241 15.1894 43.3074L16.1304 43.5431V136.748C16.1304 140.68 19.6312 143.94 24.0449 143.94C28.4597 143.94 31.9606 140.68 31.9606 136.748V80.5789V80.0789H32.4605H35.6149H36.1149V80.5789V136.748C36.1149 140.68 39.6157 143.94 44.0294 143.94C48.4442 143.94 51.9451 140.68 51.9451 136.748V63.9864L51.9462 43.5748L52.8873 43.3394C53.3 44.1126 53.7135 44.9974 54.1202 46.0257L54.1203 46.0261C56.0688 50.9656 57.6884 59.0081 57.6808 71.4944M5.91659 87.5989C5.98959 87.598 6.05953 87.5958 6.1272 87.5913L6.13315 87.591L6.13315 87.591C8.90196 87.4433 10.9339 85.2874 10.7791 82.8617L5.91659 87.5989ZM57.6808 71.4944C57.6808 71.4945 57.6808 71.4946 57.6808 71.4948L57.1808 71.4945L57.6808 71.4941C57.6808 71.4942 57.6808 71.4943 57.6808 71.4944Z" stroke="url(#paint0_linear_4_501)"/>
<path d="M18.7109 12.1911C19.5676 13.0958 20.8119 14.3048 22.3425 15.5078C25.3916 17.9159 29.6066 20.2668 34.0345 20.2526C37.7108 20.2981 41.229 18.642 44.0458 16.731C46.8707 14.8144 49.0463 12.6032 50.0503 11.4529L50.3388 11.1223L49.3638 10.0473C48.5072 9.14479 47.2597 7.9337 45.7323 6.73268C42.6837 4.32473 38.4674 1.97044 34.0391 1.98774C30.3639 1.94125 26.8468 3.59629 24.0303 5.50677C21.2056 7.42286 19.0295 9.63404 18.0234 10.7851L17.7336 11.1167L18.026 11.4461C18.2139 11.6578 18.4427 11.9099 18.7109 12.1911ZM18.7109 12.1911C18.7107 12.1908 18.7104 12.1906 18.7102 12.1904L19.0733 11.8466L18.7115 12.1918C18.7113 12.1915 18.7111 12.1913 18.7109 12.1911ZM46.8877 16.6097C43.6562 19.1388 39.194 21.727 34.037 21.7422C28.8797 21.7262 24.4187 19.138 21.185 16.6097C18.0595 14.1484 16.1189 11.7242 15.9706 11.539C15.9701 11.5383 15.9695 11.5376 15.969 11.537L15.9691 11.537L15.6403 11.1202L15.9691 10.7035L15.969 10.7035C15.9695 10.7029 15.9701 10.7022 15.9706 10.7015C16.1171 10.5184 18.0582 8.09126 21.1851 5.6307C24.4189 3.10055 28.881 0.514205 34.0369 0.499087C39.1942 0.514307 43.6564 3.10056 46.8875 5.62964C49.9781 8.06071 51.9075 10.4561 52.1017 10.6972C52.1031 10.699 52.1045 10.7007 52.1058 10.7022L52.1057 10.7023L52.4335 11.1183L52.1047 11.5385C52.1044 11.5388 52.1042 11.5391 52.1039 11.5394C51.9465 11.7358 50.008 14.1541 46.8877 16.6097Z" stroke="url(#paint1_linear_4_501)"/>
<path d="M33.7514 8.04868V8.0492C33.7514 9.41965 34.9532 10.4554 36.3366 10.4554C37.7202 10.4554 38.9218 9.41848 38.9218 8.0492C38.9218 6.6786 37.7187 5.64296 36.3366 5.64296C34.9516 5.64296 33.7529 6.67809 33.7514 8.04868ZM40.9415 11.1202C40.9415 14.5396 37.8945 17.3867 34.0398 17.3867C30.1852 17.3867 27.1382 14.5396 27.1382 11.1202C27.1382 7.70076 30.1852 4.85372 34.0398 4.85372C37.8945 4.85372 40.9415 7.70076 40.9415 11.1202Z" stroke="url(#paint2_linear_4_501)"/>
<defs>
<linearGradient id="paint0_linear_4_501" x1="34.0359" y1="28.4074" x2="34.0359" y2="144.44" gradientUnits="userSpaceOnUse">
<stop stop-color="#6CB8C2"/>
<stop offset="1" stop-color="#F7D323"/>
</linearGradient>
<linearGradient id="paint1_linear_4_501" x1="34.0364" y1="-0.000915527" x2="34.0364" y2="22.2422" gradientUnits="userSpaceOnUse">
<stop stop-color="#6CB8C2"/>
<stop offset="1" stop-color="#F7D323"/>
</linearGradient>
<linearGradient id="paint2_linear_4_501" x1="34.0398" y1="4.35372" x2="34.0398" y2="17.8867" gradientUnits="userSpaceOnUse">
<stop stop-color="#6CB8C2"/>
<stop offset="1" stop-color="#F7D323"/>
</linearGradient>
</defs>
</svg>
