<svg width="22" height="22" viewBox="0 0 22 22" fill="none" xmlns="http://www.w3.org/2000/svg">
<g clip-path="url(#clip0_4_664)">
<path d="M19.25 22H2.75C1.232 22 0 20.768 0 19.25V2.75C0 1.232 1.232 0 2.75 0H19.25C20.768 0 22 1.232 22 2.75V19.25C22 20.768 20.768 22 19.25 22Z" fill="white"/>
<path d="M8.44787 16.5881C13.6344 16.5881 16.4724 12.2871 16.4724 8.56361C16.4724 8.44261 16.4724 8.32161 16.4669 8.20061C17.0169 7.80461 17.4954 7.30411 17.8749 6.73761C17.3689 6.96311 16.8244 7.11161 16.2524 7.18311C16.8354 6.83661 17.2809 6.28111 17.4954 5.62111C16.9509 5.94561 16.3459 6.17661 15.7024 6.30311C15.1854 5.75311 14.4539 5.41211 13.6454 5.41211C12.0889 5.41211 10.8239 6.67711 10.8239 8.23361C10.8239 8.45361 10.8514 8.66811 10.8954 8.87711C8.55237 8.76161 6.47337 7.63411 5.08187 5.92911C4.83987 6.34711 4.70237 6.83111 4.70237 7.34811C4.70237 8.32711 5.20287 9.19061 5.95637 9.69661C5.49437 9.68011 5.05987 9.55361 4.68037 9.34461C4.68037 9.35561 4.68037 9.36661 4.68037 9.38311C4.68037 10.7471 5.65387 11.8911 6.94087 12.1496C6.70437 12.2156 6.45687 12.2486 6.19837 12.2486C6.01687 12.2486 5.84087 12.2321 5.67037 12.1991C6.02787 13.3211 7.07287 14.1351 8.30487 14.1571C7.33687 14.9161 6.12137 15.3671 4.80137 15.3671C4.57587 15.3671 4.35037 15.3561 4.13037 15.3286C5.37337 16.1206 6.85837 16.5881 8.44787 16.5881Z" fill="#262626"/>
</g>
<defs>
<clipPath id="clip0_4_664">
<rect width="22" height="22" fill="white"/>
</clipPath>
</defs>
</svg>
