<svg width="38" height="38" viewBox="0 0 38 38" fill="none" xmlns="http://www.w3.org/2000/svg">
<path d="M8.83691 16.0719V2.85462C8.83691 2.63616 8.83691 2.52693 8.85971 2.42202C8.87115 2.36933 8.88684 2.31765 8.90661 2.26749C8.946 2.16761 9.00672 2.07682 9.12817 1.89523C9.21457 1.76604 9.25777 1.70145 9.30989 1.64473C9.33611 1.6162 9.36396 1.58922 9.39331 1.56393C9.45166 1.51364 9.51759 1.47252 9.64947 1.39028L9.64947 1.39028L10.1331 1.0887C10.3529 0.951578 10.4629 0.883015 10.5852 0.844814C10.7075 0.806614 10.8369 0.800421 11.0958 0.788035L11.4228 0.772387L11.9149 0.794791C12.1136 0.803837 12.2129 0.808361 12.3088 0.832082C12.4048 0.855803 12.4948 0.89811 12.6748 0.982724L12.789 1.03645C12.9409 1.10783 13.0168 1.14352 13.0855 1.19108C13.1541 1.23865 13.2142 1.29721 13.3343 1.41433L13.3894 1.46801L13.3894 1.46802C13.4502 1.52732 13.4806 1.55697 13.5084 1.58905C13.5361 1.62113 13.5611 1.6555 13.6111 1.72422L13.6697 1.80488L13.6697 1.80488C13.8592 2.0656 13.954 2.19596 14.0029 2.34663C14.0519 2.49731 14.0519 2.65847 14.0519 2.98079V4.48466C14.0519 6.60315 14.0519 7.66239 14.6806 7.9138C15.3093 8.16522 16.0397 7.39805 17.5004 5.86371L21.9862 1.15196C22.1469 0.983205 22.2272 0.898827 22.3238 0.835546C22.4204 0.772265 22.5298 0.732301 22.7487 0.652372L22.8308 0.6224C23.179 0.495225 23.3531 0.431638 23.5344 0.433175C23.7156 0.434713 23.8886 0.501245 24.2347 0.634308L24.3884 0.693413L24.3884 0.693417C24.5434 0.753043 24.621 0.782857 24.6922 0.824808C24.7635 0.86676 24.8272 0.920089 24.9545 1.02675L25.3825 1.38512C25.4668 1.45566 25.5089 1.49093 25.5466 1.53023C25.5891 1.57454 25.6275 1.62267 25.6612 1.67401C25.691 1.71955 25.716 1.76847 25.7659 1.86631L25.766 1.86636C25.8483 2.02773 25.8895 2.10842 25.9153 2.19315C25.9443 2.28862 25.9589 2.3879 25.9585 2.48768C25.9582 2.57624 25.942 2.66536 25.9095 2.84361L25.6844 4.07888C25.6269 4.39469 25.5981 4.5526 25.5234 4.6916C25.4486 4.8306 25.3328 4.94169 25.1011 5.16388L12.2212 17.5154C10.7752 18.902 10.0522 19.5953 9.44458 19.3362C8.83691 19.077 8.83691 18.0753 8.83691 16.0719Z" fill="#78C192"/>
<path d="M0.912049 36.7673L0.623281 36.5357C0.45276 36.3989 0.320223 36.2207 0.238369 36.018C0.177035 35.8661 0.145508 35.7038 0.145508 35.54V35.5115C0.145508 35.4246 0.153474 35.3379 0.169307 35.2524L0.195116 35.113C0.304589 34.522 0.591045 33.9782 1.01654 33.5536L33.5686 1.07153C34.0118 0.629251 34.6124 0.380859 35.2385 0.380859H35.3788C35.9151 0.380859 36.4296 0.593621 36.8092 0.972462C36.9917 1.15458 37.1378 1.36988 37.2395 1.60679L37.3291 1.8154C37.5945 2.43337 37.6572 3.1259 37.511 3.78238C37.376 4.38882 37.0682 4.94986 36.627 5.38724L4.97414 36.7615C4.7986 36.9355 4.59571 37.0795 4.37355 37.1879C4.06487 37.3384 3.72596 37.4166 3.38253 37.4166H3.06912H2.82904C2.4357 37.4166 2.04583 37.343 1.67959 37.1995L1.61471 37.174C1.36128 37.0747 1.12437 36.9376 0.912049 36.7673Z" fill="#5AB4D6"/>
<path d="M36.7114 27.6646L28.3313 36.4069C27.945 36.8098 27.4623 37.1074 26.9289 37.2714C26.6168 37.3674 26.2922 37.4161 25.9657 37.4161H25.6229H25.2582C24.9475 37.4161 24.6397 37.3551 24.3525 37.2365L24.3221 37.224C23.9992 37.0907 23.7121 36.8836 23.4838 36.6193L23.3778 36.4966C23.2065 36.2984 23.0869 36.0609 23.0296 35.8053C22.9849 35.606 22.979 35.3999 23.0124 35.1983L23.0704 34.847C23.1013 34.6607 23.1585 34.4797 23.2405 34.3095C23.3437 34.0954 23.4844 33.9015 23.6561 33.7372L33.4236 24.3885C33.8263 24.0031 34.3425 23.7577 34.8956 23.6887L35.054 23.6689C35.5258 23.6101 36.0046 23.7113 36.4126 23.9556C36.7116 24.1346 36.9625 24.3848 37.1421 24.6834C37.3872 25.0911 37.4883 25.5693 37.4292 26.0413L37.4094 26.1988C37.3404 26.7498 37.0957 27.2638 36.7114 27.6646Z" fill="#6D3979"/>
<path d="M36.3813 16.691L16.2905 36.3348C16.1092 36.5121 15.9005 36.6591 15.6726 36.7702C15.3494 36.9278 14.9946 37.0096 14.6351 37.0096H14.3461H13.9564C13.6641 37.0096 13.3766 36.9354 13.1209 36.7939L13.0958 36.7799C12.8714 36.6558 12.6801 36.4798 12.5376 36.2666C12.3945 36.0524 12.305 35.8069 12.2766 35.5508L12.2578 35.381V34.9739C12.2578 34.7063 12.3215 34.4425 12.4436 34.2044L12.5067 34.0815C12.6185 33.8636 12.765 33.6653 12.9404 33.4944L34.5783 12.4209C34.7933 12.2114 35.0912 12.1097 35.3895 12.1439C35.5582 12.1632 35.7192 12.2252 35.8573 12.324L36.1253 12.5158C36.3331 12.6644 36.5143 12.847 36.6613 13.0559L36.7452 13.1752C36.848 13.3213 36.9381 13.476 37.0146 13.6374L37.1319 13.8853C37.2482 14.1309 37.31 14.3988 37.3132 14.6705C37.316 14.9038 37.2755 15.1355 37.1937 15.354L37.115 15.5644C36.9561 15.9893 36.7056 16.3739 36.3813 16.691Z" fill="#5773A7"/>
<path d="M0.148497 2.94631L0.543526 26.7942C0.557766 27.6539 1.57845 28.096 2.21527 27.5183L5.02834 24.9665C5.23965 24.7748 5.35902 24.502 5.35642 24.2167L5.15958 2.63828C5.15816 2.48265 5.12044 2.3295 5.04941 2.19102L4.8144 1.73283C4.76497 1.63645 4.70021 1.54875 4.62265 1.47315L4.49483 1.34854C4.38131 1.23787 4.2431 1.15578 4.0916 1.10904L3.98352 1.07569C3.88802 1.04623 3.78865 1.03125 3.68871 1.03125H1.96574C1.91123 1.03125 1.85682 1.03571 1.80304 1.04457L1.29104 1.129C1.0891 1.1623 0.902247 1.25676 0.755697 1.39962L0.729905 1.42476C0.620214 1.5317 0.536556 1.6624 0.485386 1.80679L0.205798 2.59572C0.165927 2.70823 0.14652 2.82697 0.148497 2.94631Z" fill="#FFD419"/>
</svg>
