<svg width="15" height="15" viewBox="0 0 15 15" fill="none" xmlns="http://www.w3.org/2000/svg">
<path d="M13.4767 7.0946L7.15192 1.60521C7.10337 1.56335 7.04143 1.53992 6.97614 1.53992H5.49455C5.37067 1.53992 5.31375 1.69393 5.4075 1.77429L11.2702 6.86358H1.47335C1.39968 6.86358 1.33942 6.92385 1.33942 6.99751V8.00197C1.33942 8.07563 1.39968 8.1359 1.47335 8.1359H11.2685L5.40582 13.2252C5.31207 13.3072 5.36899 13.4596 5.49288 13.4596H7.02468C7.05649 13.4596 7.0883 13.4478 7.11174 13.4261L13.4767 7.90487C13.5346 7.85448 13.5811 7.79223 13.613 7.72234C13.6448 7.65245 13.6613 7.57654 13.6613 7.49974C13.6613 7.42294 13.6448 7.34703 13.613 7.27714C13.5811 7.20725 13.5346 7.145 13.4767 7.0946V7.0946Z" fill="white"/>
</svg>
