<svg width="341" height="34" viewBox="0 0 341 34" fill="none" xmlns="http://www.w3.org/2000/svg">
<g clip-path="url(#clip0_1_564)">
<path d="M314.762 32.5853C314.762 31.8308 315.378 31.2177 316.183 31.2177C316.988 31.2177 317.604 31.8308 317.604 32.5853C317.604 33.3398 316.988 34 316.183 34C315.378 34 314.762 33.387 314.762 32.5853ZM315.046 32.5853C315.046 33.1983 315.567 33.7171 316.23 33.7171C316.846 33.7171 317.367 33.2455 317.367 32.5853C317.367 31.9723 316.846 31.5007 316.23 31.5007C315.52 31.5007 315.046 32.0194 315.046 32.5853Z" fill="#E31837"/>
<path d="M316.893 33.387H316.609L316.135 32.6796H315.851V33.387H315.662V31.8308H316.372C316.514 31.8308 316.656 31.8308 316.751 31.9251C316.893 31.9722 316.941 32.1137 316.941 32.2552C316.941 32.5381 316.704 32.6796 316.42 32.6796L316.893 33.387ZM316.135 32.491C316.372 32.491 316.656 32.5381 316.656 32.2552C316.656 32.0666 316.467 32.0194 316.278 32.0194H315.851V32.491H316.135Z" fill="#E31837"/>
<path d="M309.41 34C319.356 25.5118 333.327 17.2594 341 14.2885C339.816 13.534 337.969 12.4494 335.885 11.2704C325.987 14.5243 314.43 21.7392 304.106 29.8974C305.858 31.2177 307.705 32.5853 309.41 34Z" fill="#E31837"/>
<path d="M304.863 10.9404C303.395 10.233 301.785 9.57281 300.554 9.00693C296.812 10.846 291.934 13.6283 285.777 18.0139C287.103 18.7212 288.524 19.57 290.039 20.4189C294.776 16.9293 299.559 13.6283 304.863 10.9404Z" fill="#012169"/>
<path d="M313.72 6.88489C311.92 5.8946 305.669 3.58392 301.359 2.59363C300.08 3.0652 298.28 3.77255 297.049 4.29127C298.612 4.71568 304.437 6.27185 309.41 8.77116C310.689 8.15812 312.489 7.40361 313.72 6.88489Z" fill="#E31837"/>
<path d="M292.55 6.27185C287.008 8.81831 281.183 12.3079 278.01 14.3357C279.146 14.8544 280.283 15.2788 281.846 16.0333C288.855 11.3176 294.349 8.44106 296.528 7.49793C294.965 6.93204 293.497 6.55479 292.55 6.27185Z" fill="#012169"/>
<path d="M317.888 5.42302C319.167 4.99861 320.635 4.62136 321.913 4.24411C318.219 2.68793 313.578 1.03745 309.41 0C308.747 0.188627 306.758 0.707351 305.384 1.13176C306.805 1.55617 311.494 2.64078 317.888 5.42302ZM294.539 23.154C296.054 24.0499 297.665 25.276 299.227 26.3135C309.6 18.2968 319.83 12.1193 331.054 8.62968C329.491 7.82802 328.118 7.12067 326.365 6.27184C319.64 7.96949 308.131 12.5437 294.539 23.154Z" fill="#E31837"/>
<path d="M0 31.5478H7.57778C11.414 31.5478 13.2137 29.5673 13.2137 26.785C13.2137 24.5215 12.0297 23.0125 9.56694 22.5409C11.7456 22.0222 12.7401 20.7018 12.7401 18.7684C12.7401 16.3162 10.9404 14.3356 7.10417 14.3356H0.0473611V31.5478H0ZM6.58319 24.2386C8.00403 24.2386 8.99861 24.9459 8.99861 26.3606C8.99861 27.8696 8.05139 28.4827 6.58319 28.4827H4.12042V24.1914H6.58319V24.2386ZM6.10958 17.3537C7.53042 17.3537 8.525 17.9667 8.525 19.3814C8.525 20.7961 7.57778 21.4092 6.10958 21.4092H4.12042V17.3537H6.10958ZM28.5114 14.2885H24.2489L17.7604 31.5478H22.0703L23.2543 27.9639H29.506L30.69 31.5478H35.0472L28.5114 14.2885ZM26.3801 18.4383L28.4167 24.8044H24.2489L26.3801 18.4383ZM56.6439 14.2885H52.7129V25.8419L45.3246 14.2885H40.92V31.5478H44.851V20.0416L52.2393 31.5478H56.6439V14.2885ZM74.7832 31.5478L69.0999 22.7767V31.5478H64.8847V14.2885H69.0999V22.5881L74.499 14.2885H79.1878L73.5044 22.5881L79.7088 31.5478H74.7832ZM94.6275 22.9182C94.6275 26.3606 96.7114 28.4827 99.411 28.4827C102.111 28.4827 104.194 26.3606 104.194 22.9182C104.194 19.4757 102.111 17.3537 99.411 17.3537C96.7114 17.3537 94.6275 19.4757 94.6275 22.9182ZM90.1756 22.9182C90.2229 17.8724 93.775 13.9112 99.411 13.9112C105.047 13.9112 108.599 17.8724 108.646 22.9182C108.599 27.9639 105.047 31.9251 99.411 31.9251C93.775 31.9251 90.2229 27.9639 90.1756 22.9182ZM114.424 31.5478H118.64V24.7573H124.133V21.4563H118.64V17.5895H125.27L126.028 14.2885H114.424V31.5478ZM145.683 14.2885H141.42L134.932 31.5478H139.242L140.426 27.9639H146.677L147.861 31.5478H152.219L145.683 14.2885ZM143.552 18.4383L145.588 24.8044H141.42L143.552 18.4383ZM177.225 14.2885H172.3L167.8 23.6255L163.301 14.2885H158.376V31.5478H162.164V19.9944L167.753 31.5478L173.342 19.9944V31.5478H177.273L177.225 14.2885ZM185.419 31.5478H197.259V28.2469H189.634V24.38H195.649V21.1734H189.634V17.5895H196.596L197.354 14.2885H185.419V31.5478ZM213.314 31.5478H217.908L213.599 24.2386C215.967 23.5784 217.103 21.9279 217.103 19.5229C217.103 16.4105 215.209 14.3356 210.946 14.3356H204.268V31.595H208.389V24.8044H209.526L213.314 31.5478ZM210.141 17.4951C211.894 17.4951 212.793 18.2496 212.793 19.7115C212.793 21.1734 211.894 21.9279 210.141 21.9279H208.342V17.4951H210.141ZM224.207 31.5478H228.423V14.3356H224.207V31.5478ZM249.167 26.9265C247.557 28.0582 246.136 28.4355 244.667 28.4355C241.447 28.4355 239.174 26.2191 239.174 22.9182C239.174 19.6172 241.4 17.4008 244.525 17.4008C245.946 17.4008 247.367 17.7781 248.93 18.9098V14.9958C247.509 14.1942 245.852 13.8641 244.004 13.8641C238.274 13.8641 234.674 17.8252 234.627 22.871C234.674 27.9639 238.179 31.8779 244.004 31.8779C245.946 31.8779 247.604 31.5478 249.119 30.7462V26.9265H249.167ZM264.607 14.2885H260.344L253.856 31.5478H258.165L259.349 27.9639H265.601L266.785 31.5478H271.142L264.607 14.2885ZM262.475 18.4383L264.512 24.8044H260.344L262.475 18.4383Z" fill="#012169"/>
</g>
<defs>
<clipPath id="clip0_1_564">
<rect width="341" height="34" fill="white"/>
</clipPath>
</defs>
</svg>
