<svg width="27" height="27" viewBox="0 0 27 27" fill="none" xmlns="http://www.w3.org/2000/svg">
<g clip-path="url(#clip0_1_403)">
<path d="M11.8606 26.8987C9.45252 26.5865 6.97358 25.5538 5.16795 24.1084C1.10277 20.865 -0.742514 15.7409 0.312174 10.6523C0.764424 8.45517 1.9423 6.14329 3.45008 4.47773C4.56079 3.22771 5.90024 2.20157 7.3963 1.45457C9.38249 0.447978 11.2809 -0.00427246 13.5219 -0.00427246C15.1301 -0.00427246 16.4227 0.206665 17.9035 0.712071C19.8489 1.37935 21.6162 2.48194 23.0708 3.93582C24.5254 5.38969 25.6289 7.15647 26.2971 9.10148C27.0886 11.4218 27.2329 13.8914 26.7275 16.3392C26.3233 18.273 25.2813 20.4482 23.9988 22.021C23.4714 22.6715 22.2581 23.8317 21.6211 24.3016C19.7153 25.717 17.474 26.612 15.1175 26.8987C14.423 26.9864 12.533 26.9822 11.8614 26.8987H11.8606ZM15.5393 25.7698C18.8285 25.2185 21.764 23.3832 23.7001 20.6676C25.9807 17.4639 26.5916 13.1658 25.304 9.41788C25.0011 8.5387 24.2494 7.07142 23.7001 6.2977C23.0892 5.43201 21.5772 3.91579 20.7073 3.30492C19.8635 2.70754 18.4266 1.98192 17.4462 1.66129C15.6764 1.07331 13.7972 0.890502 11.9472 1.12636C10.0973 1.36222 8.32405 2.01072 6.75842 3.02395C5.28538 3.99158 4.02621 5.25075 3.05858 6.72379C2.04561 8.28857 1.39724 10.061 1.16137 11.9101C0.925514 13.7591 1.1082 15.6375 1.69592 17.4065C2.02077 18.3861 2.74639 19.8281 3.33955 20.6718C3.95464 21.5375 5.46664 23.0537 6.33233 23.6646C7.11027 24.2097 8.57333 24.9606 9.45252 25.2686C11.4094 25.9334 13.5 26.1056 15.5393 25.7698V25.7698ZM10.8633 21.243C10.2324 21.1479 9.62723 20.9267 9.0838 20.5925C8.59611 20.2803 4.91314 16.6724 4.73342 16.3341C4.52671 15.9477 4.88699 15.244 5.40167 15.0288L5.64299 14.9276L4.90049 14.1716C4.49211 13.7539 4.10483 13.3101 4.04324 13.1869C3.89811 12.9059 3.89389 12.3035 4.02974 12.0352C4.08711 11.9255 4.22296 11.7584 4.32842 11.6656C4.50899 11.5163 4.52586 11.4631 4.50899 11.0851C4.48705 10.751 4.51742 10.6194 4.66255 10.3688C4.87349 10.0085 5.30886 9.76635 5.73495 9.76213C5.97205 9.76213 6.03364 9.73176 6.13489 9.55541C6.39899 9.09388 7.15414 8.92682 7.73042 9.20863L8.04261 9.35798L8.19617 9.20863C8.40711 9.01541 8.82899 8.84413 9.10574 8.84413C9.65924 8.84413 10.4414 9.48116 10.4414 9.9292C10.4414 10.465 9.9537 10.5578 9.47024 10.114C9.14961 9.81529 8.98677 9.78407 8.85514 9.99501C8.78933 10.0963 8.94711 10.2853 9.89211 11.2387C10.8371 12.1879 11.0084 12.3904 11.0084 12.5701C11.0009 12.7079 10.9423 12.8379 10.8439 12.9347C10.7456 13.0314 10.6147 13.088 10.4768 13.0933C10.3055 13.0933 10.0246 12.8469 8.72774 11.5551C7.40474 10.2363 7.16342 10.0254 7.05795 10.092C6.77192 10.2726 6.86895 10.4042 8.41555 11.955C9.25508 12.7988 9.94527 13.5455 9.94527 13.6164C9.94527 13.7615 9.81364 14.0298 9.70396 14.0999C9.61398 14.1394 9.51609 14.1576 9.41792 14.153C9.23736 14.1572 8.96061 13.9066 7.48911 12.4394C6.01255 10.9712 5.74846 10.7341 5.64299 10.7999C5.35274 10.9847 5.44977 11.1121 7.13305 12.8039C8.05189 13.7227 8.82055 14.5445 8.84249 14.6323C8.89058 14.7909 8.78511 15.0676 8.64505 15.1638C8.55211 15.2033 8.45148 15.2215 8.35058 15.217C8.17002 15.217 7.9422 15.0195 6.72467 13.802C5.55102 12.6284 5.27849 12.387 5.12914 12.4005C4.70727 12.4486 4.85661 12.6376 7.03602 14.8221C8.92602 16.7163 9.16733 16.9846 9.16733 17.1821C9.16923 17.2546 9.15293 17.3264 9.11991 17.3909C9.0869 17.4555 9.03822 17.5107 8.97833 17.5516C8.63999 17.8199 8.50836 17.7584 7.65533 16.9323C7.21995 16.5147 6.77192 16.1105 6.65296 16.0354C6.4378 15.9038 5.89274 15.8464 5.79149 15.9519C5.75605 15.9823 6.56014 16.8311 7.57602 17.8368C9.26774 19.5108 9.46095 19.6829 9.95792 19.92C10.4157 20.148 10.92 20.2674 11.4314 20.2688C11.9428 20.2703 12.4477 20.1538 12.9068 19.9285C14.326 19.2518 15.1132 17.6082 14.726 16.1181C14.5327 15.3756 14.2906 15.0195 13.3152 14.0129C12.1905 12.8612 11.9306 12.5448 11.6539 11.9913C11.3459 11.372 11.2143 10.7696 11.2143 10.0178C11.2143 9.20442 11.2978 8.8357 11.6581 8.07548C12.0006 7.3507 12.717 6.59048 13.4249 6.19898C14.8137 5.42526 16.6421 5.49107 17.9685 6.3576C18.2326 6.52888 19.186 7.42579 20.3723 8.61632C22.1349 10.3831 22.3366 10.6118 22.3366 10.8134C22.3366 11.2927 21.9451 11.8243 21.5105 11.9339C21.3477 11.9778 21.3789 12.0217 22.1172 12.7735C22.5475 13.2089 22.9475 13.6788 23.009 13.8239C23.2158 14.3209 23.123 14.8035 22.745 15.1993C22.5517 15.4018 22.5256 15.4718 22.5205 15.8759C22.5163 16.232 22.4766 16.3814 22.3357 16.5839C22.2244 16.7486 22.0754 16.8844 21.9011 16.9799C21.7267 17.0754 21.5321 17.128 21.3334 17.1331C21.0608 17.1331 21.0085 17.1593 20.8718 17.366C20.5639 17.841 19.764 18.0073 19.2459 17.7001L18.9869 17.5466L18.8021 17.7271C18.3937 18.1186 17.7339 18.1709 17.2336 17.8503C16.8294 17.5955 16.5307 17.2394 16.5307 17.015C16.5307 16.8176 16.8168 16.4919 16.9923 16.4919C17.1593 16.4919 17.3838 16.6235 17.6386 16.8614C17.8934 17.1028 18.1136 17.1028 18.1482 16.8572C18.1659 16.7256 17.955 16.475 17.102 15.6178C16.205 14.7124 16.0338 14.5057 16.0338 14.3302C16.0318 14.2322 16.0498 14.1349 16.0869 14.0442C16.184 13.899 16.4565 13.7978 16.6227 13.8417C16.7105 13.8636 17.453 14.5496 18.2663 15.3621C19.0839 16.1797 19.8003 16.8471 19.8661 16.8471C20.0466 16.8471 20.1648 16.6665 20.0812 16.513C20.0416 16.4429 19.3514 15.735 18.5515 14.9352C17.2994 13.6873 17.0969 13.4544 17.0969 13.2696C17.0928 13.1701 17.111 13.0709 17.15 12.9794C17.2251 12.8697 17.4884 12.738 17.6377 12.738C17.7035 12.738 18.5296 13.5067 19.4746 14.4475C21.206 16.1704 21.3334 16.2666 21.5139 15.9814C21.5797 15.8759 21.3426 15.6076 19.8745 14.1353C18.3583 12.6149 18.1566 12.3862 18.1566 12.1888C18.1566 12.0529 18.2182 11.912 18.3153 11.8243C18.6359 11.5214 18.7329 11.5829 20.293 13.1338C21.7696 14.6061 21.9012 14.7023 22.0818 14.4213C22.1476 14.3159 21.8489 13.991 20.0163 12.1533C18.0208 10.1494 17.8765 9.98657 17.8765 9.7537C17.8765 9.40185 18.079 9.23479 18.4697 9.26179C18.5397 9.26601 18.9616 9.62207 19.397 10.0482C19.8365 10.4743 20.3107 10.8742 20.4516 10.9358C20.7284 11.0497 21.049 11.0674 21.1857 10.9797C21.3173 10.8961 17.6698 7.30598 17.1956 7.05538C16.789 6.83594 16.3418 6.70203 15.8816 6.66189C15.4213 6.62175 14.9577 6.67623 14.5193 6.82197C14.0808 6.96772 13.6769 7.20165 13.3322 7.50937C12.9876 7.81708 12.7096 8.19207 12.5153 8.61126C12.2867 9.09895 12.2563 9.24407 12.2251 9.87267C12.1989 10.4658 12.2209 10.6506 12.3483 11.0286C12.5769 11.7011 12.7744 11.9778 13.7987 13.0241C14.9065 14.1581 15.1175 14.4171 15.3984 15.0238C16.1899 16.7113 15.8557 18.6629 14.5505 19.9631C13.5574 20.9604 12.204 21.4261 10.8633 21.2422V21.243Z" fill="#262626"/>
</g>
<defs>
<clipPath id="clip0_1_403">
<rect width="27" height="27" fill="white"/>
</clipPath>
</defs>
</svg>
