<svg width="171" height="39" viewBox="0 0 171 39" fill="none" xmlns="http://www.w3.org/2000/svg">
<g clip-path="url(#clip0_1_478)">
<path d="M99.6326 0.5H91.4266V26.8333L99.6326 18.5833V0.5ZM100.461 29.4167L108.17 37.5833H119.775L106.264 23.5L100.461 29.4167ZM167.767 13.1667V10.0833H168.596L169.425 12.3333L170.171 10.0833H171V13.1667H170.42V10.6667L169.591 13.1667H169.176L168.348 10.6667V13.1667H167.767ZM166.11 10.5833H165.446V10H167.436V10.5833H166.773V13.1667H166.11V10.5833ZM136.767 20.5833C136.601 19.1667 134.86 15.9167 130.633 15.9167C126.406 15.9167 124.665 19.25 124.499 20.5833H136.767ZM124.333 26.5C124.665 29.5833 127.483 31.6667 130.716 31.6667C133.12 31.6667 134.529 30.5833 135.441 29.3333H143.895C141.492 34.5833 136.85 38.5 130.633 38.5C122.759 38.5 116.045 32.0833 116.045 23.8333C116.045 16.0833 122.095 9 130.467 9C134.695 9 138.259 10.6667 140.828 13.4167C143.647 16.4167 144.89 20 144.89 23.75C144.89 24.6667 144.89 25.5 144.724 26.5H124.333ZM89.1057 27.1667C87.6137 33.4167 82.143 38.5833 74.683 38.5833C66.3941 38.5833 60.0116 32 60.0116 23.8333C60.0116 15.75 66.3112 9.16667 74.5172 9.16667C81.8114 9.16667 87.6966 14 89.1057 20.75H80.8168C79.905 18.8333 78.3301 16.8333 74.8488 16.8333C72.9423 16.75 71.2845 17.5 70.1241 18.75C68.9636 20.0833 68.3005 21.8333 68.3005 23.8333C68.3005 27.8333 70.953 30.8333 74.8488 30.8333C78.2472 30.8333 79.905 28.8333 80.8168 27.1667H89.1057ZM155.831 16.9167H163.706V10H155.831V0.5H147.625V25.3333C147.625 34.1667 152.101 37.6667 161.634 37.6667H162.297V30.25H161.965C157.738 30.25 155.748 28.6667 155.748 24.8333L155.831 16.9167ZM31.6636 10H39.3723V14C40.2012 12.5 41.6103 10 46.335 10V18.0833H46.0034C41.7761 18.0833 39.7867 19.6667 39.7867 23.5V37.6667H31.5807V10H31.6636ZM29.094 27.1667C27.602 33.4167 22.1314 38.5833 14.6714 38.5833C6.38245 38.5 0 31.9167 0 23.75C0 15.6667 6.29956 9.08333 14.5056 9.08333C21.7998 9.08333 27.6849 13.9167 29.094 20.6667H20.7222C19.8105 18.75 18.2356 16.75 14.7542 16.75C12.8478 16.6667 11.19 17.4167 10.0296 18.6667C8.86912 20 8.2889 21.75 8.2889 23.75C8.2889 27.75 10.9413 30.75 14.8371 30.75C18.2356 30.8333 19.8934 28.8333 20.7222 27.1667H29.094ZM49.4847 10H57.6907V37.5833H49.4847V10ZM49.4847 0.5H57.6907V7.5H49.4847V0.5Z" fill="#231F20"/>
<path d="M108.253 10L91.4266 26.8333V38.5L119.858 10H108.253Z" fill="#6BBE47"/>
</g>
<defs>
<clipPath id="clip0_1_478">
<rect width="171" height="38" fill="white" transform="translate(0 0.5)"/>
</clipPath>
</defs>
</svg>
