<svg width="45" height="45" viewBox="0 0 45 45" fill="none" xmlns="http://www.w3.org/2000/svg">
<path d="M29.6893 41.087C29.6859 41.0685 29.6811 41.0499 29.6793 41.0317L29.2763 38.8994C29.0544 37.7223 29.483 36.5239 30.423 35.692L35.2245 31.4321C35.2332 31.4258 35.2515 31.4092 35.2515 31.3812C35.2515 31.3737 35.2497 31.3658 35.2463 31.3564C35.2294 31.3134 35.1921 31.3071 35.1804 31.3056L28.5429 30.4289C27.7758 30.3272 27.0711 30.0268 26.502 29.5754C26.4903 29.566 26.4782 29.5584 26.4682 29.5493C26.4565 29.5399 26.4461 29.5308 26.4361 29.5217C26.0703 29.2229 25.767 28.8591 25.5434 28.4463L25.1876 27.7899C25.1807 27.7777 25.1742 27.7651 25.1673 27.7529L22.5743 22.9753C22.5691 22.9644 22.5522 22.9336 22.5014 22.9336C22.4507 22.9336 22.4338 22.9644 22.4286 22.9753L19.4595 28.446C19.2342 28.8587 18.9295 29.2238 18.5636 29.5214C18.5536 29.5305 18.5433 29.5396 18.5315 29.549C17.9573 30.0158 17.241 30.3256 16.46 30.4285L9.82221 31.3049C9.80875 31.3065 9.77148 31.3128 9.7563 31.3558C9.74111 31.3991 9.76803 31.4236 9.77666 31.4314L14.5799 35.6914C15.52 36.5232 15.9469 37.722 15.7266 38.8988L15.3236 41.0311C15.3218 41.0449 15.3184 41.0587 15.3149 41.0725L14.5916 44.9118C14.5899 44.9228 14.583 44.9564 14.6237 44.9843C14.6662 45.0122 14.6983 44.9953 14.71 44.9906L20.6465 42.1514C21.8084 41.5951 23.194 41.5951 24.3542 42.1514L30.2925 44.9906C30.3025 44.9953 30.3366 45.0122 30.377 44.9843C30.4195 44.9567 30.4126 44.9228 30.4108 44.9118L29.6893 41.087Z" fill="white"/>
<path d="M45 30.1438L39.2818 29.3889C38.1403 29.2379 37.1561 28.5863 36.6464 27.6464L34.9782 24.5714C34.9748 24.5683 34.9731 24.5652 34.9713 24.5608C34.9696 24.5592 34.9696 24.5561 34.9679 24.5545C34.9662 24.5529 34.9662 24.5498 34.9644 24.5482C34.9644 24.5466 34.9627 24.5451 34.9627 24.5435L34.0886 22.9335L32.5371 25.7912L32.5116 25.8389C32.5099 25.8436 32.5064 25.848 32.503 25.8528L31.5308 27.646C31.0212 28.5858 30.0352 29.2375 28.8936 29.3885L28.3805 29.4563C28.4802 29.4811 28.5838 29.4996 28.6869 29.5134L35.3247 30.3918C35.7412 30.4457 36.0819 30.706 36.2105 31.0713C36.341 31.4348 36.2344 31.8278 35.9328 32.0943L31.1295 36.3526C30.43 36.9735 30.1115 37.8672 30.2757 38.742L30.5635 40.2719L32.4587 39.3661C33.4785 38.8776 34.6977 38.8776 35.7174 39.3661L40.8306 41.8126L39.8534 36.6329C39.6587 35.5993 40.0363 34.5455 40.861 33.8135L45 30.1438Z" fill="white"/>
<path d="M20.5494 12.4249C20.6088 12.4465 20.663 12.4804 20.7072 12.5219C20.7072 12.5219 20.7106 12.5219 20.7106 12.5234C21.642 13.0655 22.4161 13.0935 22.5026 13.095C22.5823 13.0935 23.3564 13.0671 24.2878 12.525H24.2895C24.3354 12.4804 24.3913 12.4449 24.4538 12.4217H24.4555C24.4555 12.4217 24.4572 12.4217 24.4572 12.4201C25.6478 11.6605 27.0333 10.0443 27.5651 6.61017C26.3625 6.48242 23.4847 5.90484 20.8666 3.30103C20.4856 4.24555 19.5643 5.62297 17.3622 6.07434C17.364 6.09286 17.3674 6.11295 17.3691 6.13273C17.8416 9.89951 19.3016 11.6282 20.5464 12.4217C20.5478 12.422 20.5495 12.4249 20.5495 12.4249L20.5494 12.4249Z" fill="white"/>
<path d="M20.113 2.28168C20.1317 2.09366 20.2756 1.93514 20.4754 1.88114C20.6735 1.82715 20.8888 1.88868 21.0175 2.03684C23.5546 4.95801 26.5492 5.56504 27.6756 5.69128C27.7943 4.08597 27.4013 2.78272 26.5085 1.81216C25.084 0.261807 22.7957 0.0245092 22.501 0C22.2063 0.0244843 19.9181 0.261791 18.4939 1.81183C17.7064 2.66845 17.3082 3.78221 17.3051 5.13504C19.8556 4.52325 20.1031 2.38029 20.1131 2.28169L20.113 2.28168Z" fill="white"/>
<path d="M13.8698 36.3531L9.06657 32.0948C8.76496 31.8283 8.66005 31.4356 8.78878 31.0718C8.91923 30.7068 9.25948 30.4465 9.67459 30.3922L16.3141 29.5139C16.4172 29.5001 16.519 29.4816 16.6188 29.4568L16.1056 29.389C14.9641 29.238 13.9799 28.5863 13.4702 27.6465L12.4778 25.8162C12.476 25.8146 12.476 25.8146 12.476 25.813L10.9128 22.9337L10.0387 24.5436C10.0387 24.5452 10.037 24.5468 10.037 24.5483C10.0352 24.5499 10.0352 24.553 10.0335 24.5546C10.0318 24.5562 10.0318 24.559 10.0301 24.5609C10.0283 24.5653 10.0266 24.5684 10.0232 24.5716L8.355 27.6465C7.84531 28.5863 6.85936 29.238 5.7178 29.389L0 30.1458L4.13761 33.814C4.96237 34.5445 5.33854 35.5982 5.14525 36.6319L4.168 41.8131L9.28286 39.3666C10.3026 38.8782 11.5204 38.8782 12.5416 39.3666L14.4351 40.2725L14.7229 38.7426C14.8896 37.8674 14.5693 36.9737 13.8698 36.3532L13.8698 36.3531Z" fill="white"/>
<path d="M27.4039 19.019C27.9392 18.0162 28.5897 16.0904 27.2973 14.0199H27.2956C27.2583 14.0058 27.221 13.9938 27.182 13.9828C26.8635 14.6948 26.0405 16.0194 24.1266 16.7885C25.2123 17.2166 26.6368 17.9452 27.4039 19.0191L27.4039 19.019Z" fill="white"/>
<path d="M10.0013 22.5259C10.1742 22.207 10.5231 22.0098 10.9123 22.0098C11.3002 22.0098 11.6491 22.207 11.822 22.5243L13.2378 25.1312C13.3241 25.1234 13.4125 25.1127 13.5022 25.1004L13.7613 23.3118C13.7986 23.0591 14.0543 22.8821 14.3321 22.9144C14.6099 22.9483 14.8045 23.1809 14.769 23.4336L14.4929 25.3302C14.9129 25.6708 16.2681 26.5952 19.0829 27.0513L21.5169 22.5664C21.7032 22.2227 22.0794 22.0102 22.5011 22.0102C22.9211 22.0102 23.2989 22.2227 23.4853 22.5664L25.9192 27.0513C28.7324 26.5952 30.0876 25.6708 30.5093 25.3302L30.2332 23.4336C30.1959 23.1809 30.3923 22.9483 30.6701 22.9144C30.9479 22.8821 31.2036 23.0595 31.2408 23.3118L31.5 25.1004C31.5897 25.1127 31.6777 25.1234 31.7643 25.1312L33.1785 22.5258C33.3497 22.2085 33.6986 22.0114 34.0864 22.0098H34.0881C34.4778 22.0098 34.8284 22.2069 34.9991 22.5243L35.3228 23.1204C36.0258 18.4413 31.9354 15.8348 28.6716 14.5188C29.9146 17.5957 27.8586 20.1684 27.7603 20.2886C27.6636 20.4073 27.5115 20.4751 27.3538 20.4751C27.3217 20.4751 27.2909 20.4719 27.2589 20.4675C27.0691 20.4352 26.9151 20.3059 26.8623 20.1364C26.3388 18.3986 23.2361 17.434 22.5518 17.2416C21.8675 17.4344 18.7665 18.3986 18.2413 20.1364C18.1889 20.3059 18.0364 20.4352 17.8448 20.4675C17.8127 20.4722 17.782 20.4751 17.7517 20.4751C17.5926 20.4751 17.4401 20.4073 17.3434 20.2886C17.2451 20.1684 15.1704 17.5709 16.4493 14.4758C14.4354 15.2709 12.1423 16.5234 10.7871 18.4027C9.78422 19.7923 9.41362 21.3763 9.67759 23.1203L10.0013 22.5259Z" fill="white"/>
<path d="M20.9761 16.7883C19.0384 16.0105 18.2206 14.6623 17.909 13.9567C17.8817 13.9642 17.8565 13.9736 17.8292 13.9815C16.5217 16.0459 17.1705 17.9978 17.7022 19.0129C18.4728 17.9422 19.8939 17.2168 20.9761 16.7883L20.9761 16.7883Z" fill="white"/>
<path d="M22.5504 16.2861C24.9353 15.8039 25.8836 14.3911 26.2121 13.6917C25.5516 13.5084 25.0385 13.3957 24.7707 13.3405H24.769C23.6002 13.9984 22.6077 14.02 22.5028 14.02H22.5011H22.4994C22.3945 14.02 21.402 13.9984 20.2332 13.342C19.9758 13.3944 19.4964 13.4993 18.8784 13.6688C19.1935 14.3603 20.1266 15.7933 22.5504 16.2861L22.5504 16.2861Z" fill="white"/>
</svg>
