<svg width="119" height="43" viewBox="0 0 119 43" fill="none" xmlns="http://www.w3.org/2000/svg">
<path d="M19.5081 21.8747C20.6517 20.6453 21.3244 19.0743 21.2572 17.3668C21.2572 15.9324 20.7863 14.5664 19.7772 13.5418C17.6246 11.3562 13.992 11.0829 9.55226 11.0829H0V33.691C0 33.8959 0.201808 34.1008 0.403617 34.1008H5.24702V24.7434C5.24702 24.7434 7.46691 24.8117 8.8123 24.8117C12.3103 24.8117 16.8174 24.6751 19.5081 21.8747ZM5.24702 23.0358V12.8588C6.12152 12.7905 7.06329 12.7222 7.9378 12.7905C10.7631 12.7905 16.0101 13.2003 16.0101 17.7083C16.0101 22.4894 11.1667 23.0358 7.60145 23.0358C6.18879 23.1041 5.24702 23.0358 5.24702 23.0358Z" fill="#6D6E71"/>
<path d="M119 19.075C119 18.8701 119 18.7335 118.731 18.5969C117.587 18.2554 116.309 18.0505 115.098 18.1188C112.946 18.1188 110.86 18.4603 108.842 19.1433V18.7335C108.842 18.5286 108.64 18.3237 108.439 18.3237H103.595V33.6234C103.595 33.8283 103.73 34.0332 103.932 34.0332H108.775V24.5392C108.775 21.6705 111.533 20.441 114.358 20.441C115.906 20.441 117.52 20.7826 118.933 21.329L119 19.075Z" fill="#6D6E71"/>
<path d="M30.2711 17.8462C26.1676 17.8462 23.5441 18.939 22.8714 19.2805C22.6696 19.3488 22.6023 19.5537 22.6023 19.7587V22.0809C24.4859 20.9198 26.5712 20.3734 28.7239 20.3734C30.002 20.3051 31.3474 20.7832 32.2891 21.6711C32.8946 22.2858 33.2309 23.1055 33.2309 24.6764C33.2309 24.6764 30.8765 24.4715 28.9929 24.4715C25.6295 24.4715 19.2389 25.0862 19.2389 29.7308C19.2389 31.9165 20.8533 34.307 26.1003 34.307C28.522 34.307 30.9437 33.8289 33.2309 33.0093V33.7606C33.2309 33.9655 33.4327 34.1704 33.6345 34.1704H38.4779V23.7202C38.4107 19.8953 36.0562 17.8462 30.2711 17.8462ZM33.2309 31.0285C31.8183 31.7116 30.2711 32.0531 28.7239 32.0531C26.504 32.0531 24.5531 31.2334 24.5531 29.1161C24.5531 26.7938 26.5712 25.9742 31.2801 25.9742C32.2219 25.9742 33.1636 26.0425 33.1636 26.0425V31.0285H33.2309Z" fill="#6D6E71"/>
<path d="M56.5733 18.3928C56.3715 18.3928 56.1697 18.5294 56.1025 18.7343L49.9809 30.3457C49.9809 30.3457 43.994 19.0075 43.7922 18.7343C43.7249 18.5294 43.5231 18.4611 43.3213 18.4611H39.016L47.6265 34.6487L43.4558 42.2303H47.9629C48.2319 42.2303 48.4337 42.0937 48.5683 41.8888L61.2149 18.3928H56.5733Z" fill="#6D6E71"/>
<path d="M58.9954 8.07806C60.139 8.76108 60.5426 10.1954 60.0045 11.4249L58.2555 14.7034C58.1882 14.84 58.3228 15.0449 58.4573 15.1132C58.5246 15.1132 58.5246 15.1132 58.5918 15.1132L72.9202 10.6735C73.3238 10.5369 73.5929 10.1271 73.5929 9.71732C73.5929 9.2392 73.3238 8.82939 72.853 8.69278L47.4924 0.769714C47.4251 0.769714 47.4251 0.769714 47.3578 0.769714C47.156 0.769714 47.0215 0.906319 47.0215 1.11123C47.0215 1.24783 47.0888 1.31613 47.156 1.38444L58.9954 8.07806Z" fill="#F37322"/>
<path d="M90.2754 17.8462C83.0103 17.8462 79.7141 21.9443 79.7141 26.3157C79.7141 30.687 83.0776 34.6486 90.41 34.6486C97.7423 34.6486 101.442 30.9602 101.442 26.2474C101.509 21.2613 97.4733 17.8462 90.2754 17.8462ZM90.6791 32.4629C87.5174 32.4629 85.0284 29.6625 85.0284 26.2474C85.0284 22.8323 87.2483 20.1685 90.7463 20.1685C94.3116 20.1685 96.2624 23.5153 96.2624 26.4523C96.2624 29.4576 94.3116 32.4629 90.6791 32.4629Z" fill="#6D6E71"/>
<path d="M78.2343 30.2756C76.3508 31.3684 74.1981 31.9831 72.0455 31.9831C68.4802 31.9831 65.7895 29.7974 65.7895 26.2457C65.7895 22.694 68.5475 20.0985 72.5837 20.0985C74.5345 20.0985 76.418 20.6449 78.0325 21.7378L79.0415 19.8936C79.1088 19.757 79.0415 19.5521 78.907 19.4155C77.9652 19.0057 75.6108 17.7762 71.1037 17.7762C63.8386 17.7762 60.5424 21.8744 60.5424 26.2457C60.5424 30.6171 63.9059 34.5786 71.2383 34.5786C73.9291 34.5786 76.6198 33.8273 78.907 32.3246C79.1088 32.2563 79.1761 32.0514 79.0415 31.8465L78.2343 30.2756Z" fill="#6D6E71"/>
<path d="M112.945 31.9835C112.945 31.642 112.743 31.4371 112.272 31.4371H111.6V33.2129H111.869V32.4616H112.138L112.609 33.2129H112.945L112.474 32.3933C112.743 32.3933 112.945 32.2567 112.945 31.9835C112.945 32.0518 112.945 32.0518 112.945 31.9835ZM111.869 32.2567V31.7103H112.205C112.407 31.7103 112.609 31.7103 112.609 31.9152C112.609 32.1201 112.407 32.1884 112.205 32.1884L111.869 32.2567Z" fill="#6D6E71"/>
<path d="M112.205 30.7543C111.33 30.7543 110.59 31.4373 110.59 32.3253C110.59 33.2132 111.263 33.9645 112.138 33.9645C113.012 33.9645 113.752 33.2815 113.752 32.3936C113.819 31.5056 113.147 30.7543 112.205 30.7543ZM112.205 33.6913C111.465 33.5547 110.994 32.8717 111.129 32.1203C111.196 31.5739 111.667 31.0958 112.205 31.0275C112.945 31.1641 113.416 31.8471 113.281 32.5985C113.214 33.1449 112.743 33.623 112.205 33.6913Z" fill="#6D6E71"/>
</svg>
