<svg width="45" height="45" viewBox="0 0 45 45" fill="none" xmlns="http://www.w3.org/2000/svg">
<path d="M39.1989 33.9257H35.6833V30.4101C35.6833 30.2167 35.5251 30.0585 35.3317 30.0585H33.2224C33.029 30.0585 32.8708 30.2167 32.8708 30.4101V33.9257H29.3552C29.1618 33.9257 29.0036 34.0839 29.0036 34.2773V36.3867C29.0036 36.58 29.1618 36.7382 29.3552 36.7382H32.8708V40.2538C32.8708 40.4472 33.029 40.6054 33.2224 40.6054H35.3317C35.5251 40.6054 35.6833 40.4472 35.6833 40.2538V36.7382H39.1989C39.3923 36.7382 39.5505 36.58 39.5505 36.3867V34.2773C39.5505 34.0839 39.3923 33.9257 39.1989 33.9257ZM16.4133 21.9023C16.3737 21.52 16.3518 21.1332 16.3518 20.7421C16.3518 20.0434 16.4177 19.3622 16.5407 18.6987C16.5715 18.5405 16.488 18.3779 16.343 18.3119C15.7453 18.0439 15.196 17.6747 14.7214 17.2089C14.1621 16.6667 13.7221 16.0138 13.4292 15.2919C13.1364 14.5701 12.9973 13.7952 13.0207 13.0165C13.0603 11.6059 13.6272 10.2656 14.6159 9.25482C15.7014 8.143 17.1604 7.53655 18.7116 7.55413C20.1135 7.56731 21.467 8.10784 22.4909 9.06585C22.8381 9.39105 23.1369 9.7514 23.3874 10.1381C23.4753 10.2743 23.6467 10.3315 23.7961 10.2787C24.5695 10.0107 25.3869 9.82171 26.2263 9.73382C26.4724 9.70745 26.613 9.44378 26.5031 9.22405C25.0749 6.39837 22.1569 4.4472 18.7819 4.39446C13.9128 4.31976 9.85225 8.31439 9.85225 13.1835C9.85225 15.9433 11.1223 18.4042 13.113 20.017C11.7155 20.663 10.4279 21.5551 9.31172 22.6713C6.90352 25.0751 5.54122 28.248 5.45333 31.6362C5.45215 31.6831 5.46038 31.7297 5.47752 31.7734C5.49466 31.8171 5.52037 31.8569 5.55314 31.8905C5.5859 31.924 5.62505 31.9507 5.66829 31.9689C5.71153 31.9872 5.75797 31.9965 5.80489 31.9965H8.27022C8.45919 31.9965 8.61739 31.8471 8.62178 31.6581C8.70528 29.1093 9.73799 26.7231 11.5529 24.9125C12.8449 23.6205 14.427 22.7241 16.154 22.289C16.321 22.2407 16.4353 22.0781 16.4133 21.9023V21.9023ZM36.2107 20.7421C36.2107 15.9345 32.3479 12.0278 27.5578 11.9531C22.6887 11.8784 18.6325 15.873 18.6325 20.7421C18.6325 23.5019 19.9069 25.9628 21.8933 27.5756C20.4813 28.2301 19.196 29.1286 18.0964 30.2299C15.6882 32.6337 14.3259 35.8066 14.238 39.1904C14.2368 39.2373 14.245 39.2839 14.2622 39.3276C14.2793 39.3713 14.305 39.4111 14.3378 39.4447C14.3706 39.4782 14.4097 39.5049 14.453 39.5231C14.4962 39.5414 14.5426 39.5507 14.5896 39.5507H17.0505C17.2395 39.5507 17.3977 39.4013 17.4021 39.2123C17.4856 36.6635 18.5183 34.2773 20.3332 32.4667C22.2273 30.5727 24.7409 29.5312 27.4216 29.5312C32.2732 29.5312 36.2107 25.5981 36.2107 20.7421ZM31.3986 24.7192C30.3352 25.7826 28.9245 26.3671 27.4216 26.3671C25.9187 26.3671 24.508 25.7826 23.4445 24.7192C22.9138 24.1913 22.4945 23.5622 22.2115 22.8692C21.9284 22.1762 21.7873 21.4335 21.7966 20.685C21.8098 19.2436 22.3855 17.8505 23.3918 16.8178C24.4465 15.7367 25.8571 15.1347 27.3645 15.1171C28.8542 15.1039 30.3 15.684 31.3635 16.7255C32.4533 17.7934 33.051 19.2216 33.051 20.7421C33.0466 22.245 32.4621 23.6557 31.3986 24.7192V24.7192Z" fill="white"/>
</svg>
