<svg width="26" height="22" viewBox="0 0 26 22" fill="none" xmlns="http://www.w3.org/2000/svg">
<g clip-path="url(#clip0_1_876)">
<rect width="26" height="22" fill="#262626"/>
<path d="M18.7317 18.5912H15.4743V13.5282C15.4743 12.3208 15.4526 10.7666 13.7801 10.7666C12.0835 10.7666 11.8239 12.0821 11.8239 13.4403V18.5909H8.56641V8.17921H11.6936V9.60207H11.7374C12.0503 9.071 12.5025 8.63411 13.0459 8.33794C13.5892 8.04177 14.2033 7.89741 14.8228 7.92023C18.1244 7.92023 18.7331 10.0756 18.7331 12.8795L18.7317 18.5912ZM4.89091 6.75601C4.51704 6.75608 4.15153 6.64611 3.84063 6.44001C3.52972 6.23391 3.2874 5.94093 3.14426 5.59814C3.00112 5.25534 2.96361 4.87811 3.03648 4.51416C3.10936 4.15021 3.28934 3.81588 3.55366 3.55344C3.81799 3.29101 4.15478 3.11226 4.52146 3.03981C4.88814 2.96735 5.26822 3.00444 5.61367 3.14638C5.95911 3.28832 6.25438 3.52874 6.46215 3.83723C6.66992 4.14573 6.78086 4.50845 6.78092 4.87951C6.78097 5.1259 6.73211 5.36987 6.63715 5.59751C6.54219 5.82516 6.403 6.03201 6.2275 6.20626C6.052 6.38051 5.84362 6.51874 5.61429 6.61307C5.38496 6.70739 5.13916 6.75597 4.89091 6.75601M6.51964 18.5912H3.25879V8.17921H6.51964V18.5912ZM20.3557 0.0013645H1.62192C1.19672 -0.00339792 0.786981 0.159579 0.482787 0.454481C0.178592 0.749383 0.00482318 1.15208 -0.000366211 1.57409V20.2444C0.00464557 20.6666 0.178313 21.0696 0.482497 21.3648C0.786681 21.66 1.19651 21.8233 1.62192 21.8188H20.3557C20.782 21.8241 21.193 21.6613 21.4983 21.3661C21.8037 21.0709 21.9786 20.6675 21.9845 20.2444V1.57275C21.9784 1.1499 21.8034 0.746741 21.498 0.451846C21.1926 0.156951 20.7818 -0.00555996 20.3557 1.68643e-05" fill="white"/>
</g>
<defs>
<clipPath id="clip0_1_876">
<rect width="26" height="22" fill="white"/>
</clipPath>
</defs>
</svg>
