<svg width="20" height="46" viewBox="0 0 20 46" fill="none" xmlns="http://www.w3.org/2000/svg">
<path d="M16.3554 45.6201C16.3704 45.7962 16.2402 45.9513 16.0641 45.9667C15.888 45.9817 15.7329 45.8515 15.7175 45.6754L15.683 45.2793L10.7246 41.321L5.35413 45.6081L5.34844 45.6754C5.33337 45.8515 5.17801 45.9817 5.00189 45.9667C4.82578 45.9516 4.69553 45.7962 4.7106 45.6201L5.56105 35.8196C4.35471 35.7442 3.26922 35.2236 2.46659 34.421C1.59702 33.5515 1.05865 32.3492 1.05865 31.022C1.05865 29.6948 1.59704 28.4924 2.46659 27.6229C3.33615 26.7534 4.53848 26.2149 5.86568 26.2149C6.04314 26.2149 6.21925 26.2246 6.39202 26.2437L6.70642 22.6206L3.25445 22.5998V24.651C3.25445 24.8277 3.11114 24.9711 2.93435 24.9711H1.28298C1.1062 24.9711 0.962891 24.8277 0.962891 24.651V17.6663C0.962891 17.4895 1.1062 17.3462 1.28298 17.3462H2.93435C3.11114 17.3462 3.25445 17.4895 3.25445 17.6663V21.9624L6.7617 21.9831L7.55456 12.8425H7.52744C6.79954 12.8425 6.12987 12.5881 5.60255 12.1632C5.06483 11.7303 4.6771 11.1209 4.52581 10.4224C4.50338 10.3193 4.48597 10.2112 4.47391 10.0983C4.46186 9.98616 4.4555 9.87667 4.4555 9.76953C4.4555 8.92143 4.79936 8.15364 5.3555 7.59753C5.91164 7.04142 6.67936 6.69753 7.5275 6.69753C7.71701 6.69753 7.9035 6.71527 8.08364 6.74809L8.09737 6.59373C8.10842 6.42733 8.24703 6.2954 8.41646 6.2954H10.2141L10.2044 0.349661C10.2044 0.173544 10.3467 0.03125 10.5228 0.03125C10.699 0.03125 10.8413 0.173553 10.8413 0.349661L10.851 6.2954H12.6493C12.814 6.2954 12.9533 6.42096 12.9677 6.58804L13.4917 12.6256H15.0285V9.25933C15.0285 9.08254 15.1718 8.93924 15.3486 8.93924H16.4703C16.647 8.93924 16.7904 9.08254 16.7904 9.25933V14.0058C16.7904 14.1825 16.647 14.3258 16.4703 14.3258H15.3486C15.1718 14.3258 15.0285 14.1825 15.0285 14.0058V13.2635H13.5476L13.8366 16.5916C14.1078 16.5444 14.387 16.5196 14.6716 16.5196C15.9988 16.5196 17.2012 17.058 18.0707 17.9275C18.9403 18.7971 19.4787 19.9994 19.4787 21.3266C19.4787 22.6538 18.9403 23.8562 18.0707 24.7257C17.2011 25.5953 15.9988 26.1336 14.6716 26.1336H14.6643L15.6004 36.9234C15.6045 36.9424 15.6061 36.9625 15.6061 36.9826V36.9866L16.3548 45.6189L16.3554 45.6201ZM5.94536 9.38441C5.91992 9.49155 5.81177 9.55717 5.70463 9.53173C5.59748 9.50629 5.53186 9.39814 5.5573 9.291C5.64837 8.91666 5.8429 8.58285 6.10842 8.32302C6.37394 8.06286 6.71177 7.87503 7.08779 7.79166C7.19493 7.76756 7.30141 7.83553 7.32551 7.943C7.34962 8.05014 7.28165 8.15662 7.17417 8.18072C6.8725 8.24702 6.60229 8.39836 6.38868 8.60729C6.17439 8.81688 6.01837 9.08474 5.94537 9.38474L5.94536 9.38441ZM5.86601 34.0787C5.97651 34.0787 6.0659 34.1684 6.0659 34.2786C6.0659 34.3891 5.97616 34.4785 5.86601 34.4785C5.17159 34.4785 4.52501 34.2729 3.98295 33.92C3.42381 33.556 2.9765 33.0344 2.70358 32.4183C2.65872 32.3175 2.70526 32.199 2.80604 32.1551C2.90682 32.1102 3.02535 32.1568 3.06921 32.2576C3.30994 32.8023 3.70604 33.264 4.1996 33.5854C4.67806 33.8975 5.25098 34.0783 5.86598 34.0783L5.86601 34.0787ZM15.346 18.2687C15.2379 18.2456 15.1692 18.1391 15.1933 18.031C15.2164 17.9228 15.3229 17.8542 15.4311 17.8783C16.1549 18.0367 16.7958 18.4184 17.2783 18.9464C17.7574 19.4704 18.0809 20.14 18.1743 20.88C18.188 20.9888 18.111 21.0889 18.0015 21.1023C17.8927 21.1161 17.7926 21.0391 17.7792 20.9296C17.6961 20.2726 17.4095 19.679 16.9846 19.2143C16.5567 18.7462 15.9886 18.4087 15.3464 18.2677L15.346 18.2687ZM12.558 12.6263L10.5899 10.0213C10.529 10.7693 10.2012 11.4413 9.70027 11.9422C9.40663 12.2358 9.05306 12.4709 8.6603 12.6262L12.558 12.6263ZM10.4931 8.96398L10.5547 8.91744L12.0179 6.93667H8.71556C9.08688 7.09202 9.42037 7.31836 9.70025 7.59828C10.0729 7.97094 10.3508 8.44002 10.4931 8.96405L10.4931 8.96398ZM10.9562 9.44712L12.7843 11.8662L12.4043 7.48607L10.9561 9.44678L10.9562 9.44712ZM9.24721 8.05127C8.80725 7.61131 8.19918 7.3391 7.52787 7.3391C6.85655 7.3391 6.2485 7.61098 5.80852 8.05127C5.36857 8.49122 5.09636 9.0993 5.09636 9.77061C5.09636 9.86335 5.10105 9.95075 5.10908 10.0314C5.11779 10.1155 5.13218 10.2012 5.1506 10.2876C5.27046 10.8404 5.57783 11.3235 6.00272 11.665C6.41957 12.0012 6.94995 12.2017 7.52749 12.2017C8.1988 12.2017 8.80686 11.9298 9.24683 11.4896C9.68679 11.0496 9.959 10.4415 9.959 9.77022C9.959 9.0989 9.68712 8.49084 9.24683 8.05087L9.24721 8.05127ZM11.0335 18.1853L10.5878 17.5059L7.64476 21.9882L9.91114 22.0019C9.90377 21.949 9.89741 21.8964 9.89205 21.8429C9.87364 21.6694 9.86393 21.498 9.86393 21.3286C9.86393 20.1269 10.3049 19.0287 11.0335 18.1863L11.0335 18.1853ZM10.2055 16.9236L8.11919 13.7462L7.48403 21.0695L10.2058 16.9237L10.2055 16.9236ZM8.5679 13.2654L10.5878 16.3414L12.6078 13.2654H8.5679ZM10.9702 16.9236L11.4935 17.7212C11.9854 17.2869 12.568 16.9524 13.2078 16.7485L12.9597 13.8932L10.9702 16.9243V16.9236ZM16.1509 9.58032H15.6694V13.6866H16.1509V9.58032ZM2.61488 17.986H1.6037V24.3308H2.61488V17.986ZM13.7226 28.8888L7.31845 22.9809L7.02581 26.3562C7.88733 26.5699 8.65773 27.0155 9.26578 27.6235C9.62806 27.9858 9.93207 28.405 10.1651 28.8674L13.7226 28.8882L13.7226 28.8888ZM7.87791 22.628L14.2268 28.4847L14.0188 26.0921C13.1326 25.9712 12.323 25.6089 11.6587 25.0735C10.894 24.4568 10.3211 23.6111 10.0465 22.6407L7.87791 22.628ZM17.6185 18.3815C16.8641 17.6271 15.8225 17.1607 14.672 17.1607C13.5209 17.1607 12.4793 17.6271 11.7256 18.3815C10.9713 19.1358 10.5049 20.1774 10.5049 21.3279C10.5049 21.4833 10.5129 21.6319 10.528 21.7742C10.543 21.9205 10.5672 22.0668 10.5993 22.2135C10.8042 23.1607 11.3312 23.988 12.0594 24.575C12.7739 25.1502 13.6827 25.4951 14.673 25.4951C15.8242 25.4951 16.8658 25.0287 17.6195 24.2743C18.3738 23.52 18.8402 22.4784 18.8402 21.3279C18.8402 20.1768 18.3738 19.1352 17.6195 18.3815H17.6185ZM5.79933 35.1892C5.84253 35.1731 5.88974 35.1661 5.93929 35.1701C5.96641 35.1724 5.99286 35.1781 6.01864 35.1868C6.75224 35.1604 7.43858 34.9444 8.02821 34.5862L9.08353 33.6725C9.67784 32.9526 10.0348 32.0291 10.0348 31.022C10.0348 30.4541 9.92128 29.9117 9.71469 29.4179C9.65375 29.3609 9.61458 29.2809 9.61224 29.1922C9.40833 28.7763 9.13779 28.3993 8.81369 28.0752C8.05934 27.3209 7.01772 26.8545 5.86726 26.8545C4.71612 26.8545 3.67452 27.3209 2.92083 28.0752C2.16648 28.8296 1.70009 29.8712 1.70009 31.0217C1.70009 32.1728 2.1665 33.2144 2.92083 33.9681C3.66012 34.7074 4.67695 35.1704 5.801 35.1882L5.79933 35.1892ZM6.20414 35.818L6.17132 36.1933L6.6682 35.7631C6.51553 35.7885 6.36084 35.8069 6.20414 35.8183V35.818ZM10.4872 32.3516L10.5471 32.4035L13.8703 29.5261L10.4293 29.506C10.5876 29.9828 10.6734 30.4924 10.6734 31.0221C10.6734 31.4838 10.6084 31.9295 10.4869 32.3517L10.4872 32.3516ZM9.54802 34.1131C9.45829 34.2196 9.36388 34.3227 9.26577 34.4212C9.00427 34.6827 8.71298 34.914 8.39688 35.1099L6.62731 36.6427L14.4923 36.6628L10.5484 33.2476L9.54931 34.1131L9.54802 34.1131ZM11.0353 32.826L14.8928 36.1669L14.3538 29.9526L11.0353 32.826ZM15.608 44.4009L15.0415 37.8745L11.2376 40.9114L15.608 44.4002L15.608 44.4009ZM10.2137 40.9121L6.05122 37.5889L5.43113 44.7297L10.2134 40.9121H10.2137ZM6.68799 37.2799L10.7256 40.5032L14.7367 37.3007L6.68799 37.2799Z" fill="#FAFAFA"/>
</svg>
