<svg width="129" height="50" viewBox="0 0 129 50" fill="none" xmlns="http://www.w3.org/2000/svg">
<g clip-path="url(#clip0_1_556)">
<mask id="mask0_1_556" style="mask-type:luminance" maskUnits="userSpaceOnUse" x="0" y="0" width="129" height="50">
<path d="M129 0.5H0V49.5H129V0.5Z" fill="white"/>
</mask>
<g mask="url(#mask0_1_556)">
<path fill-rule="evenodd" clip-rule="evenodd" d="M81.7764 31.2666C82.233 31.2814 82.6881 31.2041 83.1138 31.0395C83.5394 30.875 83.9269 30.6267 84.2526 30.3096C84.8894 29.6448 85.2443 28.7638 85.2443 27.8481C85.2443 26.9324 84.8894 26.0514 84.2526 25.3866C83.8477 25.0009 83.3539 24.7187 82.8138 24.5644C82.2736 24.4103 81.7037 24.3887 81.1533 24.5017C80.6029 24.6148 80.0887 24.8589 79.6553 25.2132C79.2218 25.5673 78.8824 26.0208 78.6662 26.5341C78.4499 27.0476 78.3636 27.6053 78.4145 28.1591C78.4655 28.7131 78.6523 29.2462 78.9587 29.7125C79.2652 30.1787 79.682 30.5639 80.1729 30.8348C80.664 31.1057 81.2144 31.2539 81.7764 31.2666Z" fill="#44BDD0"/>
<path fill-rule="evenodd" clip-rule="evenodd" d="M67.2989 24.9993C66.6605 24.6162 65.926 24.4188 65.1796 24.4296C64.3706 24.4085 63.5721 24.6139 62.876 25.0223C62.2601 25.4104 61.8126 26.0116 61.6206 26.7088H68.5313C68.4541 26.3559 68.3049 26.0222 68.093 25.7284C67.8812 25.4344 67.6109 25.1865 67.2989 24.9993Z" fill="#44BDD0"/>
<path fill-rule="evenodd" clip-rule="evenodd" d="M20.1217 19.769V16.3504H33.7703V19.769H28.7946V34.412H25.0974V19.769H20.1217ZM38.9764 21.8772C39.736 21.4581 40.5946 21.2458 41.4643 21.2619V24.9767C40.4867 24.8387 39.4919 25.0575 38.6654 25.592C38.2447 25.8907 37.91 26.2926 37.6938 26.7581C37.4777 27.2238 37.3879 27.7369 37.433 28.2472V34.412H33.9777V21.5125H37.433V23.7347C37.7096 22.9545 38.2563 22.2965 38.9764 21.8772ZM48.1907 34.7767C47.5248 34.7969 46.8619 34.6808 46.2436 34.4356C45.6253 34.1906 45.0647 33.8217 44.5971 33.3522C44.1068 32.8266 43.7287 32.2085 43.4853 31.5351C43.2419 30.8616 43.1381 30.1464 43.1804 29.4322V21.5125H46.6359V28.9879C46.5992 29.3405 46.6413 29.6969 46.7596 30.0317C46.8777 30.3664 47.0689 30.6713 47.3195 30.9246C47.5701 31.1782 47.8741 31.3738 48.2098 31.4979C48.5454 31.6221 48.9047 31.6716 49.2619 31.643C49.6517 31.6622 50.0413 31.6013 50.406 31.464C50.7709 31.3267 51.103 31.1161 51.3811 30.8452C51.9561 30.1834 52.242 29.3226 52.1758 28.4522V21.5125H55.6313V34.412H52.1758V32.9649C51.7295 33.5793 51.13 34.069 50.4357 34.3864C49.7415 34.7039 48.9761 34.8384 48.2137 34.7767H48.1907ZM103.776 34.412H107.231V15.5869H103.776V34.412ZM97.2337 34.412H100.689V15.5869H97.2337V34.412ZM90.6802 34.412H94.1354V21.5125H90.6802V34.412ZM93.882 19.3702C93.6858 19.5645 93.4522 19.7179 93.195 19.8216C92.9379 19.9254 92.6624 19.9771 92.3847 19.9742C91.8589 19.9584 91.3594 19.7419 90.9912 19.3702C90.7941 19.1855 90.6372 18.9627 90.5303 18.7158C90.4232 18.4689 90.3684 18.2031 90.3691 17.9344C90.3781 17.3882 90.6022 16.867 90.9936 16.4818C91.3852 16.0965 91.9133 15.8777 92.4653 15.8718C92.7441 15.8683 93.0206 15.921 93.2781 16.0268C93.5355 16.1326 93.7684 16.2893 93.9627 16.4872C94.1602 16.6741 94.3171 16.8988 94.424 17.1476C94.5308 17.3964 94.5856 17.664 94.5847 17.9344C94.5781 18.2072 94.5142 18.4757 94.3971 18.7228C94.2802 18.97 94.1126 19.1904 93.9052 19.3702H93.882ZM103.799 44.5084H74.1174V21.5125H77.5727V23.0395C78.0775 22.4242 78.7202 21.9338 79.45 21.6073C80.1797 21.281 80.9765 21.1276 81.7769 21.1592C82.6427 21.1424 83.502 21.3095 84.2968 21.6497C85.0917 21.9898 85.8034 22.4949 86.384 23.1307C87.0076 23.7719 87.4967 24.5289 87.8228 25.3583C88.1491 26.1876 88.306 27.0726 88.2844 27.9622C88.3055 28.8536 88.1486 29.7403 87.8225 30.5714C87.4964 31.4025 87.0074 32.1616 86.384 32.8052C85.802 33.4395 85.09 33.9432 84.2956 34.2832C83.5011 34.6233 82.6423 34.7915 81.7769 34.7767C80.962 34.8217 80.1481 34.6735 79.4029 34.3444C78.6575 34.0155 78.0025 33.515 77.4921 32.8852V41.1695H103.822C108.192 41.1999 112.395 39.5148 115.51 36.4835C118.626 33.4523 120.4 29.3224 120.442 24.9995C120.4 20.6765 118.626 16.5467 115.51 13.5155C112.395 10.4843 108.192 8.79913 103.822 8.8295H25.178C20.8085 8.79913 16.6051 10.4843 13.4895 13.5155C10.3739 16.5467 8.60035 20.6765 8.55777 24.9995C8.60035 29.3224 10.3739 33.4523 13.4895 36.4835C16.6051 39.5148 20.8085 41.1999 25.178 41.1695H70.6966V44.5084H25.178C19.9074 44.5447 14.8373 42.5112 11.0801 38.854C7.32301 35.1965 5.18564 30.214 5.13697 24.9995C5.18564 19.785 7.32301 14.8025 11.0801 11.1451C14.8373 7.48775 19.9074 5.45423 25.178 5.49067H103.822C109.093 5.45423 114.163 7.48775 117.92 11.1451C121.677 14.8025 123.814 19.785 123.863 24.9995C123.814 30.214 121.677 35.1965 117.92 38.854C114.163 42.5112 109.093 44.5447 103.822 44.5084H103.799ZM71.549 29.3297H61.5974C62.0581 30.9479 63.3021 31.7569 65.3409 31.7569C65.9039 31.7907 66.4669 31.6914 66.9835 31.4676C67.5002 31.2437 67.9556 30.9015 68.3124 30.4692L71.0651 32.019C70.418 32.9218 69.5508 33.648 68.5439 34.1301C67.537 34.6122 66.4232 34.8347 65.3063 34.7767C64.3406 34.8201 63.376 34.6711 62.4697 34.3383C61.5635 34.0054 60.7342 33.4958 60.0312 32.8395C59.3784 32.2059 58.8654 31.4454 58.5246 30.606C58.1836 29.7667 58.0221 28.8665 58.05 27.9622C58.0237 27.0637 58.1837 26.1692 58.5205 25.3343C58.8573 24.4994 59.3635 23.7416 60.008 23.1079C60.6681 22.4603 61.4552 21.9533 62.3209 21.6181C63.1865 21.2829 64.1123 21.1269 65.0413 21.1592C65.9381 21.1321 66.8306 21.2927 67.6602 21.6305C68.4899 21.9681 69.2381 22.4754 69.8559 23.1192C70.4819 23.7611 70.9725 24.5199 71.2989 25.3515C71.6252 26.1831 71.7807 27.0707 71.7563 27.9622C71.7461 28.4222 71.6921 28.88 71.595 29.3297H71.549ZM103.822 0.499501H25.178C18.5581 0.453942 12.19 3.0075 7.47012 7.60024C2.75026 12.193 0.0638762 18.4501 0 24.9995C0.0638762 31.549 2.75026 37.806 7.47012 42.3988C12.19 46.9914 18.5581 49.545 25.178 49.4995H103.822C110.442 49.545 116.81 46.9914 121.53 42.3988C126.25 37.806 128.936 31.549 129 24.9995C128.936 18.4501 126.25 12.193 121.53 7.60024C116.81 3.0075 110.442 0.453942 103.822 0.499501Z" fill="#44BDD0"/>
</g>
</g>
<defs>
<clipPath id="clip0_1_556">
<rect width="129" height="49" fill="white" transform="translate(0 0.5)"/>
</clipPath>
</defs>
</svg>
