<svg width="65" height="158" viewBox="0 0 65 158" fill="none" xmlns="http://www.w3.org/2000/svg">
<path d="M46.5333 35.8809L46.4938 35.8689C46.0401 35.7309 45.559 35.6543 45.0545 35.6543H19.9478C19.4467 35.6543 18.9654 35.7309 18.5124 35.868L18.4732 35.8799L18.4326 35.8852C17.374 36.0242 16.0392 36.3388 14.5795 37.0104L14.5772 37.0115C11.2127 38.539 7.52473 41.903 4.92965 47.947L4.92906 47.9484C2.29524 54.0321 0.509126 62.8738 0.5 76.296C0.5 79.765 0.62209 83.5384 0.887621 87.6468L0.887644 87.6472C1.02979 89.8706 3.06575 91.6545 5.57702 91.6556L46.5333 35.8809ZM46.5333 35.8809L46.5742 35.8862M46.5333 35.8809L46.5742 35.8862M46.5742 35.8862C47.5868 36.019 48.848 36.3132 50.2283 36.9256L50.2285 36.9259M46.5742 35.8862L50.2285 36.9259M14.4839 49.3726L15.4249 49.6082V138.604C15.4249 142.344 18.7559 145.449 22.9599 145.449C27.1648 145.449 30.496 142.344 30.496 138.604L30.4949 84.9724L30.4949 84.4724H30.9949H34.0072H34.5072V84.9724V138.606C34.5072 142.347 37.8382 145.452 42.0422 145.452C46.2471 145.452 49.5783 142.347 49.5783 138.606V49.6369L50.5192 49.4011C50.9151 50.1416 51.3106 50.9867 51.6993 51.9709L51.6993 51.9709C53.5633 56.6915 55.1063 64.3748 55.1009 76.3002L14.4839 49.3726ZM14.4839 49.3726C12.1763 53.6912 9.87568 61.8645 9.89797 76.2966M14.4839 49.3726L5.85828 91.6481M54.7335 87.1592L54.7334 87.1593C54.5858 89.4603 56.5174 91.5098 59.1494 91.6492C59.1495 91.6492 59.1495 91.6492 59.1496 91.6492L54.7335 87.1592ZM54.7335 87.1592C54.9869 83.1975 55.1009 79.5879 55.1009 76.3004L54.7335 87.1592ZM50.2285 36.9259L50.4222 37.0143M50.2285 36.9259L50.4222 37.0143M50.4222 37.0143C52.648 38.0296 55.0793 39.872 57.1605 42.768C61.3469 48.6143 64.4722 58.4152 64.5 76.3008M50.4222 37.0143L64.5 76.3008M5.85828 91.6481C8.49088 91.5056 10.4175 89.4558 10.2699 87.1535C10.0142 83.1939 9.89798 79.5843 9.89797 76.2966M5.85828 91.6481C5.76156 91.6528 5.66808 91.6556 5.57721 91.6556L5.85828 91.6481ZM9.89797 76.2966C9.89797 76.2965 9.89797 76.2963 9.89797 76.2962H10.398L9.89798 76.297C9.89798 76.2968 9.89797 76.2967 9.89797 76.2966ZM64.5 76.3008C64.4988 79.7669 64.3767 83.5391 64.1179 87.6477L64.5 76.3008Z" stroke="url(#paint0_linear_2572_21168)"/>
<path d="M32.5029 8.47164C36.871 8.47164 40.49 11.7198 40.49 15.8183C40.49 19.9168 36.8709 23.1638 32.5029 23.1638C28.1362 23.1638 24.516 19.9169 24.5159 15.8184L32.5029 8.47164ZM32.5029 8.47164C28.135 8.47164 24.5148 11.7208 24.5159 15.8183L32.5029 8.47164ZM19.1567 18.4772L19.0649 18.0933L18.6703 18.0934L15.9005 18.0938C15.7745 17.3468 15.7002 16.5899 15.7002 15.8188C15.7002 15.0478 15.7745 14.2902 15.9005 13.5436H18.6715H19.066L19.1578 13.1599C19.5054 11.7066 20.134 10.349 20.9886 9.13017L21.2407 8.77058L20.9166 8.47418L18.9987 6.72C20.0013 5.48571 21.2017 4.39378 22.5608 3.48163L24.5361 5.28741L24.8082 5.53615L25.1262 5.34977C26.4653 4.56507 27.9611 3.98454 29.5652 3.66371L29.9671 3.58332V3.17342V0.687941C30.7981 0.56937 31.6426 0.5 32.5027 0.5C33.3628 0.5 34.207 0.569335 35.0364 0.687828V3.17342V3.58361L35.4387 3.66378C37.0436 3.98359 38.5392 4.56406 39.8784 5.34876L40.1964 5.53508L40.4685 5.28648L42.4439 3.48147C43.8027 4.39272 45.0032 5.48539 46.0066 6.72063L44.0868 8.4748L43.7623 8.77137L44.0149 9.13121C44.8706 10.3501 45.5001 11.7065 45.8465 13.1593L45.9381 13.5434H46.3329H49.1042C49.2306 14.29 49.3042 15.047 49.3042 15.8185C49.3042 16.5899 49.2306 17.3475 49.1043 18.0936H46.3329H45.9378L45.8464 18.478C45.5012 19.9303 44.8707 21.2866 44.0149 22.5058L43.7622 22.8657L44.0869 23.1623L46.0065 24.9154C45.0034 26.1503 43.8029 27.2423 42.4438 28.1544L40.4685 26.3495L40.1963 26.1008L39.8782 26.2873C38.5405 27.0719 37.0437 27.6524 35.4384 27.9733L35.0364 28.0536V28.4636V30.9491C34.2061 31.0676 33.3617 31.137 32.5016 31.137C31.6415 31.137 30.797 31.0676 29.966 30.949V28.4636V28.0539L29.5643 27.9733C27.9601 27.6515 26.4643 27.0709 25.1251 26.2862L24.807 26.0998L24.5349 26.3486L22.5595 28.1544C21.2006 27.2431 20.0002 26.1506 18.9977 24.9169L20.9155 23.1628L21.2395 22.8664L20.9874 22.5068C20.1328 21.288 19.5042 19.9314 19.1567 18.4772Z" stroke="url(#paint1_linear_2572_21168)"/>
<mask id="path-3-inside-1_2572_21168" fill="white">
<path d="M36.1436 15.8183C36.1436 17.6569 34.5132 19.1483 32.501 19.1483C30.4898 19.1483 28.8584 17.6568 28.8584 15.8183C28.8584 13.9786 30.4899 12.4883 32.501 12.4883C34.5133 12.4883 36.1436 13.9787 36.1436 15.8183Z"/>
</mask>
<path d="M35.1436 15.8183C35.1436 17.0222 34.0471 18.1483 32.501 18.1483V20.1483C34.9793 20.1483 37.1436 18.2916 37.1436 15.8183H35.1436ZM32.501 18.1483C30.9557 18.1483 29.8584 17.022 29.8584 15.8183H27.8584C27.8584 18.2916 30.0238 20.1483 32.501 20.1483V18.1483ZM29.8584 15.8183C29.8584 14.6137 30.9556 13.4883 32.501 13.4883V11.4883C30.0242 11.4883 27.8584 13.3436 27.8584 15.8183H29.8584ZM32.501 13.4883C34.0474 13.4883 35.1436 14.6136 35.1436 15.8183H37.1436C37.1436 13.3439 34.9793 11.4883 32.501 11.4883V13.4883Z" fill="url(#paint2_linear_2572_21168)" mask="url(#path-3-inside-1_2572_21168)"/>
<mask id="path-5-inside-2_2572_21168" fill="white">
<path d="M26.2912 156.842V157.831H25.721V157.074C25.721 156.936 25.7165 156.84 25.7076 156.785C25.7009 156.731 25.6909 156.691 25.6764 156.667C25.6519 156.634 25.6207 156.609 25.5829 156.589C25.5439 156.571 25.5005 156.561 25.4537 156.561C25.3345 156.561 25.241 156.604 25.1731 156.687C25.1074 156.769 25.0751 156.885 25.0751 157.033V157.831H24.5049V156.207H25.0751V156.447C25.1575 156.352 25.2466 156.283 25.3423 156.239C25.4403 156.193 25.5472 156.17 25.6631 156.17C25.868 156.17 26.0239 156.227 26.1308 156.341C26.2377 156.455 26.2911 156.622 26.2911 156.842L26.2912 156.842Z"/>
</mask>
<path d="M26.2912 156.842H27.2912V154.278L25.5553 156.165L26.2912 156.842ZM26.2912 157.831V158.831H27.2912V157.831H26.2912ZM25.721 157.831H24.721V158.831H25.721V157.831ZM25.7076 156.785L24.7152 156.908L24.7175 156.926L24.7205 156.945L25.7076 156.785ZM25.6764 156.667L26.5367 156.157L26.5087 156.11L26.4756 156.066L25.6764 156.667ZM25.5829 156.589L26.0378 155.699L26.0232 155.691L26.0084 155.684L25.5829 156.589ZM25.1731 156.687L24.3974 156.056L24.3948 156.059L25.1731 156.687ZM25.0751 157.831V158.831H26.0751V157.831H25.0751ZM24.5049 157.831H23.5049V158.831H24.5049V157.831ZM24.5049 156.207V155.207H23.5049V156.207H24.5049ZM25.0751 156.207H26.0751V155.207H25.0751V156.207ZM25.0751 156.447H24.0751V159.119L25.8294 157.103L25.0751 156.447ZM25.3423 156.239L25.7581 157.149L25.7658 157.145L25.3423 156.239ZM26.2911 156.842H25.2911V159.405L27.027 157.519L26.2911 156.842ZM25.2912 156.842V157.831H27.2912V156.842H25.2912ZM26.2912 156.831H25.721V158.831H26.2912V156.831ZM26.721 157.831V157.074H24.721V157.831H26.721ZM26.721 157.074C26.721 156.937 26.718 156.768 26.6947 156.625L24.7205 156.945C24.7178 156.928 24.7171 156.919 24.7174 156.922C24.7175 156.924 24.7181 156.931 24.7187 156.944C24.72 156.972 24.721 157.014 24.721 157.074H26.721ZM26.7 156.662C26.6909 156.588 26.6635 156.371 26.5367 156.157L24.8161 157.177C24.7586 157.08 24.7355 156.998 24.7274 156.967C24.7179 156.931 24.7153 156.908 24.7152 156.908L26.7 156.662ZM26.4756 156.066C26.3521 155.901 26.1989 155.781 26.0378 155.699L25.1279 157.48C25.0426 157.436 24.9518 157.367 24.8772 157.268L26.4756 156.066ZM26.0084 155.684C25.8372 155.604 25.6486 155.561 25.4537 155.561V157.561C25.3524 157.561 25.2506 157.538 25.1574 157.494L26.0084 155.684ZM25.4537 155.561C25.0633 155.561 24.6732 155.717 24.3974 156.056L25.9487 157.318C25.8905 157.39 25.8086 157.458 25.7058 157.504C25.6053 157.549 25.5151 157.561 25.4537 157.561V155.561ZM24.3948 156.059C24.1335 156.383 24.0751 156.756 24.0751 157.033H26.0751C26.0751 157.013 26.0812 157.154 25.9514 157.315L24.3948 156.059ZM24.0751 157.033V157.831H26.0751V157.033H24.0751ZM25.0751 156.831H24.5049V158.831H25.0751V156.831ZM25.5049 157.831V156.207H23.5049V157.831H25.5049ZM24.5049 157.207H25.0751V155.207H24.5049V157.207ZM24.0751 156.207V156.447H26.0751V156.207H24.0751ZM25.8294 157.103C25.8359 157.096 25.8143 157.123 25.7581 157.149L24.9266 155.33C24.6788 155.443 24.479 155.608 24.3208 155.79L25.8294 157.103ZM25.7658 157.145C25.747 157.154 25.7272 157.16 25.7077 157.165C25.6884 157.169 25.673 157.17 25.6631 157.17V155.17C25.4082 155.17 25.1559 155.222 24.9188 155.333L25.7658 157.145ZM25.6631 157.17C25.6748 157.17 25.6447 157.172 25.5902 157.152C25.5307 157.13 25.4614 157.089 25.4013 157.025L26.8603 155.657C26.5104 155.284 26.0541 155.17 25.6631 155.17V157.17ZM25.4013 157.025C25.3415 156.961 25.3117 156.897 25.2987 156.857C25.287 156.82 25.2911 156.81 25.2911 156.842H27.2911C27.2911 156.472 27.2009 156.02 26.8603 155.657L25.4013 157.025ZM27.027 157.519L27.027 157.519L25.5553 156.165L25.5553 156.165L27.027 157.519Z" fill="url(#paint3_linear_2572_21168)" mask="url(#path-5-inside-2_2572_21168)"/>
<defs>
<linearGradient id="paint0_linear_2572_21168" x1="32.5" y1="35.1543" x2="32.5" y2="145.952" gradientUnits="userSpaceOnUse">
<stop stop-color="#5AB4D6"/>
<stop offset="1" stop-color="#FFD419"/>
</linearGradient>
<linearGradient id="paint1_linear_2572_21168" x1="32.5022" y1="0" x2="32.5022" y2="31.637" gradientUnits="userSpaceOnUse">
<stop stop-color="#5AB4D6"/>
<stop offset="1" stop-color="#FFD419"/>
</linearGradient>
<linearGradient id="paint2_linear_2572_21168" x1="32.501" y1="12.4883" x2="32.501" y2="19.1483" gradientUnits="userSpaceOnUse">
<stop stop-color="#5AB4D6"/>
<stop offset="1" stop-color="#FFD419"/>
</linearGradient>
<linearGradient id="paint3_linear_2572_21168" x1="25.398" y1="156.17" x2="25.398" y2="157.831" gradientUnits="userSpaceOnUse">
<stop stop-color="#5AB4D6"/>
<stop offset="1" stop-color="#FFD419"/>
</linearGradient>
</defs>
</svg>
