<svg width="94" height="166" viewBox="0 0 94 166" fill="none" xmlns="http://www.w3.org/2000/svg">
<path d="M18.5988 56.8681L18.5104 57.3075L11.0475 94.394C11.0474 94.394 11.0474 94.3941 11.0474 94.3941C10.9565 94.8468 10.9439 95.296 10.9958 95.7325L11.0007 95.7732L10.9988 95.8143C10.996 95.8765 10.9929 95.9202 10.9903 95.957C10.9869 96.006 10.9843 96.0427 10.9843 96.0949V158.426C10.9843 162.334 14.153 165.501 18.0596 165.501C21.9672 165.501 25.1361 162.334 25.1361 158.426V105.551V104.096L26.0305 105.244C27.6496 107.321 30.372 108.397 33.1051 107.776L33.1051 107.775L52.4126 103.386L52.8951 103.276L53.0098 103.757L58.6396 127.382C58.6396 127.382 58.6396 127.383 58.6396 127.383C59.4069 130.6 62.2783 132.766 65.4481 132.766C65.9847 132.766 66.5319 132.704 67.0801 132.574C70.8432 131.676 73.1677 127.898 72.2707 124.134L64.9166 93.2839C64.0237 89.5395 60.3008 87.2238 56.549 88.0767L45.3089 90.6311L44.5555 90.8023L44.708 90.0449L48.652 70.4481L48.9053 69.1894L49.57 70.2879C50.4553 71.7512 51.4011 73.2797 52.381 74.7416C53.7466 76.7559 55.1628 78.6584 56.8669 80.2837C57.7224 81.0917 58.6477 81.8311 59.771 82.4372C60.8804 83.0317 62.2376 83.4941 63.7718 83.4952H63.8282H63.8286C65.175 83.4963 66.5953 83.0742 67.7404 82.3647L67.7406 82.3646C69.5172 81.2654 70.7135 79.7135 71.722 77.8822C72.7254 76.0332 73.5408 73.8427 74.2943 71.1169C74.94 68.7734 73.5625 66.3505 71.2183 65.7047C68.8735 65.0613 66.4525 66.4366 65.8064 68.7809C65.1321 71.2728 64.3953 72.9863 63.8513 73.9205L63.5407 74.4539L63.0834 74.0392C62.5897 73.5916 61.9432 72.9181 61.3003 72.0683C59.6014 69.912 57.732 66.7904 56.0053 63.907C55.8814 63.7 55.7582 63.4943 55.6358 63.2902C54.709 61.7524 53.8257 60.3059 52.9224 59.0185C52.8262 58.889 52.7327 58.7619 52.6408 58.6369C51.795 57.4867 51.0779 56.5114 49.555 55.4902C49.258 55.3057 48.9434 55.1632 48.6187 55.0546L48.5858 55.0436L48.5548 55.0282C48.227 54.8654 47.8783 54.7405 47.508 54.6653L18.5988 56.8681ZM18.5988 56.8681L18.219 56.7474C16.3318 55.698 14.0041 54.1232 11.6471 51.8113L11.6453 51.8096C6.46432 46.7777 1.42471 37.9748 1.47399 24.755V24.7531C1.47399 18.6971 2.48154 11.7129 4.86598 3.65383L4.86599 3.65377C5.55541 1.32257 8.00296 -0.00733796 10.3343 0.682082L10.3345 0.682139C12.6654 1.37039 13.9956 3.81894 13.3071 6.15062C11.1225 13.5358 10.2761 19.6778 10.2761 24.7531L10.2761 24.755C10.316 35.1568 13.693 41.0654 17.1265 44.8227L17.1285 44.8249C20.2335 48.1822 23.5692 49.6598 24.5782 50.0462L24.6173 50.0612L24.6584 50.0695L47.5072 54.6652L18.5988 56.8681ZM49.1422 70.5467C49.2686 70.7557 49.3963 70.9661 49.5252 71.1775L49.6323 70.6454L49.1422 70.5467ZM49.1422 70.5467L48.7144 70.8056C48.8077 70.9598 48.9017 71.1148 48.9965 71.2706L49.1422 70.5467ZM45.1981 90.1435L45.0873 89.656L45.3063 89.6062L45.1981 90.1435ZM45.1981 90.1435L45.6883 90.2422L45.7326 90.0221L45.1981 90.1435ZM63.8282 83.9952C65.2721 83.9964 66.7833 83.5459 68.0037 82.7898C69.8807 81.6284 71.129 79.9957 72.1606 78.1222C73.1889 76.2278 74.0168 73.9976 74.7764 71.2497C75.4955 68.6397 73.9612 65.9418 71.3511 65.2226C68.74 64.5059 66.0432 66.0378 65.3241 68.6491L63.8282 83.9952ZM33.2171 108.263L33.2718 108.25L33.2171 107.763H33.2159V108.258L33.217 108.263L33.2171 108.263ZM33.2159 108.263L33.216 108.263C33.216 108.263 33.2159 108.263 33.2159 108.263C33.1977 108.267 33.1794 108.271 33.1612 108.275L33.2159 108.263ZM31.3854 63.1613L30.8536 62.8301L30.6486 63.4221L22.4908 86.9804L22.4212 87.1814L22.5178 87.371L26.5244 95.2368L26.7983 95.7746L27.2757 95.4054C27.8923 94.9287 28.59 94.5468 29.3593 94.2946L29.4521 94.2642L29.5267 94.2011L34.6979 89.8219L34.8603 89.6844L34.8738 89.4721L36.459 64.5902L36.4989 63.9647L35.8802 64.0648C35.1213 64.1876 34.3549 64.1804 33.6165 64.0399L33.5702 64.0167H33.5014C32.7596 63.8619 32.0436 63.5713 31.3854 63.1613ZM32.8292 55.8075L32.4475 55.7306L32.2795 56.0819L30.2334 60.3594L30.1406 60.5533L30.2175 60.754L30.3367 61.0655L30.3648 61.1388L30.4141 61.2001C31.2713 62.2656 32.4466 62.9489 33.7152 63.2052L33.7157 63.2052C34.9853 63.4604 36.3368 63.2826 37.5414 62.6302L37.6104 62.5928L37.6646 62.5361L37.8927 62.2976L38.0414 62.1421L38.0307 61.9272L37.7957 57.1923L37.7764 56.8037L37.395 56.7269L35.1127 56.2672L35.1127 56.2672L32.8292 55.8075Z" stroke="url(#paint0_linear_1668_14924)"/>
<mask id="path-2-inside-1_1668_14924" fill="white">
<path d="M42.4401 21.6446C49.9042 23.1464 54.7373 30.416 53.2355 37.8802C51.7337 45.3443 44.4641 50.1774 37 48.6756C29.5358 47.1739 24.7016 39.9042 26.2045 32.4401C27.7064 24.9759 34.9747 20.1429 42.4401 21.6446Z"/>
</mask>
<path d="M53.2355 37.8802L54.2159 38.0774L54.2159 38.0774L53.2355 37.8802ZM26.2045 32.4401L27.1848 32.6375L27.1849 32.6373L26.2045 32.4401ZM42.2428 22.625C49.1654 24.0178 53.648 30.7601 52.2552 37.6829L54.2159 38.0774C55.8265 30.072 50.6431 22.2751 42.6373 20.6643L42.2428 22.625ZM52.2552 37.6829C50.8623 44.6055 44.1201 49.0881 37.1972 47.6953L36.8027 49.656C44.8082 51.2666 52.6051 46.0832 54.2159 38.0774L52.2552 37.6829ZM37.1972 47.6953C30.2745 46.3025 25.791 39.5601 27.1848 32.6375L25.2242 32.2427C23.6122 40.2484 28.7971 48.0453 36.8027 49.656L37.1972 47.6953ZM27.1849 32.6373C28.5777 25.7147 35.3188 21.2321 42.2429 22.625L42.6373 20.6642C34.6307 19.0536 26.835 24.2371 25.2242 32.2428L27.1849 32.6373Z" fill="url(#paint1_linear_1668_14924)" mask="url(#path-2-inside-1_1668_14924)"/>
<path d="M36.748 136.461H92.5266V165.279H36.748V136.461Z" stroke="url(#paint2_linear_1668_14924)"/>
<defs>
<linearGradient id="paint0_linear_1668_14924" x1="37.9636" y1="0" x2="37.9636" y2="166.001" gradientUnits="userSpaceOnUse">
<stop stop-color="#5AB4D6"/>
<stop offset="1" stop-color="#FFD419"/>
</linearGradient>
<linearGradient id="paint1_linear_1668_14924" x1="39.7199" y1="21.3711" x2="39.7199" y2="48.9492" gradientUnits="userSpaceOnUse">
<stop stop-color="#5AB4D6"/>
<stop offset="1" stop-color="#FFD419"/>
</linearGradient>
<linearGradient id="paint2_linear_1668_14924" x1="64.6373" y1="135.961" x2="64.6373" y2="165.779" gradientUnits="userSpaceOnUse">
<stop stop-color="#5AB4D6"/>
<stop offset="1" stop-color="#FFD419"/>
</linearGradient>
</defs>
</svg>
