<svg width="16" height="15" viewBox="0 0 16 15" fill="none" xmlns="http://www.w3.org/2000/svg">
<path d="M13.9767 7.0946L7.65192 1.60521C7.60337 1.56335 7.54143 1.53992 7.47614 1.53992H5.99455C5.87067 1.53992 5.81375 1.69393 5.9075 1.77429L11.7702 6.86358H1.97335C1.89968 6.86358 1.83942 6.92385 1.83942 6.99751V8.00197C1.83942 8.07563 1.89968 8.1359 1.97335 8.1359H11.7685L5.90582 13.2252C5.81207 13.3072 5.86899 13.4596 5.99288 13.4596H7.52468C7.55649 13.4596 7.5883 13.4478 7.61174 13.4261L13.9767 7.90487C14.0346 7.85448 14.0811 7.79223 14.113 7.72234C14.1448 7.65245 14.1613 7.57654 14.1613 7.49974C14.1613 7.42294 14.1448 7.34703 14.113 7.27714C14.0811 7.20725 14.0346 7.145 13.9767 7.0946V7.0946Z" fill="white"/>
</svg>
