<svg width="388" height="333" viewBox="0 0 388 333" fill="none" xmlns="http://www.w3.org/2000/svg">
<g opacity="0.3">
<path d="M152.278 25.2507V35.6353C152.278 35.8672 152.173 36.0896 151.985 36.2536C151.797 36.4176 151.542 36.5098 151.276 36.5098H93.6629C93.531 36.5108 93.4002 36.4888 93.2782 36.4452C93.1561 36.4016 93.0452 36.3372 92.952 36.2558C92.8587 36.1744 92.785 36.0776 92.735 35.9711C92.6851 35.8646 92.6599 35.7504 92.661 35.6353V5.02812C92.6554 4.91025 92.6771 4.7926 92.725 4.68226C92.7728 4.57192 92.8457 4.47117 92.9393 4.38607C93.0329 4.30096 93.1452 4.23327 93.2696 4.18706C93.3939 4.14085 93.5277 4.11709 93.6629 4.11719H151.268C151.534 4.11719 151.789 4.20932 151.976 4.37332C152.164 4.53732 152.27 4.75975 152.27 4.99168V22.4013" stroke="black" stroke-linecap="round" stroke-linejoin="round"/>
<path d="M105.881 12.4609H152.274V19.4569H92.6484V12.4609H101.748" stroke="black" stroke-linecap="round" stroke-linejoin="round"/>
<path d="M127.72 24.7031H100.662V33.0108H127.72V24.7031Z" stroke="black" stroke-linecap="round" stroke-linejoin="round"/>
<path d="M139.743 24.2656H130.727V33.0105H139.743V24.2656Z" stroke="black" stroke-linecap="round" stroke-linejoin="round"/>
</g>
<g opacity="0.3">
<path d="M19.3552 214.168H3.87695V260.261L5.22942 258.257L6.59859 260.283H6.72382L8.09298 258.257L9.46215 260.283H9.57903L10.9482 258.257L12.3174 260.283H12.4426L13.8118 258.257L15.1809 260.283H15.2978L16.667 258.257L18.0361 260.283H18.1614L19.5222 258.257L20.8913 260.283H21.0166L22.3857 258.257L23.7549 260.283H23.8718L25.241 258.257L26.6101 260.283H26.7353L28.1045 258.257L29.4737 260.283H29.5906L30.9597 258.257L32.3289 260.283H32.4541L33.8233 258.257L35.1925 260.283H35.3093L36.6785 258.257L38.0477 260.283H38.1478V214.168H23.2206" stroke="black" stroke-linecap="round" stroke-linejoin="round"/>
<path d="M8.29297 224.016H33.7561" stroke="black" stroke-linecap="round" stroke-linejoin="round"/>
<path d="M8.29297 229.48H33.7561" stroke="black" stroke-linecap="round" stroke-linejoin="round"/>
<path d="M8.29297 234.945H33.7561" stroke="black" stroke-linecap="round" stroke-linejoin="round"/>
<path d="M8.29297 240.41H33.7561" stroke="black" stroke-linecap="round" stroke-linejoin="round"/>
<path d="M30.4668 250.066H33.7561" stroke="black" stroke-linecap="round" stroke-linejoin="round"/>
<path d="M8.29297 250.066H27.0856" stroke="black" stroke-linecap="round" stroke-linejoin="round"/>
</g>
<g opacity="0.3">
<path d="M115.812 78.6641C122.175 78.6641 127.333 74.1616 127.333 68.6074C127.333 63.0533 122.175 58.5508 115.812 58.5508C109.449 58.5508 104.291 63.0533 104.291 68.6074C104.291 74.1616 109.449 78.6641 115.812 78.6641Z" stroke="black" stroke-linecap="round" stroke-linejoin="round"/>
<path d="M115.812 76.3012C120.681 76.3012 124.628 72.8558 124.628 68.6057C124.628 64.3556 120.681 60.9102 115.812 60.9102C110.943 60.9102 106.996 64.3556 106.996 68.6057C106.996 72.8558 110.943 76.3012 115.812 76.3012Z" stroke="black" stroke-linecap="round" stroke-linejoin="round"/>
<path d="M115.034 64.2212V63.5508H116.37V64.2212C117.53 64.4326 118.123 65.2123 118.123 66.4075V66.6917H116.578V66.3127C116.578 65.6641 116.286 65.4164 115.743 65.4164C115.201 65.4164 114.909 65.6641 114.909 66.3127C114.909 68.1856 118.106 68.273 118.106 70.8674C118.106 72.0989 117.497 72.8933 116.336 73.1046V73.7605H115V73.1046C113.823 72.8933 113.23 72.0989 113.23 70.8674V70.2479H114.775V70.9767C114.775 71.6252 115.109 71.8584 115.61 71.8584C116.111 71.8584 116.445 71.6252 116.445 70.9767C116.445 69.1038 113.256 69.0164 113.256 66.422C113.314 65.2196 113.89 64.4399 115.034 64.2212Z" fill="black"/>
</g>
<g opacity="0.3">
<path d="M46.9312 287.523C53.2941 287.523 58.4522 283.021 58.4522 277.467C58.4522 271.913 53.2941 267.41 46.9312 267.41C40.5683 267.41 35.4102 271.913 35.4102 277.467C35.4102 283.021 40.5683 287.523 46.9312 287.523Z" stroke="black" stroke-linecap="round" stroke-linejoin="round"/>
<path d="M46.9333 285.161C51.8023 285.161 55.7494 281.715 55.7494 277.465C55.7494 273.215 51.8023 269.77 46.9333 269.77C42.0643 269.77 38.1172 273.215 38.1172 277.465C38.1172 281.715 42.0643 285.161 46.9333 285.161Z" stroke="black" stroke-linecap="round" stroke-linejoin="round"/>
<path d="M46.1619 273.08V272.402H47.4977V273.08C48.6582 273.284 49.2509 274.064 49.2509 275.266V275.558H47.7398V275.208C47.7398 274.559 47.4393 274.312 46.905 274.312C46.3707 274.312 46.0701 274.559 46.0701 275.208C46.0701 277.074 49.2676 277.168 49.2676 279.763C49.2676 280.994 48.6582 281.789 47.4977 281.993V282.656H46.1619V281.993C44.9848 281.767 44.4004 280.994 44.4004 279.763V279.143H45.9449V279.872C45.9449 280.521 46.2705 280.754 46.7797 280.754C47.289 280.754 47.6146 280.521 47.6146 279.872C47.6146 277.999 44.4171 277.912 44.4171 275.31C44.4004 274.078 45.0182 273.299 46.1619 273.08Z" fill="black"/>
</g>
<g opacity="0.3">
<path d="M20.2163 304.281C26.5792 304.281 31.7374 299.779 31.7374 294.225C31.7374 288.67 26.5792 284.168 20.2163 284.168C13.8535 284.168 8.69531 288.67 8.69531 294.225C8.69531 299.779 13.8535 304.281 20.2163 304.281Z" stroke="black" stroke-linecap="round" stroke-linejoin="round"/>
<path d="M20.2184 301.918C25.0874 301.918 29.0345 298.473 29.0345 294.223C29.0345 289.973 25.0874 286.527 20.2184 286.527C15.3494 286.527 11.4023 289.973 11.4023 294.223C11.4023 298.473 15.3494 301.918 20.2184 301.918Z" stroke="black" stroke-linecap="round" stroke-linejoin="round"/>
<path d="M19.4471 289.838V289.16H20.7829V289.838C21.9433 290.042 22.5361 290.822 22.5361 292.024V292.316H21.025V291.966C21.025 291.317 20.7244 291.069 20.1901 291.069C19.6558 291.069 19.3553 291.317 19.3553 291.966C19.3553 293.831 22.5528 293.926 22.5528 296.52C22.5528 297.752 21.9433 298.546 20.7829 298.75V299.414H19.4471V298.75C18.2699 298.524 17.6855 297.752 17.6855 296.52V295.901H19.23V296.63C19.23 297.278 19.5556 297.512 20.0649 297.512C20.5742 297.512 20.8997 297.278 20.8997 296.63C20.8997 294.757 17.7022 294.669 17.7022 292.068C17.6855 290.836 18.3033 290.057 19.4471 289.838Z" fill="black"/>
</g>
<g opacity="0.3">
<path d="M27.8441 32.4348L19.0781 20.8186L52.9399 1.33203L59.0761 9.45751" stroke="black" stroke-linecap="round" stroke-linejoin="round"/>
<path d="M33.5527 15.686L52.0532 5.03906L55.9269 10.1694" stroke="black" stroke-linecap="round" stroke-linejoin="round"/>
<path d="M25.7089 24.7183L23.3379 21.5702L24.5735 20.8633" stroke="black" stroke-linecap="round" stroke-linejoin="round"/>
<path d="M54.9526 29.6931L30.174 35.5085L24.9395 18.5215L64.111 9.33203L69.3455 26.319L57.7243 29.0445" stroke="black" stroke-linecap="round" stroke-linejoin="round"/>
<path d="M65.5734 24.436L61.9316 12.6055L28.7057 20.3984L32.3474 32.229L65.5734 24.436Z" stroke="black" stroke-linecap="round" stroke-linejoin="round"/>
<path d="M47.9633 25.1099C45.3836 25.7148 42.9542 25.0006 42.4616 23.514C41.969 22.0274 43.7306 20.3367 46.3103 19.7318C48.89 19.127 51.3194 19.8339 51.8204 21.3205C52.3213 22.8071 50.5514 24.5197 47.9633 25.1099Z" stroke="black" stroke-linecap="round" stroke-linejoin="round"/>
</g>
<path d="M16.6625 123.003L8.19727 130.668L25.8682 145.538L34.3335 137.872L16.6625 123.003Z" fill="#92E3A9" stroke="#263238" stroke-linecap="round" stroke-linejoin="round"/>
<path d="M16.7188 125.297L10.8262 130.633L25.8104 143.242L31.7031 137.906L16.7188 125.297Z" fill="white" stroke="#263238" stroke-linecap="round" stroke-linejoin="round"/>
<path d="M22.612 133.049C23.7808 134.033 24.1231 135.374 23.3885 136.044C22.6538 136.715 21.1009 136.46 19.9321 135.476C18.7633 134.492 18.421 133.158 19.1641 132.488C19.9071 131.817 21.4432 132.072 22.612 133.049Z" fill="white" stroke="#263238" stroke-linecap="round" stroke-linejoin="round"/>
<path d="M23.2325 120.628L12.8027 126.148L25.5286 144.469L35.9584 138.949L23.2325 120.628Z" fill="#92E3A9" stroke="#263238" stroke-linecap="round" stroke-linejoin="round"/>
<path d="M23.044 123.463L15.7422 127.316L26.565 142.94L33.8668 139.087L23.044 123.463Z" fill="white" stroke="#263238" stroke-width="1.00499" stroke-linecap="round" stroke-linejoin="round"/>
<path d="M26.0324 131.647C26.8673 132.857 26.8172 134.227 25.8988 134.715C24.9805 135.203 23.5278 134.635 22.693 133.425C21.8581 132.215 21.9082 130.845 22.8182 130.364C23.7282 129.883 25.1975 130.466 26.0324 131.647Z" fill="#92E3A9" stroke="#263238" stroke-linecap="round" stroke-linejoin="round"/>
<path d="M33.5647 119.947L21.4844 121.418L24.8749 142.638L36.9552 141.167L33.5647 119.947Z" fill="#92E3A9" stroke="#263238" stroke-linecap="round" stroke-linejoin="round"/>
<path d="M31.9892 121.781L23.5801 122.805L26.4563 140.805L34.8654 139.782L31.9892 121.781Z" fill="white" stroke="#263238" stroke-linecap="round" stroke-linejoin="round"/>
<path d="M31.1287 131.056C31.3541 132.455 30.6779 133.694 29.626 133.825C28.574 133.957 27.5305 132.922 27.3051 131.523C27.0796 130.123 27.7559 128.885 28.8161 128.753C29.8764 128.622 30.9033 129.657 31.1287 131.056Z" fill="#92E3A9" stroke="#263238" stroke-linecap="round" stroke-linejoin="round"/>
<path d="M41.8071 124.193L29.9395 121.734L24.2721 142.58L36.1397 145.039L41.8071 124.193Z" fill="#92E3A9" stroke="#263238" stroke-linecap="round" stroke-linejoin="round"/>
<path d="M39.5716 125.407L31.3105 123.695L26.5029 141.379L34.764 143.09L39.5716 125.407Z" fill="white" stroke="#263238" stroke-linecap="round" stroke-linejoin="round"/>
<path d="M34.9009 133.777C34.5335 135.147 33.3898 136.094 32.3462 135.876C31.3027 135.657 30.7767 134.375 31.1524 132.961C31.5281 131.547 32.6635 130.643 33.707 130.855C34.7506 131.066 35.2766 132.378 34.9009 133.777Z" fill="#92E3A9" stroke="#263238" stroke-linecap="round" stroke-linejoin="round"/>
<path d="M58.2946 192.802C58.2946 192.802 55.598 195.797 54.855 209.942C54.1119 224.087 64.9233 244.434 65.4159 250.431C65.9085 256.429 66.6431 262.004 66.6431 262.004C65.346 267.815 65.4284 273.798 66.8853 279.581C69.3397 288.792 76.9035 313.431 76.9035 313.431C76.9035 313.431 71.0595 324.143 71.0595 324.785C71.0595 325.426 68.1125 326.716 67.8704 328.428C67.7039 329.28 67.7039 330.15 67.8704 331.001H87.2558C87.2558 331.001 88.483 329.5 88.483 326.067C88.483 322.635 85.7864 307.215 85.7864 307.215L86.0285 254.512V220.013L111.074 276.571C116.694 290.901 123.164 304.965 130.46 318.707C130.969 319.676 134.383 327.488 138.307 330.061C142.231 332.633 145.921 333.275 146.163 329.42C146.405 325.564 143.216 317.206 140.027 314.845C136.838 312.484 132.664 307.346 132.664 306.486C132.664 305.626 120.842 240.958 120.842 240.958L112.293 203.959C112.293 203.959 112.903 200.206 111.375 194.369C109.847 188.532 100.522 189.173 100.522 189.173L61.4921 187.672L58.2946 192.802Z" fill="white" stroke="#263238" stroke-linecap="round" stroke-linejoin="round"/>
<path d="M120.842 240.958L112.293 203.959C112.293 203.959 112.902 200.206 111.374 194.369C109.847 188.532 100.521 189.173 100.521 189.173L61.4916 187.672L58.3024 192.817C58.3024 192.817 55.6058 195.812 54.8628 209.957C54.1198 224.102 64.9228 244.434 65.4154 250.431C65.908 256.429 66.6426 262.004 66.6426 262.004C65.3455 267.815 65.4279 273.798 66.8847 279.581C67.7196 282.612 69.0637 287.32 70.5331 292.268C75.6157 292.818 80.7503 292.901 85.8527 292.516L86.028 254.512V220.013L111.074 276.571C111.074 276.571 114.413 284.944 118.17 292.924C122.177 292.982 126.009 292.603 129.516 290.993C125.584 272.155 120.842 240.958 120.842 240.958Z" fill="#263238" stroke="#263238" stroke-linecap="round" stroke-linejoin="round"/>
<path d="M88.4816 326.061C88.4816 324.604 88.0058 321.069 87.4547 317.426C85.4678 319.576 81.5106 323.496 78.1711 324.567C74.5312 325.733 72.0934 324.815 71.2001 324.356C71.1337 324.492 71.0861 324.633 71.0581 324.779C71.0581 325.42 68.1111 326.71 67.869 328.422C67.7025 329.274 67.7025 330.144 67.869 330.995H87.2544C87.2544 330.995 88.4816 329.494 88.4816 326.061Z" fill="#263238" stroke="#263238" stroke-linecap="round" stroke-linejoin="round"/>
<path d="M140.02 314.854L139.795 314.672C140.955 317.652 141.815 321.959 138.551 323.635C136.597 324.656 134.376 323.847 132.498 322.513C133.951 325.195 135.996 328.554 138.3 330.063C142.232 332.635 145.914 333.277 146.156 329.422C146.398 325.567 143.209 317.208 140.02 314.854Z" fill="#263238" stroke="#263238" stroke-linecap="round" stroke-linejoin="round"/>
<path d="M74.1886 122.529C74.7605 124.918 75.1897 127.331 75.4743 129.758C75.658 132.331 71.2416 133.132 71.2416 133.132C71.2416 133.132 58.535 136.186 57.984 138.437C57.433 140.689 46.3879 171.231 46.3879 171.231C43.6245 166.407 37.7555 164.009 34.7917 159.979C33.1884 157.862 31.7142 155.673 30.3753 153.42C30.9314 152.238 31.3021 150.995 31.4773 149.726C31.4287 148.864 31.1111 148.03 30.559 147.314C30.559 147.314 33.1303 146.512 33.1303 145.39C33.1303 144.267 31.4606 141.855 30.9263 141.367C28.9978 139.567 25.7669 142.016 25.7669 142.016C26.5523 140.856 27.5475 139.815 28.7139 138.933C30.3837 137.803 32.0534 136.2 31.661 135.559C31.2686 134.918 29.8243 135.238 27.4283 137.162C25.0322 139.086 21.9015 141.666 21.9015 141.666C21.9015 141.666 23.1955 139.093 24.1139 137.162C25.0322 135.231 27.0609 135.078 26.8773 133.948C26.6936 132.819 24.2976 133.467 22.2772 135.719C20.4579 137.997 19.3763 140.66 19.1465 143.429C19.1465 145.04 22.8282 147.124 24.2976 149.697C25.9411 152.865 27.295 156.143 28.3466 159.498C29.0813 161.91 34.057 172.994 35.5264 176.988C36.9957 180.981 45.2859 186.629 47.8572 185.179C50.4286 183.729 62.9598 165.896 62.9598 165.896L65.5228 175.203L56.6984 194.835C67.0014 198.794 78.2535 200.505 89.4832 199.819C108.259 198.69 111.39 194.354 111.39 194.354C110.751 190.756 109.728 187.219 108.334 183.787C106.765 179.764 102.732 172.178 102.732 171.216C102.732 170.254 105.496 161.094 105.496 161.094C105.496 161.094 120.406 177.804 123.353 178.766C126.3 179.728 159.436 177.309 159.436 177.309C161.037 178.008 162.698 178.597 164.403 179.072C166.432 179.553 175.081 179.874 176.367 179.553C177.653 179.232 176.918 178.096 176.918 178.096C176.918 178.096 180.6 178.256 180.6 177.134C180.612 176.821 180.512 176.513 180.315 176.252C180.117 175.99 179.832 175.789 179.498 175.676C179.663 175.697 179.832 175.687 179.993 175.645C180.154 175.604 180.302 175.533 180.428 175.436C180.554 175.34 180.655 175.221 180.724 175.088C180.792 174.954 180.827 174.809 180.825 174.663C180.825 173.534 179.406 173.293 179.406 173.293C179.406 173.293 179.957 172.652 178.855 172.011C177.753 171.369 171.032 168.928 171.032 168.928C171.032 168.928 174.372 168.607 174.372 167.645C174.372 166.684 164.612 166.997 163.518 167.645C162.425 168.294 157.992 172.018 157.992 172.018C157.992 172.018 134.799 169.766 132.771 169.103C130.742 168.44 125.966 167.339 125.966 167.339C125.966 167.339 113.627 140.376 110.104 137.286C107.037 134.587 102.997 132.894 98.6666 132.491C96.1145 132.216 93.5984 131.728 91.1529 131.033L88.3562 115.613C88.3562 115.613 81.7357 122.689 74.1886 122.529Z" fill="white" stroke="#263238" stroke-linecap="round" stroke-linejoin="round"/>
<path d="M132.724 169.125C130.703 168.484 125.92 167.361 125.92 167.361C125.92 167.361 113.58 140.398 110.057 137.308C107.007 134.61 102.986 132.909 98.6698 132.491C96.1176 132.216 93.6015 131.728 91.1561 131.033L88.3593 115.613C88.3593 115.613 81.7389 122.682 74.1667 122.522C74.7386 124.91 75.1678 127.323 75.4524 129.751C75.6361 132.323 71.2197 133.125 71.2197 133.125C71.2197 133.125 58.5131 136.178 57.9621 138.43C57.4111 140.682 46.366 171.224 46.366 171.224C45.4946 169.755 44.3681 168.413 43.0265 167.245L43.0766 167.529L42.3169 168.156L34.5527 174.525C34.9535 175.494 35.2874 176.347 35.5295 177.01C37.0072 181.025 45.289 186.651 47.8604 185.201C50.4317 183.751 62.9629 165.896 62.9629 165.896L65.5259 175.203L56.7015 194.835C67.0046 198.794 78.2566 200.505 89.4864 199.819C108.262 198.69 111.393 194.354 111.393 194.354C110.569 190.285 109.289 186.296 107.569 182.446C105.708 178.526 102.736 172.178 102.736 171.216C102.736 170.254 105.499 161.094 105.499 161.094C105.499 161.094 120.409 177.804 123.357 178.766C124.584 179.167 131.079 178.985 138.217 178.628L139.377 170.065C137.141 169.859 134.92 169.545 132.724 169.125Z" fill="#92E3A9" stroke="#263238" stroke-linecap="round" stroke-linejoin="round"/>
<path d="M95.1772 160.672C90.2765 162.567 82.9966 165.431 77.8789 167.661" stroke="#263238" stroke-linecap="round" stroke-linejoin="round"/>
<path d="M100.456 158.656L97.7012 159.706" stroke="#263238" stroke-linecap="round" stroke-linejoin="round"/>
<path d="M85.621 167.102L76.5879 170.483" stroke="#263238" stroke-linecap="round" stroke-linejoin="round"/>
<path d="M46.3887 171.219C47.4128 172.371 48.3365 173.589 49.1521 174.862" stroke="#263238" stroke-linecap="round" stroke-linejoin="round"/>
<path d="M107.859 151.338L108.502 148.707" stroke="#263238" stroke-linecap="round" stroke-linejoin="round"/>
<path d="M105.48 161.094L107.292 153.676" stroke="#263238" stroke-linecap="round" stroke-linejoin="round"/>
<path d="M58.4379 154.391L57.5195 152.066" stroke="#263238" stroke-linecap="round" stroke-linejoin="round"/>
<path d="M62.9623 165.913L59.1387 156.191" stroke="#263238" stroke-linecap="round" stroke-linejoin="round"/>
<path d="M30.5588 147.272L30.0078 146.149L31.1098 145.188" stroke="#263238" stroke-linecap="round" stroke-linejoin="round"/>
<path d="M30.4936 141.121L26.4279 144.175C26.3283 144.343 26.3022 144.537 26.3544 144.72C26.4067 144.904 26.5336 145.065 26.7117 145.173" stroke="#263238" stroke-linecap="round" stroke-linejoin="round"/>
<path d="M171.018 168.965L168.254 169.927C168.254 169.927 168.805 173.141 164.205 173.789" stroke="#263238" stroke-linecap="round" stroke-linejoin="round"/>
<path d="M179.391 173.331L172.303 172.18" stroke="#263238" stroke-linecap="round" stroke-linejoin="round"/>
<path d="M179.484 175.716L172.855 174.594" stroke="#263238" stroke-linecap="round" stroke-linejoin="round"/>
<path d="M176.903 178.126L171.936 177.484" stroke="#263238" stroke-linecap="round" stroke-linejoin="round"/>
<path d="M172.853 171.539C172.853 171.539 172.853 176.196 171.184 178.448" stroke="#263238" stroke-linecap="round" stroke-linejoin="round"/>
<path d="M91.1545 131.041L88.3578 115.613C88.3578 115.613 81.7374 122.682 74.1652 122.522C74.7371 124.91 75.1662 127.323 75.4509 129.751C75.5511 131.15 74.2821 132.025 73.1133 132.535C74.783 135.581 79.5584 143.466 84.4673 142.285C88.6416 141.28 91.0293 135.042 92.0812 131.296C91.4885 131.15 91.1545 131.041 91.1545 131.041Z" fill="white" stroke="#263238" stroke-linecap="round" stroke-linejoin="round"/>
<path d="M88.733 120.061L87.8147 116.184C86.0615 117.852 80.4512 122.662 74.2148 122.531C74.7867 124.92 75.2159 127.333 75.5005 129.76C75.5005 129.797 75.5005 129.833 75.5005 129.869C76.6968 130.202 77.9637 130.295 79.2068 130.141C80.4499 129.987 81.6372 129.59 82.6803 128.98C87.2136 126.131 88.733 120.061 88.733 120.061Z" fill="#263238" stroke="#263238" stroke-linecap="round" stroke-linejoin="round"/>
<path d="M65.2737 96.7916C65.2737 96.7916 56.2573 96.3033 54.7796 103.059C54.2674 104.8 54.5541 106.647 55.5785 108.207C56.6029 109.767 58.2842 110.916 60.2646 111.41C60.0449 112.473 60.15 113.567 60.5692 114.583C60.9884 115.599 61.7069 116.5 62.6523 117.196C65.9917 119.769 74.0731 124.746 83.0896 122.983C92.106 121.219 99.8368 113.181 99.5029 108.328C99.1689 103.474 96.5642 102.541 96.5642 102.541C96.5642 102.541 101.164 97.2434 95.8211 90.9762C90.4781 84.709 67.1104 85.3503 63.4287 89.5187C59.747 93.6871 65.2737 96.7916 65.2737 96.7916Z" fill="#263238" stroke="#263238" stroke-linecap="round" stroke-linejoin="round"/>
<path d="M72.0606 102.09L64.5469 107.519C64.5469 107.519 65.8326 116.876 69.0468 120.636C72.261 124.397 77.9213 128.39 81.9954 127.078C86.0695 125.767 90.0601 119.886 90.0601 113.903C90.0601 107.92 88.7744 104.917 88.7744 104.917C88.7744 104.917 75.9176 104.903 72.0606 102.09Z" fill="white" stroke="#263238" stroke-linecap="round" stroke-linejoin="round"/>
<path d="M81.1367 109.354C81.1367 109.354 84.5179 108.698 85.8954 109.354" stroke="#263238" stroke-linecap="round" stroke-linejoin="round"/>
<path d="M69.8574 112.087C70.2601 111.415 70.9161 110.885 71.7146 110.587C72.5131 110.288 73.4053 110.239 74.2404 110.448" stroke="#263238" stroke-linecap="round" stroke-linejoin="round"/>
<path d="M67.7305 108.48C68.0974 107.707 68.7584 107.067 69.6023 106.669C70.4462 106.271 71.4214 106.138 72.3639 106.294" stroke="#263238" stroke-linecap="round" stroke-linejoin="round"/>
<path d="M79.375 105.412C80.3479 104.947 81.4632 104.76 82.564 104.878C83.6647 104.996 84.6955 105.412 85.5112 106.068" stroke="#263238" stroke-linecap="round" stroke-linejoin="round"/>
<path d="M75.2441 118.647C75.2441 118.647 80.7542 121.052 83.7597 116.57" stroke="#263238" stroke-linecap="round" stroke-linejoin="round"/>
<path d="M76.6191 114.156C76.6191 114.156 78.6228 115.613 80.5012 113.5" stroke="#263238" stroke-linecap="round" stroke-linejoin="round"/>
<path d="M89.4863 107.717C89.4863 107.717 91.1143 104.875 92.617 106.989C94.1198 109.102 90.1125 113.219 90.1125 113.219L89.4863 107.717Z" fill="white" stroke="#263238" stroke-linecap="round" stroke-linejoin="round"/>
<path d="M65.0974 110.667C65.0974 110.667 61.8414 109.574 62.0919 112.853C62.3423 116.133 66.9424 116.461 66.9424 116.461L65.0974 110.667Z" stroke="#263238" stroke-linecap="round" stroke-linejoin="round"/>
<path d="M56.7143 77.3388V58.304C56.7143 56.9356 56.0915 55.6233 54.983 54.6557C53.8745 53.6881 52.3711 53.1445 50.8035 53.1445H23.9962C22.43 53.1465 20.9287 53.6909 19.822 54.6583C18.7153 55.6257 18.0937 56.9369 18.0938 58.304V77.3388C18.0938 78.7052 18.7156 80.0157 19.8225 80.9819C20.9295 81.9482 22.4308 82.491 23.9962 82.491H45.0179L55.8043 90.8351L51.2125 82.491C52.7075 82.4022 54.1078 81.8204 55.1295 80.8636C56.1511 79.9069 56.7177 78.6467 56.7143 77.3388Z" fill="#263238"/>
<path d="M35.3924 58.6592V57.3984H37.8969V58.6592C40.0676 59.0527 41.1779 60.5102 41.1779 62.813V63.345H38.281V62.6162C38.281 61.3992 37.7216 60.9401 36.7532 60.9401C35.7847 60.9401 35.2254 61.3992 35.2254 62.6162C35.2254 66.1069 41.203 66.2599 41.203 71.1279C41.203 73.4308 40.0592 74.9174 37.8635 75.3036V76.5425H35.359V75.3036C33.1633 74.9174 32.0195 73.4308 32.0195 71.1279V69.962H34.9165V71.2956C34.9165 72.5126 35.5259 72.9498 36.5027 72.9498C37.4795 72.9498 38.0806 72.5126 38.0806 71.2956C38.0806 67.8049 32.103 67.6518 32.103 62.7838C32.1615 60.532 33.2468 59.0745 35.3924 58.6592Z" fill="white"/>
<path d="M347.884 39.5312H174.15V320.469H347.884V39.5312Z" fill="#92E3A9"/>
<path d="M347.884 39.5312H174.15V57.0356H347.884V39.5312Z" fill="white"/>
<path opacity="0.3" d="M295.054 39.5312L174.15 223.648V289.526L338.317 39.5312H295.054Z" fill="white"/>
<path opacity="0.3" d="M347.885 154.6L345.013 152.793L240.506 313.932L243.361 320.469H347.885V154.6Z" fill="white"/>
<path d="M353.103 94.8084C353.672 94.8084 354.217 94.6111 354.62 94.2599C355.022 93.9087 355.248 93.4323 355.248 92.9356V74.2069C355.248 73.7102 355.022 73.2338 354.62 72.8826C354.217 72.5314 353.672 72.334 353.103 72.334C352.969 72.3262 352.835 72.3262 352.702 72.334V37.3253C352.702 35.7389 352.344 34.1681 351.648 32.7026C350.952 31.2371 349.933 29.9056 348.647 28.7842C347.362 27.6628 345.836 26.7735 344.156 26.1671C342.477 25.5607 340.677 25.249 338.86 25.25H186.373C184.556 25.249 182.756 25.5607 181.077 26.1671C179.397 26.7735 177.871 27.6628 176.586 28.7842C175.301 29.9056 174.281 31.2371 173.585 32.7026C172.889 34.1681 172.531 35.7389 172.531 37.3253V320.077C172.531 323.282 173.99 326.355 176.585 328.621C179.181 330.887 182.702 332.16 186.373 332.16H338.86C342.531 332.16 346.052 330.887 348.648 328.621C351.243 326.355 352.702 323.282 352.702 320.077V148.094C352.835 148.106 352.969 148.106 353.103 148.094C353.672 148.094 354.217 147.897 354.62 147.546C355.022 147.194 355.248 146.718 355.248 146.221V127.485C355.248 126.989 355.022 126.512 354.62 126.161C354.217 125.81 353.672 125.612 353.103 125.612C352.968 125.613 352.834 125.625 352.702 125.649V121.444C352.835 121.455 352.969 121.455 353.103 121.444C353.672 121.444 354.217 121.247 354.62 120.895C355.022 120.544 355.248 120.068 355.248 119.571V100.842C355.248 100.346 355.022 99.8694 354.62 99.5181C354.217 99.1669 353.672 98.9696 353.103 98.9696C352.969 98.9581 352.835 98.9581 352.702 98.9696V94.772C352.834 94.7957 352.968 94.8079 353.103 94.8084ZM344.687 313.934H180.546V46.092H344.687V313.934Z" fill="#263238"/>
<path d="M332.49 74.8203H192.977C190.035 74.8203 187.65 76.9019 187.65 79.4697V120.877C187.65 123.445 190.035 125.526 192.977 125.526H332.49C335.431 125.526 337.816 123.445 337.816 120.877V79.4697C337.816 76.9019 335.431 74.8203 332.49 74.8203Z" fill="#263238" stroke="#263238" stroke-linecap="round" stroke-linejoin="round"/>
<path d="M250.948 80.5703V87.9233H250.389V80.5703H250.948Z" fill="white"/>
<path d="M252.419 87.9233H251.91V80.5703H252.636L255.141 86.7865V80.5703H255.65V87.9233H255.033L252.394 81.3646L252.419 87.9233Z" fill="white"/>
<path d="M260.226 82.3695V82.9816H259.7V82.3403C259.7 81.546 259.349 80.9484 258.423 80.9484C257.496 80.9484 257.145 81.546 257.145 82.3403V86.1662C257.145 86.9606 257.496 87.5436 258.423 87.5436C259.349 87.5436 259.7 86.9606 259.7 86.1662V85.2917H260.226V86.1371C260.226 87.201 259.7 88.0027 258.406 88.0027C257.112 88.0027 256.586 87.201 256.586 86.1371V82.3695C256.586 81.3055 257.12 80.5039 258.406 80.5039C259.692 80.5039 260.226 81.3055 260.226 82.3695Z" fill="white"/>
<path d="M261.09 82.3695C261.09 81.2982 261.658 80.5039 262.935 80.5039C264.212 80.5039 264.805 81.2982 264.805 82.3695V86.1371C264.805 87.2083 264.237 88.0027 262.935 88.0027C261.632 88.0027 261.09 87.2083 261.09 86.1371V82.3695ZM261.649 86.1662C261.649 86.9678 262.008 87.5581 262.935 87.5581C263.862 87.5581 264.246 86.9678 264.246 86.1662V82.3403C264.246 81.5387 263.878 80.9484 262.935 80.9484C261.991 80.9484 261.649 81.5387 261.649 82.3403V86.1662Z" fill="white"/>
<path d="M268.555 87.9233H267.996L266.218 81.4084V87.967H265.717V80.5703H266.552L268.322 87.0853L270.083 80.5703H270.876V87.9233H270.35V81.3646L268.555 87.9233Z" fill="white"/>
<path d="M274.669 83.9808V84.4181H272.365V87.4934H275.136V87.9233H271.797V80.5703H275.136V81.0148H272.365V83.9808H274.669Z" fill="white"/>
<path d="M225.094 98.4075V97.3945H227.165V98.4439C228.96 98.7646 229.886 99.967 229.886 101.884V102.321H227.49V101.738C227.49 100.732 227.031 100.353 226.221 100.353C225.412 100.353 224.952 100.732 224.952 101.738C224.952 104.653 229.911 104.777 229.911 108.799C229.911 110.709 228.96 111.933 227.165 112.261V113.281H225.094V112.261C223.274 111.933 222.348 110.709 222.348 108.799V107.83H224.727V108.938C224.727 109.943 225.236 110.308 226.046 110.308C226.856 110.308 227.357 109.943 227.357 108.938C227.357 106.023 222.406 105.906 222.406 101.884C222.423 99.9524 223.316 98.75 225.094 98.4075Z" fill="white"/>
<path d="M233.176 100.033C235.138 100.033 235.572 99.2091 235.964 98.2617H237.676V112.341H235.171V101.607H233.209L233.176 100.033Z" fill="white"/>
<path d="M243.019 107.794V109.105C243.019 110.111 243.52 110.468 244.33 110.468C245.14 110.468 245.641 110.111 245.641 109.105V106.008C245.641 105.003 245.14 104.616 244.33 104.616C243.52 104.616 243.019 105.003 243.019 106.008V106.431H240.59L241.049 98.2617H247.728V100.309H243.328L243.119 103.669C243.347 103.339 243.673 103.07 244.063 102.89C244.453 102.71 244.892 102.627 245.332 102.649C247.202 102.649 248.145 103.793 248.145 105.862V109.003C248.145 111.255 246.851 112.538 244.363 112.538C241.876 112.538 240.59 111.241 240.59 108.967V107.794H243.019Z" fill="white"/>
<path d="M249.855 112.343V110.215H252.277V112.124L251.166 114.354H250.131L250.799 112.343H249.855Z" fill="white"/>
<path d="M253.945 101.769C253.945 99.393 255.189 98.125 257.819 98.125C260.324 98.125 261.593 99.4149 261.593 101.667V102.031H259.197V101.528C259.197 100.523 258.696 100.136 257.886 100.136C257.076 100.136 256.483 100.523 256.483 101.871V104.443C256.681 104.051 257.012 103.721 257.431 103.498C257.851 103.275 258.339 103.17 258.829 103.197C260.699 103.197 261.643 104.341 261.643 106.411V108.991C261.643 111.242 260.282 112.525 257.794 112.525C255.306 112.525 253.945 111.242 253.945 108.969V101.769ZM256.45 106.571V109.107C256.45 110.113 256.951 110.47 257.761 110.47C258.57 110.47 259.071 110.113 259.071 109.107V106.571C259.071 105.565 258.57 105.187 257.761 105.187C256.951 105.187 256.517 105.565 256.517 106.571H256.45Z" fill="white"/>
<path d="M270.709 98.2617V100.193L266.978 112.341H264.473L268.138 100.309H263.129V98.2982L270.709 98.2617Z" fill="white"/>
<path d="M276.028 112.503C273.473 112.503 272.062 111.221 272.062 108.969V107.861C272.062 106.513 272.53 105.463 273.632 104.946C272.572 104.443 272.062 103.489 272.062 102.111V101.667C272.062 99.4149 273.473 98.125 276.028 98.125C278.583 98.125 279.994 99.4149 279.994 101.667V102.111C279.994 103.496 279.459 104.443 278.424 104.946C279.526 105.485 279.994 106.535 279.994 107.861V108.969C279.994 111.242 278.583 112.503 276.028 112.503ZM274.6 102.497C274.6 103.62 275.202 103.955 276.028 103.955C276.855 103.955 277.456 103.591 277.456 102.497V101.71C277.456 100.442 276.838 100.1 276.028 100.1C275.218 100.1 274.6 100.442 274.6 101.71V102.497ZM276.028 110.514C276.863 110.514 277.431 110.171 277.456 108.925V107.599C277.456 106.491 276.93 106.01 276.028 106.01C275.126 106.01 274.6 106.491 274.6 107.599V108.903C274.6 110.149 275.218 110.514 276.028 110.514Z" fill="white"/>
<path d="M283.951 110.215V112.343H281.496V110.215H283.951Z" fill="white"/>
<path d="M289.504 100.113C288.669 100.113 288.193 100.499 288.193 101.505V103.013H285.797V101.643C285.797 99.3914 287.091 98.1016 289.579 98.1016C292.067 98.1016 293.352 99.3914 293.352 101.643C293.352 106.067 288.343 107.714 288.343 110.031C288.331 110.13 288.331 110.231 288.343 110.33H293.135V112.341H285.805V110.614C285.805 106.468 290.814 105.79 290.814 101.723C290.823 100.455 290.313 100.113 289.504 100.113Z" fill="white"/>
<path d="M294.756 101.769C294.756 99.393 296 98.125 298.63 98.125C301.134 98.125 302.411 99.4149 302.411 101.667V102.031H300.015V101.528C300.015 100.523 299.506 100.136 298.696 100.136C297.887 100.136 297.294 100.523 297.294 101.871V104.443C297.493 104.05 297.825 103.72 298.246 103.497C298.667 103.274 299.157 103.169 299.648 103.197C301.51 103.197 302.453 104.341 302.453 106.411V108.991C302.453 111.242 301.092 112.525 298.605 112.525C296.117 112.525 294.756 111.242 294.756 108.991V101.769ZM297.26 106.571V109.107C297.26 110.113 297.77 110.47 298.571 110.47C299.373 110.47 299.89 110.113 299.89 109.107V106.571C299.89 105.565 299.381 105.187 298.571 105.187C297.761 105.187 297.294 105.565 297.294 106.571H297.26Z" fill="white"/>
<path d="M333.066 138.832H192.401C189.459 138.832 187.074 140.914 187.074 143.481V291.722C187.074 294.29 189.459 296.372 192.401 296.372H333.066C336.007 296.372 338.392 294.29 338.392 291.722V143.481C338.392 140.914 336.007 138.832 333.066 138.832Z" fill="#D9D9D9" stroke="#263238" stroke-linecap="round" stroke-linejoin="round"/>
<path d="M336.923 197.189H273.54V158.609H187.074V296.342H336.923C337.312 296.342 337.686 296.207 337.962 295.966C338.237 295.725 338.392 295.399 338.392 295.059V198.472C338.392 198.131 338.237 197.805 337.962 197.565C337.686 197.324 337.312 197.189 336.923 197.189Z" fill="white" stroke="#263238" stroke-linecap="round" stroke-linejoin="round"/>
<path d="M209.232 242.277H196.643V268.825H209.232V242.277Z" fill="#92E3A9" stroke="#263238" stroke-linecap="round" stroke-linejoin="round"/>
<path d="M229.519 225.246H216.93V268.825H229.519V225.246Z" fill="#263238" stroke="#263238" stroke-linecap="round" stroke-linejoin="round"/>
<path d="M249.799 239.27H237.209V268.827H249.799V239.27Z" fill="#92E3A9" stroke="#263238" stroke-linecap="round" stroke-linejoin="round"/>
<path d="M270.086 234.617H257.496V268.824H270.086V234.617Z" fill="#263238" stroke="#263238" stroke-linecap="round" stroke-linejoin="round"/>
<path d="M290.363 232.758H277.773V268.823H290.363V232.758Z" fill="#92E3A9" stroke="#263238" stroke-linecap="round" stroke-linejoin="round"/>
<path d="M310.65 209.215H298.061V268.826H310.65V209.215Z" fill="#263238" stroke="#263238" stroke-linecap="round" stroke-linejoin="round"/>
<path d="M330.929 216.223H318.34V268.823H330.929V216.223Z" fill="#92E3A9" stroke="#263238" stroke-linecap="round" stroke-linejoin="round"/>
<path d="M200.348 276.898V277.037H199.897V276.877C199.897 276.206 199.605 275.703 198.82 275.703C198.035 275.703 197.743 276.199 197.743 276.862C197.743 278.4 200.356 278.421 200.356 280.163C200.356 281.074 199.905 281.737 198.803 281.737C197.701 281.737 197.242 281.074 197.242 280.163V279.835H197.693V280.192C197.693 280.863 197.994 281.351 198.787 281.351C199.58 281.351 199.88 280.863 199.88 280.192C199.88 278.676 197.276 278.647 197.276 276.891C197.276 275.944 197.743 275.332 198.812 275.324C199.88 275.317 200.348 275.987 200.348 276.898Z" fill="#263238"/>
<path d="M201.577 280.163C201.577 280.841 201.869 281.358 202.662 281.358C203.455 281.358 203.748 280.841 203.748 280.163V275.375H204.19V280.141C204.19 281.045 203.756 281.737 202.654 281.737C201.552 281.737 201.109 281.045 201.109 280.141V275.375H201.577V280.163Z" fill="#263238"/>
<path d="M205.44 281.686H205.006V275.375H205.624L207.794 280.702V275.375H208.228V281.686H207.702L205.44 276.06V281.686Z" fill="#263238"/>
<path d="M219.124 281.679H218.648L217.121 276.096V281.686H216.703V275.375H217.379L218.899 280.957L220.41 275.375H221.086V281.686H220.635V276.082L219.124 281.679Z" fill="#263238"/>
<path d="M221.889 276.92C221.889 276.002 222.373 275.324 223.467 275.324C224.56 275.324 225.069 276.002 225.069 276.92V280.141C225.069 281.067 224.585 281.737 223.467 281.737C222.348 281.737 221.889 281.067 221.889 280.141V276.92ZM222.365 280.17C222.365 280.855 222.673 281.358 223.467 281.358C224.26 281.358 224.594 280.855 224.594 280.17V276.891C224.594 276.206 224.276 275.703 223.467 275.703C222.657 275.703 222.365 276.206 222.365 276.891V280.17Z" fill="#263238"/>
<path d="M226.286 281.686H225.852V275.375H226.469L228.64 280.702V275.375H229.074V281.686H228.548L226.286 276.06V281.686Z" fill="#263238"/>
<path d="M239.62 281.686V275.754H238.15V275.375H241.565V275.754H240.096V281.686H239.62Z" fill="#263238"/>
<path d="M242.616 280.163C242.616 280.841 242.9 281.358 243.693 281.358C244.487 281.358 244.779 280.841 244.779 280.163V275.375H245.23V280.141C245.23 281.045 244.795 281.737 243.685 281.737C242.575 281.737 242.141 281.045 242.141 280.141V275.375H242.616V280.163Z" fill="#263238"/>
<path d="M248.495 278.297V278.676H246.516V281.307H248.937V281.686H246.082V275.375H248.937V275.754H246.516V278.297H248.495Z" fill="#263238"/>
<path d="M259.557 281.686H258.897L257.729 275.375H258.196L259.273 281.125L260.333 275.404H260.834L261.844 281.11L262.888 275.375H263.314L262.153 281.686H261.535L260.567 276.519L259.557 281.686Z" fill="#263238"/>
<path d="M266.472 278.297V278.676H264.502V281.307H266.873V281.686H264.051V275.375H266.898V275.754H264.527V278.297H266.472Z" fill="#263238"/>
<path d="M269.266 275.375C270.377 275.375 270.869 276.016 270.869 276.942V280.119C270.869 281.045 270.377 281.686 269.266 281.686H267.672V275.375H269.266ZM269.266 281.307C270.101 281.307 270.402 280.833 270.402 280.134V276.927C270.402 276.235 270.06 275.754 269.266 275.754H268.139V281.307H269.266Z" fill="#263238"/>
<path d="M278.993 281.686V275.754H277.523V275.375H280.946V275.754H279.469V281.686H278.993Z" fill="#263238"/>
<path d="M282.014 278.72V281.686H281.547V275.375H282.014V278.341H284.269V275.375H284.753V281.686H284.269V278.72H282.014Z" fill="#263238"/>
<path d="M286.036 280.163C286.036 280.841 286.32 281.358 287.113 281.358C287.907 281.358 288.199 280.841 288.199 280.163V275.375H288.65V280.141C288.65 281.045 288.215 281.737 287.105 281.737C285.995 281.737 285.561 281.045 285.561 280.141V275.375H286.036V280.163Z" fill="#263238"/>
<path d="M302.418 278.452V278.853H300.548V281.709H300.072V275.398H302.819V275.777H300.548V278.474L302.418 278.452Z" fill="#263238"/>
<path d="M305.057 275.375C306.159 275.375 306.601 275.907 306.601 276.832V277.379C306.601 278.108 306.276 278.545 305.558 278.683C305.888 278.74 306.181 278.906 306.375 279.146C306.57 279.386 306.651 279.682 306.601 279.973V280.957C306.587 281.209 306.647 281.46 306.777 281.686H306.284C306.16 281.459 306.106 281.208 306.126 280.957V279.966C306.126 279.128 305.6 278.895 304.773 278.895H304.038V281.715H303.562V275.404L305.057 275.375ZM304.79 278.487C305.625 278.487 306.126 278.283 306.126 277.43V276.84C306.126 276.162 305.825 275.754 305.04 275.754H304.038V278.487H304.79Z" fill="#263238"/>
<path d="M308.013 275.375V281.686H307.537V275.375H308.013Z" fill="#263238"/>
<path d="M324.266 276.898V277.037H323.807V276.877C323.807 276.206 323.523 275.703 322.739 275.703C321.954 275.703 321.662 276.199 321.662 276.862C321.662 278.4 324.275 278.421 324.275 280.163C324.275 281.074 323.816 281.737 322.714 281.737C321.612 281.737 321.152 281.074 321.152 280.163V279.835H321.612V280.192C321.612 280.863 321.912 281.351 322.705 281.351C323.498 281.351 323.799 280.863 323.799 280.192C323.799 278.676 321.186 278.647 321.186 276.891C321.186 275.944 321.662 275.332 322.722 275.324C323.782 275.317 324.266 275.987 324.266 276.898Z" fill="#263238"/>
<path d="M325.743 280.31L325.376 281.709H324.908L326.486 275.391H327.179L328.79 281.709H328.314L327.955 280.31H325.743ZM325.81 279.953H327.914L326.853 275.872L325.81 279.953Z" fill="#263238"/>
<path d="M330.37 281.686V275.754H328.9V275.375H332.323V275.754H330.846V281.686H330.37Z" fill="#263238"/>
<path d="M232.132 146.359V146.512H231.597V146.323C231.597 145.55 231.263 144.96 230.345 144.96C229.427 144.96 229.093 145.536 229.093 146.316C229.093 148.108 232.14 148.138 232.14 150.171C232.14 151.227 231.614 152.007 230.32 152.007C229.026 152.007 228.5 151.227 228.5 150.171V149.792H229.034V150.2C229.034 150.987 229.385 151.555 230.312 151.555C231.238 151.555 231.589 150.987 231.589 150.2C231.589 148.429 228.533 148.4 228.533 146.345C228.533 145.244 229.093 144.523 230.337 144.516C231.581 144.508 232.132 145.295 232.132 146.359Z" fill="#263238"/>
<path d="M234.744 144.582C236.046 144.582 236.556 145.311 236.556 146.367V147.169C236.556 148.335 235.938 148.918 234.602 148.918H233.55V151.95H233.074V144.582H234.744ZM234.602 148.474C235.579 148.474 235.996 148.095 235.996 147.198V146.338C235.996 145.537 235.687 145.019 234.744 145.019H233.55V148.474H234.602Z" fill="#263238"/>
<path d="M240.278 147.993V148.43H237.974V151.505H240.746V151.95H237.406V144.582H240.746V145.019H237.974V147.993H240.278Z" fill="#263238"/>
<path d="M242.16 151.95H241.65V144.582H242.377L244.881 150.798V144.582H245.391V151.95H244.764L242.126 145.391L242.16 151.95Z" fill="#263238"/>
<path d="M248.221 144.582C249.523 144.582 250.091 145.311 250.091 146.411V150.113C250.091 151.199 249.523 151.95 248.221 151.95H246.359V144.582H248.221ZM248.221 151.505C249.165 151.505 249.549 150.944 249.549 150.135V146.389C249.549 145.58 249.156 145.019 248.221 145.019H246.935V151.505H248.221Z" fill="#263238"/>
<path d="M251.557 144.582V151.95H250.998V144.582H251.557Z" fill="#263238"/>
<path d="M253.029 151.95H252.52V144.582H253.246L255.75 150.798V144.582H256.26V151.95H255.642L253.004 145.391L253.029 151.95Z" fill="#263238"/>
<path d="M260.832 146.383V146.951H260.306V146.368C260.306 145.581 259.956 144.984 259.029 144.984C258.102 144.984 257.743 145.581 257.743 146.368V150.201C257.743 150.988 258.094 151.579 259.029 151.579C259.964 151.579 260.306 150.988 260.306 150.201V148.613H259.179V148.168H260.849V150.172C260.849 151.236 260.323 152.031 259.029 152.031C257.735 152.031 257.209 151.236 257.209 150.172V146.405C257.209 145.341 257.743 144.539 259.029 144.539C260.315 144.539 260.832 145.319 260.832 146.383Z" fill="#263238"/>
<path d="M267.188 146.359V146.512H266.654V146.323C266.654 145.55 266.32 144.96 265.402 144.96C264.483 144.96 264.149 145.536 264.149 146.316C264.149 148.108 267.197 148.138 267.197 150.171C267.197 151.227 266.671 152.007 265.377 152.007C264.083 152.007 263.557 151.227 263.557 150.171V149.792H264.091V150.2C264.091 150.987 264.442 151.555 265.368 151.555C266.295 151.555 266.646 150.987 266.646 150.2C266.646 148.429 263.59 148.4 263.59 146.345C263.59 145.244 264.149 144.523 265.393 144.516C266.637 144.508 267.188 145.295 267.188 146.359Z" fill="#263238"/>
<path d="M268.614 150.171C268.614 150.959 268.956 151.571 269.882 151.571C270.809 151.571 271.151 150.959 271.151 150.171V144.582H271.669V150.15C271.669 151.199 271.16 152.008 269.874 152.008C268.588 152.008 268.062 151.199 268.062 150.15V144.582H268.614V150.171Z" fill="#263238"/>
<path d="M275.451 151.935H274.9L273.147 145.42V151.979H272.654V144.582H273.447L275.217 151.097L276.979 144.582H277.772V151.95H277.246V145.391L275.451 151.935Z" fill="#263238"/>
<path d="M281.537 151.935H280.986L279.2 145.42V151.979H278.707V144.582H279.5L281.27 151.097L283.032 144.582H283.866V151.95H283.34V145.391L281.537 151.935Z" fill="#263238"/>
<path d="M285.595 150.316L285.177 151.949H284.668L286.505 144.566H287.34L289.218 151.949H288.667L288.241 150.316H285.595ZM285.67 149.864H288.174L286.93 145.098L285.67 149.864Z" fill="#263238"/>
<path d="M291.808 144.582C293.094 144.582 293.612 145.201 293.612 146.244V146.885C293.673 147.226 293.582 147.575 293.357 147.858C293.131 148.142 292.789 148.339 292.401 148.408C292.786 148.475 293.127 148.67 293.353 148.95C293.578 149.231 293.671 149.577 293.612 149.916V151.061C293.585 151.368 293.657 151.676 293.82 151.95H293.244C293.093 151.673 293.029 151.366 293.061 151.061V149.909C293.061 148.925 292.443 148.656 291.483 148.656H290.598V151.95H290.047V144.582H291.808ZM291.491 148.226C292.485 148.226 293.061 147.985 293.061 146.994V146.302C293.061 145.508 292.71 145.034 291.792 145.034H290.598V148.226H291.491Z" fill="#263238"/>
<path d="M296.317 149.138L294.422 144.605H294.998L296.618 148.475L298.229 144.605H298.771L296.868 149.138V151.973H296.317V149.138Z" fill="#263238"/>
<path d="M194.809 171.981H194.041L192.68 164.613H193.222L194.483 171.332L195.719 164.65H196.303L197.488 171.31L198.707 164.613H199.2L197.847 171.981H197.129L195.994 165.954L194.809 171.981Z" fill="#263238"/>
<path d="M202.905 168.024V168.468H200.609V171.544H203.38V171.981H200.041V164.613H203.38V165.058H200.609V168.024H202.905Z" fill="#263238"/>
<path d="M207.138 168.024V168.468H204.833V171.544H207.605V171.981H204.266V164.613H207.605V165.058H204.833V168.024H207.138Z" fill="#263238"/>
<path d="M209.641 168.519L209.065 169.321V171.981H208.514V164.613H209.065V168.512L211.811 164.613H212.396L209.983 168.082L212.546 172.017H211.97L209.641 168.519Z" fill="#263238"/>
<path d="M213.381 171.981V164.613H213.932V171.544H216.587V171.981H213.381Z" fill="#263238"/>
<path d="M218.407 169.153L216.512 164.613H217.088L218.707 168.49L220.319 164.613H220.861L218.958 169.153V171.981H218.407V169.153Z" fill="#263238"/>
<path d="M194.838 179.569V178.84H196.341V179.569C197.635 179.794 198.303 180.662 198.303 182.039V182.36H196.574V181.93C196.574 181.201 196.241 180.931 195.664 180.931C195.088 180.931 194.755 181.208 194.755 181.93C194.755 184.014 198.319 184.116 198.319 187.031C198.319 188.408 197.635 189.29 196.341 189.523V190.252H194.838V189.523C193.527 189.29 192.859 188.408 192.859 187.031V186.302H194.588V187.096C194.588 187.825 194.955 188.08 195.531 188.08C196.107 188.08 196.474 187.818 196.474 187.096C196.474 185.012 192.909 184.91 192.909 181.995C192.909 180.676 193.561 179.809 194.838 179.569Z" fill="#263238"/>
<path d="M204.882 187.075C204.882 188.78 203.989 189.706 202.093 189.706C200.198 189.706 199.38 188.78 199.38 187.162V186.9H201.1V187.264C201.1 187.993 201.467 188.263 202.043 188.263C202.619 188.263 203.02 187.986 203.02 187.031V185.18C202.879 185.46 202.643 185.695 202.345 185.855C202.047 186.015 201.7 186.092 201.35 186.077C200.006 186.077 199.33 185.253 199.33 183.759V181.93C199.33 180.312 200.307 179.387 202.093 179.387C203.88 179.387 204.865 180.312 204.865 181.93L204.882 187.075ZM203.02 183.613V181.792C203.02 181.063 202.661 180.808 202.077 180.808C201.492 180.808 201.133 181.07 201.133 181.792V183.613C201.133 184.342 201.501 184.612 202.077 184.612C202.653 184.612 203.02 184.342 203.02 183.613Z" fill="#263238"/>
<path d="M205.943 181.93C205.943 180.312 206.92 179.387 208.707 179.387C210.493 179.387 211.478 180.312 211.478 181.93V187.199C211.478 188.817 210.502 189.742 208.707 189.742C206.912 189.742 205.943 188.817 205.943 187.199V181.93ZM207.763 187.301C207.763 188.03 208.131 188.299 208.707 188.299C209.283 188.299 209.658 188.022 209.658 187.301V181.828C209.658 181.099 209.291 180.83 208.707 180.83C208.122 180.83 207.763 181.107 207.763 181.828V187.301Z" fill="#263238"/>
<path d="M212.504 181.93C212.504 180.312 213.481 179.387 215.276 179.387C217.071 179.387 218.047 180.276 218.047 181.93V187.199C218.047 188.817 217.071 189.742 215.284 189.742C213.497 189.742 212.512 188.817 212.512 187.199L212.504 181.93ZM214.324 187.301C214.324 188.03 214.691 188.299 215.276 188.299C215.86 188.299 216.219 188.022 216.219 187.301V181.828C216.219 181.099 215.852 180.83 215.276 180.83C214.7 180.83 214.324 181.107 214.324 181.828V187.301Z" fill="#263238"/>
<path d="M220.978 188.059V189.589H219.217V188.059H220.978Z" fill="#263238"/>
<path d="M224.918 189.705C223.081 189.705 222.071 188.78 222.071 187.162V186.368C222.011 185.959 222.085 185.543 222.285 185.169C222.484 184.795 222.801 184.478 223.198 184.254C222.806 184.044 222.492 183.74 222.292 183.378C222.092 183.017 222.015 182.613 222.071 182.214V181.93C222.071 180.312 223.081 179.386 224.918 179.386C225.307 179.352 225.701 179.395 226.069 179.512C226.437 179.628 226.771 179.815 227.045 180.059C227.319 180.304 227.527 180.599 227.653 180.922C227.779 181.246 227.82 181.59 227.773 181.93V182.25C227.823 182.649 227.744 183.051 227.545 183.412C227.346 183.773 227.034 184.077 226.646 184.291C227.039 184.518 227.352 184.836 227.551 185.209C227.75 185.582 227.827 185.995 227.773 186.404V187.199C227.813 187.535 227.767 187.875 227.638 188.194C227.509 188.514 227.3 188.804 227.027 189.044C226.754 189.284 226.423 189.467 226.058 189.582C225.693 189.696 225.304 189.739 224.918 189.705ZM223.891 182.52C223.891 183.329 224.325 183.591 224.918 183.591C225.51 183.591 225.945 183.329 225.945 182.52V181.93C225.945 181.019 225.502 180.771 224.918 180.771C224.333 180.771 223.891 181.041 223.891 181.93V182.52ZM224.918 188.262C225.502 188.262 225.928 188.015 225.945 187.118V186.178C225.945 185.384 225.561 185.034 224.918 185.034C224.275 185.034 223.891 185.384 223.891 186.178V187.118C223.891 188.015 224.342 188.262 224.918 188.262Z" fill="#263238"/>
<path d="M234.222 187.075C234.222 188.78 233.328 189.706 231.433 189.706C229.538 189.706 228.72 188.78 228.72 187.162V186.9H230.44V187.264C230.44 187.993 230.807 188.263 231.383 188.263C231.959 188.263 232.393 187.986 232.393 187.017V185.166C232.252 185.445 232.016 185.68 231.718 185.84C231.42 186.001 231.073 186.078 230.723 186.062C229.379 186.062 228.703 185.239 228.703 183.745V181.93C228.703 180.312 229.68 179.387 231.467 179.387C233.253 179.387 234.238 180.312 234.238 181.93L234.222 187.075ZM232.393 183.613V181.792C232.393 181.063 232.034 180.808 231.45 180.808C230.865 180.808 230.506 181.07 230.506 181.792V183.613C230.506 184.342 230.874 184.612 231.45 184.612C232.026 184.612 232.393 184.342 232.393 183.613Z" fill="#263238"/>
<path d="M282.841 171.974H282.332L280.545 165.459V171.981H280.053V164.613H280.846L282.624 171.128L284.377 164.613H285.212V171.981H284.678V165.422L282.841 171.974Z" fill="#263238"/>
<path d="M286.064 166.417C286.064 165.346 286.624 164.559 287.909 164.559C289.195 164.559 289.771 165.346 289.771 166.417V170.184C289.771 171.263 289.212 172.05 287.909 172.05C286.607 172.05 286.064 171.263 286.064 170.184V166.417ZM286.615 170.221C286.615 171.015 286.974 171.606 287.909 171.606C288.845 171.606 289.22 171.015 289.22 170.221V166.388C289.22 165.586 288.845 164.996 287.909 164.996C286.974 164.996 286.615 165.586 286.615 166.388V170.221Z" fill="#263238"/>
<path d="M291.189 171.981H290.68V164.613H291.406L293.911 170.837V164.613H294.412V171.981H293.802L291.156 165.422L291.189 171.981Z" fill="#263238"/>
<path d="M296.825 171.981V165.058H295.113V164.613H299.104V165.058H297.359V171.981H296.825Z" fill="#263238"/>
<path d="M300.338 168.519V171.981H299.787V164.613H300.338V168.082H302.968V164.621H303.536V171.988H302.968V168.519H300.338Z" fill="#263238"/>
<path d="M304.498 171.981V164.613H305.057V171.544H307.704V171.981H304.498Z" fill="#263238"/>
<path d="M309.522 169.153L307.627 164.613H308.211L309.823 168.49L311.442 164.613H311.985L310.081 169.153V171.981H309.522V169.153Z" fill="#263238"/>
<path d="M282.064 179.569V178.84H283.558V179.569C284.852 179.794 285.512 180.662 285.512 182.039V182.36H283.784V181.93C283.784 181.201 283.458 180.931 282.874 180.931C282.289 180.931 281.964 181.208 281.964 181.93C281.964 184.014 285.529 184.116 285.529 187.031C285.529 188.408 284.852 189.29 283.558 189.523V190.252H282.064V189.523C280.753 189.29 280.094 188.408 280.094 187.031V186.302H281.814V187.096C281.814 187.825 282.181 188.08 282.757 188.08C283.333 188.08 283.7 187.818 283.7 187.096C283.7 185.012 280.144 184.91 280.144 181.995C280.144 180.676 280.787 179.809 282.064 179.569Z" fill="#263238"/>
<path d="M287.883 180.737C288.339 180.788 288.801 180.686 289.173 180.45C289.546 180.214 289.801 179.863 289.886 179.469H291.114V189.591H289.294V181.866H287.883V180.737Z" fill="#263238"/>
<path d="M293.186 181.93C293.186 180.312 294.162 179.387 295.957 179.387C297.752 179.387 298.721 180.312 298.721 181.93V187.199C298.721 188.817 297.744 189.742 295.957 189.742C294.171 189.742 293.186 188.78 293.186 187.162V181.93ZM295.006 187.301C295.006 188.03 295.373 188.299 295.957 188.299C296.542 188.299 296.901 188.022 296.901 187.301V181.828C296.901 181.099 296.533 180.83 295.957 180.83C295.381 180.83 295.006 181.107 295.006 181.828V187.301Z" fill="#263238"/>
<path d="M299.861 189.589V188.059H301.623V189.436L300.788 191.039H300.045L300.529 189.582L299.861 189.589Z" fill="#263238"/>
<path d="M305.63 180.793C305.054 180.793 304.687 181.07 304.687 181.792V182.877H302.959V181.93C302.959 180.312 303.894 179.387 305.68 179.387C307.467 179.387 308.402 180.312 308.402 181.93C308.402 185.115 304.77 186.302 304.77 187.964C304.762 188.037 304.762 188.11 304.77 188.183H308.21V189.64H302.934V188.401C302.934 185.421 306.549 184.925 306.549 182.003C306.54 181.041 306.215 180.793 305.63 180.793Z" fill="#263238"/>
<path d="M309.382 181.93C309.382 180.312 310.359 179.387 312.146 179.387C313.932 179.387 314.893 180.276 314.893 181.93V187.199C314.893 188.817 313.916 189.742 312.121 189.742C310.326 189.742 309.357 188.817 309.357 187.199L309.382 181.93ZM311.202 187.301C311.202 188.03 311.57 188.299 312.146 188.299C312.722 188.299 313.089 188.022 313.089 187.301V181.828C313.089 181.099 312.73 180.83 312.146 180.83C311.561 180.83 311.202 181.107 311.202 181.828V187.301Z" fill="#263238"/>
<path d="M315.943 181.93C315.943 180.312 316.92 179.387 318.707 179.387C320.493 179.387 321.478 180.312 321.478 181.93V187.199C321.478 188.817 320.502 189.742 318.707 189.742C316.912 189.742 315.943 188.817 315.943 187.199V181.93ZM317.763 187.301C317.763 188.03 318.131 188.299 318.707 188.299C319.283 188.299 319.658 188.022 319.658 187.301V181.828C319.658 181.099 319.291 180.83 318.707 180.83C318.122 180.83 317.763 181.107 317.763 181.828V187.301Z" fill="#263238"/>
<path d="M324.408 188.059V189.589H322.654V188.059H324.408Z" fill="#263238"/>
<path d="M327.412 186.303V187.243C327.412 187.972 327.771 188.227 328.355 188.227C328.94 188.227 329.299 187.964 329.299 187.243V185.013C329.299 184.284 328.931 184.015 328.355 184.015C327.779 184.015 327.412 184.291 327.412 185.013V185.319H325.684L326.018 179.445H330.826V180.903H327.662L327.512 183.322C327.675 183.086 327.909 182.893 328.188 182.764C328.468 182.636 328.783 182.577 329.098 182.593C330.442 182.593 331.127 183.424 331.127 184.911V187.17C331.127 188.788 330.192 189.713 328.405 189.713C326.619 189.713 325.684 188.788 325.684 187.17V186.303H327.412Z" fill="#263238"/>
</svg>
