<svg width="38" height="38" viewBox="0 0 38 38" fill="none" xmlns="http://www.w3.org/2000/svg">
<path d="M8.83661 16.0711V2.85389C8.83661 2.63543 8.83661 2.5262 8.8594 2.42128C8.87085 2.3686 8.88653 2.31692 8.90631 2.26676C8.94569 2.16688 9.00641 2.07609 9.12786 1.8945C9.21426 1.76531 9.25746 1.70071 9.30959 1.644C9.3358 1.61547 9.36366 1.58849 9.393 1.5632C9.45135 1.51291 9.51729 1.47179 9.64916 1.38955L9.64917 1.38955L10.1328 1.08797C10.3526 0.950846 10.4626 0.882283 10.5849 0.844082C10.7072 0.805881 10.8366 0.799689 11.0955 0.787303L11.4225 0.771654L11.9146 0.794059C12.1133 0.803105 12.2126 0.807628 12.3085 0.831349C12.4045 0.85507 12.4945 0.897377 12.6745 0.981992L12.7887 1.03571C12.9406 1.10709 13.0165 1.14278 13.0851 1.19035C13.1538 1.23791 13.2139 1.29648 13.334 1.4136L13.3891 1.46728L13.3891 1.46729C13.4499 1.52659 13.4803 1.55624 13.5081 1.58832C13.5358 1.6204 13.5608 1.65476 13.6108 1.72349L13.6694 1.80415L13.6694 1.80415C13.8589 2.06487 13.9537 2.19522 14.0026 2.3459C14.0516 2.49658 14.0516 2.65774 14.0516 2.98005V4.48392C14.0516 6.60241 14.0516 7.66166 14.6803 7.91307C15.309 8.16448 16.0394 7.39731 17.5001 5.86298L21.9859 1.15123C22.1466 0.982473 22.2269 0.898095 22.3235 0.834814C22.4201 0.771533 22.5295 0.731568 22.7484 0.651639L22.8304 0.621667C23.1787 0.494493 23.3528 0.430906 23.5341 0.432443C23.7153 0.43398 23.8883 0.500512 24.2344 0.633575L24.3881 0.692681L24.3881 0.692685C24.5431 0.752311 24.6207 0.782125 24.6919 0.824075C24.7632 0.866027 24.8269 0.919357 24.9542 1.02602L25.3822 1.38438C25.4664 1.45492 25.5086 1.49019 25.5463 1.5295C25.5888 1.57381 25.6272 1.62193 25.6608 1.67327C25.6907 1.71882 25.7157 1.76774 25.7656 1.86558L25.7657 1.86562C25.848 2.027 25.8892 2.10769 25.915 2.19242C25.944 2.28789 25.9586 2.38716 25.9582 2.48695C25.9579 2.57551 25.9417 2.66463 25.9092 2.84288L25.6841 4.07815C25.6266 4.39396 25.5978 4.55186 25.5231 4.69087C25.4483 4.82987 25.3325 4.94096 25.1008 5.16315L12.2209 17.5146C10.7749 18.9013 10.0519 19.5946 9.44427 19.3354C8.83661 19.0762 8.83661 18.0745 8.83661 16.0711Z" fill="#78C192"/>
<path d="M0.912415 36.7662L0.623647 36.5346C0.453126 36.3978 0.320589 36.2196 0.238736 36.0169C0.177401 35.865 0.145874 35.7027 0.145874 35.5389V35.5104C0.145874 35.4235 0.15384 35.3368 0.169673 35.2513L0.195482 35.1119C0.304955 34.5209 0.591412 33.9771 1.0169 33.5525L33.5689 1.07043C34.0122 0.628152 34.6127 0.379761 35.2389 0.379761H35.3792C35.9155 0.379761 36.4299 0.592523 36.8096 0.971364C36.9921 1.15349 37.1381 1.36878 37.2399 1.60569L37.3295 1.8143C37.5949 2.43227 37.6576 3.1248 37.5114 3.78128C37.3763 4.38772 37.0686 4.94877 36.6273 5.38614L4.97451 36.7604C4.79896 36.9344 4.59607 37.0784 4.37392 37.1868C4.06524 37.3373 3.72632 37.4155 3.38289 37.4155H3.06949H2.82941C2.43606 37.4155 2.0462 37.3419 1.67996 37.1984L1.61507 37.1729C1.36165 37.0736 1.12474 36.9365 0.912415 36.7662Z" fill="#5AB4D6"/>
<path d="M36.7112 27.6639L28.3311 36.4061C27.9449 36.809 27.4621 37.1066 26.9287 37.2707C26.6166 37.3666 26.292 37.4154 25.9656 37.4154H25.6227H25.258C24.9473 37.4154 24.6395 37.3544 24.3523 37.2358L24.3219 37.2232C23.9991 37.09 23.712 36.8829 23.4836 36.6186L23.3776 36.4959C23.2063 36.2977 23.0867 36.0602 23.0294 35.8046C22.9847 35.6052 22.9789 35.3991 23.0122 35.1976L23.0703 34.8463C23.1011 34.66 23.1583 34.4789 23.2403 34.3088C23.3435 34.0947 23.4843 33.9008 23.656 33.7365L33.4234 24.3878C33.8261 24.0024 34.3423 23.757 34.8955 23.688L35.0538 23.6682C35.5256 23.6094 36.0044 23.7106 36.4124 23.9549C36.7114 24.1339 36.9623 24.3841 37.1419 24.6827C37.387 25.0904 37.4881 25.5686 37.429 26.0406L37.4093 26.1981C37.3403 26.749 37.0955 27.2631 36.7112 27.6639Z" fill="#6D3979"/>
<path d="M36.3816 16.6895L16.2908 36.3333C16.1094 36.5106 15.9008 36.6577 15.6728 36.7688C15.3496 36.9263 14.9948 37.0082 14.6353 37.0082H14.3464H13.9566C13.6644 37.0082 13.3769 36.9339 13.1211 36.7924L13.096 36.7785C12.8717 36.6543 12.6803 36.4783 12.5379 36.2651C12.3948 36.0509 12.3052 35.8054 12.2769 35.5493L12.2581 35.3796V34.9724C12.2581 34.7048 12.3218 34.4411 12.4439 34.203L12.5069 34.08C12.6187 33.8621 12.7652 33.6638 12.9407 33.4929L34.5785 12.4194C34.7936 12.2099 35.0914 12.1082 35.3897 12.1424C35.5585 12.1617 35.7195 12.2237 35.8576 12.3225L36.1256 12.5143C36.3333 12.6629 36.5145 12.8456 36.6615 13.0545L36.7455 13.1738C36.8483 13.3199 36.9384 13.4745 37.0148 13.636L37.1321 13.8838C37.2484 14.1295 37.3103 14.3973 37.3135 14.669C37.3162 14.9023 37.2757 15.134 37.194 15.3525L37.1153 15.563C36.9564 15.9878 36.7059 16.3724 36.3816 16.6895Z" fill="#5773A7"/>
<path d="M0.148863 2.94497L0.543892 26.7929C0.558132 27.6525 1.57882 28.0946 2.21563 27.517L5.0287 24.9651C5.24001 24.7734 5.35938 24.5006 5.35678 24.2153L5.15995 2.63693C5.15853 2.48131 5.1208 2.32816 5.04978 2.18968L4.81477 1.73148C4.76534 1.63511 4.70058 1.54741 4.62302 1.4718L4.4952 1.3472C4.38167 1.23653 4.24346 1.15444 4.09197 1.1077L3.98389 1.07435C3.88839 1.04489 3.78901 1.02991 3.68908 1.02991H1.9661C1.9116 1.02991 1.85718 1.03436 1.8034 1.04323L1.29141 1.12766C1.08947 1.16096 0.902614 1.25541 0.756064 1.39828L0.730272 1.42342C0.62058 1.53035 0.536922 1.66106 0.485752 1.80545L0.206164 2.59438C0.166293 2.70689 0.146886 2.82562 0.148863 2.94497Z" fill="#FFD419"/>
</svg>
