<svg width="33" height="33" viewBox="0 0 33 33" fill="none" xmlns="http://www.w3.org/2000/svg">
<path d="M7.54425 13.1451V2.29012C7.54425 2.14029 7.54425 2.06538 7.55501 1.99264C7.56946 1.8949 7.59832 1.79984 7.64064 1.71056C7.67214 1.64411 7.71379 1.58184 7.79708 1.4573L7.79708 1.4573L7.79708 1.4573C7.85636 1.36867 7.88599 1.32435 7.91981 1.28379C7.96525 1.22929 8.01636 1.17979 8.07228 1.13611C8.1139 1.1036 8.15914 1.07539 8.24961 1.01896L8.24961 1.01896L8.61106 0.793555C8.83095 0.656429 8.94089 0.587867 9.06321 0.549666C9.18552 0.511465 9.31494 0.505272 9.57379 0.492887L9.789 0.482589L10.1636 0.499643C10.3623 0.508689 10.4616 0.513212 10.5575 0.536933C10.6534 0.560654 10.7434 0.602961 10.9234 0.687576L10.9349 0.692949C11.0867 0.764315 11.1626 0.799998 11.2312 0.847551L11.2313 0.847587C11.2999 0.895145 11.3607 0.954393 11.4822 1.07289C11.5405 1.12975 11.5697 1.15818 11.5961 1.18845L11.602 1.19521C11.6282 1.22572 11.6518 1.25827 11.6991 1.32336C11.8786 1.57026 11.9683 1.69371 12.017 1.83553C12.0206 1.84598 12.024 1.85649 12.0273 1.86706C12.0713 2.01042 12.0713 2.16303 12.0713 2.46826V3.04531C12.0713 5.1638 12.0713 6.22305 12.6999 6.47446C13.3286 6.72587 14.059 5.9587 15.5198 4.42437L18.9387 0.833202C19.077 0.688007 19.1461 0.615409 19.2273 0.558374C19.2448 0.546107 19.2627 0.534402 19.2809 0.523279C19.3656 0.47156 19.4598 0.437176 19.6481 0.368406C19.9475 0.259045 20.0973 0.204365 20.2527 0.197915C20.286 0.196534 20.3193 0.196817 20.3526 0.198762C20.5079 0.207848 20.6567 0.26506 20.9542 0.379485L21.003 0.398264C21.1581 0.457893 21.2356 0.487708 21.3069 0.529659C21.3782 0.57161 21.4418 0.624938 21.5692 0.731592L21.5692 0.731599L21.907 1.01448C21.9597 1.05853 21.986 1.08056 22.0105 1.10411C22.0745 1.16557 22.13 1.23528 22.1756 1.31139C22.1931 1.34056 22.2087 1.37111 22.2399 1.4322L22.2399 1.43223C22.2913 1.53298 22.317 1.58335 22.3366 1.635C22.3876 1.77004 22.4089 1.91454 22.3988 2.05856C22.3949 2.11366 22.3848 2.16929 22.3645 2.28056L22.1844 3.26884C22.1269 3.58465 22.0981 3.74256 22.0234 3.88156C21.9487 4.02056 21.8328 4.13166 21.6011 4.35384L10.9285 14.5886C9.48257 15.9752 8.75958 16.6685 8.15192 16.4094C7.54425 16.1502 7.54425 15.1485 7.54425 13.1451Z" fill="#78C192"/>
<path d="M0.665414 31.7285L0.414742 31.5274C0.266717 31.4087 0.151665 31.2539 0.0806107 31.078C0.027368 30.9461 0 30.8053 0 30.6631V30.6383C0 30.5629 0.00691536 30.4876 0.0206594 30.4134L0.0430635 30.2924C0.138094 29.7794 0.386759 29.3073 0.756116 28.9387L29.0137 0.74189C29.3984 0.357956 29.9198 0.142334 30.4633 0.142334H30.5851C31.0507 0.142334 31.4972 0.327027 31.8268 0.655889C31.9852 0.813984 32.112 1.00088 32.2003 1.20653L32.2781 1.38762C32.5085 1.92406 32.5629 2.52523 32.436 3.09511C32.3188 3.62154 32.0516 4.10857 31.6686 4.48824L4.19161 31.7234C4.03922 31.8744 3.8631 31.9995 3.67025 32.0935C3.4023 32.2242 3.10809 32.2921 2.80997 32.2921H2.53791H2.3295C1.98805 32.2921 1.64962 32.2282 1.3317 32.1036L1.27537 32.0815C1.05538 31.9953 0.849727 31.8763 0.665414 31.7285Z" fill="#5AB4D6"/>
<path d="M31.7417 23.827L24.4671 31.416C24.1318 31.7657 23.7128 32.024 23.2497 32.1664C22.9788 32.2497 22.697 32.2921 22.4136 32.2921H22.116H21.7995C21.5297 32.2921 21.2626 32.2391 21.0132 32.1362L20.9868 32.1253C20.7066 32.0096 20.4573 31.8298 20.2591 31.6004L20.1671 31.4939C20.0184 31.3218 19.9146 31.1156 19.8648 30.8938C19.826 30.7207 19.821 30.5418 19.8499 30.3668L19.9003 30.0619C19.9271 29.9001 19.9768 29.743 20.0479 29.5953C20.1375 29.4094 20.2597 29.2411 20.4087 29.0985L28.8876 20.9832C29.2372 20.6486 29.6853 20.4355 30.1654 20.3756L30.3029 20.3585C30.7125 20.3074 31.1281 20.3953 31.4823 20.6073C31.7418 20.7627 31.9596 20.9799 32.1155 21.2392C32.3283 21.593 32.4161 22.0082 32.3647 22.4179L32.3476 22.5546C32.2877 23.0329 32.0752 23.4791 31.7417 23.827Z" fill="#6D3979"/>
<path d="M31.4551 14.3005L14.0148 31.3528C13.8574 31.5067 13.6763 31.6343 13.4784 31.7308C13.1978 31.8675 12.8898 31.9386 12.5777 31.9386H12.3269H11.9886C11.7349 31.9386 11.4853 31.8742 11.2633 31.7513L11.2415 31.7392C11.0468 31.6315 10.8807 31.4787 10.757 31.2936C10.6328 31.1076 10.5551 30.8945 10.5304 30.6722L10.5141 30.5249V30.1714C10.5141 29.9391 10.5694 29.7102 10.6754 29.5035L10.7301 29.3968C10.8272 29.2076 10.9543 29.0354 11.1067 28.8871L29.8899 10.5937C30.0766 10.4119 30.3352 10.3236 30.5941 10.3533C30.7406 10.3701 30.8803 10.4239 31.0002 10.5097L31.2328 10.6761C31.4132 10.8052 31.5705 10.9637 31.6981 11.145L31.771 11.2486C31.8602 11.3754 31.9384 11.5097 32.0048 11.6498L32.1066 11.865C32.2076 12.0782 32.2613 12.3107 32.264 12.5466C32.2664 12.7491 32.2313 12.9502 32.1603 13.1399L32.092 13.3226C31.9541 13.6914 31.7366 14.0253 31.4551 14.3005Z" fill="#5773A7"/>
<path d="M0.00292833 2.39301L0.340624 22.7797C0.354864 23.6394 1.37555 24.0815 2.01237 23.5038L4.19477 21.5241C4.40608 21.3324 4.52545 21.0596 4.52285 20.7743L4.35281 2.13303C4.35139 1.9774 4.31366 1.82425 4.24264 1.68577L4.06273 1.33501C4.0133 1.23863 3.94854 1.15093 3.87098 1.07532L3.79826 1.00443C3.68474 0.893763 3.54652 0.811672 3.39503 0.764932L3.35062 0.751231C3.25512 0.721768 3.15575 0.706787 3.05581 0.706787H1.59084C1.53633 0.706787 1.48191 0.711243 1.42814 0.720112L1.01207 0.78872C0.825236 0.819528 0.652355 0.906921 0.516766 1.0391C0.415278 1.13803 0.337877 1.25896 0.290534 1.39255L0.0602294 2.04242C0.0203579 2.15493 0.000951384 2.27366 0.00292833 2.39301Z" fill="#FFD419"/>
</svg>
