<svg width="22" height="22" viewBox="0 0 22 22" fill="none" xmlns="http://www.w3.org/2000/svg">
<g clip-path="url(#clip0_1_435)">
<path d="M19.25 22H2.75C1.232 22 0 20.768 0 19.25V2.75C0 1.232 1.232 0 2.75 0H19.25C20.768 0 22 1.232 22 2.75V19.25C22 20.768 20.768 22 19.25 22Z" fill="white"/>
<path d="M8.44799 16.588C13.6345 16.588 16.4725 12.287 16.4725 8.56349C16.4725 8.44249 16.4725 8.32149 16.467 8.20049C17.017 7.80449 17.4955 7.30399 17.875 6.73749C17.369 6.96299 16.8245 7.11149 16.2525 7.18299C16.8355 6.83649 17.281 6.28099 17.4955 5.62099C16.951 5.94549 16.346 6.17649 15.7025 6.30299C15.1855 5.75299 14.454 5.41199 13.6455 5.41199C12.089 5.41199 10.824 6.67699 10.824 8.23349C10.824 8.45349 10.8515 8.66799 10.8955 8.87699C8.55249 8.76149 6.47349 7.63399 5.08199 5.92899C4.83999 6.34699 4.70249 6.83099 4.70249 7.34799C4.70249 8.32699 5.20299 9.19049 5.95649 9.69649C5.49449 9.67999 5.05999 9.55349 4.68049 9.34449C4.68049 9.35549 4.68049 9.36649 4.68049 9.38299C4.68049 10.747 5.65399 11.891 6.94099 12.1495C6.70449 12.2155 6.45699 12.2485 6.19849 12.2485C6.01699 12.2485 5.84099 12.232 5.67049 12.199C6.02799 13.321 7.07299 14.135 8.30499 14.157C7.33699 14.916 6.12149 15.367 4.80149 15.367C4.57599 15.367 4.35049 15.356 4.13049 15.3285C5.37349 16.1205 6.85849 16.588 8.44799 16.588Z" fill="#262626"/>
</g>
<defs>
<clipPath id="clip0_1_435">
<rect width="22" height="22" fill="white"/>
</clipPath>
</defs>
</svg>
