<svg width="16" height="18" viewBox="0 0 16 18" fill="none" xmlns="http://www.w3.org/2000/svg">
<path d="M8.54004 16.9682L15.8592 8.53516C15.915 8.47043 15.9463 8.38784 15.9463 8.30078V6.32534C15.9463 6.16016 15.7409 6.08426 15.6338 6.20926L8.84807 14.0262V0.963728C8.84807 0.865513 8.76772 0.785156 8.6695 0.785156H7.33022C7.232 0.785156 7.15165 0.865513 7.15165 0.963728V14.024L0.365931 6.20703C0.256556 6.08203 0.0534306 6.15793 0.0534306 6.3231V8.36551C0.0534306 8.40793 0.0690556 8.45034 0.098073 8.48159L7.45968 16.9682C7.52688 17.0455 7.60987 17.1074 7.70306 17.1499C7.79624 17.1923 7.89746 17.2143 7.99986 17.2143C8.10226 17.2143 8.20347 17.1923 8.29666 17.1499C8.38985 17.1074 8.47284 17.0455 8.54004 16.9682Z" fill="#FAFAFA"/>
</svg>
