<svg width="127" height="51" viewBox="0 0 127 51" fill="none" xmlns="http://www.w3.org/2000/svg">
<g clip-path="url(#clip0_1_482)">
<path d="M117.503 35.7161C117.16 35.7161 116.932 35.4804 116.932 35.1579V18.7203H111.219C110.876 18.7203 110.647 18.497 110.647 18.162V15.8918C110.647 15.5568 110.876 15.3335 111.219 15.3335H126.429C126.771 15.3335 127 15.5692 127 15.8918V18.162C127 18.497 126.771 18.7203 126.429 18.7203H120.715V35.1579C120.715 35.4928 120.474 35.7161 120.144 35.7161H117.503ZM73.7141 27.5159L70.7178 19.1049L67.6961 27.5159H73.7141ZM80.3669 35.0586C80.4939 35.3936 80.2907 35.7285 79.9225 35.7285H77.2055C76.812 35.7285 76.5834 35.5549 76.4438 35.1951L74.9075 30.8531H66.4773L64.941 35.1827C64.8141 35.5425 64.5728 35.7161 64.1793 35.7161H61.6273C61.2845 35.7161 61.056 35.3812 61.183 35.0462L68.2547 15.8297C68.3817 15.47 68.6229 15.3211 69.0165 15.3211H72.508C72.9015 15.3211 73.1555 15.47 73.2951 15.8297L80.3669 35.0586ZM100.643 32.9621C102.306 32.9621 103.436 32.1681 104.35 30.8159L100.122 26.3746C98.4971 27.2678 97.456 28.161 97.456 29.9475C97.456 31.7215 98.916 32.9621 100.643 32.9621ZM101.811 18.0256C100.452 18.0256 99.6651 18.8691 99.6651 19.9857C99.6651 20.8541 100.135 21.6108 101.201 22.7397C103.055 21.6977 103.842 21.0526 103.842 19.936C103.842 18.894 103.169 18.0256 101.811 18.0256ZM113.377 35.009C113.72 35.3688 113.504 35.7285 113.085 35.7285H109.771C109.327 35.7285 109.098 35.6293 108.806 35.2943L106.826 33.1482C105.493 34.885 103.639 36.1752 100.567 36.1752C96.7577 36.1752 93.7487 33.9297 93.7487 30.0839C93.7487 27.1314 95.3738 25.5434 97.8242 24.216C96.618 22.8638 96.0721 21.4371 96.0721 20.1842C96.0721 17.0207 98.3447 14.8621 101.76 14.8621C105.251 14.8621 107.397 16.8718 107.397 19.8616C107.397 22.4048 105.518 23.8314 103.537 24.9107L106.458 27.9998L108.095 25.1961C108.299 24.8611 108.54 24.7371 108.959 24.7371H111.485C111.904 24.7371 112.133 25.0224 111.879 25.4566L108.959 30.3445L113.377 35.009ZM87.3244 35.7161C87.6672 35.7161 87.8957 35.4804 87.8957 35.1579V18.7203H93.609C93.9518 18.7203 94.1804 18.497 94.1804 18.162V15.8918C94.1804 15.5568 93.9518 15.3335 93.609 15.3335H78.399C78.0562 15.3335 77.8277 15.5692 77.8277 15.8918V18.162C77.8277 18.497 78.0562 18.7203 78.399 18.7203H84.1123V35.1579C84.1123 35.4928 84.3535 35.7161 84.6836 35.7161H87.3244Z" fill="black"/>
<path d="M10.0935 45.6407C14.5244 48.9903 20.0727 51 26.1034 51C32.6927 51 38.7107 48.6057 43.3067 44.6855C43.3575 44.6359 43.3321 44.611 43.2813 44.6359C41.2245 45.9757 35.3589 48.9158 26.1161 48.9158C18.0794 48.9158 13.0136 47.1666 10.1443 45.6035C10.0808 45.5663 10.0554 45.6035 10.0935 45.6407ZM27.8808 46.9433C34.3051 46.9433 41.3642 45.2313 45.592 41.8446C46.7474 40.9265 47.8519 39.6984 48.8295 38.0484C49.4009 37.0932 49.9468 35.9642 50.4039 34.8601C50.4293 34.8105 50.3912 34.7857 50.3531 34.8353C46.43 40.4799 35.0542 44.0032 23.3229 44.0032C15.0196 44.0032 6.09417 41.4104 2.60272 36.4605C2.56463 36.4108 2.53924 36.4357 2.55193 36.4853C5.78946 43.2464 15.6671 46.9433 27.8808 46.9433ZM20.8598 35.7161C7.50345 35.7161 1.19344 29.6373 0.0507848 25.4814C0.0380886 25.4318 0 25.4442 0 25.4938C0 26.8956 0.139658 28.6945 0.393582 29.8854C0.507848 30.4685 0.990303 31.3865 1.70129 32.1061C4.93882 35.406 13.0009 40.0209 26.9667 40.0209C45.9983 40.0209 50.3531 33.8305 51.2418 31.7835C51.8766 30.332 52.2067 27.6896 52.2067 25.4814C52.2067 24.9479 52.194 24.5137 52.1686 24.1044C52.1686 24.0423 52.1306 24.0299 52.1179 24.0919C51.1656 29.0915 34.9145 35.7161 20.8598 35.7161ZM2.51385 14.5643C1.75207 16.053 0.901429 18.559 0.647506 19.8492C0.53324 20.4074 0.584025 20.668 0.787164 21.0898C2.38688 24.4145 10.4871 29.7242 29.379 29.7242C40.9071 29.7242 49.8579 26.9577 51.3053 21.9085C51.5719 20.9781 51.5846 19.9981 51.2418 18.6706C50.8609 17.1944 50.1373 15.47 49.5278 14.2542C49.5024 14.217 49.4771 14.217 49.4771 14.2666C49.7056 20.8913 30.801 25.1588 21.2661 25.1588C10.9314 25.1588 2.3234 21.1394 2.3234 16.053C2.3234 15.5692 2.42497 15.073 2.55193 14.5643C2.57733 14.5271 2.53924 14.5147 2.51385 14.5643ZM43.3448 6.42617C43.4591 6.59985 43.5098 6.77353 43.5098 7.00924C43.5098 9.83775 34.6352 14.8497 20.517 14.8497C10.1443 14.8497 8.18904 11.0907 8.18904 8.69642C8.18904 7.84043 8.51914 6.97203 9.26822 6.07881C9.30631 6.02919 9.26822 6.00438 9.23013 6.0416C7.88433 7.15811 6.64011 8.41109 5.56093 9.77572C5.04039 10.4208 4.72298 10.9915 4.72298 11.3264C4.72298 16.2887 17.4446 19.874 29.3409 19.874C42.0117 19.874 47.6742 15.8297 47.6742 12.2817C47.6742 11.0163 47.1663 10.272 45.8713 8.83289C45.0334 7.90246 44.2335 7.1333 43.3956 6.38896C43.3448 6.36414 43.3194 6.38896 43.3448 6.42617ZM39.4598 3.59766C35.5493 1.3026 31.0041 0 26.1034 0C21.1772 0 16.4924 1.35223 12.5692 3.69691C11.3885 4.40404 10.7283 4.9747 10.7283 5.70664C10.7283 7.85283 15.8702 10.1727 24.9988 10.1727C34.0258 10.1727 41.0341 7.64194 41.0341 5.19801C41.0341 4.61494 40.5135 4.20555 39.4598 3.59766Z" fill="#009FDB"/>
</g>
<defs>
<clipPath id="clip0_1_482">
<rect width="127" height="51" fill="white"/>
</clipPath>
</defs>
</svg>
