<svg width="412" height="345" viewBox="0 0 412 345" fill="none" xmlns="http://www.w3.org/2000/svg">
<path d="M310.453 45.2064H234.448L235.217 35.5332H311.222L310.453 45.2064Z" fill="#CCCCCC"/>
<path d="M310.453 58.7553H234.448L235.217 49.082H311.222L310.453 58.7553Z" fill="#CCCCCC"/>
<path d="M310.453 72.3152H234.448L235.217 62.6328H311.222L310.453 72.3152Z" fill="#CCCCCC"/>
<path d="M310.453 85.866H234.448L235.217 76.1836H311.222L310.453 85.866Z" fill="#CCCCCC"/>
<path d="M310.453 99.4148H234.448L235.217 89.7324H311.222L310.453 99.4148Z" fill="#CCCCCC"/>
<path d="M310.453 112.964H234.448L235.217 103.291H311.222L310.453 112.964Z" fill="#CCCCCC"/>
<path d="M310.453 126.515H234.448L235.217 116.842H311.222L310.453 126.515Z" fill="#CCCCCC"/>
<path d="M310.453 140.073H234.448L235.217 130.391H311.222L310.453 140.073Z" fill="#CCCCCC"/>
<path d="M310.453 153.624H234.448L235.217 143.941H311.222L310.453 153.624Z" fill="#CCCCCC"/>
<path d="M310.453 167.175H234.448L235.217 157.492H311.222L310.453 167.175Z" fill="#CCCCCC"/>
<path d="M310.453 180.723H234.448L235.217 171.041H311.222L310.453 180.723Z" fill="#CCCCCC"/>
<path d="M390.826 45.2064H314.811L315.579 35.5332H391.594L390.826 45.2064Z" fill="#CCCCCC"/>
<path d="M390.826 58.7553H314.811L315.579 49.082H391.594L390.826 58.7553Z" fill="#CCCCCC"/>
<path d="M390.826 72.3152H314.811L315.579 62.6328H391.594L390.826 72.3152Z" fill="#CCCCCC"/>
<path d="M390.826 85.866H314.811L315.579 76.1836H391.594L390.826 85.866Z" fill="#CCCCCC"/>
<path d="M390.826 99.4148H314.811L315.579 89.7324H391.594L390.826 99.4148Z" fill="#CCCCCC"/>
<path d="M390.826 112.964H314.811L315.579 103.291H391.594L390.826 112.964Z" fill="#CCCCCC"/>
<path d="M390.826 126.515H314.811L315.579 116.842H391.594L390.826 126.515Z" fill="#CCCCCC"/>
<path d="M390.826 140.073H314.811L315.579 130.391H391.594L390.826 140.073Z" fill="#CCCCCC"/>
<path d="M390.826 153.624H314.811L315.579 143.941H391.594L390.826 153.624Z" fill="#CCCCCC"/>
<path d="M390.826 167.175H314.811L315.579 157.492H391.594L390.826 167.175Z" fill="#CCCCCC"/>
<path d="M390.826 180.723H314.811L315.579 171.041H391.594L390.826 180.723Z" fill="#CCCCCC"/>
<path d="M223.786 35.0039H66.7451V152.608H223.786V35.0039Z" fill="#92E3A9"/>
<path d="M215.924 40.8828H74.5957V146.728H215.924V40.8828Z" fill="white"/>
<path d="M215.924 72.9707C190.508 88.7529 154.105 99.2253 111.872 115.678C98.5642 120.779 86.0412 127.315 74.5957 135.135V146.737H215.924V72.9707Z" fill="#92E3A9"/>
<path d="M215.924 40.8828H159.21C152.896 45.5954 145.434 50.8592 136.615 56.4996C104.337 77.1598 118.324 97.8383 157.063 82.791C176.943 75.0837 199.075 57.2345 215.924 41.682V40.8828Z" fill="#92E3A9"/>
<path d="M99.0127 52.7502C99.0127 44.1242 86.71 50.9129 74.6494 59.5848V81.3657C86.3838 71.3158 99.0127 60.4667 99.0127 52.7502Z" fill="#92E3A9"/>
<path d="M110.798 87.0341C110.798 88.9855 110.135 90.893 108.893 92.5155C107.651 94.138 105.886 95.4025 103.821 96.1493C101.755 96.896 99.4827 97.0914 97.2902 96.7107C95.0976 96.33 93.0837 95.3904 91.5029 94.0106C89.9222 92.6308 88.8457 90.8728 88.4096 88.9589C87.9734 87.0451 88.1973 85.0613 89.0528 83.2585C89.9083 81.4557 91.357 79.9148 93.2157 78.8307C95.0745 77.7466 97.2598 77.168 99.4953 77.168C102.493 77.168 105.368 78.2074 107.488 80.0577C109.607 81.908 110.798 84.4175 110.798 87.0341Z" fill="#92E3A9"/>
<path opacity="0.75" d="M215.924 72.9707C190.508 88.7529 154.105 99.2253 111.872 115.678C98.5642 120.779 86.0412 127.315 74.5957 135.135V146.737H215.924V72.9707Z" fill="white"/>
<path opacity="0.75" d="M215.924 40.8828H159.21C152.896 45.5954 145.434 50.8592 136.615 56.4996C104.337 77.1598 118.324 97.8383 157.063 82.791C176.943 75.0837 199.075 57.2345 215.924 41.682V40.8828Z" fill="white"/>
<g opacity="0.75">
<path d="M99.0137 52.7521C99.0137 44.1261 86.711 50.9149 74.6504 59.5868V81.3677C86.3848 71.3178 99.0137 60.4687 99.0137 52.7521Z" fill="white"/>
</g>
<path opacity="0.75" d="M110.798 87.0341C110.798 88.9855 110.135 90.893 108.893 92.5155C107.651 94.138 105.886 95.4025 103.821 96.1493C101.755 96.896 99.4827 97.0914 97.2902 96.7107C95.0976 96.33 93.0837 95.3904 91.5029 94.0106C89.9222 92.6308 88.8457 90.8728 88.4096 88.9589C87.9734 87.0451 88.1973 85.0613 89.0528 83.2585C89.9083 81.4557 91.357 79.9148 93.2157 78.8307C95.0745 77.7466 97.2598 77.168 99.4953 77.168C102.493 77.168 105.368 78.2074 107.488 80.0577C109.607 81.908 110.798 84.4175 110.798 87.0341Z" fill="white"/>
<path d="M191.497 118.499C191.497 121.101 190.613 123.645 188.957 125.808C187.3 127.972 184.946 129.658 182.192 130.653C179.437 131.648 176.407 131.908 173.483 131.4C170.559 130.892 167.874 129.638 165.767 127.797C163.66 125.957 162.225 123.612 161.645 121.059C161.064 118.507 161.364 115.862 162.507 113.458C163.649 111.055 165.582 109.001 168.062 107.556C170.542 106.112 173.456 105.342 176.437 105.344C178.416 105.344 180.375 105.684 182.203 106.345C184.031 107.006 185.692 107.976 187.09 109.197C188.489 110.419 189.598 111.869 190.354 113.465C191.11 115.061 191.499 116.772 191.497 118.499Z" fill="white"/>
<path d="M382.668 150.961L351.695 151.191C351.695 151.191 349.591 150.961 349.138 152.302C349.138 152.302 343.76 164.153 343.508 168.397C343.255 172.641 344.56 171.97 342.455 177.583C340.35 183.196 334.52 196.351 331.195 207.081C326.722 221.494 325.554 236.799 325.269 251.681C325.269 254.069 323.586 274.647 327.848 274.647C331.384 274.647 363.977 278.422 364.366 272.938C365.935 251.074 361.409 229.716 370.102 208.459C373.48 200.191 377.353 191.482 380.226 182.847C383.099 174.212 383.594 165.228 385.488 156.39C386.762 150.291 382.668 150.961 382.668 150.961Z" fill="#263238"/>
<path d="M385.709 153.643C385.404 150.52 382.668 150.961 382.668 150.961L351.696 151.19C351.696 151.19 349.591 150.961 349.138 152.302C349.138 152.302 343.76 164.152 343.508 168.397C343.432 169.518 343.467 170.643 343.613 171.759L344.265 172.677C344.265 172.677 345.318 180.495 357.578 180.945C369.839 181.395 376.785 176.471 379.342 171.759C381.9 167.046 382.931 159.467 384.973 154.994C385.192 154.533 385.438 154.082 385.709 153.643Z" fill="#92E3A9"/>
<path d="M378.522 162.371C376.417 168.902 377.691 170.712 375.617 181.956C373.544 193.2 366.062 205.841 363.146 217.498C360.231 229.156 361.494 270.081 361.905 271.9C362.067 272.864 362.127 273.838 362.083 274.812C363.483 274.353 364.325 273.728 364.388 272.874C365.956 251.01 361.431 229.652 370.124 208.394C373.502 200.127 377.375 191.418 380.248 182.783C383.121 174.148 383.616 165.163 385.51 156.326C386.299 152.652 385.058 151.448 383.974 151.09C381.62 154.635 379.788 158.425 378.522 162.371Z" fill="#92E3A9"/>
<path d="M318.693 327.385L318.482 327.238V301.994H322.639V286.037H307.274V301.994H311.421V327.67L274.649 337.903V340.439C274.649 341.209 275 341.947 275.623 342.491C276.247 343.036 277.093 343.342 277.975 343.342C278.857 343.342 279.703 343.036 280.327 342.491C280.95 341.947 281.301 341.209 281.301 340.439V340.081L312.052 336.957V340.806C312.052 341.479 312.358 342.124 312.903 342.599C313.447 343.075 314.186 343.342 314.957 343.342C315.727 343.342 316.466 343.075 317.011 342.599C317.555 342.124 317.861 341.479 317.861 340.806V336.829L349.855 340.081V340.439C349.855 341.209 350.205 341.947 350.829 342.491C351.452 343.036 352.298 343.342 353.18 343.342C354.062 343.342 354.908 343.036 355.532 342.491C356.155 341.947 356.506 341.209 356.506 340.439V337.903L318.693 327.385Z" fill="#263238"/>
<path d="M362.536 270.475H271.218C268.894 270.475 267.009 272.12 267.009 274.149V285.311C267.009 287.34 268.894 288.985 271.218 288.985H362.536C364.861 288.985 366.746 287.34 366.746 285.311V274.149C366.746 272.12 364.861 270.475 362.536 270.475Z" fill="#263238"/>
<path d="M3.07555 150.961L34.048 151.191C34.048 151.191 36.1528 150.961 36.6158 152.302C36.6158 152.302 41.9937 164.153 42.2462 168.397C42.4988 172.641 41.1938 171.97 43.2986 177.583C45.4035 183.196 51.2338 196.351 54.5594 207.081C59.0427 221.494 60.2003 236.799 60.4845 251.681C60.4845 254.069 62.1684 274.647 57.9061 274.647C54.3805 274.647 21.7874 278.422 21.3875 272.938C19.8299 251.074 24.3447 229.716 15.6518 208.459C12.2736 200.191 8.40074 191.482 5.53819 182.847C2.67563 174.212 2.17047 165.228 0.276137 156.39C-0.965706 150.291 3.07555 150.961 3.07555 150.961Z" fill="#263238"/>
<path d="M0.0849609 153.643C0.39016 150.52 3.1159 150.961 3.1159 150.961L34.0883 151.19C34.0883 151.19 36.1931 150.961 36.6562 152.302C36.6562 152.302 42.034 164.152 42.2866 168.397C42.3551 169.518 42.3164 170.643 42.1708 171.759L41.5183 172.677C41.5183 172.677 40.4659 180.495 28.2053 180.945C15.9448 181.395 8.9673 176.471 6.39942 171.75C3.83154 167.028 2.82123 159.458 0.769029 154.984C0.571012 154.526 0.342602 154.078 0.0849609 153.643Z" fill="#92E3A9"/>
<path d="M7.22139 162.371C9.32621 168.902 8.0528 170.712 10.126 181.956C12.1993 193.2 19.6924 205.841 22.5971 217.498C25.5017 229.156 24.2915 270.081 23.8389 271.9C23.6812 272.864 23.6213 273.838 23.66 274.812C22.2709 274.353 21.4184 273.728 21.3553 272.874C19.7977 251.01 24.3125 229.652 15.6196 208.394C12.2414 200.127 8.36852 191.418 5.50597 182.783C2.64341 174.148 2.13826 165.163 0.24392 156.326C-0.534863 152.652 0.706979 151.448 1.78044 151.09C4.13559 154.633 5.96396 158.424 7.22139 162.371Z" fill="#92E3A9"/>
<path d="M67.0505 327.385L67.261 327.238V301.994H63.0514V286.037H78.4271V301.994H74.2701V327.67L111.041 337.903V340.439C111.041 341.209 110.691 341.947 110.067 342.491C109.444 343.036 108.598 343.342 107.716 343.342C106.834 343.342 105.988 343.036 105.364 342.491C104.74 341.947 104.39 341.209 104.39 340.439V340.081L73.7544 336.957V340.806C73.7098 341.454 73.3838 342.061 72.843 342.506C72.3022 342.951 71.5873 343.198 70.8445 343.198C70.1016 343.198 69.3868 342.951 68.846 342.506C68.3052 342.061 67.9792 341.454 67.9346 340.806V336.829L35.8676 340.081V340.439C35.8931 340.833 35.8261 341.228 35.6707 341.599C35.5153 341.97 35.2749 342.309 34.9641 342.596C34.6533 342.883 34.2786 343.112 33.863 343.268C33.4475 343.424 32.9998 343.505 32.5473 343.505C32.0948 343.505 31.6471 343.424 31.2315 343.268C30.816 343.112 30.4413 342.883 30.1305 342.596C29.8197 342.309 29.5792 341.97 29.4239 341.599C29.2685 341.228 29.2015 340.833 29.2269 340.439V337.903L67.0505 327.385Z" fill="#263238"/>
<path d="M23.2072 288.977H114.525C116.85 288.977 118.734 287.331 118.734 285.302V274.141C118.734 272.111 116.85 270.466 114.525 270.466H23.2072C20.8822 270.466 18.9975 272.111 18.9975 274.141V285.302C18.9975 287.331 20.8822 288.977 23.2072 288.977Z" fill="#263238"/>
<path d="M344.224 218.488H94.1719V343.937H344.224V218.488Z" fill="#CCCCCC"/>
<path d="M344.036 221.502H94.2988V224.974H344.036V221.502Z" fill="#263238"/>
<path d="M346.077 216.434H88.6045V221.918H346.077V216.434Z" fill="#CCCCCC"/>
<path d="M160.748 205.537C160.748 205.537 163.695 217.029 163.526 220.235C163.358 223.441 156.423 232.031 156.244 230.065C156.302 228.399 156.716 226.757 157.464 225.223C157.464 225.223 155.033 228.099 154.17 227.979C153.307 227.86 154.865 223.891 154.865 223.891C154.865 223.891 152.266 226.16 151.392 225.729C150.519 225.297 153.297 221.944 153.297 221.944C153.297 221.944 150.14 224.819 150.013 223.91C149.887 223 152.781 219.225 152.781 219.225C152.781 219.225 149.835 213.777 149.624 211.508C149.643 209.923 150.248 208.386 151.35 207.126L160.748 205.537Z" fill="white"/>
<path d="M160.747 205.537C160.747 205.537 163.694 217.029 163.525 220.235C163.357 223.441 156.422 232.031 156.243 230.065C156.301 228.399 156.715 226.757 157.463 225.223C157.463 225.223 155.032 228.099 154.169 227.979C153.306 227.86 154.864 223.891 154.864 223.891C154.864 223.891 152.265 226.16 151.391 225.729C150.518 225.297 153.296 221.944 153.296 221.944C153.296 221.944 150.139 224.819 150.012 223.91C149.886 223 152.78 219.225 152.78 219.225C152.78 219.225 149.834 213.777 149.623 211.508C149.642 209.923 150.247 208.386 151.349 207.126L160.747 205.537Z" fill="#D9D9D9"/>
<path d="M160.748 205.537C160.748 205.537 163.695 217.029 163.526 220.235C163.358 223.441 156.423 232.031 156.244 230.065C156.302 228.399 156.716 226.757 157.464 225.223C157.464 225.223 155.033 228.099 154.17 227.979C153.307 227.86 154.865 223.891 154.865 223.891C154.865 223.891 152.266 226.16 151.392 225.729C150.519 225.297 153.297 221.944 153.297 221.944C153.297 221.944 150.14 224.819 150.013 223.91C149.887 223 152.781 219.225 152.781 219.225C152.781 219.225 149.835 213.777 149.624 211.508C149.643 209.923 150.248 208.386 151.35 207.126L160.748 205.537Z" stroke="#263238" stroke-linecap="round" stroke-linejoin="round"/>
<path d="M160.053 205.537C160.053 205.537 162.158 213.557 161.968 215.826C161.779 218.095 159.19 224.746 157.285 223.533C155.38 222.321 158.495 217.792 158.495 217.792C158.495 217.792 153.149 214.512 151.918 211.435C150.686 208.357 151.391 207.053 151.391 207.053L160.053 205.537Z" fill="white"/>
<path d="M160.053 205.537C160.053 205.537 162.158 213.557 161.968 215.826C161.779 218.095 159.19 224.746 157.285 223.533C155.38 222.321 158.495 217.792 158.495 217.792C158.495 217.792 153.149 214.512 151.918 211.435C150.686 208.357 151.391 207.053 151.391 207.053L160.053 205.537Z" fill="#D9D9D9"/>
<path d="M160.053 205.537C160.053 205.537 162.158 213.557 161.968 215.826C161.779 218.095 159.19 224.746 157.285 223.533C155.38 222.321 158.495 217.792 158.495 217.792C158.495 217.792 153.149 214.512 151.918 211.435C150.686 208.357 151.391 207.053 151.391 207.053L160.053 205.537Z" stroke="#263238" stroke-linecap="round" stroke-linejoin="round"/>
<path d="M153.707 167.955L161.085 206.308L150.687 208.357L140.289 178.786L153.707 167.955Z" fill="#263238" stroke="#263238" stroke-linecap="round" stroke-linejoin="round"/>
<path d="M150.686 186.695C150.686 186.695 151.36 232.37 152.36 244.67C153.359 256.971 149.676 273.368 146.329 278.053C142.983 282.738 128.207 312.043 128.88 313.779C129.554 315.515 132.574 320.807 132.574 322.267V328.413C132.574 328.413 149.339 338.077 150.686 338.077C152.033 338.077 153.707 340.42 150.349 342.183C146.992 343.947 109.421 343.938 107.748 342.762C106.644 341.898 105.832 340.786 105.401 339.547C105.401 339.547 100.034 341.302 100.37 336.91C100.707 332.519 106.738 313.779 106.738 313.779C106.738 313.779 103.054 293.275 104.391 280.102C105.727 266.929 110.432 251.11 110.432 247.895C110.432 244.679 105.738 223.293 105.064 219.784C104.391 216.275 94.6664 206.308 99.0234 198.408C103.38 190.507 106.738 177.904 108.085 177.031C109.432 176.158 127.544 175.561 134.921 177.031C142.298 178.501 150.349 178.492 150.686 186.695Z" fill="#263238" stroke="#263238" stroke-linecap="round" stroke-linejoin="round"/>
<path d="M117.43 94.6303C117.43 94.6303 111.694 99.1132 110.705 100.666C109.716 102.218 97.6761 117.201 97.4762 127.912C97.2762 138.624 106.38 171.015 106.38 171.015L92.6982 201.394L96.6553 202.772L100.602 198.978V204.674C100.602 204.674 105.148 208.293 116.998 211.738C128.849 215.183 144.066 211.224 144.066 211.224L148.602 186.016V210.884L153.938 207.779L154.369 166.367C154.369 166.367 158.716 144.126 158.716 137.889C158.716 131.651 146.666 112.167 141.33 106.508C135.994 100.849 127.102 96.1644 124.492 94.4374C121.882 92.7103 117.43 94.6303 117.43 94.6303Z" fill="#263238"/>
<path opacity="0.17" d="M117.43 94.6303C117.43 94.6303 111.694 99.1132 110.705 100.666C109.716 102.218 97.6761 117.201 97.4762 127.912C97.2762 138.624 106.38 171.015 106.38 171.015L92.6982 201.394L96.6553 202.772L100.602 198.978V204.674C100.602 204.674 105.148 208.293 116.998 211.738C128.849 215.183 144.066 211.224 144.066 211.224L148.602 186.016V210.884L153.938 207.779L154.369 166.367C154.369 166.367 158.716 144.126 158.716 137.889C158.716 131.651 146.666 112.167 141.33 106.508C135.994 100.849 127.102 96.1644 124.492 94.4374C121.882 92.7103 117.43 94.6303 117.43 94.6303Z" fill="white"/>
<path d="M100.549 131.35C100.549 131.35 107.726 135.787 112.504 137.348" stroke="#263238" stroke-linecap="round" stroke-linejoin="round"/>
<path d="M102.643 136.051C102.643 136.051 110.715 137.888 114.893 137.888" stroke="#263238" stroke-linecap="round" stroke-linejoin="round"/>
<path d="M114.305 177.775L137.016 180.127L135.521 184.298L114.599 182.212" stroke="#263238" stroke-linecap="round" stroke-linejoin="round"/>
<path d="M117.43 94.6303C117.43 94.6303 111.694 99.1132 110.705 100.666C109.716 102.218 97.6761 117.201 97.4762 127.912C97.2762 138.624 106.38 171.015 106.38 171.015L92.6982 201.394L96.6553 202.772L100.602 198.978V204.674C100.602 204.674 105.148 208.293 116.998 211.738C128.849 215.183 144.066 211.224 144.066 211.224L148.602 186.016V210.884L153.938 207.779L154.369 166.367C154.369 166.367 158.716 144.126 158.716 137.889C158.716 131.651 146.666 112.167 141.33 106.508C135.994 100.849 127.102 96.1644 124.492 94.4374C121.882 92.7103 117.43 94.6303 117.43 94.6303Z" stroke="#263238" stroke-linecap="round" stroke-linejoin="round"/>
<path d="M116.241 95.6289L138.173 116.326L151.013 137.712C151.013 137.712 148.245 121.847 145.877 117.502C143.509 113.156 132.838 102.39 131.638 99.9741C130.438 97.558 116.241 95.6289 116.241 95.6289Z" fill="white" stroke="#263238" stroke-linecap="round" stroke-linejoin="round"/>
<path d="M144.94 127.627L151.013 137.732C151.013 137.732 149.129 126.92 147.129 120.719L145.877 117.55C144.196 114.975 142.289 112.518 140.173 110.201L136.731 109.604L138.173 116.365L142.614 119.534L144.94 127.627Z" fill="#263238" stroke="#263238" stroke-linecap="round" stroke-linejoin="round"/>
<path d="M139.088 103.43L140.225 104.578L143.793 108.253L145.897 117.586L136.752 109.621C136.752 109.621 137.952 104.817 139.088 103.43Z" fill="white" stroke="#263238" stroke-linecap="round" stroke-linejoin="round"/>
<path d="M149.434 64.9668C149.434 64.9668 154.233 68.1821 154.833 71.2871C155.432 74.3921 153.643 77.8461 153.843 79.0495C154.043 80.253 157.59 83.0181 157.4 84.396C157.211 85.774 154.243 86.2884 154.243 86.2884C154.243 86.2884 151.023 96.522 150.234 98.2307C149.444 99.9394 145.487 99.4341 142.53 99.0942L137.194 112.874L119.598 94.8042L122.366 87.5561C122.366 87.5561 114.862 79.6283 114.262 71.1768C113.662 62.7254 121.376 56.8645 132.437 55.6611C143.498 54.4576 152.791 59.1059 153.97 61.0075C155.148 62.9091 149.434 64.9668 149.434 64.9668Z" fill="white"/>
<path d="M149.434 64.9668C149.434 64.9668 154.233 68.1821 154.833 71.2871C155.432 74.3921 153.643 77.8461 153.843 79.0495C154.043 80.253 157.59 83.0181 157.4 84.396C157.211 85.774 154.243 86.2884 154.243 86.2884C154.243 86.2884 151.023 96.522 150.234 98.2307C149.444 99.9394 145.487 99.4341 142.53 99.0942L137.194 112.874L119.598 94.8042L122.366 87.5561C122.366 87.5561 114.862 79.6283 114.262 71.1768C113.662 62.7254 121.376 56.8645 132.437 55.6611C143.498 54.4576 152.791 59.1059 153.97 61.0075C155.148 62.9091 149.434 64.9668 149.434 64.9668Z" fill="#D9D9D9"/>
<path d="M128.932 104.414C131.9 103.89 136.878 102.99 141.361 102.108L142.519 99.1134C144.982 99.3982 148.139 99.8024 149.57 98.9297C146.202 97.7171 137.867 95.595 136.162 92.8667C134.058 89.4769 141.425 79.6108 141.425 74.6777C141.425 69.7446 134.363 64.196 134.363 64.196C130.964 61.3758 124.765 60.5215 119.261 60.5215C117.528 61.8421 116.172 63.4967 115.299 65.3543C114.425 67.2118 114.06 69.2213 114.23 71.2236C114.83 79.6751 122.334 87.6029 122.334 87.6029L119.566 94.8509L128.932 104.414Z" fill="#B8B8B8"/>
<path d="M149.434 64.9668C149.434 64.9668 154.233 68.1821 154.833 71.2871C155.432 74.3921 153.643 77.8461 153.843 79.0495C154.043 80.253 157.59 83.0181 157.4 84.396C157.211 85.774 154.243 86.2884 154.243 86.2884C154.243 86.2884 151.023 96.522 150.234 98.2307C149.444 99.9393 145.487 99.4341 142.53 99.0942L137.194 112.874L119.598 94.8042L122.366 87.5561C122.366 87.5561 114.862 79.6283 114.262 71.1768C113.662 62.7254 121.376 56.8645 132.437 55.6611C143.498 54.4576 152.791 59.1059 153.97 61.0075C155.148 62.9091 149.434 64.9668 149.434 64.9668Z" stroke="#263238" stroke-linecap="round" stroke-linejoin="round"/>
<path d="M149.434 64.967C149.434 64.967 155.159 62.9001 153.97 61.0077C152.78 59.1153 143.498 54.4486 132.437 55.6612C121.376 56.8738 113.673 62.7256 114.262 71.177C114.851 79.6285 122.366 87.5563 122.366 87.5563L121.945 88.6587C126.039 90.4041 130.269 87.5563 130.269 87.5563C129.497 87.8964 128.62 88.0129 127.767 87.889C126.914 87.7651 126.128 87.4073 125.523 86.8673C123.155 84.9749 122.955 78.9395 125.923 78.4159C128.891 77.8922 130.859 78.9395 130.859 80.8319C130.859 82.7243 131.448 81.5209 133.037 81.3463C134.626 81.1718 133.227 77.0379 134.216 76.3489C135.815 75.485 137.22 74.3736 138.362 73.0694C140.141 71.0025 135.005 69.2846 134.416 67.383C133.826 65.4815 149.434 64.967 149.434 64.967Z" fill="#263238" stroke="#263238" stroke-linecap="round" stroke-linejoin="round"/>
<path d="M150.845 78.4336L147.183 79.4992H150.498" stroke="#263238" stroke-linecap="round" stroke-linejoin="round"/>
<path d="M152.244 75.2366C152.244 75.2366 150.676 73.2616 148.929 74.171C147.182 75.0805 147.014 75.696 147.014 75.696" stroke="#263238" stroke-linecap="round" stroke-linejoin="round"/>
<path d="M148.477 89.0898C149.548 89.729 150.856 89.9915 152.139 89.8247" stroke="#263238" stroke-linecap="round" stroke-linejoin="round"/>
<path d="M118.808 91.5234L140.93 110.493L138.962 118.596L115.451 96.5208L118.808 91.5234Z" fill="white" stroke="#263238" stroke-linecap="round" stroke-linejoin="round"/>
<path d="M203.791 164.052C203.791 164.052 196.003 160.01 194.74 160.377C193.477 160.745 181.269 168.461 182.111 170.298C182.953 172.136 189.478 174.524 193.266 175.81C197.055 177.096 204.843 174.34 204.843 174.34L203.791 164.052Z" fill="white" stroke="#263238" stroke-linecap="round" stroke-linejoin="round"/>
<path d="M181.102 162.581C181.102 162.581 187.838 159.273 188.89 159.273C189.942 159.273 196.046 164.05 196.046 164.05L193.521 167.357C193.521 167.357 201.519 170.848 200.677 172.134C199.835 173.42 196.678 175.441 193.31 175.809C189.942 176.176 180.471 170.848 180.471 170.848L181.102 162.581Z" fill="white"/>
<path d="M181.1 162.582C181.1 162.582 187.836 159.275 188.888 159.275C189.94 159.275 196.044 164.052 196.044 164.052L193.519 167.359C193.519 167.359 201.517 170.85 200.675 172.136C199.833 173.422 196.676 175.443 193.308 175.811C189.94 176.178 180.469 170.85 180.469 170.85L181.1 162.582Z" fill="#D9D9D9"/>
<path d="M181.102 162.581C181.102 162.581 187.838 159.273 188.89 159.273C189.942 159.273 196.046 164.05 196.046 164.05L193.521 167.357C193.521 167.357 201.519 170.848 200.677 172.134C199.835 173.42 196.678 175.441 193.31 175.809C189.942 176.176 180.471 170.848 180.471 170.848L181.102 162.581Z" stroke="#263238" stroke-linecap="round" stroke-linejoin="round"/>
<path d="M176.427 161.111L182.321 162.03L180.427 170.849L175.375 169.379L176.427 161.111Z" fill="white" stroke="#263238" stroke-linecap="round" stroke-linejoin="round"/>
<path d="M108.032 109.852C108.032 109.852 102.349 119.405 101.718 124.182C101.086 128.959 124.239 166.991 125.923 168.277C127.607 169.563 176.849 170.849 176.849 170.849L178.954 161.479L136.858 151.006L122.545 112.607" fill="#263238"/>
<path opacity="0.17" d="M108.033 109.852C108.033 109.852 102.35 119.405 101.719 124.182C101.087 128.959 124.24 166.991 125.924 168.277C127.608 169.563 176.85 170.849 176.85 170.849L178.955 161.479L136.859 151.006L122.546 112.607" fill="white"/>
<path d="M108.032 109.852C108.032 109.852 102.349 119.405 101.718 124.182C101.086 128.959 124.239 166.991 125.923 168.277C127.607 169.563 176.849 170.849 176.849 170.849L178.954 161.479L136.858 151.006L122.545 112.607" stroke="#263238" stroke-linecap="round" stroke-linejoin="round"/>
<path d="M196.424 161.295C196.424 161.295 193.477 159.091 192.425 161.663C191.372 164.235 184.847 170.482 187.794 170.666C190.741 170.849 196.213 165.521 196.213 165.521" fill="white"/>
<path d="M196.424 161.295C196.424 161.295 193.477 159.091 192.425 161.663C191.372 164.235 184.847 170.482 187.794 170.666C190.741 170.849 196.213 165.521 196.213 165.521" stroke="#263238" stroke-linecap="round" stroke-linejoin="round"/>
<path d="M183.373 171.583C183.373 171.583 182.615 174.679 184.426 175.993C185.699 176.911 186.415 174.339 186.109 172.502C185.804 170.665 184.005 170.113 183.373 171.583Z" fill="white" stroke="#263238" stroke-linecap="round" stroke-linejoin="round"/>
<path d="M186.362 172.32C186.362 172.32 185.605 175.415 187.415 176.729C188.688 177.648 189.404 175.076 189.099 173.238C188.794 171.401 186.952 170.85 186.362 172.32Z" fill="white" stroke="#263238" stroke-linecap="round" stroke-linejoin="round"/>
<path d="M189.269 173.423C189.269 173.423 188.511 176.519 190.321 177.833C191.595 178.751 192.31 176.179 192.005 174.342C191.7 172.505 189.9 171.953 189.269 173.423Z" fill="white" stroke="#263238" stroke-linecap="round" stroke-linejoin="round"/>
<path d="M192.184 174.919C192.184 174.919 191.489 177.004 193.152 177.886C194.32 178.511 194.983 176.775 194.699 175.534C194.415 174.294 192.763 173.927 192.184 174.919Z" fill="white" stroke="#263238" stroke-linecap="round" stroke-linejoin="round"/>
<path d="M203.791 164.051L204.422 175.809L209.053 174.707L208.001 163.867L203.791 164.051Z" stroke="#263238" stroke-linecap="round" stroke-linejoin="round"/>
<path d="M206.949 162.949L209.054 176.912L244.205 173.605L245.046 155.416L206.949 162.949Z" fill="#263238" stroke="#263238" stroke-linecap="round" stroke-linejoin="round"/>
<path d="M145.319 218.609C145.319 218.609 138.942 255.796 138.942 268.39C138.942 280.985 129.218 302.068 128.881 313.78" stroke="white" stroke-linecap="round" stroke-linejoin="round"/>
<path d="M107.748 342.744C109.422 343.919 146.993 343.919 150.35 342.165C153.707 340.41 152.023 338.059 150.687 338.059C149.35 338.059 132.575 328.395 132.575 328.395C132.575 328.395 123.513 334.549 118.483 336.01C113.452 337.471 105.401 337.765 105.401 337.765V339.528C105.833 340.767 106.644 341.879 107.748 342.744Z" fill="white" stroke="#263238" stroke-linecap="round" stroke-linejoin="round"/>
<path d="M150.349 342.182C152.117 341.264 152.454 340.161 152.243 339.344C147.309 340.195 142.297 340.653 137.268 340.713C127.133 340.951 111.189 340.409 105.695 340.207C106.15 341.194 106.873 342.071 107.8 342.761C109.421 343.937 146.992 343.937 150.349 342.182Z" fill="white" stroke="#263238" stroke-linecap="round" stroke-linejoin="round"/>
<path d="M104.424 339.777L105.403 337.783L106.74 313.779C106.74 313.779 100.699 332.519 100.373 336.911C100.12 340.107 102.898 340.043 104.424 339.777Z" fill="#263238" stroke="#263238" stroke-linecap="round" stroke-linejoin="round"/>
<path d="M249.308 211.287C249.308 211.287 245.961 254.922 249.308 272.487C252.654 290.051 261.084 320.513 262.389 324.316C263.211 326.586 263.568 328.965 263.442 331.344L282.227 333.686C282.227 333.686 276.523 276.005 276.523 269.271C276.523 262.538 282.901 212.169 282.901 212.169L249.308 211.287Z" fill="#263238" stroke="#263238" stroke-linecap="round" stroke-linejoin="round"/>
<path d="M263.4 331.344C263.4 331.344 242.941 338.96 240.583 340.421C238.226 341.881 245.624 343.939 254.675 343.939C263.726 343.939 272.798 343.02 272.798 343.02L276.481 341.266L276.818 343.314H286.542C286.542 343.314 288.226 336.287 287.594 334.532C287.116 333.332 286.558 332.157 285.921 331.014L263.4 331.344Z" fill="#263238" stroke="#263238" stroke-linecap="round" stroke-linejoin="round"/>
<path d="M246.287 207.778C246.287 207.778 247.971 249.65 251.991 264.587C256.011 279.524 263.063 315.828 263.063 319.632C263.089 321.806 262.752 323.972 262.063 326.062L260.716 329.884C260.946 330.796 261.299 331.681 261.768 332.52C261.768 332.52 270.482 334.275 276.186 334.275C279.751 334.247 283.294 333.78 286.71 332.888C286.71 332.888 286.889 323.701 287.226 319.338C287.563 314.974 285.889 286.836 285.889 280.103C285.889 273.369 283.869 269.557 283.869 261.362C283.869 253.168 282.195 231.204 282.532 227.685C282.869 224.167 287.563 220.336 288.573 215.973C289.583 211.609 290.583 206.896 290.583 206.896L246.287 207.778Z" fill="#263238" stroke="#263238" stroke-linecap="round" stroke-linejoin="round"/>
<path d="M250.308 251.799C250.308 251.799 259.685 308.58 262.031 312.162C263.431 314.448 263.807 317.108 263.084 319.622" stroke="white" stroke-linecap="round" stroke-linejoin="round"/>
<path d="M238.237 174.688C238.237 174.688 236.984 185.887 236.984 194.448C236.984 199.225 236.932 205.472 236.879 209.992C236.864 211.851 237.591 213.658 238.935 215.101C240.279 216.544 242.157 217.534 244.246 217.901C246.449 218.324 248.694 218.561 250.95 218.608L243.067 176.002C243.067 176.002 239.5 170.738 238.237 174.688Z" fill="#263238" stroke="#263238" stroke-linecap="round" stroke-linejoin="round"/>
<path d="M275.481 98.3879C277.403 99.2708 279.156 100.408 280.68 101.759C282.023 103.3 283.213 104.938 284.237 106.656C284.237 106.656 298.497 121.005 298.834 122.465C299.171 123.926 290.783 170.051 290.783 170.051L300.339 213.677C300.339 213.677 284.911 221.145 273.166 221.586C264.904 221.899 252.475 219.593 245.803 218.197C244.475 217.922 243.28 217.29 242.387 216.39C241.494 215.489 240.947 214.367 240.825 213.181C240.173 207.044 238.952 194.808 238.236 183.224C237.415 169.766 239.752 143.107 241.393 133.737C243.035 124.367 248.276 111.635 252.296 106.362C256.317 101.089 267.398 95.632 275.481 98.3879Z" fill="#263238" stroke="#263238" stroke-linecap="round" stroke-linejoin="round"/>
<path d="M284.238 106.653C283.223 104.96 282.047 103.343 280.722 101.821C279.199 100.47 277.445 99.3329 275.524 98.4499C268.83 96.1442 260.074 99.488 254.991 103.714C254.318 105.018 249.013 115.583 246.498 124.218C243.814 133.404 244.151 145.016 244.151 145.016C244.151 145.016 253.044 135.058 265.115 123.345C271.143 117.491 277.726 112.091 284.795 107.205L284.238 106.653Z" fill="#263238"/>
<path opacity="0.17" d="M284.238 106.657C283.223 104.963 282.047 103.347 280.722 101.825C279.199 100.474 277.445 99.3368 275.524 98.4538C268.83 96.1481 260.074 99.4919 254.991 103.718C254.318 105.022 249.013 115.586 246.498 124.222C243.814 133.408 244.151 145.02 244.151 145.02C244.151 145.02 253.044 135.062 265.115 123.349C271.143 117.494 277.726 112.095 284.795 107.208L284.238 106.657Z" fill="white"/>
<path d="M284.238 106.653C283.223 104.96 282.047 103.343 280.722 101.821C279.199 100.47 277.445 99.3329 275.524 98.4499C268.83 96.1442 260.074 99.488 254.991 103.714C254.318 105.018 249.013 115.583 246.498 124.218C243.814 133.404 244.151 145.016 244.151 145.016C244.151 145.016 253.044 135.058 265.115 123.345C271.143 117.491 277.726 112.091 284.795 107.205L284.238 106.653Z" stroke="#263238" stroke-linecap="round" stroke-linejoin="round"/>
<path d="M253.843 110.448C253.843 110.448 249.307 122.858 247.929 126.368C246.55 129.877 246.413 135.379 246.413 135.379C246.413 135.379 263.399 113.194 267.545 109.465C271.692 105.735 277.112 99.9108 277.112 99.9108L273.46 98.9922L253.843 110.448Z" fill="white" stroke="#263238" stroke-linecap="round" stroke-linejoin="round"/>
<path d="M255.097 105.947C255.097 105.947 253.087 111.11 253.087 111.459C253.087 111.808 252.582 116.732 252.582 116.732L259.749 108.271L255.097 105.947Z" fill="white" stroke="#263238" stroke-linecap="round" stroke-linejoin="round"/>
<path d="M273.335 95.6289L253.718 109.574L256.738 117.254L276.86 99.3586L273.335 95.6289Z" fill="white" stroke="#263238" stroke-linecap="round" stroke-linejoin="round"/>
<path d="M270.798 206.234C270.798 206.234 268.009 212.288 267.178 214.272C266.347 216.257 266.768 224.028 266.873 224.846C266.978 225.664 268.63 225.838 268.63 225.838C268.63 225.838 269.146 232.066 269.767 232.269C270.412 232.409 271.071 232.498 271.735 232.535C271.735 232.535 272.872 235.704 274.324 235.429C274.76 235.313 275.148 235.088 275.442 234.784C275.735 234.479 275.921 234.106 275.976 233.711C276.453 233.75 276.934 233.679 277.37 233.505C277.806 233.33 278.182 233.059 278.46 232.719C279.051 231.959 279.539 231.142 279.912 230.284C279.912 230.284 282.396 229.2 282.596 228.383C282.796 227.565 283.427 224.708 283.427 224.708C283.427 224.708 284.153 224.524 284.153 222.632C284.153 220.74 282.501 209.082 282.501 209.082L270.798 206.234Z" fill="white" stroke="#263238" stroke-linecap="round" stroke-linejoin="round"/>
<path d="M268.63 225.837L268.935 220.344" stroke="#263238" stroke-linecap="round" stroke-linejoin="round"/>
<path d="M271.733 232.517L272.407 224.387" stroke="#263238" stroke-linecap="round" stroke-linejoin="round"/>
<path d="M275.976 233.693L276.46 224.893" stroke="#263238" stroke-linecap="round" stroke-linejoin="round"/>
<path d="M279.912 230.266L280.512 224.139" stroke="#263238" stroke-linecap="round" stroke-linejoin="round"/>
<path d="M291.246 118.469L298.791 122.419L296.276 167.956L282.858 210.994L270.113 208.073L274.133 174.083L272.123 139.827C272.123 139.827 274.975 131.844 281.511 127.453" fill="#263238"/>
<path d="M291.246 118.469L298.791 122.419L296.276 167.956L282.858 210.994L270.113 208.073L274.133 174.083L272.123 139.827C272.123 139.827 274.975 131.844 281.511 127.453" stroke="#263238" stroke-linecap="round" stroke-linejoin="round"/>
<path d="M275.722 126.156C275.722 126.156 272.291 133.763 272.123 139.844" stroke="white" stroke-linecap="round" stroke-linejoin="round"/>
<path d="M278.586 129.775C278.586 129.775 272.713 138.144 272.713 141.929C272.713 145.714 274.26 177.296 274.26 177.296L270.24 204.562" stroke="white" stroke-linecap="round" stroke-linejoin="round"/>
<path d="M242.142 67.7323C242.142 67.7323 238.111 77.7271 238.49 79.1601C238.869 80.5932 239.248 82.7796 239.248 82.7796C239.248 82.7796 232.933 89.5867 233.712 90.3583C234.491 91.13 237.985 92.0027 237.985 92.0027C237.985 92.0027 240.879 102.549 242.016 103.532C243.152 104.515 250.193 102.328 250.193 102.328L257.739 110.669L273.209 97.7166L271.325 90.9095C271.325 90.9095 279.502 78.3885 279.376 72.4541C279.25 66.5197 265.295 58.6194 255.35 58.7297C245.404 58.8399 236.101 62.0276 237.985 64.3333C239.094 65.699 240.508 66.8551 242.142 67.7323Z" fill="white"/>
<path d="M274.491 65.5898C272.574 65.8342 270.702 66.2975 268.924 66.9678L254.095 72.2132C254.095 72.2132 247.034 77.4494 247.781 81.4547C248.528 85.46 254.843 91.0085 253.432 95.0138C252.022 99.019 243.192 103.337 243.192 103.337L245.96 103.428C248.065 102.997 250.233 102.326 250.233 102.326L251.391 103.603L265.682 104.053L273.249 97.7146L271.365 90.9075C271.365 90.9075 279.543 78.3865 279.416 72.4521C279.332 70.2657 277.396 67.8129 274.491 65.5898Z" fill="#B8B8B8"/>
<path d="M242.142 67.7323C242.142 67.7323 238.111 77.7271 238.49 79.1601C238.869 80.5932 239.248 82.7796 239.248 82.7796C239.248 82.7796 232.933 89.5867 233.712 90.3583C234.491 91.13 237.985 92.0027 237.985 92.0027C237.985 92.0027 240.879 102.549 242.016 103.532C243.152 104.515 250.193 102.328 250.193 102.328L257.739 110.669L273.209 97.7166L271.325 90.9095C271.325 90.9095 279.502 78.3885 279.376 72.4541C279.25 66.5197 265.295 58.6194 255.35 58.7297C245.404 58.8399 236.101 62.0276 237.985 64.3333C239.094 65.699 240.508 66.8551 242.142 67.7323Z" stroke="#263238" stroke-linecap="round" stroke-linejoin="round"/>
<path d="M271.324 90.9095C271.324 90.9095 279.501 78.3885 279.375 72.4541C279.249 66.5197 265.294 58.6194 255.349 58.7297C245.403 58.8399 236.1 62.0276 237.984 64.3333C239.093 65.699 240.507 66.8551 242.141 67.7323C242.141 67.7323 248.308 70.2586 248.308 70.92C248.308 71.5814 244.656 75.0906 245.919 76.6339C247.182 78.1772 253.212 80.0328 253.212 80.0328C253.212 80.0328 252.16 83 253.717 83.3308C255.275 83.6615 255.98 82.3386 256.98 81.4935C257.98 80.6483 261.516 79.399 262.021 83.1378C262.318 85.8196 261.512 88.5061 259.748 90.7166C259.253 91.0381 266.167 95.1077 269.219 93.8951C270.009 93.5827 270.935 93.1694 271.861 92.7376L271.324 90.9095Z" fill="#263238" stroke="#263238" stroke-linecap="round" stroke-linejoin="round"/>
<path d="M241.13 85.5262C241.618 85.5262 242.014 84.1977 242.014 82.559C242.014 80.9203 241.618 79.5918 241.13 79.5918C240.642 79.5918 240.246 80.9203 240.246 82.559C240.246 84.1977 240.642 85.5262 241.13 85.5262Z" stroke="#263238" stroke-linecap="round" stroke-linejoin="round"/>
<path d="M242.141 81.3535L256.98 81.463" stroke="#263238" stroke-linecap="round" stroke-linejoin="round"/>
<path d="M239.699 77.7827C239.699 77.7827 241.109 75.8168 242.52 78.2695" stroke="#263238" stroke-linecap="round" stroke-linejoin="round"/>
<path d="M239.415 93.794C240.941 93.2512 242.362 92.5043 243.625 91.5801" stroke="#263238" stroke-linecap="round" stroke-linejoin="round"/>
</svg>
