<svg width="27" height="27" viewBox="0 0 27 27" fill="none" xmlns="http://www.w3.org/2000/svg">
<path d="M11.8608 26.8991C9.45276 26.5869 6.97382 25.5541 5.1682 24.1088C1.10301 20.8654 -0.74227 15.7413 0.312418 10.6527C0.764668 8.45553 1.94254 6.14366 3.45032 4.47809C4.56103 3.22808 5.90048 2.20194 7.39654 1.45494C9.38273 0.448344 11.2812 -0.00390625 13.5222 -0.00390625C15.1304 -0.00390625 16.423 0.207031 17.9038 0.712438C19.8491 1.37971 21.6164 2.48231 23.071 3.93618C24.5257 5.39006 25.6291 7.15683 26.2974 9.10184C27.0888 11.4222 27.2331 13.8918 26.7277 16.3395C26.3235 18.2734 25.2815 20.4486 23.999 22.0213C23.4717 22.6719 22.2584 23.832 21.6213 24.302C19.7155 25.7174 17.4742 26.6124 15.1177 26.8991C14.4233 26.9868 12.5333 26.9826 11.8617 26.8991H11.8608ZM15.5396 25.7701C18.8288 25.2188 21.7643 23.3836 23.7003 20.668C25.981 17.4643 26.5919 13.1662 25.3043 9.41825C25.0014 8.53906 24.2496 7.07178 23.7003 6.29806C23.0894 5.43238 21.5774 3.91616 20.7075 3.30528C19.8638 2.70791 18.4269 1.98228 17.4464 1.66166C15.6767 1.07368 13.7974 0.890868 11.9475 1.12673C10.0976 1.36258 8.32429 2.01108 6.75867 3.02431C5.28563 3.99194 4.02645 5.25111 3.05882 6.72416C2.04585 8.28894 1.39748 10.0614 1.16162 11.9104C0.925758 13.7595 1.10844 15.6379 1.69617 17.4069C2.02101 18.3865 2.74664 19.8284 3.33979 20.6722C3.95489 21.5379 5.46689 23.0541 6.33257 23.665C7.11051 24.21 8.57357 24.961 9.45276 25.2689C11.4097 25.9338 13.5003 26.1059 15.5396 25.7701ZM10.8635 21.2434C10.2327 21.1483 9.62748 20.927 9.08404 20.5929C8.59636 20.2807 4.91339 16.6728 4.73367 16.3345C4.52695 15.948 4.88723 15.2443 5.40192 15.0292L5.64323 14.9279L4.90073 14.1719C4.49236 13.7543 4.10507 13.3105 4.04348 13.1873C3.89836 12.9063 3.89414 12.3039 4.02998 12.0356C4.08736 11.9259 4.2232 11.7588 4.32867 11.666C4.50923 11.5167 4.52611 11.4635 4.50923 11.0855C4.48729 10.7514 4.51767 10.6198 4.66279 10.3692C4.87373 10.0089 5.30911 9.76672 5.7352 9.7625C5.97229 9.7625 6.03389 9.73213 6.13514 9.55578C6.39923 9.09425 7.15439 8.92719 7.73067 9.209L8.04286 9.35834L8.19642 9.209C8.40736 9.01578 8.82923 8.8445 9.10598 8.8445C9.65948 8.8445 10.4416 9.48153 10.4416 9.92956C10.4416 10.4653 9.95395 10.5582 9.47048 10.1143C9.14986 9.81566 8.98701 9.78444 8.85539 9.99537C8.78957 10.0966 8.94736 10.2856 9.89235 11.2391C10.8374 12.1883 11.0086 12.3908 11.0086 12.5705C11.0012 12.7083 10.9425 12.8383 10.8442 12.935C10.7459 13.0318 10.6149 13.0884 10.4771 13.0936C10.3058 13.0936 10.0248 12.8472 8.72798 11.5555C7.40498 10.2367 7.16367 10.0258 7.0582 10.0924C6.77217 10.273 6.8692 10.4046 8.41579 11.9554C9.25532 12.7992 9.94551 13.5459 9.94551 13.6167C9.94551 13.7619 9.81389 14.0302 9.7042 14.1002C9.61422 14.1397 9.51633 14.1579 9.41817 14.1534C9.23761 14.1576 8.96086 13.907 7.48936 12.4397C6.01279 10.9716 5.7487 10.7345 5.64323 10.8003C5.35298 10.9851 5.45001 11.1125 7.13329 12.8042C8.05214 13.7231 8.82079 14.5449 8.84273 14.6326C8.89082 14.7912 8.78536 15.068 8.64529 15.1642C8.55235 15.2037 8.45172 15.2219 8.35082 15.2173C8.17026 15.2173 7.94245 15.0199 6.72492 13.8024C5.55126 12.6287 5.27873 12.3874 5.12939 12.4009C4.70751 12.449 4.85685 12.638 7.03626 14.8225C8.92626 16.7167 9.16757 16.985 9.16757 17.1824C9.16948 17.2549 9.15318 17.3267 9.12016 17.3913C9.08714 17.4559 9.03846 17.5111 8.97857 17.552C8.64023 17.8203 8.50861 17.7587 7.65557 16.9327C7.2202 16.515 6.77217 16.1109 6.6532 16.0358C6.43804 15.9042 5.89298 15.8468 5.79173 15.9522C5.75629 15.9826 6.56039 16.8314 7.57626 17.8372C9.26798 19.5112 9.4612 19.6833 9.95817 19.9204C10.416 20.1484 10.9202 20.2677 11.4316 20.2692C11.9431 20.2707 12.448 20.1542 12.9071 19.9288C14.3263 19.2522 15.1135 17.6085 14.7262 16.1185C14.533 15.376 14.2908 15.0199 13.3154 14.0133C12.1907 12.8616 11.9309 12.5452 11.6541 11.9917C11.3461 11.3724 11.2145 10.7699 11.2145 10.0182C11.2145 9.20478 11.298 8.83606 11.6583 8.07584C12.0009 7.35106 12.7172 6.59084 13.4251 6.19934C14.8139 5.42563 16.6424 5.49144 17.9687 6.35797C18.2328 6.52925 19.1863 7.42616 20.3726 8.61669C22.1352 10.3835 22.3368 10.6122 22.3368 10.8138C22.3368 11.2931 21.9453 11.8246 21.5108 11.9343C21.3479 11.9782 21.3792 12.0221 22.1174 12.7738C22.5478 13.2092 22.9477 13.6792 23.0093 13.8243C23.216 14.3213 23.1232 14.8039 22.7452 15.1996C22.552 15.4021 22.5258 15.4722 22.5208 15.8763C22.5165 16.2324 22.4769 16.3817 22.336 16.5842C22.2247 16.749 22.0757 16.8847 21.9013 16.9803C21.727 17.0758 21.5323 17.1283 21.3336 17.1335C21.0611 17.1335 21.0088 17.1597 20.8721 17.3664C20.5641 17.8414 19.7642 18.0076 19.2462 17.7005L18.9871 17.5469L18.8024 17.7275C18.394 18.119 17.7342 18.1713 17.2338 17.8507C16.8297 17.5959 16.531 17.2398 16.531 17.0154C16.531 16.8179 16.817 16.4922 16.9925 16.4922C17.1596 16.4922 17.384 16.6239 17.6388 16.8618C17.8936 17.1031 18.1139 17.1031 18.1484 16.8576C18.1662 16.726 17.9552 16.4754 17.1022 15.6181C16.2053 14.7128 16.034 14.5061 16.034 14.3306C16.032 14.2326 16.0501 14.1352 16.0872 14.0445C16.1842 13.8994 16.4567 13.7982 16.6229 13.842C16.7107 13.864 17.4532 14.5499 18.2666 15.3625C19.0842 16.1801 19.8005 16.8475 19.8663 16.8475C20.0469 16.8475 20.165 16.6669 20.0815 16.5133C20.0418 16.4433 19.3516 15.7354 18.5518 14.9355C17.2996 13.6876 17.0971 13.4548 17.0971 13.27C17.093 13.1705 17.1112 13.0713 17.1503 12.9797C17.2254 12.87 17.4886 12.7384 17.638 12.7384C17.7038 12.7384 18.5298 13.5071 19.4748 14.4478C21.2062 16.1708 21.3336 16.267 21.5142 15.9818C21.58 15.8763 21.3429 15.608 19.8748 14.1357C18.3585 12.6152 18.1569 12.3866 18.1569 12.1891C18.1569 12.0533 18.2185 11.9124 18.3155 11.8246C18.6361 11.5217 18.7332 11.5833 20.2933 13.1341C21.7698 14.6065 21.9014 14.7027 22.082 14.4217C22.1478 14.3162 21.8491 13.9914 20.0165 12.1537C18.021 10.1498 17.8768 9.98694 17.8768 9.75406C17.8768 9.40222 18.0793 9.23516 18.4699 9.26216C18.5399 9.26638 18.9618 9.62244 19.3972 10.0485C19.8368 10.4746 20.311 10.8746 20.4519 10.9362C20.7286 11.0501 21.0493 11.0678 21.1859 10.98C21.3176 10.8965 17.67 7.30634 17.1959 7.05575C16.7893 6.83631 16.3421 6.7024 15.8818 6.66225C15.4216 6.62211 14.9579 6.67659 14.5195 6.82234C14.0811 6.96809 13.6771 7.20202 13.3325 7.50973C12.9879 7.81745 12.7099 8.19244 12.5156 8.61163C12.2869 9.09931 12.2565 9.24444 12.2253 9.87303C12.1992 10.4662 12.2211 10.651 12.3485 11.029C12.5772 11.7014 12.7746 11.9782 13.7989 13.0244C14.9068 14.1584 15.1177 14.4175 15.3987 15.0241C16.1901 16.7116 15.856 18.6632 14.5507 19.9634C13.5576 20.9607 12.2042 21.4265 10.8635 21.2426V21.2434Z" fill="#262626"/>
</svg>
