<svg width="178" height="27" viewBox="0 0 178 27" fill="none" xmlns="http://www.w3.org/2000/svg">
<g clip-path="url(#clip0_1_532)">
<path d="M33.0545 24.1247L17.1591 16.5857V0L33.0545 24.1247ZM34.3183 27L17.1591 19.8643V27H34.3183Z" fill="#98002E"/>
<path d="M1.26373 24.1247L17.1591 0V16.5857L1.26373 24.1247Z" fill="#E31837"/>
<path d="M-6.10352e-05 27H17.1591V19.8643L-6.10352e-05 27Z" fill="#E31837"/>
<path d="M35.7067 22.0558C36.3297 22.0558 36.8459 22.5468 36.8459 23.1604C36.8459 23.774 36.3475 24.2825 35.7245 24.2825C35.1015 24.2825 34.5853 23.7916 34.5853 23.1779C34.5853 22.5468 35.0837 22.0558 35.7067 22.0558ZM35.7067 24.1071C36.2407 24.1071 36.6679 23.6864 36.6679 23.1604C36.6679 22.6344 36.2407 22.2136 35.7067 22.2136C35.1727 22.2136 34.7455 22.6344 34.7455 23.1604C34.7455 23.6864 35.1727 24.1071 35.7067 24.1071ZM35.4575 23.8091H35.2973V22.5292H35.7957C36.0983 22.5292 36.2051 22.652 36.2051 22.8799C36.2229 23.0727 36.0627 23.2305 35.8847 23.2481L36.2763 23.8091H36.0983L35.7067 23.2481H35.4753L35.4575 23.8091ZM35.4575 23.0903H35.6711C35.8491 23.0903 36.0449 23.0727 36.0449 22.8623C36.0449 22.7045 35.8847 22.652 35.7601 22.652H35.4753V23.0903H35.4575Z" fill="#98002E"/>
<path d="M47.7217 24.1247H55.4291C63.3679 24.1247 68.0849 20.0747 68.0849 13.3598C68.0849 6.64483 63.3679 2.61237 55.4291 2.61237H47.7217V24.1247ZM52.5989 6.34678H55.4291C60.5733 6.34678 63.1543 8.85392 63.1543 13.3598C63.1543 17.8656 60.5733 20.3728 55.4291 20.3728H52.5989V6.34678Z" fill="#003D79"/>
<path d="M84.6745 14.7974H93.9483V11.063H84.6745V6.34678H95.1587V2.61237H79.7795V24.1247H95.4969V20.3903H84.6745V14.7974Z" fill="#003D79"/>
<path d="M123.301 20.3903H113.884V2.61237H108.989V24.1247H123.301V20.3903Z" fill="#003D79"/>
<path d="M149.645 2.61237H130.047V6.34678H137.38V24.1247H142.293V6.34678H149.645V2.61237Z" fill="#003D79"/>
<path d="M178 24.1247H172.891L170.755 18.7422H161.873L159.737 24.1247H154.967L164.098 2.52469H169.029L178 24.1247ZM169.367 15.1305L166.323 7.48638L163.262 15.1305H169.367Z" fill="#003D79"/>
</g>
<defs>
<clipPath id="clip0_1_532">
<rect width="178" height="27" fill="white"/>
</clipPath>
</defs>
</svg>
