<svg width="50" height="50" viewBox="0 0 50 50" fill="none" xmlns="http://www.w3.org/2000/svg">
<path d="M21.705 19.7821L19.3749 19.1998L15.6249 18.2623V16.651C19.2756 15.7935 21.8749 12.5552 21.8749 8.75024C21.8749 4.27032 18.2299 0.625244 13.7499 0.625244C9.27001 0.625244 5.62494 4.27032 5.62494 8.75024C5.62494 12.5552 8.2243 15.7935 11.8749 16.6517V20.7692C11.2957 20.2962 10.5661 20.0005 9.76108 20.0005C8.8593 20.0005 8.12494 20.7342 8.12494 21.6366C8.12494 21.8891 8.18493 22.1422 8.29738 22.3685L9.0443 23.8629C9.26054 24.2948 9.37494 24.778 9.37494 25.261V28.0604C9.37494 29.0498 9.71562 30.0205 10.3331 30.7937L11.7374 32.5487C11.0105 33.7861 10.6249 35.186 10.6249 36.6285V39.3754H21.8749V36.6285C21.8749 35.186 21.4893 33.7852 20.7625 32.5478L22.1668 30.7928C22.7843 30.0197 23.1249 29.0498 23.1249 28.0604V21.6017C23.1249 20.7398 22.5407 19.9917 21.705 19.7822V19.7821ZM11.875 12.5V13.1442C11.5332 12.0772 11.3136 10.7648 11.2626 9.37494H16.2369C16.1856 10.765 15.9668 12.0775 15.6245 13.1442V12.5C15.6245 11.4662 14.7833 10.625 13.7495 10.625C12.7157 10.625 11.8751 11.4662 11.8751 12.5H11.875ZM10.2762 11.875H7.62501C7.23634 11.1099 6.98243 10.2667 6.90265 9.37498H10.019C10.048 10.2525 10.1337 11.0932 10.2763 11.875H10.2762ZM13.75 1.87498C14.4219 1.87498 15.1376 2.82919 15.6306 4.37498H11.8686C12.3624 2.82919 13.0782 1.87498 13.75 1.87498ZM15.9495 5.62498C16.1021 6.38055 16.2045 7.22069 16.2369 8.12498H11.2631C11.2955 7.22069 11.3987 6.38055 11.5505 5.62498H15.9495ZM20.5932 8.12498H17.4864C17.4576 7.23798 17.3714 6.39812 17.2308 5.62498H19.8659C20.2576 6.38812 20.5126 7.23127 20.5933 8.12498H20.5932ZM17.4808 9.37498H20.5972C20.5171 10.2667 20.2634 11.1099 19.8748 11.875H17.2236C17.3664 11.0932 17.4521 10.2525 17.4808 9.37498H17.4808ZM10.0137 8.12498H6.9068C6.98799 7.23127 7.24245 6.38812 7.63422 5.62498H10.2693C10.1287 6.39812 10.0419 7.23798 10.0137 8.12498H10.0137ZM16.0574 15.2288C16.4098 14.6456 16.7112 13.9406 16.9419 13.125H19.0599C18.2817 14.0706 17.253 14.8069 16.0574 15.2288V15.2288ZM19.0494 4.37519H16.9411C16.7112 3.56577 16.4179 2.86155 16.0717 2.28705C17.2424 2.70949 18.27 3.43327 19.0494 4.37519ZM11.4287 2.28705C11.0824 2.86155 10.7891 3.56577 10.5592 4.37519H8.45044C9.22973 3.43319 10.2574 2.70948 11.4287 2.28705ZM8.4398 13.1249H10.5578C10.7885 13.9405 11.0902 14.6456 11.4423 15.2287C10.2467 14.8068 9.21794 14.0705 8.4398 13.1249ZM20.6248 38.1249H11.8748V36.628C11.8748 35.3881 12.2085 34.1835 12.8441 33.1249H19.6554C20.291 34.1838 20.6247 35.3881 20.6247 36.628L20.6248 38.1249ZM21.8748 28.0599C21.8748 28.7661 21.6318 29.4601 21.1898 30.0125L19.6993 31.8749H12.8003L11.3098 30.0119C10.8678 29.4592 10.6248 28.7661 10.6248 28.0599V25.2606C10.6248 24.5842 10.4649 23.9081 10.1631 23.3038L9.41613 21.8093C9.3885 21.7555 9.37483 21.6955 9.37483 21.6361C9.37483 21.4229 9.54782 21.2499 9.76099 21.2499C10.9261 21.2499 11.8748 22.198 11.8748 23.3638V26.2499H13.1248V12.4999C13.1248 12.1556 13.405 11.8749 13.7498 11.8749C14.0947 11.8749 14.3748 12.1556 14.3748 12.4999V26.2499H15.6248V19.5504L16.8748 19.8629V26.2499H18.1248V20.1754L19.3748 20.4879V26.2499H20.6248V20.8004L21.4011 20.9949C21.6798 21.0644 21.8748 21.3135 21.8748 21.6012L21.8748 28.0599Z" fill="white"/>
<path d="M44.375 10.4771V7.02341L42.7344 6.57475C42.6805 6.43106 42.6205 6.28792 42.5555 6.14674L43.3998 4.66852L40.9578 2.22602L39.4785 3.06974C39.3367 3.00473 39.1941 2.94474 39.051 2.89089L38.6023 1.25024H35.1481L34.6995 2.89089C34.5563 2.94474 34.4138 3.00389 34.272 3.06974L32.7927 2.22602L30.3507 4.66852L31.1949 6.14674C31.1299 6.28792 31.0699 6.43106 31.0161 6.57475L29.3749 7.02341V10.4771L31.0155 10.9258C31.0694 11.0695 31.1294 11.2126 31.1944 11.3538L30.3501 12.832L32.7921 15.2745L34.2714 14.4308C34.4132 14.4958 34.5558 14.5558 34.6989 14.6096L35.1476 16.2503H38.6018L39.0504 14.6096C39.1936 14.5558 39.3361 14.4966 39.4779 14.4308L40.9572 15.2745L43.3992 12.832L42.555 11.3538C42.62 11.2126 42.68 11.0695 42.7338 10.9258L44.375 10.4771ZM41.8407 12.6228L40.7475 13.7165L39.5107 13.0108L39.2077 13.1707C38.9264 13.3194 38.6376 13.4394 38.3508 13.5281L38.0232 13.6294L37.6477 15.0002H36.1019L35.7263 13.6296L35.3988 13.5284C35.1119 13.4396 34.8232 13.3197 34.5419 13.1709L34.2389 13.0111L33.002 13.7167L31.9088 12.623L32.615 11.3861L32.4537 11.0823C32.3061 10.8041 32.1856 10.5161 32.0963 10.2266L31.9956 9.89843L30.625 9.52343V7.97714L31.9956 7.60214L32.0963 7.27402C32.1864 6.98467 32.3064 6.69645 32.4537 6.4183L32.615 6.11445L31.9088 4.87759L33.002 3.78388L34.2389 4.48952L34.5419 4.32964C34.8232 4.18092 35.1119 4.06094 35.3988 3.97222L35.7263 3.87093L36.1024 2.50036H37.6482L38.0238 3.87093L38.3513 3.97222C38.6382 4.06094 38.927 4.18092 39.2082 4.32964L39.5112 4.48952L40.7481 3.78388L41.8413 4.87759L41.1351 6.11445L41.2964 6.4183C41.444 6.69648 41.5645 6.98443 41.6538 7.27402L41.7545 7.60214L43.1251 7.97714V9.52343L41.7545 9.89843L41.6538 10.2266C41.5637 10.5159 41.4437 10.8041 41.2964 11.0823L41.1351 11.3861L41.8407 12.6228Z" fill="white"/>
<path d="M36.875 5C34.8069 5 33.125 6.68193 33.125 8.75C33.125 10.8181 34.8069 12.5 36.875 12.5C38.9431 12.5 40.625 10.8181 40.625 8.75C40.625 6.68193 38.9431 5 36.875 5ZM36.875 11.25C35.4964 11.25 34.375 10.1286 34.375 8.75C34.375 7.37136 35.4964 6.25 36.875 6.25C38.2536 6.25 39.375 7.37136 39.375 8.75C39.375 10.1286 38.2536 11.25 36.875 11.25Z" fill="white"/>
<path d="M40.6214 20.1792C39.4289 19.1131 37.8252 18.6067 36.2222 18.7867C33.6898 19.0729 31.6189 21.1137 31.2972 23.6385C31.0179 25.8316 31.9959 27.9298 33.8502 29.1142C34.1739 29.321 34.3753 29.7205 34.3753 30.1561L34.3751 31.2498C34.3751 32.6285 35.4964 33.7498 36.8751 33.7498C38.2537 33.7498 39.3751 32.6285 39.3751 31.2498V30.1298C39.3751 29.7116 39.5813 29.3192 39.9138 29.1055C41.5333 28.0648 42.5001 26.2961 42.5001 24.3748C42.5001 22.775 41.8151 21.2454 40.6214 20.1792H40.6214ZM36.8751 32.5C36.1856 32.5 35.6251 31.9394 35.6251 31.25H38.1251C38.1251 31.9394 37.5645 32.5 36.8751 32.5ZM36.2501 24.375C36.2501 24.0306 36.5302 23.75 36.8751 23.75C37.2199 23.75 37.5001 24.0306 37.5001 24.375C37.5001 24.7193 37.2199 25 36.8751 25C36.5302 25 36.2501 24.7193 36.2501 24.375ZM39.2375 28.0544C38.5768 28.4793 38.1731 29.2 38.1326 30H37.5V26.135C38.2258 25.8764 38.75 25.1889 38.75 24.375C38.75 23.3412 37.9088 22.5 36.875 22.5C35.8413 22.5 35 23.3412 35 24.375C35 25.1886 35.5243 25.8761 36.25 26.135V30H35.6156C35.5692 29.1925 35.1711 28.4748 34.5223 28.0605C33.0798 27.1387 32.3192 25.505 32.5368 23.7969C32.7863 21.8362 34.3956 20.2511 36.3619 20.0287C36.5363 20.0095 36.7087 20 36.8801 20C37.9588 20 38.9763 20.3856 39.7888 21.1114C40.7168 21.9406 41.2501 23.1306 41.2501 24.375C41.2501 25.8689 40.4981 27.2444 39.2375 28.0544L39.2375 28.0544Z" fill="white"/>
<path d="M23.125 8.125H28.125V9.375H23.125V8.125Z" fill="white"/>
<path d="M27.7586 5H29.3749V3.75H27.2413L25.3663 5.625H23.1249V6.875H25.8836L27.7586 5Z" fill="white"/>
<path d="M26.875 11.875H23.125V13.125H25.625V24.375H30V23.125H26.875V11.875Z" fill="white"/>
</svg>
