<svg width="50" height="50" viewBox="0 0 50 50" fill="none" xmlns="http://www.w3.org/2000/svg">
<path d="M41.875 21.875V20H38.75V5C38.75 3.9375 37.9375 3.125 36.875 3.125H25V1.25H15V3.125H13.125C12.0625 3.125 11.25 3.9375 11.25 5V20H8.125V21.875C8.125 22.75 8.6875 23.4375 9.5 23.6875L10.5 26.75L8.5625 28.9375L11.6875 33.4375L14.5 32.25L17 34.125L16.75 37.1875L21.8125 38.875L23.375 36.25H26.5L28.0625 38.875L33.125 37.1875L32.875 34.125L35.375 32.25L38.1875 33.4375L41.3125 28.9375L39.375 26.75L40.375 23.6875C41.3125 23.4375 41.875 22.75 41.875 21.875ZM28.125 17.5V15H30V17.5H28.125ZM30 13.75H28.125V11.875H30V13.75ZM26.875 13.75H25V11.875H26.875V13.75ZM26.875 15V17.5H25V15H26.875ZM30 10.625H28.125V8.125H30V10.625ZM26.875 10.625H25V8.125H26.875V10.625ZM23.75 2.5V17.5H22.5V13.125H17.5V17.5H16.25V2.5H23.75ZM21.25 17.5H18.75V14.375H21.25V17.5ZM12.5 5C12.5 4.625 12.75 4.375 13.125 4.375H15V17.5H13.75V18.75H36.25V17.5H35V15.5C35.75 15.25 36.25 14.5625 36.25 13.75V10C36.25 8.9375 35.4375 8.125 34.375 8.125C33.3125 8.125 32.5 8.9375 32.5 10V13.75C32.5 14.5625 33 15.25 33.75 15.5V17.5H31.25V6.875H25V4.375H36.875C37.25 4.375 37.5 4.625 37.5 5V20H12.5V5ZM33.75 13.75V10C33.75 9.625 34 9.375 34.375 9.375C34.75 9.375 35 9.625 35 10V13.75C35 14.125 34.75 14.375 34.375 14.375C34 14.375 33.75 14.125 33.75 13.75ZM9.375 21.25H40.625V21.875C40.625 22.25 40.375 22.5 40 22.5H10C9.625 22.5 9.375 22.25 9.375 21.875V21.25ZM34.1879 23.75C33.1254 28.8125 28.1879 32.125 23.125 31.0629C19.4375 30.3129 16.5625 27.4379 15.8121 23.75H34.1879ZM39.8129 29L37.8129 31.8125L35.3129 30.75L31.6254 33.5L31.8754 36.3125L28.6879 37.375L27.2504 35H22.6879L21.2504 37.375L18.1254 36.3125L18.3754 33.5L14.6879 30.75L12.1879 31.8125L10.1879 29L12.0004 27L10.8754 23.75H14.5629C15.6254 29.5 21.1254 33.375 26.8757 32.3129C31.2507 31.5629 34.6886 28.1254 35.4386 23.75H39.1261L38.0636 27L39.8129 29Z" fill="white"/>
<path d="M22.5 3.75H17.5V11.875H22.5V3.75ZM21.25 5V7.5H18.75V5H21.25ZM18.75 10.625V8.75H21.25V10.625H18.75Z" fill="white"/>
<path d="M25 30V28.75C22.625 28.75 20.5 27.4375 19.4375 25.3125L18.3125 25.875C19.625 28.4375 22.1875 30 25 30Z" fill="white"/>
<path d="M29.0629 28.8129L28.3754 27.7504C27.8754 28.0629 27.2504 28.3754 26.6879 28.5004L27.0004 29.6879C27.7504 29.5004 28.4379 29.1879 29.0629 28.8129Z" fill="black"/>
<path d="M31.6871 25.9371L30.5621 25.3746C30.3121 25.8746 29.9371 26.3746 29.5621 26.8121L30.4996 27.6871C30.9371 27.1246 31.3746 26.5621 31.6871 25.9371Z" fill="black"/>
</svg>
