<svg width="45" height="45" viewBox="0 0 45 45" fill="none" xmlns="http://www.w3.org/2000/svg">
<path d="M12.3047 33.0469H15.8203C16.0137 33.0469 16.1719 32.8887 16.1719 32.6953V12.3047C16.1719 12.1113 16.0137 11.9531 15.8203 11.9531H12.3047C12.1113 11.9531 11.9531 12.1113 11.9531 12.3047V32.6953C11.9531 32.8887 12.1113 33.0469 12.3047 33.0469ZM20.7422 20.7422H24.2578C24.4512 20.7422 24.6094 20.584 24.6094 20.3906V12.3047C24.6094 12.1113 24.4512 11.9531 24.2578 11.9531H20.7422C20.5488 11.9531 20.3906 12.1113 20.3906 12.3047V20.3906C20.3906 20.584 20.5488 20.7422 20.7422 20.7422ZM29.1797 23.9062H32.6953C32.8887 23.9062 33.0469 23.748 33.0469 23.5547V12.3047C33.0469 12.1113 32.8887 11.9531 32.6953 11.9531H29.1797C28.9863 11.9531 28.8281 12.1113 28.8281 12.3047V23.5547C28.8281 23.748 28.9863 23.9062 29.1797 23.9062ZM38.6719 4.92188H6.32812C5.55029 4.92188 4.92188 5.55029 4.92188 6.32812V38.6719C4.92188 39.4497 5.55029 40.0781 6.32812 40.0781H38.6719C39.4497 40.0781 40.0781 39.4497 40.0781 38.6719V6.32812C40.0781 5.55029 39.4497 4.92188 38.6719 4.92188ZM36.9141 36.9141H8.08594V8.08594H36.9141V36.9141Z" fill="white"/>
</svg>
