<svg width="29" height="32" viewBox="0 0 29 32" fill="none" xmlns="http://www.w3.org/2000/svg">
<path d="M16.25 14.7812C16.6458 14.9375 17.0312 15.1094 17.4062 15.2969C17.7812 15.4844 18.1458 15.6979 18.5 15.9375C18.2708 16.1875 18.0625 16.4479 17.875 16.7188C17.6875 16.9896 17.5156 17.2812 17.3594 17.5938C16.5573 17.0729 15.7031 16.6771 14.7969 16.4062C13.8906 16.1354 12.9583 16 12 16C11.0833 16 10.1979 16.1198 9.34375 16.3594C8.48958 16.599 7.69271 16.9323 6.95312 17.3594C6.21354 17.7865 5.54167 18.3073 4.9375 18.9219C4.33333 19.5365 3.8125 20.2135 3.375 20.9531C2.9375 21.6927 2.59896 22.4896 2.35938 23.3438C2.11979 24.1979 2 25.0833 2 26H0C0 24.75 0.182292 23.5469 0.546875 22.3906C0.911458 21.2344 1.4375 20.1667 2.125 19.1875C2.8125 18.2083 3.625 17.3385 4.5625 16.5781C5.5 15.8177 6.5625 15.2188 7.75 14.7812C6.57292 14.0104 5.65625 13.0417 5 11.875C4.34375 10.7083 4.01042 9.41667 4 8C4 6.89583 4.20833 5.85938 4.625 4.89062C5.04167 3.92188 5.60938 3.07292 6.32812 2.34375C7.04688 1.61458 7.89583 1.04167 8.875 0.625C9.85417 0.208333 10.8958 0 12 0C13.1042 0 14.1406 0.208333 15.1094 0.625C16.0781 1.04167 16.9271 1.60938 17.6562 2.32812C18.3854 3.04688 18.9583 3.89583 19.375 4.875C19.7917 5.85417 20 6.89583 20 8C20 8.6875 19.9167 9.35938 19.75 10.0156C19.5833 10.6719 19.3333 11.2917 19 11.875C18.6667 12.4583 18.276 12.9948 17.8281 13.4844C17.3802 13.974 16.8542 14.4062 16.25 14.7812ZM6 8C6 8.83333 6.15625 9.60938 6.46875 10.3281C6.78125 11.0469 7.20833 11.6823 7.75 12.2344C8.29167 12.7865 8.92708 13.2188 9.65625 13.5312C10.3854 13.8438 11.1667 14 12 14C12.8229 14 13.599 13.8438 14.3281 13.5312C15.0573 13.2188 15.6927 12.7917 16.2344 12.25C16.776 11.7083 17.2083 11.0729 17.5312 10.3438C17.8542 9.61458 18.0104 8.83333 18 8C18 7.17708 17.8438 6.40104 17.5312 5.67188C17.2188 4.94271 16.7917 4.30729 16.25 3.76562C15.7083 3.22396 15.0677 2.79167 14.3281 2.46875C13.5885 2.14583 12.8125 1.98958 12 2C11.1667 2 10.3906 2.15625 9.67188 2.46875C8.95312 2.78125 8.31771 3.20833 7.76562 3.75C7.21354 4.29167 6.78125 4.93229 6.46875 5.67188C6.15625 6.41146 6 7.1875 6 8ZM29 21C29 21.5417 28.9167 22.0677 28.75 22.5781C28.5833 23.0885 28.3333 23.5625 28 24V32L24 30L20 32V24C19.6771 23.5625 19.4323 23.0885 19.2656 22.5781C19.099 22.0677 19.0104 21.5417 19 21C19 20.3125 19.1302 19.6667 19.3906 19.0625C19.651 18.4583 20.0052 17.9323 20.4531 17.4844C20.901 17.0365 21.4323 16.6771 22.0469 16.4062C22.6615 16.1354 23.3125 16 24 16C24.6875 16 25.3333 16.1302 25.9375 16.3906C26.5417 16.651 27.0677 17.0104 27.5156 17.4688C27.9635 17.9271 28.3229 18.4583 28.5938 19.0625C28.8646 19.6667 29 20.3125 29 21ZM24 18C23.5833 18 23.1927 18.0781 22.8281 18.2344C22.4635 18.3906 22.1458 18.6042 21.875 18.875C21.6042 19.1458 21.3906 19.4635 21.2344 19.8281C21.0781 20.1927 21 20.5833 21 21C21 21.4167 21.0781 21.8073 21.2344 22.1719C21.3906 22.5365 21.6042 22.8542 21.875 23.125C22.1458 23.3958 22.4635 23.6094 22.8281 23.7656C23.1927 23.9219 23.5833 24 24 24C24.4167 24 24.8073 23.9219 25.1719 23.7656C25.5365 23.6094 25.8542 23.3958 26.125 23.125C26.3958 22.8542 26.6094 22.5365 26.7656 22.1719C26.9219 21.8073 27 21.4167 27 21C27 20.5833 26.9219 20.1927 26.7656 19.8281C26.6094 19.4635 26.3958 19.1458 26.125 18.875C25.8542 18.6042 25.5365 18.3906 25.1719 18.2344C24.8073 18.0781 24.4167 18 24 18ZM26 28.7656V25.5781C25.375 25.8594 24.7083 26 24 26C23.2917 26 22.625 25.8594 22 25.5781V28.7656C22.3333 28.599 22.6667 28.4375 23 28.2812C23.3333 28.125 23.6667 27.9531 24 27.7656C24.3333 27.9427 24.6667 28.1094 25 28.2656C25.3333 28.4219 25.6667 28.5885 26 28.7656Z" fill="#FAFAFA"/>
</svg>
