<svg width="30" height="24" viewBox="0 0 30 24" fill="none" xmlns="http://www.w3.org/2000/svg">
<g clip-path="url(#clip0_2744_18918)">
<path d="M21.614 20.2814H17.8554V14.7581C17.8554 13.441 17.8303 11.7456 15.9005 11.7456C13.9429 11.7456 13.6434 13.1806 13.6434 14.6622V20.2811H9.88474V8.92291H13.493V10.4751H13.5435C13.9046 9.89577 14.4264 9.41916 15.0534 9.09607C15.6803 8.77297 16.3889 8.61549 17.1036 8.64039C20.9132 8.64039 21.6155 10.9917 21.6155 14.0505L21.614 20.2814ZM5.64378 7.37033C5.21239 7.3704 4.79065 7.25043 4.43191 7.0256C4.07318 6.80076 3.79357 6.48115 3.62841 6.10719C3.46326 5.73323 3.41997 5.32171 3.50406 4.92467C3.58814 4.52763 3.79582 4.16291 4.1008 3.87662C4.40579 3.59033 4.7944 3.39533 5.21749 3.31629C5.64058 3.23724 6.07914 3.2777 6.47773 3.43254C6.87631 3.58739 7.21701 3.84966 7.45675 4.1862C7.69648 4.52274 7.82449 4.91844 7.82457 5.32324C7.82462 5.59202 7.76824 5.85817 7.65868 6.10651C7.54911 6.35485 7.3885 6.58051 7.186 6.7706C6.9835 6.96069 6.74306 7.11149 6.47845 7.21439C6.21383 7.31729 5.93022 7.37028 5.64378 7.37033ZM7.52309 20.2814H3.76056V8.92291H7.52309V20.2814ZM23.4878 0.00162171H1.87187C1.38125 -0.00357365 0.908478 0.174219 0.557484 0.49593C0.20649 0.817642 0.00598776 1.25695 0 1.71732V22.085C0.00578282 22.5456 0.206168 22.9852 0.55715 23.3072C0.908131 23.6293 1.38101 23.8074 1.87187 23.8025H23.4878C23.9796 23.8083 24.4538 23.6307 24.8062 23.3086C25.1586 22.9866 25.3603 22.5465 25.3671 22.085V1.71586C25.3601 1.25457 25.1582 0.814759 24.8058 0.493056C24.4535 0.171352 23.9794 -0.00593224 23.4878 0.000151565" fill="#0A66C2"/>
</g>
<defs>
<clipPath id="clip0_2744_18918">
<rect width="30" height="24" fill="white"/>
</clipPath>
</defs>
</svg>
