<svg width="22" height="23" viewBox="0 0 22 23" fill="none" xmlns="http://www.w3.org/2000/svg">
<path d="M18.7321 19.4663H15.4746V14.4033C15.4746 13.196 15.4529 11.6418 13.7804 11.6418C12.0838 11.6418 11.8243 12.9572 11.8243 14.3154V19.466H8.56678V9.05433H11.6939V10.4772H11.7377C12.0507 9.94612 12.5029 9.50923 13.0462 9.21306C13.5896 8.91689 14.2037 8.77253 14.8232 8.79535C18.1247 8.79535 18.7335 10.9507 18.7335 13.7547L18.7321 19.4663ZM4.89128 7.63113C4.5174 7.6312 4.1519 7.52123 3.84099 7.31513C3.53009 7.10903 3.28776 6.81606 3.14463 6.47326C3.00149 6.13046 2.96398 5.75323 3.03685 5.38928C3.10972 5.02533 3.28971 4.691 3.55403 4.42857C3.81835 4.16613 4.15515 3.98739 4.52183 3.91493C4.8885 3.84247 5.26859 3.87956 5.61403 4.0215C5.95947 4.16344 6.25475 4.40386 6.46252 4.71235C6.67029 5.02085 6.78122 5.38357 6.78129 5.75464C6.78133 6.00102 6.73248 6.24499 6.63752 6.47264C6.54256 6.70028 6.40337 6.90713 6.22787 7.08138C6.05236 7.25563 5.84398 7.39386 5.61465 7.48819C5.38532 7.58251 5.13952 7.63109 4.89128 7.63113ZM6.52001 19.4663H3.25915V9.05433H6.52001V19.4663ZM20.3561 0.876487H1.62229C1.19708 0.871724 0.787348 1.0347 0.483153 1.3296C0.178958 1.6245 0.00518939 2.0272 0 2.44921V21.1195C0.00501178 21.5418 0.178679 21.9447 0.482863 22.2399C0.787047 22.5352 1.19687 22.6984 1.62229 22.694H20.3561C20.7824 22.6993 21.1933 22.5364 21.4987 22.2412C21.8041 21.946 21.9789 21.5426 21.9848 21.1195V2.44787C21.9787 2.02502 21.8038 1.62186 21.4984 1.32697C21.193 1.03207 20.7821 0.869562 20.3561 0.875139" fill="white"/>
</svg>
