<svg width="81" height="60" viewBox="0 0 81 60" fill="none" xmlns="http://www.w3.org/2000/svg">
<g clip-path="url(#clip0_1_573)">
<path fill-rule="evenodd" clip-rule="evenodd" d="M78.3 57.4343C78.6553 57.4343 79.0105 57.4343 79.0105 56.9851C79.0105 56.6642 78.6553 56.6001 78.3711 56.6001H77.7316V57.4343H78.3ZM77.7316 58.9744H77.3053V56.215H78.4421C79.1526 56.215 79.5079 56.4717 79.5079 56.9851C79.5079 57.4985 79.1526 57.691 78.7263 57.7551L79.5789 58.9744H79.0816L78.3 57.7551H77.8026V58.9744H77.7316ZM78.3 59.6161C79.5079 59.6161 80.4316 58.7819 80.4316 57.6268C80.4316 56.4717 79.5079 55.6375 78.3 55.6375C77.0921 55.6375 76.1684 56.4717 76.1684 57.6268C76.1684 58.7819 77.0921 59.6161 78.3 59.6161ZM75.6711 57.6268C75.6711 56.2792 76.8789 55.2525 78.3711 55.2525C79.7921 55.2525 81 56.2792 81 57.6268C81 59.0386 79.7921 60.0011 78.3711 60.0011C76.8789 60.0011 75.6711 58.9744 75.6711 57.6268Z" fill="white"/>
<path fill-rule="evenodd" clip-rule="evenodd" d="M80.0053 26.6322L73.8237 16.7499L71.7632 13.413L65.3684 3.46646C64.0895 1.41299 61.6737 0.0012207 58.9026 0.0012207H22.0263C19.2553 0.0012207 16.8395 1.41299 15.5605 3.40229L9.23684 13.3488L7.17632 16.7499L0.994737 26.6322C0.355263 27.5948 0 28.7499 0 29.905C0 31.1884 0.355263 32.3435 1.06579 33.3702L7.24737 43.3167L9.3079 46.6536L15.6316 56.6001C16.9105 58.6536 19.3263 60.0012 22.0974 60.0012H58.9026C61.6737 60.0012 64.0895 58.5895 65.3684 56.536L71.7632 46.5895L73.8237 43.2526L80.0053 33.306C80.6447 32.2793 81.0711 31.1242 81.0711 29.8408C81 28.7499 80.6447 27.5948 80.0053 26.6322Z" fill="white"/>
<path fill-rule="evenodd" clip-rule="evenodd" d="M14.5658 16.7498H20.9605L23.0921 31.7017V16.7498H27.3553V43.3167H20.9605L18.829 24.8996V43.3167H14.5658V16.7498Z" fill="#001489"/>
<path fill-rule="evenodd" clip-rule="evenodd" d="M34.5316 33.3701L35.6684 19.9584L36.8053 33.3701H34.5316ZM39.5763 16.7498H31.7605L29.1316 43.3167H33.3947L34.1053 37.1562H37.1605L37.9421 43.3167H42.2053L39.5763 16.7498Z" fill="#001489"/>
<path fill-rule="evenodd" clip-rule="evenodd" d="M60.4658 33.3701L61.6026 19.9584L62.7395 33.3701H60.4658ZM65.5105 16.7498H57.6947L55.0658 43.3167H59.2579L59.9684 37.1562H63.0237L63.8053 43.3167H68.0684L65.5105 16.7498Z" fill="#001489"/>
<path fill-rule="evenodd" clip-rule="evenodd" d="M50.9447 28.814C50.9447 29.4557 50.3763 29.9691 49.6658 29.9691H48.3868V19.8942H49.6658C50.3763 19.8942 50.9447 20.4076 50.9447 21.0493V28.814ZM51.5132 16.7498H44.1237V43.3167H48.3868V33.3701H51.5132C53.4316 33.3701 54.9947 31.9584 54.9947 30.2258V19.83C54.9237 18.0974 53.4316 16.7498 51.5132 16.7498Z" fill="#001489"/>
<path fill-rule="evenodd" clip-rule="evenodd" d="M0.994737 26.6322C0.355263 27.5947 0 28.7498 0 29.9049C0 31.1883 0.355263 32.3434 1.06579 33.3701L7.24737 43.3167H11.0132V16.7498H7.17632L0.994737 26.6322Z" fill="#FFC72C"/>
<path fill-rule="evenodd" clip-rule="evenodd" d="M73.8237 16.7498H69.9868V43.3167H73.7526L79.9342 33.3701C80.5737 32.3434 81 31.1883 81 29.9049C81 28.6856 80.6447 27.5306 80.0053 26.568L73.8237 16.7498Z" fill="#FFC72C"/>
<path fill-rule="evenodd" clip-rule="evenodd" d="M71.6921 13.4129L65.3684 3.4664C64.0895 1.41292 61.6737 0.00115967 58.9026 0.00115967H22.0263C19.2553 0.00115967 16.8395 1.41292 15.5605 3.40223L9.23685 13.3488H71.6921V13.4129Z" fill="#FFC72C"/>
<path fill-rule="evenodd" clip-rule="evenodd" d="M9.30789 46.6536L15.6316 56.6001C16.9105 58.6536 19.3263 60.0012 22.0974 60.0012H58.9026C61.6737 60.0012 64.0895 58.5894 65.3684 56.5359L71.7632 46.5894H9.30789V46.6536Z" fill="#FFC72C"/>
</g>
<defs>
<clipPath id="clip0_1_573">
<rect width="81" height="60" fill="white"/>
</clipPath>
</defs>
</svg>
