<svg width="119" height="43" viewBox="0 0 119 43" fill="none" xmlns="http://www.w3.org/2000/svg">
<path d="M19.5081 21.8738C20.6517 20.6444 21.3244 19.0734 21.2572 17.3658C21.2572 15.9315 20.7863 14.5654 19.7772 13.5409C17.6246 11.3552 13.992 11.082 9.55226 11.082H0V33.6901C0 33.895 0.201808 34.0999 0.403617 34.0999H5.24702V24.7425C5.24702 24.7425 7.46691 24.8108 8.8123 24.8108C12.3103 24.8108 16.8174 24.6742 19.5081 21.8738ZM5.24702 23.0349V12.8579C6.12152 12.7896 7.06329 12.7213 7.9378 12.7896C10.7631 12.7896 16.0101 13.1994 16.0101 17.7074C16.0101 22.4885 11.1667 23.0349 7.60145 23.0349C6.18879 23.1032 5.24702 23.0349 5.24702 23.0349Z" fill="#6D6E71"/>
<path d="M119 19.0748C119 18.8699 119 18.7333 118.731 18.5967C117.588 18.2552 116.31 18.0503 115.099 18.1186C112.946 18.1186 110.861 18.4601 108.843 19.1431V18.7333C108.843 18.5284 108.641 18.3235 108.439 18.3235H103.596V33.6232C103.596 33.8281 103.73 34.033 103.932 34.033H108.775V24.539C108.775 21.6703 111.533 20.4408 114.359 20.4408C115.906 20.4408 117.52 20.7823 118.933 21.3288L119 19.0748Z" fill="#6D6E71"/>
<path d="M30.2714 17.8457C26.168 17.8457 23.5445 18.9385 22.8718 19.2801C22.67 19.3484 22.6027 19.5533 22.6027 19.7582V22.0804C24.4863 20.9193 26.5716 20.3729 28.7243 20.3729C30.0024 20.3046 31.3478 20.7827 32.2895 21.6706C32.895 22.2854 33.2313 23.105 33.2313 24.6759C33.2313 24.6759 30.8769 24.471 28.9933 24.471C25.6299 24.471 19.2393 25.0857 19.2393 29.7303C19.2393 31.916 20.8537 34.3066 26.1007 34.3066C28.5224 34.3066 30.9441 33.8284 33.2313 33.0088V33.7601C33.2313 33.965 33.4331 34.17 33.6349 34.17H38.4783V23.7197C38.4111 19.8948 36.0566 17.8457 30.2714 17.8457ZM33.2313 31.028C31.8186 31.7111 30.2714 32.0526 28.7243 32.0526C26.5044 32.0526 24.5535 31.233 24.5535 29.1156C24.5535 26.7933 26.5716 25.9737 31.2805 25.9737C32.2223 25.9737 33.164 26.042 33.164 26.042V31.028H33.2313Z" fill="#6D6E71"/>
<path d="M56.573 18.3926C56.3711 18.3926 56.1693 18.5292 56.1021 18.7341L49.9805 30.3455C49.9805 30.3455 43.9936 19.0073 43.7918 18.7341C43.7245 18.5292 43.5227 18.4609 43.3209 18.4609H39.0156L47.6261 34.6485L43.4554 42.2301H47.9625C48.2315 42.2301 48.4333 42.0935 48.5679 41.8886L61.2145 18.3926H56.573Z" fill="#6D6E71"/>
<path d="M58.9954 8.07788C60.139 8.7609 60.5426 10.1952 60.0045 11.4247L58.2555 14.7032C58.1882 14.8398 58.3228 15.0447 58.4573 15.113C58.5246 15.113 58.5246 15.113 58.5918 15.113L72.9202 10.6734C73.3238 10.5368 73.5929 10.1269 73.5929 9.71713C73.5929 9.23902 73.3238 8.8292 72.853 8.6926L47.4924 0.769531C47.4251 0.769531 47.4251 0.769531 47.3578 0.769531C47.156 0.769531 47.0215 0.906136 47.0215 1.11104C47.0215 1.24765 47.0888 1.31595 47.156 1.38425L58.9954 8.07788Z" fill="#F37322"/>
<path d="M90.2752 17.8457C83.0101 17.8457 79.7139 21.9438 79.7139 26.3152C79.7139 30.6865 83.0773 34.6481 90.4097 34.6481C97.7421 34.6481 101.442 30.9597 101.442 26.2469C101.509 21.2608 97.473 17.8457 90.2752 17.8457ZM90.6788 32.4624C87.5171 32.4624 85.0282 29.662 85.0282 26.2469C85.0282 22.8318 87.248 20.168 90.7461 20.168C94.3113 20.168 96.2622 23.5148 96.2622 26.4518C96.2622 29.4571 94.3113 32.4624 90.6788 32.4624Z" fill="#6D6E71"/>
<path d="M78.2339 30.2747C76.3503 31.3675 74.1977 31.9823 72.0451 31.9823C68.4798 31.9823 65.789 29.7966 65.789 26.2449C65.789 22.6932 68.5471 20.0977 72.5832 20.0977C74.534 20.0977 76.4176 20.6441 78.032 21.7369L79.0411 19.8928C79.1084 19.7562 79.0411 19.5512 78.9066 19.4146C77.9648 19.0048 75.6103 17.7754 71.1033 17.7754C63.8382 17.7754 60.542 21.8735 60.542 26.2449C60.542 30.6162 63.9055 34.5778 71.2378 34.5778C73.9286 34.5778 76.6194 33.8264 78.9066 32.3238C79.1084 32.2555 79.1756 32.0506 79.0411 31.8457L78.2339 30.2747Z" fill="#6D6E71"/>
<path d="M112.945 31.9839C112.945 31.6424 112.743 31.4375 112.272 31.4375H111.6V33.2134H111.869V32.462H112.138L112.609 33.2134H112.945L112.474 32.3937C112.743 32.3937 112.945 32.2571 112.945 31.9839C112.945 32.0522 112.945 32.0522 112.945 31.9839ZM111.869 32.2571V31.7107H112.205C112.407 31.7107 112.609 31.7107 112.609 31.9156C112.609 32.1205 112.407 32.1888 112.205 32.1888L111.869 32.2571Z" fill="#6D6E71"/>
<path d="M112.205 30.7539C111.331 30.7539 110.591 31.4369 110.591 32.3249C110.591 33.2128 111.264 33.9641 112.138 33.9641C113.013 33.9641 113.752 33.2811 113.752 32.3932C113.82 31.5052 113.147 30.7539 112.205 30.7539ZM112.205 33.6909C111.465 33.5543 110.994 32.8713 111.129 32.12C111.196 31.5735 111.667 31.0954 112.205 31.0271C112.945 31.1637 113.416 31.8467 113.282 32.5981C113.214 33.1445 112.743 33.6226 112.205 33.6909Z" fill="#6D6E71"/>
</svg>
