<svg width="170" height="38" viewBox="0 0 170 38" fill="none" xmlns="http://www.w3.org/2000/svg">
<g clip-path="url(#clip0_1_545)">
<path d="M169.411 37.4402H0.588989V0.559845H169.411V37.4402Z" fill="#D00A2C"/>
<path d="M169.411 37.4402H0.588989V0.559845H169.411V37.4402Z" stroke="black" stroke-width="1.48267"/>
<path d="M17.9414 17.6027H21.0696C23.5315 17.6027 25.2603 17.3358 26.256 16.8012C27.2518 16.2665 27.7497 15.5828 27.7497 14.7491C27.7497 13.9385 27.3175 13.2518 26.4531 12.6879C25.5887 12.1241 23.9637 11.8421 21.577 11.8421H17.9414V17.6027ZM5.13953 6.56689H26.3366C30.9531 6.56689 34.4107 7.25563 36.7094 8.63206C39.0082 10.0095 40.1575 11.969 40.1575 14.5105C40.1575 17.1234 38.9054 19.1654 36.3991 20.6365C33.8927 22.1077 30.0675 22.8427 24.9245 22.8427H17.9414V32.4547H5.13953V6.56689Z" fill="white"/>
<path d="M56.4405 19.8589C56.4405 22.4759 57.1015 24.3568 58.4246 25.4996C59.7477 26.6435 61.5475 27.2154 63.825 27.2154C66.1661 27.2154 67.9786 26.6556 69.2614 25.5359C70.5443 24.4152 71.1852 22.4054 71.1852 19.5045C71.1852 17.0647 70.5157 15.2815 69.1767 14.1558C67.8377 13.03 66.022 12.4662 63.7286 12.4662C61.5316 12.4662 59.7678 13.0391 58.4362 14.1819C57.1057 15.3258 56.4405 17.2188 56.4405 19.8589ZM45.558 19.8067C45.558 15.5776 47.1597 12.285 50.3642 9.92783C53.5686 7.57165 58.0326 6.39355 63.753 6.39355C69.6174 6.39355 74.1354 7.5515 77.3091 9.86638C80.4818 12.1813 82.0686 15.4246 82.0686 19.5942C82.0686 22.622 81.3748 25.1061 79.9881 27.0434C78.6025 28.9817 76.6004 30.489 73.9797 31.5675C71.36 32.6449 68.0951 33.1846 64.1852 33.1846C60.2116 33.1846 56.9225 32.7183 54.3186 31.788C51.7148 30.8576 49.6036 29.3855 47.985 27.3706C46.3663 25.3557 45.558 22.8345 45.558 19.8067Z" fill="white"/>
<path d="M100.308 12.7097V26.868H103.187C105.642 26.868 107.388 26.6827 108.425 26.3111C109.463 25.9406 110.275 25.2921 110.863 24.3668C111.451 23.4424 111.745 21.9431 111.745 19.8689C111.745 17.123 111.088 15.2431 109.774 14.2301C108.459 13.2162 106.281 12.7097 103.239 12.7097H100.308ZM88.5441 6.84439H106.006C109.448 6.84439 112.228 7.16362 114.347 7.79897C116.467 8.43436 118.218 9.3466 119.601 10.5358C120.985 11.7249 121.988 13.1084 122.611 14.6853C123.234 16.2631 123.545 17.9356 123.545 19.7007C123.545 22.4677 123.082 24.6135 122.157 26.1379C121.232 27.6624 119.947 28.9392 118.304 29.9692C116.661 31.0003 114.897 31.6851 113.011 32.0264C110.434 32.4976 108.098 32.7332 106.006 32.7332L88.5441 32.7322V6.84439Z" fill="white"/>
<path d="M129.994 24.1844L141.177 23.7102C141.418 24.9396 141.909 25.8761 142.652 26.5195C143.858 27.5616 145.583 28.0822 147.825 28.0822C149.497 28.0822 150.786 27.8153 151.692 27.2797C152.597 26.744 153.05 26.1227 153.05 25.4159C153.05 24.7453 152.621 24.1451 151.764 23.6145C150.906 23.0859 148.904 22.5845 145.757 22.1132C140.602 21.3248 136.927 20.2766 134.73 18.9696C132.517 17.6626 131.41 15.9962 131.41 13.9713C131.41 12.6411 131.976 11.3835 133.11 10.2004C134.243 9.01726 135.947 8.08684 138.222 7.40918C140.497 6.73256 143.616 6.3942 147.578 6.3942C152.439 6.3942 156.147 7.00846 158.699 8.2389C161.249 9.46834 162.767 11.4248 163.253 14.1082L152.178 14.5493C151.885 13.3863 151.266 12.5404 150.325 12.0108C149.383 11.4822 148.083 11.2174 146.424 11.2174C145.059 11.2174 144.03 11.4146 143.339 11.8084C142.648 12.2041 142.302 12.6834 142.302 13.2483C142.302 13.6611 142.584 14.0317 143.148 14.3609C143.693 14.7023 145.005 15.0205 147.079 15.3145C152.215 16.0686 155.895 16.8309 158.118 17.6032C160.34 18.3745 161.957 19.3321 162.97 20.4749C163.981 21.6188 164.487 22.8966 164.487 24.3103C164.487 25.9727 163.813 27.5042 162.464 28.9058C161.115 30.3085 159.23 31.3728 156.811 32.0968C154.39 32.8218 151.338 33.1842 147.655 33.1842C141.189 33.1842 136.71 32.3374 134.221 30.6428C131.731 28.9491 130.322 26.7963 129.994 24.1844Z" fill="white"/>
<path d="M43.0763 1.06856V37.1584M84.9555 0.965866V37.6106M126.934 0.791656V37.4363" stroke="black" stroke-width="0.741333"/>
<path d="M162.81 5.1433H163.056C163.405 5.1433 163.624 5.12903 163.707 5.10506C163.792 5.07937 163.859 5.03373 163.908 4.96922C163.956 4.90471 163.981 4.8322 163.981 4.74971C163.981 4.67008 163.957 4.59958 163.91 4.53735C163.861 4.47485 163.794 4.43059 163.705 4.40347C163.617 4.37493 163.401 4.36323 163.056 4.36323H162.81L162.81 5.1433ZM162.202 6.77451V3.9078H162.808C163.378 3.9078 163.696 3.90983 163.765 3.91351C163.966 3.93063 164.123 3.9689 164.234 4.02827C164.345 4.08878 164.438 4.18039 164.513 4.30426C164.588 4.42699 164.626 4.56401 164.626 4.71409C164.626 4.92159 164.555 5.09874 164.414 5.24573C164.273 5.39273 164.075 5.48348 163.82 5.51859C163.911 5.5517 163.981 5.5871 164.029 5.62621C164.079 5.66445 164.147 5.7381 164.233 5.84684C164.255 5.87539 164.328 5.99183 164.453 6.19522L164.807 6.7742H164.054L163.804 6.30798C163.635 5.99484 163.495 5.7975 163.385 5.71592C163.275 5.63544 163.136 5.59407 162.968 5.59407H162.81V6.77416L162.202 6.77451ZM163.477 3.15665C163.09 3.15665 162.718 3.24942 162.361 3.43552C162.006 3.62076 161.725 3.88765 161.52 4.23501C161.314 4.58343 161.213 4.94691 161.213 5.32853C161.213 5.70612 161.312 6.06759 161.512 6.40993C161.713 6.7533 161.992 7.02116 162.35 7.21448C162.709 7.40685 163.084 7.50345 163.477 7.50345C163.873 7.50345 164.25 7.40671 164.606 7.21448C164.964 7.02124 165.242 6.7533 165.445 6.40993C165.646 6.06759 165.747 5.70612 165.747 5.32853C165.747 4.94691 165.644 4.58343 165.439 4.23501C165.234 3.88765 164.953 3.62079 164.595 3.43552C164.238 3.24914 163.865 3.15665 163.477 3.15665ZM163.472 2.62701C163.956 2.62701 164.42 2.74378 164.865 2.97443C165.31 3.20591 165.66 3.5383 165.914 3.97026C166.168 4.40325 166.296 4.85533 166.296 5.32757C166.296 5.79781 166.171 6.24588 165.921 6.67281C165.672 7.09975 165.324 7.432 164.879 7.67064C164.433 7.9084 163.964 8.02812 163.472 8.02812C162.982 8.02812 162.513 7.90823 162.066 7.67064C161.62 7.43203 161.273 7.09975 161.023 6.67281C160.775 6.24588 160.65 5.79781 160.65 5.32757C160.65 4.85533 160.777 4.40325 161.03 3.97026C161.286 3.5383 161.634 3.20603 162.079 2.97443C162.524 2.74381 162.989 2.62701 163.472 2.62701Z" fill="white"/>
</g>
<defs>
<clipPath id="clip0_1_545">
<rect width="170" height="38" fill="white"/>
</clipPath>
</defs>
</svg>
