<svg width="199" height="49" viewBox="0 0 199 49" fill="none" xmlns="http://www.w3.org/2000/svg">
<g clip-path="url(#clip0_1_496)">
<mask id="mask0_1_496" style="mask-type:luminance" maskUnits="userSpaceOnUse" x="0" y="3" width="54" height="46">
<path d="M53.1827 3.22559H-6.10352e-05V49H53.1827V3.22559Z" fill="white"/>
</mask>
<g mask="url(#mask0_1_496)">
<path d="M51.0932 38.5183C48.2574 40.0061 33.5535 46.0798 30.4027 47.7453C27.2519 49.4109 25.5383 49.3664 23.0618 48.1784C20.5854 46.9903 4.97494 40.6168 2.15024 39.2622C0.740661 38.5904 -6.10352e-05 38.0186 -6.10352e-05 37.4801V32.0782C-6.10352e-05 32.0782 20.3698 27.6368 23.6588 26.4431C26.9479 25.2495 28.081 25.2162 30.8836 26.2433C33.6862 27.2704 50.4133 30.3072 53.1772 31.3232V36.6418C53.1772 37.1969 52.5415 37.7521 51.0932 38.5127V38.5183Z" fill="#A32422"/>
<path d="M51.0932 33.1219C48.2574 34.6043 33.5535 40.6779 30.4027 42.3157C27.2519 43.9534 25.5383 43.9368 23.0618 42.7543C20.5854 41.5717 4.97494 35.2149 2.15024 33.8659C-0.674452 32.5168 -0.72973 31.5785 2.03969 30.4904C4.8091 29.4022 20.3698 23.2731 23.6588 22.085C26.9479 20.8969 28.081 20.858 30.8836 21.8907C33.6862 22.9233 48.2961 28.7638 51.06 29.7798C53.8239 30.7957 53.9345 31.634 51.0932 33.1108V33.1219Z" fill="#DC382C"/>
<path d="M51.0932 29.7187C48.2574 31.201 33.5535 37.2746 30.4027 38.9124C27.2519 40.5502 25.5383 40.5335 23.0618 39.351C20.5854 38.1685 4.97494 31.8172 2.15024 30.4626C0.740661 29.7853 -6.10352e-05 29.2135 -6.10352e-05 28.6749V23.2786C-6.10352e-05 23.2786 20.3698 18.8372 23.6588 17.638C26.9479 16.4388 28.081 16.4111 30.8836 17.4437C33.6862 18.4763 50.4133 21.502 53.1772 22.518V27.8422C53.1772 28.3974 52.5415 28.9525 51.0932 29.7187Z" fill="#A32422"/>
<path d="M51.0932 24.3168C48.2574 25.8047 33.5535 31.8728 30.4027 33.5105C27.2519 35.1483 25.5383 35.1372 23.0618 33.9491C20.5854 32.7611 4.97494 26.4154 2.15024 25.0607C-0.674452 23.7061 -0.72973 22.779 2.03969 21.6908C4.8091 20.6027 20.3698 14.4735 23.6588 13.2854C26.9479 12.0973 28.081 12.0585 30.8836 13.0856C33.6862 14.1126 48.2961 19.9864 51.06 20.9746C53.8239 21.9628 53.9345 22.8289 51.0932 24.3057V24.3168Z" fill="#DC382C"/>
<path d="M51.0932 20.586C48.2574 22.0739 33.5535 28.1475 30.4027 29.7853C27.2519 31.4231 25.5383 31.4064 23.0618 30.2183C20.5854 29.0303 4.97494 22.6846 2.15024 21.3299C0.740661 20.6582 -6.10352e-05 20.0864 -6.10352e-05 19.5478V14.1459C-6.10352e-05 14.1459 20.3698 9.70453 23.6588 8.51089C26.9479 7.31726 28.081 7.28395 30.8836 8.31103C33.6862 9.33811 50.4133 12.3749 53.1772 13.3909V18.7151C53.1772 19.2702 52.5415 19.8254 51.0932 20.586Z" fill="#A32422"/>
<path d="M51.0931 15.1896C48.2574 16.6552 33.5535 22.7622 30.4026 24.3833C27.2518 26.0044 25.5382 26.0044 23.0618 24.8219C20.5853 23.6394 4.97487 17.2826 2.15017 15.9335C-0.674521 14.5844 -0.729799 13.6462 2.03962 12.558C4.80903 11.4699 20.3697 5.3407 23.6588 4.15262C26.9478 2.96454 28.081 2.92567 30.8836 3.95831C33.6861 4.99094 48.2961 10.8314 51.06 11.8474C53.8238 12.8634 53.9344 13.7017 51.0931 15.1785V15.1896Z" fill="#DC382C"/>
</g>
<path d="M27.4232 7.51712L30.9334 6.36235L29.9826 8.64413L33.5536 9.98766L28.9489 10.4707L27.9152 12.9634L26.2514 10.182L20.9281 9.69897L24.9026 8.26106L23.7086 6.05145L27.4232 7.51712Z" fill="white"/>
<path d="M27.6444 22.085L19.0431 18.4985L31.3646 16.5998L27.6444 22.085Z" fill="white"/>
<path d="M15.7209 11.3756C19.3582 11.3756 22.3045 12.5248 22.3045 13.9405C22.3045 15.3562 19.3472 16.5054 15.7209 16.5054C12.0947 16.5054 9.13183 15.3562 9.13183 13.9405C9.13183 12.5248 12.0837 11.3756 15.7209 11.3756Z" fill="white"/>
<path d="M39.0039 10.6705L46.2951 13.563L39.0095 16.4555L39.0039 10.6705Z" fill="#741113"/>
<path d="M39.0039 10.6705L39.0095 16.4555L38.219 16.7664L30.9334 13.8739L39.0039 10.6705Z" fill="#AC2724"/>
<path d="M137.498 0.860512C137.515 0.639204 137.615 0.43265 137.778 0.282016C137.94 0.131382 138.153 0.0477295 138.374 0.0477295C138.595 0.0477295 138.808 0.131382 138.97 0.282016C139.133 0.43265 139.233 0.639204 139.25 0.860512V24.3001C139.233 24.5214 139.133 24.728 138.97 24.8786C138.808 25.0293 138.595 25.1129 138.374 25.1129C138.153 25.1129 137.94 25.0293 137.778 24.8786C137.615 24.728 137.515 24.5214 137.498 24.3001V0.860512Z" fill="#494C4D"/>
<path d="M159.974 8.41093V24.3001C159.956 24.5171 159.858 24.7196 159.699 24.8673C159.54 25.0149 159.331 25.0969 159.114 25.0969C158.897 25.0969 158.689 25.0149 158.529 24.8673C158.37 24.7196 158.272 24.5171 158.255 24.3001V21.6519C157.511 22.7152 156.526 23.5857 155.381 24.1918C154.237 24.798 152.965 25.1224 151.671 25.1384C147.055 25.1384 143.379 21.1523 143.379 16.3333C143.379 11.5144 147.066 7.5282 151.671 7.5282C152.962 7.53845 154.232 7.85633 155.376 8.45571C156.521 9.05508 157.507 9.91882 158.255 10.9759V8.41093C158.272 8.19392 158.37 7.99144 158.529 7.84378C158.689 7.69613 158.897 7.61414 159.114 7.61414C159.331 7.61414 159.54 7.69613 159.699 7.84378C159.858 7.99144 159.956 8.19392 159.974 8.41093ZM158.255 16.3555C158.255 12.4027 155.286 9.23815 151.671 9.23815C148.056 9.23815 145.088 12.4027 145.088 16.3555C145.088 20.3084 148.089 23.4396 151.671 23.4396C155.253 23.4396 158.255 20.3084 158.255 16.3555Z" fill="#494C4D"/>
<path d="M165.093 16.7497V0.860512C165.11 0.639204 165.21 0.43265 165.372 0.282016C165.535 0.131382 165.748 0.0477295 165.969 0.0477295C166.19 0.0477295 166.403 0.131382 166.565 0.282016C166.727 0.43265 166.827 0.639204 166.845 0.860512V10.9981C167.619 9.93436 168.631 9.06818 169.8 8.46934C170.968 7.87049 172.26 7.55572 173.572 7.55041C178.298 7.55041 182.057 11.5033 182.057 16.3944C182.074 17.5298 181.868 18.6574 181.45 19.7126C181.033 20.7679 180.412 21.7301 179.624 22.5443C178.836 23.3585 177.896 24.0087 176.858 24.4576C175.819 24.9065 174.703 25.1454 173.572 25.1606C172.263 25.1627 170.971 24.8546 169.802 24.2614C168.633 23.6681 167.62 22.8065 166.845 21.7463V24.3001C166.827 24.5214 166.727 24.728 166.565 24.8786C166.403 25.0292 166.19 25.1129 165.969 25.1129C165.748 25.1129 165.535 25.0292 165.372 24.8786C165.21 24.728 165.11 24.5214 165.093 24.3001V16.7497ZM166.845 16.3944C166.808 17.3047 166.955 18.2131 167.276 19.065C167.598 19.917 168.088 20.6948 168.716 21.352C169.344 22.0091 170.098 22.532 170.933 22.8891C171.767 23.2463 172.665 23.4304 173.572 23.4304C174.479 23.4304 175.377 23.2463 176.212 22.8891C177.046 22.532 177.8 22.0091 178.428 21.352C179.057 20.6948 179.546 19.917 179.868 19.065C180.189 18.2131 180.336 17.3047 180.299 16.3944C180.299 12.4748 177.298 9.31032 173.572 9.31032C171.796 9.35293 170.104 10.083 168.851 11.3481C167.597 12.6132 166.879 14.3157 166.845 16.1001V16.3944Z" fill="#494C4D"/>
<path d="M185.883 21.4965C185.954 21.4073 186.043 21.3336 186.143 21.2798C186.244 21.226 186.355 21.1932 186.468 21.1833C186.582 21.1735 186.696 21.1868 186.805 21.2225C186.913 21.2582 187.013 21.3155 187.099 21.391C188.315 22.2848 190.249 23.4396 192.472 23.4396C193.667 23.4656 194.836 23.084 195.788 22.357C196.169 22.136 196.489 21.8235 196.72 21.4475C196.95 21.0715 197.084 20.6438 197.109 20.2029C197.076 19.3757 196.75 18.7983 195.86 18.0433C195.108 17.4881 193.854 17.0384 192.134 16.7497L192.063 16.7164C190.487 16.4277 189.094 16.0668 188.094 15.3507C187.527 15.038 187.053 14.5807 186.719 14.025C186.386 13.4694 186.204 12.835 186.192 12.1861C186.217 11.5011 186.402 10.8315 186.733 10.2316C187.063 9.63176 187.529 9.11835 188.094 8.73293C189.374 7.91404 190.871 7.50193 192.389 7.5504C194.639 7.5504 196.258 8.59414 197.612 9.45466C197.801 9.58829 197.931 9.78898 197.978 10.0159C198.024 10.2428 197.982 10.4789 197.861 10.6761C197.737 10.8663 197.543 10.9994 197.321 11.0462C197.099 11.093 196.868 11.0498 196.678 10.9259C195.39 10.0654 194.102 9.16597 192.389 9.16597C191.202 9.11625 190.033 9.47033 189.072 10.1708C188.742 10.4027 188.468 10.7073 188.273 11.0614C188.077 11.4154 187.965 11.8096 187.944 12.2139C187.953 12.5676 188.048 12.9137 188.223 13.2209C188.398 13.5281 188.646 13.7869 188.945 13.9738C190.035 14.6363 191.255 15.0531 192.521 15.1952H192.593C194.09 15.4064 195.535 15.8939 196.855 16.6331C197.45 17.0268 197.94 17.5602 198.283 18.1871C198.626 18.814 198.811 19.5155 198.823 20.2307C198.793 20.9411 198.596 21.6343 198.247 22.253C197.898 22.8718 197.408 23.3984 196.816 23.7894C195.555 24.7241 194.022 25.2158 192.455 25.1884C190.076 25.1019 187.795 24.2163 185.976 22.6734C185.89 22.6048 185.818 22.519 185.766 22.4213C185.714 22.3235 185.682 22.2161 185.674 22.1056C185.665 21.9951 185.679 21.8839 185.715 21.7791C185.751 21.6743 185.808 21.5781 185.883 21.4965Z" fill="#494C4D"/>
<path d="M70.1198 9.84885C70.746 9.15812 71.5186 8.61741 72.3807 8.2666C73.2203 7.90429 74.1205 7.70463 75.034 7.67811C75.3583 7.64947 75.6851 7.68682 75.9947 7.78794C76.3044 7.88905 76.5905 8.05185 76.8361 8.2666C77.0212 8.44399 77.1663 8.65916 77.2616 8.89762C77.357 9.13608 77.4004 9.39228 77.3888 9.64899C77.3941 10.1651 77.1953 10.6623 76.8361 11.0314C76.6632 11.2246 76.4505 11.3778 76.2129 11.4804C75.9752 11.583 75.7182 11.6325 75.4596 11.6254C73.1932 11.8253 70.0479 14.096 70.0479 17.1772V24.1724C70.034 24.6922 69.8222 25.1868 69.4561 25.5545C69.09 25.9221 68.5976 26.1349 68.0801 26.1489C67.8156 26.1579 67.5524 26.1079 67.3096 26.0022C67.0668 25.8966 66.8503 25.7381 66.676 25.5382C66.4914 25.3584 66.344 25.1437 66.2425 24.9064C66.141 24.6692 66.0873 24.414 66.0845 24.1558V9.55461C66.0873 9.29636 66.141 9.04123 66.2425 8.80395C66.344 8.56667 66.4914 8.35196 66.676 8.17222C67.107 7.86155 67.6215 7.68929 68.1519 7.67811C68.4101 7.67001 68.667 7.71845 68.9047 7.82008C69.1424 7.9217 69.3552 8.07407 69.5283 8.2666C69.7202 8.4407 69.8723 8.65434 69.9744 8.89292C70.0765 9.1315 70.1261 9.38939 70.1198 9.64899V9.84885Z" fill="#494C4D"/>
<path d="M93.9722 16.2667C93.9742 16.7427 93.7987 17.2022 93.4802 17.5547C93.1042 17.9076 92.6174 18.1177 92.1038 18.1488H80.4954C80.6061 19.0756 81.0552 19.9282 81.7558 20.5416C82.6546 21.5115 83.8841 22.1061 85.1996 22.2071C85.8658 22.3204 86.5477 22.3002 87.2061 22.1478C87.8644 21.9953 88.4863 21.7136 89.0359 21.3188C89.2286 21.1241 89.4589 20.9709 89.7127 20.8687C89.9665 20.7666 90.2385 20.7176 90.5118 20.7248C90.7471 20.7136 90.9822 20.7518 91.202 20.8369C91.4219 20.9219 91.6217 21.052 91.7887 21.2189C91.952 21.3697 92.0824 21.5529 92.1716 21.757C92.2608 21.961 92.3069 22.1814 92.3069 22.4042C92.3069 22.627 92.2608 22.8474 92.1716 23.0515C92.0824 23.2555 91.952 23.4387 91.7887 23.5895C90.9313 24.3875 89.9254 25.0077 88.8289 25.4145C87.7323 25.8213 86.5666 26.0067 85.3986 25.9601C84.1964 25.9871 83.0026 25.753 81.8988 25.2739C80.795 24.7948 79.8072 24.082 79.0029 23.1842C77.337 21.4176 76.3903 19.0883 76.3496 16.6553C76.3254 15.4437 76.5484 14.24 77.0047 13.1181C77.461 11.9963 78.141 10.9801 79.0029 10.132C79.7885 9.27177 80.7473 8.58926 81.8157 8.1298C82.8841 7.67035 84.0376 7.44446 85.1996 7.46715C86.3295 7.42323 87.4558 7.62075 88.504 8.04665C89.5522 8.47254 90.4985 9.1171 91.2801 9.93769C92.9464 11.5426 93.9357 13.7285 94.044 16.0447V16.239L93.9722 16.2667ZM85.2162 11.0314C83.9934 11.0513 82.8176 11.5079 81.8995 12.3194C81.1157 12.983 80.5653 13.8823 80.3296 14.8843H90.6555C90.3658 13.8812 89.7387 13.0101 88.8811 12.4193C87.8456 11.5816 86.572 11.0956 85.2438 11.0314" fill="#494C4D"/>
<path d="M112.479 23.9726C112.476 24.2308 112.423 24.486 112.321 24.7232C112.22 24.9605 112.072 25.1752 111.888 25.355C111.709 25.5414 111.496 25.6901 111.259 25.7921C111.023 25.8941 110.769 25.9475 110.511 25.949C110.058 25.9311 109.622 25.7678 109.268 25.483C108.914 25.1983 108.66 24.8071 108.543 24.3668C107.083 25.418 105.326 25.9724 103.53 25.949C102.354 25.9633 101.188 25.7341 100.105 25.2756C99.0218 24.817 98.0443 24.1391 97.2335 23.2842C96.3846 22.431 95.7193 21.4117 95.279 20.2896C94.8387 19.1674 94.6329 17.9663 94.6742 16.7608C94.6562 14.3376 95.5735 12.0016 97.2335 10.243C98.0383 9.37267 99.0123 8.67728 100.095 8.19984C101.178 7.72239 102.347 7.47302 103.53 7.46714C105.295 7.44426 107.021 7.9997 108.444 9.0494V2.14298C108.437 1.88328 108.486 1.62516 108.588 1.38647C108.69 1.14778 108.843 0.934228 109.035 0.760591C109.214 0.575141 109.428 0.427158 109.664 0.325194C109.901 0.223231 110.155 0.169311 110.412 0.16655C110.67 0.159519 110.927 0.209001 111.165 0.31157C111.403 0.414139 111.615 0.567347 111.788 0.760591C111.973 0.94033 112.12 1.15505 112.222 1.39232C112.323 1.6296 112.377 1.88474 112.38 2.14298V23.9726H112.479ZM103.635 21.9961C104.289 22.008 104.937 21.8725 105.532 21.5997C106.127 21.3268 106.654 20.9235 107.073 20.4194C108.019 19.4396 108.548 18.1284 108.548 16.7636C108.548 15.3988 108.019 14.0876 107.073 13.1077C106.64 12.6194 106.111 12.2267 105.519 11.9543C104.927 11.6819 104.286 11.5359 103.635 11.5255C102.978 11.5027 102.325 11.6338 101.727 11.9084C101.129 12.183 100.603 12.5936 100.191 13.1077C99.245 14.0876 98.716 15.3988 98.716 16.7636C98.716 18.1284 99.245 19.4396 100.191 20.4194C100.618 20.9157 101.147 21.3134 101.741 21.5856C102.336 21.8577 102.982 21.9977 103.635 21.9961Z" fill="#494C4D"/>
<path d="M118.294 2.14298V2.93688C118.304 3.21594 118.255 3.49385 118.151 3.75289C118.047 4.01194 117.891 4.24643 117.692 4.44141C117.513 4.62125 117.297 4.7589 117.059 4.84437C116.821 4.92984 116.567 4.96098 116.315 4.93552C116.057 4.94362 115.8 4.89518 115.563 4.79356C115.325 4.69193 115.112 4.53956 114.939 4.34703C114.744 4.15406 114.591 3.92283 114.489 3.66778C114.388 3.41273 114.339 3.13935 114.348 2.86471V2.14298C114.349 1.88454 114.402 1.62903 114.504 1.39158C114.605 1.15413 114.753 0.939562 114.939 0.760585C115.118 0.575136 115.332 0.427152 115.568 0.325189C115.804 0.223226 116.058 0.169306 116.315 0.166545C116.574 0.160255 116.831 0.210073 117.068 0.312594C117.306 0.415116 117.519 0.567926 117.692 0.760585C117.886 0.933192 118.041 1.14629 118.145 1.38503C118.249 1.62377 118.3 1.88242 118.294 2.14298ZM114.978 8.17221C115.156 7.98577 115.37 7.83712 115.606 7.73509C115.842 7.63305 116.097 7.57969 116.354 7.57817C116.613 7.57039 116.87 7.61953 117.108 7.72214C117.346 7.82476 117.558 7.97837 117.731 8.17221C117.919 8.36727 118.066 8.59871 118.163 8.85255C118.26 9.10638 118.305 9.37733 118.294 9.64898V24.0836C118.311 24.3445 118.266 24.6056 118.163 24.8457C118.06 25.0859 117.903 25.2984 117.703 25.466C117.524 25.6514 117.31 25.7994 117.074 25.9014C116.838 26.0034 116.584 26.0573 116.326 26.06C116.068 26.0671 115.811 26.0176 115.573 25.915C115.336 25.8125 115.123 25.6592 114.95 25.466C114.764 25.287 114.616 25.0725 114.515 24.835C114.413 24.5976 114.36 24.342 114.359 24.0836V9.64898C114.351 9.37518 114.399 9.10266 114.501 8.84853C114.602 8.5944 114.755 8.36414 114.95 8.17221" fill="#494C4D"/>
<path d="M132.246 9.5546C132.648 9.83469 132.928 10.2573 133.031 10.7371C133.112 11.2396 133.045 11.7549 132.838 12.2195C132.556 12.6217 132.134 12.903 131.655 13.0078C131.144 13.1034 130.615 12.998 130.179 12.7136C128.803 11.8253 127.725 11.3312 126.835 11.3312C126.055 11.2854 125.285 11.5306 124.673 12.0196C124.281 12.3194 124.082 12.5137 124.082 12.7136C124.056 12.8849 124.091 13.06 124.181 13.2077C124.293 13.3296 124.426 13.4294 124.574 13.5019C125.376 14.0096 126.288 14.3144 127.233 14.3902C128.457 14.5966 129.647 14.9701 130.771 15.5006C131.762 15.9147 132.592 16.6441 133.131 17.5769C133.613 18.3475 133.884 19.2323 133.916 20.1418C133.912 20.9811 133.703 21.8066 133.309 22.5467C132.915 23.2868 132.347 23.9192 131.655 24.389C130.279 25.3768 128.625 25.8963 126.934 25.8713C124.673 25.8713 122.512 24.983 120.445 23.3064C120.068 22.9742 119.823 22.517 119.754 22.0183C119.72 21.6488 119.795 21.2775 119.969 20.9503C120.143 20.623 120.409 20.3542 120.734 20.177C121.058 19.9998 121.427 19.922 121.796 19.9533C122.164 19.9845 122.515 20.1234 122.805 20.3528C123.889 21.3912 125.337 21.9596 126.835 21.9351C127.707 21.9651 128.566 21.7226 129.295 21.2411C129.687 20.8469 129.986 20.5527 129.986 20.2529C129.986 19.9531 129.986 19.8587 129.886 19.7588C129.886 19.6588 129.687 19.4645 129.394 19.3646C128.496 18.8081 127.489 18.4522 126.442 18.3209C125.272 18.148 124.14 17.7723 123.098 17.2105C122.143 16.7419 121.328 16.0273 120.738 15.1397C120.35 14.4463 120.148 13.664 120.152 12.869C120.151 12.0668 120.348 11.2768 120.725 10.5696C121.102 9.86236 121.648 9.25998 122.313 8.81621C123.645 7.90464 125.223 7.42243 126.835 7.43382C128.493 7.53375 130.279 8.22217 132.246 9.51019" fill="#494C4D"/>
<path d="M73.8732 43.9312H72.5631V39.5342H67.378V43.9312H66.0679V34.2656H67.378V38.5793H72.5631V34.2656H73.8732V43.9312Z" fill="#494C4D"/>
<path d="M87.8529 39.1012C87.8599 39.7809 87.7438 40.4563 87.5102 41.0943C87.2939 41.6752 86.9652 42.2074 86.5428 42.6599C86.1176 43.0987 85.6053 43.4429 85.0393 43.6703C83.7939 44.1514 82.4152 44.1514 81.1698 43.6703C80.6047 43.4441 80.0941 43.0997 79.6718 42.6599C79.2444 42.207 78.9151 41.6702 78.7044 41.0832C78.2473 39.7941 78.2473 38.3861 78.7044 37.097C78.9164 36.5139 79.2457 35.981 79.6718 35.5314C80.0935 35.0882 80.6041 34.74 81.1698 34.5099C82.4152 34.0288 83.7939 34.0288 85.0393 34.5099C85.6059 34.7413 86.1181 35.0893 86.5428 35.5314C86.9652 35.9839 87.2939 36.516 87.5102 37.097C87.7446 37.7386 87.8607 38.4178 87.8529 39.1012ZM86.5152 39.1012C86.5222 38.5584 86.44 38.0182 86.272 37.5023C86.1303 37.0601 85.8967 36.6532 85.5865 36.3086C85.2919 35.9717 84.9253 35.706 84.5141 35.5314C83.6082 35.1837 82.6064 35.1837 81.7005 35.5314C81.2807 35.6974 80.903 35.9553 80.5949 36.2864C80.2831 36.6307 80.0475 37.0375 79.904 37.4801C79.5798 38.5212 79.5798 39.6368 79.904 40.6779C80.0501 41.1193 80.2853 41.5256 80.5949 41.8715C80.9047 42.1992 81.282 42.455 81.7005 42.621C82.6077 42.9615 83.6069 42.9615 84.5141 42.621C84.9218 42.4528 85.2878 42.197 85.5865 41.8715C85.8944 41.5253 86.1278 41.1189 86.272 40.6779C86.4377 40.169 86.5198 39.6365 86.5152 39.1012Z" fill="#494C4D"/>
<path d="M97.217 40.7778C97.2612 40.8999 97.3109 41.0165 97.3552 41.1387C97.3994 41.011 97.4436 40.8944 97.4934 40.7778C97.5431 40.6612 97.5984 40.5502 97.6647 40.4336L100.921 34.4876C100.957 34.4048 101.022 34.3378 101.103 34.2989C101.189 34.2732 101.279 34.262 101.368 34.2656H102.33V43.9312H101.186V36.8305C101.186 36.7361 101.186 36.6362 101.186 36.5251C101.186 36.4141 101.186 36.3086 101.186 36.1976L97.8692 42.2379C97.8287 42.329 97.7627 42.4063 97.6793 42.4604C97.5959 42.5146 97.4987 42.5434 97.3994 42.5433H97.2888C97.1894 42.5441 97.0918 42.5156 97.0083 42.4614C96.9248 42.4071 96.859 42.3294 96.819 42.2379L93.4194 36.1754C93.4194 36.292 93.4194 36.4086 93.447 36.5196C93.4747 36.6306 93.447 36.7361 93.447 36.8305V43.9312H92.3138V34.2656H93.2701C93.3616 34.2624 93.453 34.2737 93.541 34.2989C93.62 34.341 93.6839 34.407 93.7234 34.4876L97.0401 40.4391C97.1057 40.5484 97.1648 40.6615 97.217 40.7778Z" fill="#494C4D"/>
<path d="M113.319 34.2656V35.3315H108.698V38.5404H112.44V39.5675H108.698V42.8653H113.319V43.9312H107.36V34.2656H113.319Z" fill="#494C4D"/>
<path d="M132.07 39.1012C132.075 39.7772 131.959 40.4487 131.727 41.0832C131.513 41.6652 131.184 42.1977 130.76 42.6488C130.335 43.0887 129.823 43.4331 129.256 43.6592C128.011 44.1402 126.632 44.1402 125.387 43.6592C124.822 43.4317 124.312 43.0874 123.888 42.6488C123.464 42.1977 123.135 41.6652 122.921 41.0832C122.464 39.7941 122.464 38.3861 122.921 37.097C123.135 36.515 123.464 35.9824 123.888 35.5314C124.311 35.0894 124.822 34.7414 125.387 34.5099C126.632 34.0288 128.011 34.0288 129.256 34.5099C129.823 34.74 130.336 35.0881 130.76 35.5314C131.184 35.9824 131.513 36.515 131.727 37.097C131.961 37.7386 132.077 38.4178 132.07 39.1012ZM130.732 39.1012C130.739 38.5584 130.657 38.0182 130.489 37.5023C130.347 37.0601 130.113 36.6532 129.803 36.3086C129.509 35.9717 129.142 35.706 128.731 35.5314C127.825 35.1837 126.823 35.1837 125.917 35.5314C125.507 35.701 125.139 35.9587 124.839 36.2864C124.529 36.6321 124.294 37.0385 124.148 37.4801C123.831 38.5223 123.831 39.6357 124.148 40.6779C124.297 41.1182 124.532 41.5242 124.839 41.8715C125.141 42.1959 125.509 42.4515 125.917 42.621C126.824 42.9615 127.824 42.9615 128.731 42.621C129.138 42.4528 129.505 42.197 129.803 41.8715C130.111 41.5253 130.344 41.1189 130.489 40.6779C130.654 40.169 130.736 39.6365 130.732 39.1012Z" fill="#494C4D"/>
<path d="M142.467 34.2656V35.3315H137.846V38.7125H141.793V39.7785H137.846V43.9312H136.536V34.2656H142.467Z" fill="#494C4D"/>
<path d="M153.534 39.9006V43.9312H152.235V34.2656H154.955C155.488 34.2548 156.02 34.3183 156.536 34.4543C156.938 34.5616 157.314 34.7505 157.641 35.0095C157.92 35.2362 158.14 35.5277 158.282 35.8589C158.539 36.5206 158.554 37.252 158.327 37.9242C158.223 38.2174 158.065 38.4885 157.862 38.7237C157.65 38.9675 157.398 39.1723 157.116 39.3288C156.802 39.5018 156.465 39.6289 156.115 39.7063C156.287 39.81 156.435 39.9502 156.547 40.1172L159.355 43.9534H158.199C158.095 43.9621 157.99 43.9406 157.897 43.8914C157.804 43.8423 157.726 43.7675 157.674 43.6758L155.176 40.2226C155.112 40.1268 155.027 40.0471 154.927 39.9895C154.799 39.9376 154.661 39.9149 154.523 39.9228L153.534 39.9006ZM153.534 38.9457H154.894C155.229 38.9509 155.563 38.9041 155.883 38.8069C156.149 38.7288 156.395 38.5965 156.607 38.4183C156.801 38.255 156.952 38.0475 157.05 37.8132C157.152 37.5689 157.202 37.3063 157.199 37.0415C157.216 36.7956 157.175 36.549 157.079 36.3222C156.983 36.0953 156.835 35.8947 156.646 35.7368C156.144 35.4108 155.551 35.2569 154.955 35.2982H153.534V38.9457Z" fill="#494C4D"/>
<path d="M169.371 34.2656V35.3315H164.728V38.5404H168.465V39.5675H164.728V42.8653H169.349V43.9312H163.44V34.2656H169.371Z" fill="#494C4D"/>
<path d="M182.273 39.1012C182.281 39.7756 182.165 40.4457 181.93 41.0776C181.715 41.6478 181.386 42.1675 180.963 42.6044C180.535 43.031 180.026 43.3654 179.465 43.587C178.847 43.8217 178.191 43.9385 177.53 43.9312H173.931V34.2656H177.53C178.191 34.2575 178.848 34.3762 179.465 34.6153C180.027 34.8344 180.537 35.1691 180.963 35.598C181.384 36.0362 181.713 36.5555 181.93 37.1248C182.164 37.7568 182.28 38.4268 182.273 39.1012ZM180.935 39.1012C180.943 38.562 180.86 38.0253 180.692 37.5134C180.55 37.0729 180.317 36.6678 180.006 36.3253C179.71 35.9981 179.344 35.7436 178.934 35.5814C178.487 35.4054 178.01 35.3186 177.53 35.326H175.23V42.8708H177.519C177.999 42.8782 178.476 42.7915 178.923 42.6155C179.331 42.4533 179.698 42.2009 179.995 41.8771C180.304 41.5358 180.538 41.1328 180.681 40.6945C180.853 40.1813 180.939 39.6428 180.935 39.1012Z" fill="#494C4D"/>
<path d="M188.276 43.9312H186.971V34.2656H188.276V43.9312Z" fill="#494C4D"/>
<path d="M198.447 35.7757C198.415 35.8348 198.371 35.8875 198.32 35.9311C198.268 35.9664 198.206 35.9839 198.143 35.9811C198.045 35.9702 197.952 35.9295 197.878 35.8645C197.757 35.7724 197.629 35.689 197.496 35.6147C197.321 35.5106 197.136 35.425 196.944 35.3593C196.69 35.276 196.425 35.2366 196.159 35.2427C195.896 35.2368 195.633 35.2782 195.385 35.3648C195.182 35.4335 194.994 35.5409 194.832 35.6813C194.687 35.8141 194.572 35.977 194.495 36.1587C194.417 36.3449 194.377 36.5452 194.379 36.7472C194.371 36.9868 194.441 37.2225 194.578 37.419C194.719 37.6057 194.898 37.7607 195.103 37.8742C195.338 38.0084 195.586 38.1181 195.844 38.2018L196.689 38.4905C196.977 38.5904 197.259 38.7014 197.535 38.8236C197.802 38.9405 198.05 39.0978 198.27 39.2899C198.491 39.4821 198.67 39.7185 198.795 39.9839C198.937 40.3033 199.005 40.6505 198.994 40.9999C198.997 41.406 198.924 41.809 198.779 42.188C198.64 42.5503 198.427 42.8794 198.154 43.154C197.865 43.4405 197.518 43.6619 197.137 43.8035C196.701 43.9674 196.238 44.0484 195.772 44.0423C195.186 44.049 194.606 43.9317 194.069 43.698C193.573 43.4833 193.126 43.1698 192.754 42.7765L193.129 42.1602C193.166 42.1105 193.211 42.0673 193.262 42.0325C193.313 41.9993 193.373 41.982 193.433 41.9825C193.554 41.9959 193.666 42.0486 193.754 42.1324C193.898 42.253 194.049 42.3643 194.207 42.4656C194.415 42.5995 194.636 42.7129 194.865 42.8042C195.169 42.9114 195.489 42.9622 195.81 42.9541C196.092 42.9576 196.372 42.9145 196.64 42.8264C196.866 42.7488 197.075 42.6261 197.253 42.4656C197.419 42.3091 197.55 42.1201 197.64 41.9104C197.731 41.6809 197.776 41.4356 197.773 41.1886C197.784 40.933 197.714 40.6805 197.574 40.4669C197.435 40.277 197.258 40.1182 197.054 40.0006C196.822 39.866 196.575 39.758 196.319 39.6786L195.479 39.4176C195.191 39.3253 194.909 39.2178 194.633 39.0956C194.365 38.9784 194.116 38.8191 193.898 38.6237C193.675 38.4212 193.498 38.1732 193.378 37.8964C193.236 37.556 193.168 37.1886 193.179 36.8194C193.179 36.4799 193.247 36.1439 193.378 35.8312C193.501 35.5123 193.69 35.2229 193.931 34.9818C194.2 34.7236 194.518 34.5217 194.865 34.3877C195.271 34.2316 195.702 34.1562 196.137 34.1656C196.638 34.1585 197.137 34.2451 197.607 34.421C198.041 34.5859 198.436 34.8392 198.768 35.165L198.447 35.7757Z" fill="#494C4D"/>
</g>
<defs>
<clipPath id="clip0_1_496">
<rect width="199" height="49" fill="white"/>
</clipPath>
</defs>
</svg>
