<svg width="201" height="32" viewBox="0 0 201 32" fill="none" xmlns="http://www.w3.org/2000/svg">
<g clip-path="url(#clip0_3623_22125)">
<path d="M12.6926 12.6645V18.0561C12.6926 21.8229 11.187 24.0229 7.60515 24.0229H5.00054L4.24403 31.2612H7.98264C14.6417 31.2612 19.8864 26.3506 19.8864 18.5993V12.6645H12.6926ZM189.722 12.7008H186.742C186.677 12.7008 186.649 12.7607 186.618 12.7959L184.119 20.355C184.119 20.355 184.087 20.4527 184.087 20.4825C184.087 20.5152 184.119 20.545 184.18 20.545H186.016C186.083 20.545 186.112 20.4825 186.143 20.4175L186.71 18.25H189.75L190.317 20.4175C190.345 20.4825 190.385 20.545 190.447 20.545H192.174C192.233 20.545 192.267 20.5159 192.267 20.4825C192.267 20.4535 192.231 20.355 192.231 20.355L189.848 12.7959C189.816 12.7596 189.751 12.7008 189.722 12.7008ZM198.734 17.5168V19.3989C198.734 19.3989 198.2 19.4316 197.727 19.4316C196.253 19.4316 195.467 19.0135 195.467 16.6864C195.467 14.2652 196.317 13.8798 197.947 13.8798C198.64 13.8798 199.365 14.0058 199.838 14.1024C199.863 14.1315 199.93 14.1315 199.992 14.1315C199.992 14.1315 200.147 14.1642 200.242 14.1642C200.336 14.1642 200.365 14.1031 200.402 13.9455L200.493 13.4324C200.525 13.3398 200.525 13.2123 200.525 13.1796C200.525 13.083 200.433 13.0521 200.366 12.9867C200.116 12.8915 199.017 12.5387 197.479 12.5387C194.716 12.5387 193.552 13.6274 193.552 16.6233C193.552 19.5572 194.494 20.676 197.667 20.676C198.452 20.676 199.395 20.5459 199.865 20.4533H199.84C200.404 20.2957 200.526 20.0704 200.526 19.5272V16.2705C200.526 16.1753 200.494 16.1463 200.404 16.1463H197.481C197.384 16.1463 197.357 16.1753 197.357 16.2705V17.2292C197.357 17.3574 197.449 17.3897 197.481 17.3897L198.734 17.5168ZM187.93 13.9096H188.527L189.409 17.0032H187.052L187.93 13.9096ZM52.3898 21.8891C52.3898 17.8045 52.5436 16.1456 55.3049 16.1456C58.0722 16.1456 58.2299 17.8045 58.2299 21.8891C58.2299 25.9388 58.0722 27.5631 55.3049 27.5631C52.5436 27.5631 52.3898 25.9388 52.3898 21.8891ZM46.3256 21.8891C46.3256 27.3078 47.3926 31.4901 55.3049 31.4901C63.2208 31.4901 64.2878 27.3078 64.2878 21.8891C64.2878 16.4325 63.2208 12.2203 55.3049 12.2203C47.3926 12.2203 46.3256 16.4325 46.3256 21.8891ZM160.454 15.8543V13.0186C160.454 12.473 160.198 12.2852 159.729 12.2852H159.131C156.965 12.2852 154.642 12.538 152.979 12.921C150.965 13.369 149.901 13.7519 149.901 14.9633V30.5966C149.901 30.8494 150.089 31.0446 150.342 31.0446H155.394C155.645 31.0446 155.835 30.8492 155.835 30.5966V16.878C156.151 16.814 157.815 16.5914 159.825 16.5914C160.454 16.5914 160.454 16.2399 160.454 15.8543ZM119.972 25.3633C119.972 27.2455 118.836 27.8186 117.397 27.8186C116.266 27.8186 114.913 27.4659 114.913 27.4659V13.1126C114.913 12.8573 114.726 12.666 114.474 12.666H109.419C109.17 12.666 108.979 12.8571 108.979 13.1126V25.3635C108.979 27.2456 108.225 27.8188 106.844 27.8188C105.616 27.8188 103.891 27.5009 103.891 27.5009V13.1127C103.891 12.8573 103.701 12.6661 103.453 12.6661H89.0037V6.98961C89.0037 6.57417 88.7863 6.38401 88.4388 6.38401C88.3788 6.38401 88.2196 6.41671 88.0644 6.44504L83.7265 7.21248C83.3198 7.30765 83.1016 7.59384 83.1016 8.10591V12.6661H74.9969V10.6573C74.9969 9.99054 75.093 9.54255 75.4371 9.22216C75.8175 8.90287 76.2857 8.81023 77.1038 8.81023C77.6351 8.81023 78.4211 8.90288 78.8287 8.96681C78.8918 8.96681 78.9568 8.99945 79.0504 8.99945C79.2081 9.02851 79.3969 9.06453 79.4866 9.06453C79.7099 9.06453 79.7739 8.90286 79.8019 8.61651L80.183 6.06359C80.183 6.06359 80.2126 5.87071 80.2126 5.77808C80.2126 5.52381 80.1175 5.36266 79.8662 5.2676C79.4256 5.13828 77.7953 4.6594 75.1228 4.6594C70.9485 4.6594 69.0313 6.57399 69.0313 10.3708V12.6659H66.3602C66.1104 12.6659 65.9221 12.857 65.9221 13.1125V16.4002C65.9221 16.6556 66.1104 16.8482 66.3602 16.8482H69.0313V30.5968C69.0313 30.8496 69.2187 31.0449 69.4705 31.0449H74.56C74.8088 31.0449 74.997 30.8494 74.997 30.5968V16.8482H83.1017V25.3959C83.1017 29.7659 85.2701 31.3302 89.542 31.3302C91.9568 31.3302 93.5625 30.8171 93.9346 30.6894C94.2781 30.5619 94.4077 30.4018 94.4077 30.1163C94.4077 29.991 94.3776 29.8307 94.3776 29.8307L93.9035 27.3079C93.8428 27.0202 93.7148 26.9275 93.5274 26.9275C93.4995 26.9275 93.3994 26.9275 93.2776 26.9565C93.2472 26.9565 93.183 26.9892 93.1209 26.9892C92.7099 27.0517 91.9864 27.1494 91.1397 27.1494C89.3177 27.1494 89.0038 26.2859 89.0038 25.0095V16.8772H97.9545V28.8414C97.9545 30.0177 99.025 30.4006 100.972 30.8486C102.478 31.169 104.675 31.5194 106.343 31.5194C108.415 31.5194 110.549 31.1365 112.123 29.9226C114.25 31.169 116.612 31.5194 118.836 31.5194C123.048 31.5194 125.907 30.4982 125.907 26.2234V13.1115C125.907 12.8562 125.718 12.665 125.468 12.665H120.41C120.159 12.665 119.972 12.856 119.972 13.1115L119.972 25.3633ZM167.614 20.8332V20.5153C167.614 20.0073 167.643 18.8234 167.769 18.0926C168.018 16.8782 168.679 16.0823 170.502 16.0823C172.198 16.0823 172.982 16.7506 173.297 17.8674C173.485 18.5381 173.485 19.6218 173.485 20.3226V20.8332L167.614 20.8332ZM139.693 27.5633C139.506 27.6284 138.499 27.8837 137.212 27.8837C136.019 27.8837 134.261 27.6283 134.261 25.3959C134.261 23.3861 135.267 23.1308 136.581 22.9081L139.693 22.3975V27.5633ZM7.66551 19.4941V13.3691C7.66551 9.5423 9.24011 7.7238 12.755 7.7238H15.297L16.0519 0.480469H12.0625C5.09047 0.480469 0.472656 5.71292 0.472656 12.826V19.4941H7.66551ZM35.2713 23.8942C36.9042 24.2171 37.6271 24.4072 37.6271 25.8714C37.6271 27.308 36.3714 27.6609 35.2074 27.6609C33.4184 27.6609 31.2834 27.1503 30.4662 26.9276H30.4959C30.4662 26.9276 30.4318 26.8985 30.4032 26.8985C30.2765 26.8622 30.1519 26.8335 30.0597 26.8335C29.902 26.8335 29.7444 26.9588 29.7084 27.279L29.3377 29.5441C29.3023 29.7043 29.2722 29.9245 29.2722 30.0196C29.2722 30.2449 29.3648 30.34 29.6162 30.4651C30.3096 30.7579 33.135 31.4588 36.0575 31.4588C40.3584 31.4588 43.6235 29.9245 43.6235 25.3643C43.6235 20.9944 41.0793 20.1659 38.6335 19.7179L38.1258 19.6227C36.7178 19.3674 35.4898 19.1121 35.4898 17.6429C35.4898 16.1758 36.9668 15.9881 38.0041 15.9881C39.3545 15.9881 40.797 16.2409 41.5229 16.4011C41.9286 16.4988 42.0242 16.4988 42.1488 16.4988C42.308 16.4988 42.5244 16.3361 42.5875 16.1759C42.7142 15.4099 42.9038 14.615 43.0286 13.8482C43.0286 13.8482 43.0583 13.688 43.0583 13.5929C43.0583 13.2124 42.904 13.0522 42.4018 12.922C41.428 12.6667 39.4814 12.2213 37.0621 12.2213C34.0504 12.2213 29.4941 12.7318 29.4941 18.0583C29.4941 22.7162 32.5693 23.3869 34.9251 23.8324L35.2713 23.8942ZM145.6 17.7397C145.6 15.7605 144.999 14.2302 143.335 13.2741C142.112 12.5733 140.387 12.2204 137.962 12.2204C134.198 12.2204 130.833 13.2415 130.179 13.5269C129.959 13.6272 129.737 13.7521 129.737 14.0059V14.1326C129.737 14.1653 129.769 14.1976 129.769 14.2303L130.365 16.8784C130.397 17.0673 130.521 17.1337 130.68 17.1337C130.743 17.1337 130.833 17.1337 130.932 17.101C131.685 16.878 134.447 16.1458 136.616 16.1458C137.683 16.1458 138.498 16.2399 138.936 16.4626C139.598 16.7829 139.692 17.3566 139.692 18.2802V19.0786L133.756 20.0372C131.497 20.3852 128.574 21.0884 128.574 25.4558C128.574 30.8845 132.842 31.4902 137.116 31.4902C139.158 31.4902 140.792 31.3601 142.172 31.0447C144.434 30.499 145.599 30.0535 145.599 27.3729L145.6 17.7397ZM161.551 21.982C161.551 29.1301 164.724 31.4903 171.475 31.4903C174.493 31.4903 176.813 30.7219 177.914 30.339C178.257 30.2136 178.387 29.956 178.387 29.7333C178.387 29.6682 178.387 29.6083 178.355 29.4779L177.852 27.373V27.402C177.725 26.9566 177.535 26.8615 177.285 26.8615C177.158 26.8615 177 26.8978 176.875 26.9265H176.911C176.028 27.1818 174.398 27.6598 172.544 27.6598C171.005 27.6598 169.934 27.5323 169.148 27.1142C168.242 26.6386 167.674 25.6826 167.674 24.2459H178.357C179.076 24.2459 179.203 23.7354 179.203 23.2548V21.5653C179.203 18.3767 178.667 15.922 177.382 14.3876C176.028 13.0502 173.768 12.2193 170.503 12.2193C163.843 12.2193 161.551 14.8669 161.551 21.982Z" fill="#089ACD"/>
</g>
<defs>
<clipPath id="clip0_3623_22125">
<rect width="201" height="32" fill="white"/>
</clipPath>
</defs>
</svg>
