<svg width="50" height="50" viewBox="0 0 50 50" fill="none" xmlns="http://www.w3.org/2000/svg">
<g clip-path="url(#clip0_1_644)">
<path d="M42.5 11.5629C42.5014 10.8938 42.2338 10.2523 41.7578 9.78215C41.2818 9.31228 40.6367 9.05307 39.9679 9.06315C39.2988 9.07319 38.6618 9.35137 38.2 9.83543L27.4079 3.76093C27.4659 3.5539 27.4966 3.34017 27.4997 3.12533C27.4997 2.23219 27.0231 1.40683 26.2497 0.960188C25.4762 0.513759 24.5231 0.513759 23.7497 0.960188C22.9762 1.40689 22.4997 2.23226 22.4997 3.12533C22.5027 3.34017 22.5334 3.5539 22.5915 3.76093L11.7993 9.83543C11.2589 9.26847 10.4835 8.98836 9.70533 9.079C8.9274 9.1694 8.23712 9.62002 7.84119 10.2958C7.44498 10.9716 7.38946 11.7941 7.6908 12.5171C7.99214 13.2403 8.61572 13.7796 9.37437 13.9741V26.0262C8.61572 26.2207 7.99208 26.76 7.6908 27.4832C7.38945 28.2061 7.44498 29.0287 7.84119 29.7045C8.23712 30.3803 8.9274 30.8309 9.70533 30.9213C10.4835 31.012 11.2589 30.7318 11.7993 30.1649L22.5915 36.2394C22.3817 36.9924 22.536 37.8002 23.0086 38.4226C23.4813 39.0451 24.2179 39.4109 24.9997 39.4109C25.7815 39.4109 26.5181 39.0451 26.9907 38.4226C27.4634 37.8002 27.6177 36.9924 27.4079 36.2394L38.2 30.1649C38.7405 30.7318 39.5159 31.0119 40.294 30.9213C41.072 30.8309 41.7622 30.3803 42.1582 29.7045C42.5544 29.0287 42.6099 28.2061 42.3086 27.4832C42.0072 26.76 41.3836 26.2206 40.625 26.0262V13.9741C41.1601 13.836 41.6342 13.5243 41.9735 13.0882C42.3128 12.6518 42.498 12.1156 42.5 11.5629H42.5ZM26.8 4.85279L37.5922 10.9273C37.5341 11.1343 37.5034 11.348 37.5004 11.5629C37.5032 11.7788 37.5344 11.9934 37.5936 12.201L31.7503 15.4879C30.365 13.4189 28.1078 12.0992 25.6253 11.9072V5.53665C26.0729 5.42197 26.4797 5.18536 26.8003 4.85277L26.8 4.85279ZM26.55 22.8399C27.0296 22.4181 27.3164 21.8184 27.3435 21.1801C27.3709 20.5417 27.1362 19.92 26.6942 19.4588C26.252 18.9973 25.641 18.7367 25.002 18.7367C24.3631 18.7367 23.7517 18.9973 23.3098 19.4588C22.8679 19.92 22.6332 20.5416 22.6603 21.1801C22.6876 21.8185 22.9742 22.4181 23.4538 22.8399C22.925 22.9038 22.4375 23.1586 22.0835 23.5564C21.7294 23.9543 21.5333 24.468 21.5313 25.0006V25.9261C19.7804 24.903 18.5707 23.1591 18.2252 21.1605C17.8801 19.1621 18.435 17.1134 19.7412 15.562C21.0475 14.0109 22.9722 13.1156 25.0001 13.1156C27.028 13.1156 28.9527 14.0109 30.259 15.562C31.5651 17.1134 32.1201 19.1621 31.7749 21.1605C31.4295 23.1591 30.2197 24.903 28.4689 25.9261V25.0006C28.4672 24.4683 28.271 23.9549 27.9172 23.557C27.5635 23.1591 27.0768 22.9041 26.5481 22.8399H26.55ZM26.2813 24.0631C26.7992 24.0631 27.2188 24.4828 27.2188 25.0006V26.5006C25.7819 26.9998 24.2183 26.9998 22.7813 26.5006V25.0006C22.7813 24.4828 23.201 24.0631 23.7188 24.0631H26.2813ZM23.9063 21.0944C23.9063 20.8043 24.0216 20.5261 24.2266 20.321C24.4317 20.1159 24.7099 20.0007 25.0001 20.0007C25.2902 20.0007 25.5684 20.1159 25.7735 20.321C25.9786 20.5261 26.0938 20.8043 26.0938 21.0944C26.0938 21.3846 25.9786 21.6628 25.7735 21.8679C25.5684 22.0729 25.2902 22.1882 25.0001 22.1882C24.7102 22.1879 24.432 22.0724 24.2269 21.8676C24.0221 21.6625 23.9066 21.3843 23.9063 21.0944L23.9063 21.0944ZM25 1.87586C25.3315 1.87586 25.6496 2.00756 25.884 2.24193C26.1183 2.4763 26.25 2.79439 26.25 3.12586C26.25 3.45733 26.1183 3.77542 25.884 4.00979C25.6496 4.24416 25.3315 4.37586 25 4.37586C24.6686 4.37586 24.3505 4.24416 24.1161 4.00979C23.8817 3.77542 23.75 3.45733 23.75 3.12586C23.75 2.79439 23.8817 2.4763 24.1161 2.24193C24.3505 2.00756 24.6686 1.87586 25 1.87586ZM12.4079 10.928L23.2 4.8535C23.5206 5.18609 23.9275 5.4227 24.375 5.53737V11.9079C21.8925 12.0999 19.6353 13.4197 18.25 15.4886L12.4088 12.2017C12.4671 11.9939 12.4978 11.7793 12.5 11.5636C12.4969 11.3488 12.4662 11.135 12.4082 10.928L12.4079 10.928ZM8.74968 11.5636C8.74968 11.2321 8.88138 10.914 9.11575 10.6797C9.35012 10.4453 9.66821 10.3136 9.99968 10.3136C10.3312 10.3136 10.6492 10.4453 10.8836 10.6797C11.118 10.914 11.2497 11.2321 11.2497 11.5636C11.2497 11.8951 11.118 12.2132 10.8836 12.4475C10.6492 12.6819 10.3312 12.8136 9.99968 12.8136C9.66821 12.8136 9.35012 12.6819 9.11575 12.4475C8.88138 12.2132 8.74968 11.8951 8.74968 11.5636ZM9.99968 29.6886C9.66821 29.6886 9.35012 29.5569 9.11575 29.3225C8.88138 29.0882 8.74968 28.7701 8.74968 28.4386C8.74968 28.1071 8.88138 27.789 9.11575 27.5547C9.35012 27.3203 9.66821 27.1886 9.99968 27.1886C10.3312 27.1886 10.6492 27.3203 10.8836 27.5547C11.118 27.789 11.2497 28.1071 11.2497 28.4386C11.2497 28.7701 11.118 29.0882 10.8836 29.3225C10.6492 29.5569 10.3312 29.6886 9.99968 29.6886ZM11.7977 26.7092C11.4774 26.3781 11.0711 26.142 10.6247 26.0273V13.9752C11.0711 13.8605 11.4774 13.6245 11.7977 13.2933L17.6403 16.5806C16.6194 18.7469 16.6194 21.2558 17.6403 23.4221L11.7977 26.7092ZM23.1991 35.1464L12.4077 29.0738C12.4657 28.8668 12.4964 28.6531 12.4995 28.4382C12.4967 28.2223 12.4654 28.0077 12.4063 27.8001L18.2495 24.5132C19.6349 26.5822 21.8921 27.9019 24.3745 28.0939V34.4645C23.927 34.5791 23.5201 34.8157 23.1996 35.1483L23.1991 35.1464ZM24.9993 38.1257C24.6679 38.1257 24.3498 37.994 24.1154 37.7597C23.881 37.5253 23.7493 37.2072 23.7493 36.8757C23.7493 36.5443 23.881 36.2262 24.1154 35.9918C24.3498 35.7574 24.6679 35.6257 24.9993 35.6257C25.3308 35.6257 25.6489 35.7574 25.8833 35.9918C26.1176 36.2262 26.2493 36.5443 26.2493 36.8757C26.2493 37.2072 26.1176 37.5253 25.8833 37.7597C25.6489 37.994 25.3308 38.1257 24.9993 38.1257ZM37.5915 29.0736L26.7993 35.1481C26.4787 34.8155 26.0719 34.5789 25.6244 34.4642V28.0937C28.1068 27.9017 30.364 26.5819 31.7494 24.513L37.5906 27.7999C37.5323 28.0077 37.5016 28.2223 37.4994 28.438C37.5025 28.6528 37.5331 28.8666 37.5912 29.0736L37.5915 29.0736ZM32.359 23.421V23.4212C33.38 21.255 33.38 18.746 32.359 16.5797L38.2017 13.2924C38.522 13.6236 38.9283 13.8596 39.3747 13.9743V26.0264C38.9283 26.1411 38.522 26.3772 38.2017 26.7084L32.359 23.421ZM41.2498 28.438C41.2498 28.7694 41.1181 29.0875 40.8837 29.3219C40.6493 29.5563 40.3312 29.688 39.9998 29.688C39.6683 29.688 39.3502 29.5563 39.1158 29.3219C38.8815 29.0875 38.7498 28.7694 38.7498 28.438C38.7498 28.1065 38.8815 27.7884 39.1158 27.554C39.3502 27.3197 39.6683 27.188 39.9998 27.188C40.3312 27.188 40.6493 27.3197 40.8837 27.554C41.1181 27.7884 41.2498 28.1065 41.2498 28.438ZM39.9998 12.813C39.6683 12.813 39.3502 12.6813 39.1158 12.4469C38.8815 12.2125 38.7498 11.8944 38.7498 11.563C38.7498 11.2315 38.8815 10.9134 39.1158 10.679C39.3502 10.4447 39.6683 10.313 39.9998 10.313C40.3312 10.313 40.6493 10.4447 40.8837 10.679C41.1181 10.9134 41.2498 11.2315 41.2498 11.563C41.2498 11.8944 41.1181 12.2125 40.8837 12.4469C40.6493 12.6813 40.3312 12.813 39.9998 12.813Z" fill="white"/>
<path d="M26.7286 14.9501L25.9161 14.8326L25.5537 14.0982H25.5534C25.4365 13.8999 25.2233 13.7782 24.9931 13.7782C24.7629 13.7782 24.5498 13.8998 24.4329 14.0982L24.071 14.832L23.2585 14.9495C23.0247 14.9844 22.8305 15.1487 22.7571 15.3736C22.6834 15.5985 22.7434 15.8454 22.9117 16.012L23.4979 16.584L23.3598 17.3915V17.3912C23.3199 17.6256 23.4164 17.8625 23.6089 18.002C23.8012 18.1415 24.0562 18.1599 24.2666 18.0494L24.9903 17.6688L25.7152 18.0494H25.7155C25.9256 18.1613 26.1809 18.144 26.374 18.005C26.5673 17.8658 26.6647 17.6292 26.6254 17.3943L26.4867 16.5873L27.0729 16.0162C27.2434 15.8502 27.3048 15.6018 27.2311 15.3756C27.1577 15.1493 26.9621 14.9841 26.7266 14.9501L26.7286 14.9501ZM25.1923 16.375C25.1287 16.3538 25.0623 16.3432 24.9953 16.3432C24.9287 16.3432 24.8623 16.3538 24.7992 16.375C24.7992 16.2397 24.7554 16.1082 24.6742 16C24.8025 15.9592 24.9144 15.8781 24.9928 15.7687C25.071 15.878 25.1823 15.9592 25.3104 16C25.2317 16.1091 25.1904 16.2405 25.1923 16.375V16.375Z" fill="white"/>
<path d="M49.81 47.6663H50.3412L50.6281 48.8437L50.9171 47.6663H51.3725L51.6593 48.8314L51.9484 47.6663H52.4796L52.0287 49.375H51.4328L51.1437 48.1998L50.8569 49.375H50.2609L49.81 47.6663Z" fill="white"/>
</g>
<defs>
<clipPath id="clip0_1_644">
<rect width="50" height="50" fill="white"/>
</clipPath>
</defs>
</svg>
