<svg width="69" height="145" viewBox="0 0 69 145" fill="none" xmlns="http://www.w3.org/2000/svg">
<path d="M5.91653 87.5997H5.83358C3.19655 87.5997 1.05626 85.7256 0.907878 83.3831L0.907829 83.3823C0.628538 79.0778 0.500004 75.1251 0.5 71.4937C0.509862 57.4362 2.3812 48.1739 5.13739 41.7981L5.1378 41.7972C7.86002 35.4638 11.7251 31.9334 15.2579 30.3326L15.2579 30.3326L15.2609 30.3313C16.7896 29.6267 18.1881 29.2963 19.3 29.1508L19.3409 29.1455L19.3803 29.1335C19.8567 28.989 20.3633 28.9082 20.8905 28.9082C20.8905 28.9082 20.8905 28.9082 20.8905 28.9082L47.1845 28.9112C47.714 28.9112 48.2206 28.992 48.6969 29.1365L48.7363 29.1485L48.7772 29.1538C49.8882 29.2994 51.2866 29.6297 52.8107 30.3332L52.8126 30.334C55.1504 31.4013 57.6992 33.3319 59.884 36.3655C64.2707 42.4957 67.5455 52.7657 67.5719 71.4981C67.5719 75.1295 67.4444 79.0804 67.1717 83.3859C67.0235 85.7273 64.8789 87.6044 62.2431 87.6035H62.2429C62.1444 87.6035 62.0467 87.6007 61.9466 87.5952L61.9453 87.5951C59.176 87.4484 57.1417 85.294 57.2984 82.8683L57.2984 82.8679C57.5636 78.7194 57.683 74.9404 57.6808 71.4952M5.91653 87.5997L10.3901 71.4937C10.3901 71.4936 10.3901 71.4934 10.3901 71.4933C10.3659 56.382 12.7749 47.8249 15.1894 43.3082L16.1304 43.5439V136.749C16.1304 140.681 19.6312 143.941 24.0449 143.941C28.4597 143.941 31.9605 140.681 31.9605 136.749V80.5797V80.0797H32.4605H35.6149H36.1149V80.5797V136.749C36.1149 140.681 39.6157 143.941 44.0294 143.941C48.4442 143.941 51.9451 140.681 51.9451 136.749V63.9872L51.9462 43.5756L52.8873 43.3402C53.3 44.1134 53.7135 44.9982 54.1202 46.0265L54.1203 46.0269C56.0688 50.9664 57.6884 59.0089 57.6808 71.4952M5.91653 87.5997C5.98955 87.5988 6.05951 87.5965 6.1272 87.5921L6.13315 87.5917L6.13315 87.5918C8.90196 87.4441 10.9339 85.2882 10.7791 82.8625L5.91653 87.5997ZM57.6808 71.4952C57.6808 71.4953 57.6808 71.4954 57.6808 71.4955L57.1808 71.4952L57.6808 71.4949C57.6808 71.495 57.6808 71.4951 57.6808 71.4952Z" stroke="url(#paint0_linear_2570_21087)"/>
<path d="M50.0508 11.4538L50.3393 11.1233L49.0018 10.3926L49.3645 10.0484C49.3644 10.0483 49.3643 10.0483 49.3643 10.0482C48.5077 9.14568 47.2601 7.93454 45.7326 6.7335C42.684 4.32557 38.4678 1.97135 34.0396 1.98865C30.3644 1.94217 26.8473 3.59721 24.0308 5.50769C21.2061 7.42377 19.03 9.63496 18.0239 10.786L17.7341 11.1176L18.0265 11.447C18.2144 11.6587 18.4431 11.9109 18.7114 12.192C19.5681 13.0967 20.8123 14.3058 22.343 15.5087C25.3921 17.9168 29.6071 20.2677 34.035 20.2535C37.7113 20.299 41.2295 18.6429 44.0463 16.7319C46.8712 14.8153 49.0468 12.6041 50.0508 11.4538ZM46.8877 16.6109C43.6562 19.14 39.1942 21.7279 34.0375 21.7431C28.8802 21.7271 24.4192 19.1389 21.1855 16.6106C18.06 14.1493 16.1194 11.7252 15.9711 11.5399C15.9706 11.5392 15.97 11.5385 15.9695 11.5379L15.9695 11.5379L15.6408 11.1212L15.9695 10.7044L15.9695 10.7044C15.97 10.7038 15.9706 10.7031 15.9711 10.7024C16.1176 10.5193 18.0587 8.09216 21.1856 5.63161C24.4193 3.10146 28.8815 0.515121 34.0374 0.500002C39.1947 0.515223 43.6569 3.10147 46.888 5.63055C49.9787 8.0617 51.9081 10.4571 52.1022 10.6981C52.1036 10.6999 52.105 10.7016 52.1062 10.7031L52.1062 10.7032L52.434 11.1192L52.1052 11.5394C52.1049 11.5397 52.1047 11.54 52.1045 11.5403C51.9472 11.7365 50.0084 14.1551 46.8877 16.6109Z" stroke="url(#paint1_linear_2570_21087)"/>
<path d="M33.7519 8.05043V8.05095C33.7519 9.42139 34.9537 10.4572 36.3371 10.4572C37.7207 10.4572 38.9223 9.42023 38.9223 8.05095C38.9223 6.68034 37.7192 5.64471 36.3371 5.64471C34.9521 5.64471 33.7534 6.67984 33.7519 8.05043ZM40.942 11.1219C40.942 14.5414 37.895 17.3884 34.0403 17.3884C30.1857 17.3884 27.1387 14.5414 27.1387 11.1219C27.1387 7.70251 30.1857 4.85547 34.0403 4.85547C37.895 4.85547 40.942 7.70251 40.942 11.1219Z" stroke="url(#paint2_linear_2570_21087)"/>
<defs>
<linearGradient id="paint0_linear_2570_21087" x1="34.0359" y1="28.4082" x2="34.0359" y2="144.441" gradientUnits="userSpaceOnUse">
<stop stop-color="#6CB8C2"/>
<stop offset="1" stop-color="#F7D323"/>
</linearGradient>
<linearGradient id="paint1_linear_2570_21087" x1="34.0368" y1="0" x2="34.0368" y2="22.2431" gradientUnits="userSpaceOnUse">
<stop stop-color="#6CB8C2"/>
<stop offset="1" stop-color="#F7D323"/>
</linearGradient>
<linearGradient id="paint2_linear_2570_21087" x1="34.0403" y1="4.35547" x2="34.0403" y2="17.8884" gradientUnits="userSpaceOnUse">
<stop stop-color="#6CB8C2"/>
<stop offset="1" stop-color="#F7D323"/>
</linearGradient>
</defs>
</svg>
