<svg width="133" height="222" viewBox="0 0 133 222" fill="none" xmlns="http://www.w3.org/2000/svg">
<mask id="path-1-inside-1_1668_14669" fill="white">
<path d="M57.6298 91.7226C57.6298 100.337 50.647 107.32 42.0322 107.32C33.4173 107.32 26.4346 100.337 26.4346 91.7226C26.4346 83.1078 33.4173 76.125 42.0322 76.125C50.647 76.125 57.6298 83.1078 57.6298 91.7226Z"/>
</mask>
<path d="M56.6298 91.7226C56.6298 99.7852 50.0947 106.32 42.0322 106.32V108.32C51.1993 108.32 58.6298 100.89 58.6298 91.7226H56.6298ZM42.0322 106.32C33.9696 106.32 27.4346 99.7852 27.4346 91.7226H25.4346C25.4346 100.89 32.865 108.32 42.0322 108.32V106.32ZM27.4346 91.7226C27.4346 83.66 33.9696 77.125 42.0322 77.125V75.125C32.865 75.125 25.4346 82.5555 25.4346 91.7226H27.4346ZM42.0322 77.125C50.0947 77.125 56.6298 83.66 56.6298 91.7226H58.6298C58.6298 82.5555 51.1993 75.125 42.0322 75.125V77.125Z" fill="url(#paint0_linear_1668_14669)" mask="url(#path-1-inside-1_1668_14669)"/>
<path d="M84.3728 96.8789L84.4119 96.8811C88.0789 97.1166 90.6543 100.142 90.6528 103.364V103.364C90.6528 104.606 90.4246 108.284 89.246 112.453C88.066 116.626 85.9501 121.232 82.2161 124.4L82.2121 124.404C78.835 127.332 74.7842 128.463 70.251 128.009C66.9858 127.682 64.1913 127.243 61.6776 126.847C60.6172 126.68 59.6067 126.521 58.632 126.381L58.0565 126.299L58.0612 126.88L58.7611 213.245C58.7611 213.246 58.7611 213.247 58.7611 213.247C58.76 217.403 55.4819 220.66 51.5787 220.66H51.5656L51.5525 220.661C47.4402 220.877 44.1639 217.407 44.1639 213.478L44.1639 213.473L43.6978 164.119L43.6932 163.624H43.1979H40.1709H39.7722L39.6835 164.013L28.0459 214.986C28.0455 214.987 28.0451 214.989 28.0447 214.991C27.1685 218.482 24.1167 220.66 20.8486 220.66C20.1548 220.66 19.7594 220.658 19.1437 220.453L19.1194 220.445L19.0943 220.439C15.1859 219.571 12.7825 215.657 13.6533 211.728C13.6535 211.727 13.6538 211.726 13.654 211.725L25.7551 160.749L25.7686 160.692V160.633V156.209L24.8214 155.986C24.7203 156.188 24.6327 156.313 24.5373 156.408C24.442 156.504 24.3175 156.592 24.1152 156.692L24.0675 156.716L24.026 156.749C22.9516 157.608 21.6655 158.036 20.3808 158.036C18.2282 158.036 16.2768 156.962 14.964 155.214L2.62885 137.991L2.62106 137.98L2.61271 137.969C0.894662 135.823 0.891225 132.808 2.39973 130.654L2.39983 130.654L2.40597 130.645C2.83617 130 15.2751 112.011 42.0317 112.011C48.7843 112.011 53.6862 112.831 58.9053 113.704C59.2273 113.758 59.5506 113.812 59.8756 113.867L59.8836 113.868L59.8916 113.869C61.0757 114.027 62.297 114.214 63.5785 114.409C66.0366 114.785 68.7162 115.195 71.7803 115.501L71.8052 115.504H71.8301C72.8305 115.504 73.4439 115.255 73.8042 114.901C75.0762 113.75 75.977 111.654 76.5903 109.493C77.2122 107.302 77.5665 104.94 77.6846 103.163L77.6857 103.147V103.13C77.6857 99.4655 80.6975 96.6632 84.3728 96.8789ZM24.8624 146.487L25.7504 147.745L25.7708 146.206L26.0032 128.746L26.0135 127.97L25.3027 128.281C21.5323 129.932 18.4504 132.059 16.5365 133.973L16.2387 134.271L16.4816 134.615L24.8624 146.487Z" stroke="url(#paint1_linear_1668_14669)"/>
<path d="M86.6958 70.5394C86.6958 73.9917 83.896 76.7915 80.4437 76.7915C76.9917 76.7915 74.1934 73.9918 74.1934 70.5394C74.1934 67.0872 76.9915 64.2891 80.4437 64.2891C83.8961 64.2891 86.6958 67.0874 86.6958 70.5394Z" stroke="url(#paint2_linear_1668_14669)"/>
<path d="M75.7543 84.0407C75.7543 86.85 73.4758 89.1284 70.6667 89.1284C67.8576 89.1284 65.5791 86.8498 65.5791 84.0407C65.5791 81.2317 67.8576 78.9531 70.6667 78.9531C73.4758 78.9531 75.7543 81.2317 75.7543 84.0407Z" stroke="url(#paint3_linear_1668_14669)"/>
<path d="M128.367 21.6514C128.367 23.5552 127.968 25.4693 127.353 27.2038H126.495L127.348 28.0573C130.512 31.2206 132.077 35.2648 131.63 39.524L131.627 39.55V39.5762C131.627 48.8452 123.936 56.5362 114.667 56.5362C113.797 56.5362 112.688 56.3155 111.506 56.0798L111.212 56.0212L111.022 56.2523C107.86 60.092 103.347 62.1225 98.6036 62.1225C93.8735 62.1225 89.3503 59.8696 86.1755 56.2409L85.9848 56.0229L85.7007 56.0799C85.53 56.1142 85.3658 56.1481 85.2066 56.1809C84.2568 56.3767 83.4837 56.5362 82.5401 56.5362C73.0429 56.5362 65.5801 48.8496 65.5801 39.5762C65.5801 35.2969 67.3832 31.2235 70.3361 28.044L70.5464 27.8176L70.4379 27.5283C69.7561 25.7095 69.3054 23.6746 69.3054 21.6514C69.3054 12.1543 76.992 4.6914 86.2654 4.6914C87.2052 4.6914 88.0761 4.69378 88.9374 4.90874L89.226 4.98076L89.427 4.76153C91.9004 2.06412 95.2608 0.5 98.8361 0.5C102.425 0.5 106.004 2.07374 108.23 4.7438L108.42 4.97216L108.712 4.91393C109.824 4.69169 110.484 4.6914 111.407 4.6914C120.904 4.6914 128.367 12.378 128.367 21.6514ZM109.939 31.0381L110.044 30.9027V30.8805C112.391 27.2763 112.848 22.9549 110.927 18.8775L110.922 18.867L110.917 18.8567C108.724 14.7149 104.351 12.3046 99.301 12.3046C91.3389 12.3046 86.9687 17.8736 86.2352 23.4353C85.9422 24.9593 87.1801 26.1107 88.5915 26.1107H91.6184C92.8405 26.1107 93.6945 25.1899 93.9662 24.1014L93.9743 24.0688L93.978 24.0354C94.0852 23.069 94.4588 22.0222 95.2606 21.2206C96.0533 20.4281 97.3147 19.8247 99.301 19.8247C102.321 19.8247 103.57 21.531 103.976 22.3418L103.982 22.3542L103.989 22.3662C104.808 23.7973 104.62 25.2169 103.786 26.4783C102.909 27.5719 102.032 28.2327 101.113 28.9228C99.8125 29.7512 98.6435 30.6688 97.7467 32.0602C96.8465 33.4568 96.2477 35.2875 96.0098 37.9022L96.0077 37.9248V37.9475C96.0077 38.6262 96.2112 39.2708 96.6207 39.7546C97.0373 40.2467 97.6433 40.5423 98.3703 40.5423H101.163C101.75 40.5423 102.328 40.3243 102.765 39.96C103.197 39.5992 103.516 39.0706 103.526 38.4419C103.639 37.4323 103.803 36.8928 104.057 36.5013C104.314 36.1033 104.697 35.8039 105.398 35.3367L105.416 35.3247L105.433 35.3112C105.574 35.1986 105.723 35.0818 105.879 34.9595C106.995 34.0835 108.47 32.9258 109.939 31.0381ZM95.3095 47.7248C95.3095 50.0762 97.1429 52.1822 99.7669 52.1822C102.138 52.1822 104.224 50.0958 104.224 47.7248C104.224 45.3734 102.391 43.2674 99.7669 43.2674C97.4155 43.2674 95.3095 45.1009 95.3095 47.7248Z" stroke="url(#paint4_linear_1668_14669)"/>
<defs>
<linearGradient id="paint0_linear_1668_14669" x1="42.0322" y1="76.125" x2="42.0322" y2="107.32" gradientUnits="userSpaceOnUse">
<stop stop-color="#5AB4D6"/>
<stop offset="1" stop-color="#FFD419"/>
</linearGradient>
<linearGradient id="paint1_linear_1668_14669" x1="45.9739" y1="96.3672" x2="45.9739" y2="221.17" gradientUnits="userSpaceOnUse">
<stop stop-color="#5AB4D6"/>
<stop offset="1" stop-color="#FFD419"/>
</linearGradient>
<linearGradient id="paint2_linear_1668_14669" x1="80.4446" y1="63.7891" x2="80.4446" y2="77.2915" gradientUnits="userSpaceOnUse">
<stop stop-color="#5AB4D6"/>
<stop offset="1" stop-color="#FFD419"/>
</linearGradient>
<linearGradient id="paint3_linear_1668_14669" x1="70.6667" y1="78.4531" x2="70.6667" y2="89.6284" gradientUnits="userSpaceOnUse">
<stop stop-color="#5AB4D6"/>
<stop offset="1" stop-color="#FFD419"/>
</linearGradient>
<linearGradient id="paint4_linear_1668_14669" x1="98.6425" y1="0" x2="98.6425" y2="62.6225" gradientUnits="userSpaceOnUse">
<stop stop-color="#5AB4D6"/>
<stop offset="1" stop-color="#FFD419"/>
</linearGradient>
</defs>
</svg>
