<svg width="186" height="154" viewBox="0 0 186 154" fill="none" xmlns="http://www.w3.org/2000/svg">
<path d="M119.905 34.4956L119.903 34.5055C119.751 35.2664 120.035 35.8945 120.59 36.6353C121.059 37.2606 121.867 37.6015 122.717 37.6015H126.8C128.11 37.6015 129.252 36.6166 129.415 35.3177L129.417 35.2997L129.421 35.282C129.826 33.2527 130.7 31.633 132.047 30.5231C133.396 29.4129 135.169 28.8539 137.299 28.8539C141.586 28.8539 143.507 31.114 144.168 32.6419C145.212 34.7417 145.009 37.0782 143.725 38.7893C142.784 40.0437 141.825 40.8277 140.826 41.6453C140.539 41.8793 140.25 42.1162 139.956 42.3676L139.933 42.3872L139.908 42.4039C138.179 43.5568 136.64 44.7761 135.455 46.5648C134.275 48.3469 133.42 50.7337 133.132 54.2553C133.135 55.156 133.318 55.7691 133.763 56.2142C134.251 56.7026 135.096 57.04 135.742 57.04H139.629C141.124 57.04 142.24 55.8816 142.24 54.6246V54.6068L142.241 54.5891C142.34 53.2094 142.54 52.3217 143.004 51.6256C143.449 50.958 144.109 50.5189 144.932 49.9709L144.979 49.9393C145.129 49.8267 145.286 49.711 145.448 49.5912C146.977 48.4619 149.002 46.9666 150.882 44.2322L150.888 44.2237L150.894 44.2155C154.27 39.712 154.654 33.5037 152.016 28.4164L152.006 28.3973L151.998 28.3774C149.758 22.9657 143.943 19.551 137.298 19.5508L119.905 34.4956ZM119.905 34.4956L119.907 34.4857M119.905 34.4956L119.907 34.4857M119.907 34.4857C120.477 30.8735 122.043 27.1381 124.847 24.3115C127.64 21.4948 131.689 19.5509 137.297 19.5508L119.907 34.4857Z" stroke="url(#paint0_linear_1668_14584)"/>
<path d="M143.602 67.4559C143.602 70.6145 141.04 73.176 137.88 73.176C134.722 73.176 132.16 70.6146 132.16 67.4559C132.16 64.2958 134.722 61.7344 137.88 61.7344C141.04 61.7344 143.602 64.2958 143.602 67.4559Z" stroke="url(#paint1_linear_1668_14584)"/>
<path d="M89.9757 87.8681V63.8741H98.8897V82.8141V83.3141H99.3897H174.623H175.123V82.8141V9.91405V9.41405H174.623H99.1953H98.6953V9.91405V32.548H89.7812V5.05405C89.7812 2.42708 91.8773 0.5 94.3353 0.5H179.63L179.631 0.500143H179.678C182.279 0.500143 184.262 2.38506 185.204 5.13638L185.201 87.6742C185.201 90.3012 183.105 92.2283 180.647 92.2283H156.153H155.515L155.667 92.8479L169.078 147.265C169.078 147.267 169.079 147.27 169.08 147.272C169.607 149.753 168.187 152.179 165.768 152.697L165.706 152.711L165.65 152.739C165.381 152.873 165.108 152.88 164.707 152.88C162.583 152.88 160.854 151.655 160.332 149.565L146.141 92.8002L146.046 92.4215H145.656H129.521H129.13L129.036 92.8002L114.845 149.565L114.843 149.573L114.841 149.582C114.322 152.002 111.892 153.423 109.409 152.891C106.99 152.373 105.569 149.947 106.097 147.466C106.098 147.464 106.098 147.461 106.099 147.459L119.509 93.0418L119.662 92.4222H119.024H94.5297C91.9027 92.4222 89.9757 90.3261 89.9757 87.8681Z" stroke="url(#paint2_linear_1668_14584)"/>
<path d="M59.1492 54.9044H58.6465L58.6492 55.4071L58.8452 91.9546L58.8453 91.9742L58.8469 91.9937L63.3178 145.259L63.3181 145.263C63.682 149.262 60.7804 152.896 56.6015 153.271H56.0405C52.2272 153.271 48.9349 150.176 48.5677 146.339C48.5677 146.338 48.5676 146.337 48.5675 146.336L44.2912 95.215L44.2529 94.7567H43.7929H40.4883H40.0284L39.9901 95.215L35.7136 146.339C35.7135 146.339 35.7135 146.34 35.7134 146.34C35.3473 150.353 31.8859 153.442 27.7014 153.078C23.6881 152.712 20.5989 149.251 20.9632 145.066L20.9634 145.064L25.4342 91.7986L25.436 91.7777V91.7568V86.7027L24.4891 86.4785C24.3417 86.7722 24.0319 87.0824 23.7407 87.2275L23.6885 87.2535L23.6437 87.2908C22.5894 88.1687 21.1599 88.5365 19.8806 88.5365C17.8776 88.5365 15.7109 87.6239 14.4579 85.8342L14.4551 85.8304L1.8241 68.1458C1.8234 68.1447 1.8227 68.1437 1.82199 68.1427C0.178504 65.7655 0.0158461 62.8888 1.62538 60.557C1.63987 60.5374 1.66036 60.5091 1.68689 60.4724C2.84021 58.8786 15.402 41.5195 42.2374 41.5195H96.2806C99.8746 41.5195 102.779 44.5825 102.778 48.2118V48.212C102.778 51.8237 99.6967 54.9044 96.0852 54.9044H59.1492ZM24.7223 77.2734L25.6292 78.5432V76.9828V58.9029V58.1297L24.924 58.447C20.971 60.2257 18.0118 62.5962 16.0471 64.3636L15.715 64.6624L15.9747 65.0259L24.7223 77.2734ZM44.1719 53.572H45.1536C45.51 53.572 45.8249 53.3989 46.0409 53.1832C46.2569 52.9674 46.4306 52.6523 46.4306 52.295V47.629C46.4306 47.2726 46.2575 46.9577 46.0418 46.7417C45.826 46.5257 45.5109 46.352 45.1536 46.352H39.3212C38.9648 46.352 38.6499 46.5251 38.4339 46.7408C38.2179 46.9566 38.0442 47.2717 38.0442 47.629V52.295C38.0442 52.6514 38.2173 52.9663 38.433 53.1823C38.6488 53.3983 38.9639 53.572 39.3212 53.572H40.3029L37.2706 75.5544L37.2659 75.5884V75.6227L37.2659 75.6379C37.2657 75.8403 37.2652 76.2111 37.5964 76.5494L41.283 80.6244L41.2914 80.6336L41.3002 80.6425C41.549 80.8913 41.8629 81.0808 42.2368 81.0808C42.6108 81.0808 42.9247 80.8913 43.1735 80.6425L43.1823 80.6336L43.1907 80.6244L46.8779 76.5487C46.9782 76.4451 47.0431 76.3292 47.0857 76.2295C47.1011 76.1934 47.1144 76.1576 47.1259 76.1227H47.2826L47.2042 75.5544L44.1719 53.572Z" stroke="url(#paint3_linear_1668_14584)"/>
<path d="M57.6775 20.7995C57.6775 29.3279 50.7644 36.241 42.236 36.241C33.709 36.241 26.7959 29.328 26.7959 20.7995C26.7959 12.2724 33.709 5.35938 42.236 5.35938C50.7645 5.35938 57.6775 12.2725 57.6775 20.7995Z" stroke="url(#paint4_linear_1668_14584)"/>
<defs>
<linearGradient id="paint0_linear_1668_14584" x1="136.804" y1="19.0508" x2="136.804" y2="57.54" gradientUnits="userSpaceOnUse">
<stop stop-color="#5AB4D6"/>
<stop offset="1" stop-color="#FFD419"/>
</linearGradient>
<linearGradient id="paint1_linear_1668_14584" x1="137.881" y1="61.2344" x2="137.881" y2="73.676" gradientUnits="userSpaceOnUse">
<stop stop-color="#5AB4D6"/>
<stop offset="1" stop-color="#FFD419"/>
</linearGradient>
<linearGradient id="paint2_linear_1668_14584" x1="137.492" y1="0" x2="137.492" y2="153.502" gradientUnits="userSpaceOnUse">
<stop stop-color="#5AB4D6"/>
<stop offset="1" stop-color="#FFD419"/>
</linearGradient>
<linearGradient id="paint3_linear_1668_14584" x1="51.6388" y1="41.0195" x2="51.6388" y2="153.771" gradientUnits="userSpaceOnUse">
<stop stop-color="#5AB4D6"/>
<stop offset="1" stop-color="#FFD419"/>
</linearGradient>
<linearGradient id="paint4_linear_1668_14584" x1="42.2367" y1="4.85937" x2="42.2367" y2="36.741" gradientUnits="userSpaceOnUse">
<stop stop-color="#5AB4D6"/>
<stop offset="1" stop-color="#FFD419"/>
</linearGradient>
</defs>
</svg>
