<svg width="155" height="24" viewBox="0 0 155 24" fill="none" xmlns="http://www.w3.org/2000/svg">
<g clip-path="url(#clip0_3623_22115)">
<path d="M19.2327 2.82797C18.2696 1.86588 17.0731 1.16618 15.6138 0.699705C14.1546 0.233235 12.4327 0 10.4189 0H0V23.236H10.4189C12.4035 23.236 14.1546 23.0028 15.6138 22.5363C17.0731 22.0699 18.2696 21.3701 19.2327 20.4081C20.1958 19.446 20.8962 18.2506 21.3632 16.7929C21.8302 15.3351 22.0636 13.615 22.0636 11.6035C22.0636 9.59179 21.8302 7.87169 21.3632 6.41395C20.8962 4.95624 20.1958 3.76091 19.2327 2.82797ZM15.7013 14.8396C15.4679 15.7142 15.0885 16.4139 14.5632 16.9387C14.0379 17.4635 13.3374 17.8425 12.4618 18.0757C11.5863 18.3089 10.5357 18.4256 9.25156 18.4256H5.74939V4.83962H9.25156C10.5357 4.83962 11.5863 4.95624 12.4618 5.18947C13.3374 5.42271 14.0379 5.80171 14.5632 6.32649C15.0885 6.85127 15.4679 7.55097 15.7013 8.42563C15.9349 9.30023 16.0516 10.3498 16.0516 11.6326C16.0516 12.9154 15.9349 13.9649 15.7013 14.8396Z" fill="#3A3A42"/>
<path d="M40.2457 7.87256C39.6621 7.2895 38.9324 6.85219 38.0277 6.5898C37.123 6.29826 36.0431 6.18164 34.8174 6.18164H25.5658V10.3799H34.5255C35.1676 10.3799 35.6054 10.5256 35.8972 10.788C36.1599 11.0504 36.3058 11.5169 36.3058 12.1291V12.3332H29.856C28.0757 12.3332 26.7332 12.7997 25.7993 13.7326C24.8654 14.6656 24.3984 16.0358 24.3984 17.7851C24.3984 19.5343 24.8654 20.8754 25.7993 21.8375C26.7332 22.7996 28.1049 23.2369 29.856 23.2369H41.9676V13.2953C41.9676 12.0417 41.8217 10.9921 41.559 10.0883C41.2672 9.18451 40.8294 8.45568 40.2457 7.87256ZM36.3642 19.097H31.4612C31.0526 19.097 30.7024 18.9804 30.4689 18.7472C30.2354 18.5139 30.1186 18.1933 30.1186 17.7851C30.1186 17.3478 30.2354 17.0271 30.4689 16.7938C30.7024 16.5606 31.0234 16.444 31.4612 16.444H36.3642V19.097Z" fill="#3A3A42"/>
<path d="M52.5321 18.688C52.2986 18.4547 52.1819 18.0757 52.1819 17.4926V10.3789H57.4352V6.18075H52.1819V1.60352H46.4909V6.15159H44.127V10.3498H46.4909V17.7842C46.4909 18.7754 46.5784 19.6209 46.7827 20.3206C46.987 21.0203 47.2789 21.5742 47.7167 22.0116C48.1544 22.4489 48.7089 22.7696 49.4094 22.9445C50.1098 23.1486 50.9562 23.2361 51.9484 23.2361H57.4935V19.0378H53.7287C53.145 19.0378 52.7656 18.9212 52.5321 18.688Z" fill="#3A3A42"/>
<path d="M75.2966 7.87256C74.7128 7.2895 73.9833 6.85219 73.0785 6.5898C72.1738 6.29826 71.094 6.18164 69.8682 6.18164H60.6166V10.3799H69.5764C70.2184 10.3799 70.6562 10.5256 70.948 10.788C71.2107 11.0504 71.3566 11.5169 71.3566 12.1291V12.3332H64.9068C63.1265 12.3332 61.7841 12.7997 60.8501 13.7326C59.9162 14.6656 59.4492 16.0358 59.4492 17.7851C59.4492 19.5343 59.9162 20.8754 60.8501 21.8375C61.7841 22.7996 63.1557 23.2369 64.9068 23.2369H77.0185V13.2953C77.0185 12.0417 76.8725 10.9921 76.6099 10.0883C76.318 9.18451 75.8802 8.45568 75.2966 7.87256ZM71.3858 19.097H66.4827C66.0742 19.097 65.7239 18.9804 65.4905 18.7472C65.257 18.5139 65.1403 18.1933 65.1403 17.7851C65.1403 17.3478 65.257 17.0271 65.4905 16.7938C65.7239 16.5606 66.045 16.444 66.4827 16.444H71.3858V19.097Z" fill="#3A3A42"/>
<path d="M92.0773 9.15445H87.7287C87.0281 9.15445 86.474 8.97956 86.1237 8.60052C85.744 8.22155 85.5688 7.69675 85.5688 6.99705C85.5688 6.29734 85.744 5.77256 86.1237 5.39355C86.5027 5.01454 87.0281 4.83962 87.7287 4.83962H98.1478V0H86.474C84.1389 0 82.3882 0.583087 81.2203 1.7201C80.0531 2.85712 79.499 4.60639 79.499 6.96789C79.499 9.32942 80.0826 11.0786 81.2203 12.2448C82.3588 13.411 84.1103 13.9941 86.474 13.9941H90.9101C92.3694 13.9941 93.1282 14.7229 93.1282 16.2098C93.1282 17.6967 92.3981 18.4256 90.9101 18.4256H80.1407V23.2651H92.0478C94.3829 23.2651 96.1336 22.6821 97.3302 21.4867C98.5268 20.2915 99.1398 18.5422 99.1398 16.2098C99.1398 13.8775 98.5268 12.1282 97.3302 10.962C96.1336 9.79587 94.3829 9.15445 92.0773 9.15445Z" fill="#3A3A42"/>
<path d="M109.442 18.688C109.209 18.4547 109.092 18.0757 109.092 17.4926V10.3789H114.345V6.18075H109.092V1.60352H103.401V6.15159H101.037V10.3498H103.401V17.7842C103.401 18.7754 103.488 19.6209 103.693 20.3206C103.897 21.0203 104.189 21.5742 104.627 22.0116C105.065 22.4489 105.619 22.7696 106.32 22.9445C107.02 23.1486 107.866 23.2361 108.858 23.2361H114.404V19.0378H110.639C110.084 19.0378 109.676 18.9212 109.442 18.688Z" fill="#3A3A42"/>
<path d="M132.207 7.87256C131.623 7.2895 130.894 6.85219 129.989 6.5898C129.084 6.29826 128.005 6.18164 126.778 6.18164H117.527V10.3799H126.486C127.129 10.3799 127.567 10.5256 127.858 10.788C128.121 11.0504 128.267 11.5169 128.267 12.1291V12.3332H121.817C120.037 12.3332 118.694 12.7997 117.761 13.7326C116.827 14.6656 116.359 16.0358 116.359 17.7851C116.359 19.5343 116.827 20.8754 117.761 21.8375C118.694 22.7996 120.066 23.2369 121.817 23.2369H133.929V13.2953C133.929 12.0417 133.783 10.9921 133.52 10.0883C133.228 9.18451 132.791 8.45568 132.207 7.87256ZM128.296 19.097H123.393C122.985 19.097 122.635 18.9804 122.4 18.7472C122.167 18.5139 122.05 18.1933 122.05 17.7851C122.05 17.3478 122.167 17.0271 122.4 16.7938C122.635 16.5606 122.955 16.444 123.393 16.444H128.296V19.097Z" fill="#3A3A42"/>
<path d="M148.317 14.6364L154.62 6.18164H148.551L145.077 11.1087L141.604 6.18164H135.3L141.604 14.6364L134.95 23.2369H141.313L144.902 18.135L148.463 23.2369H154.971L148.317 14.6364Z" fill="#3A3A42"/>
</g>
<defs>
<clipPath id="clip0_3623_22115">
<rect width="155" height="24" fill="white"/>
</clipPath>
</defs>
</svg>
