<svg width="199" height="50" viewBox="0 0 199 50" fill="none" xmlns="http://www.w3.org/2000/svg">
<g clip-path="url(#clip0_3624_22225)">
<mask id="mask0_3624_22225" style="mask-type:luminance" maskUnits="userSpaceOnUse" x="0" y="3" width="54" height="47">
<path d="M53.1828 3.72461H0V49.499H53.1828V3.72461Z" fill="white"/>
</mask>
<g mask="url(#mask0_3624_22225)">
<path d="M51.0933 39.016C48.2575 40.5038 33.5536 46.5775 30.4028 48.243C27.2519 49.9086 25.5383 49.8642 23.0619 48.6761C20.5854 47.488 4.975 41.1145 2.15031 39.7599C0.740722 39.0881 0 38.5163 0 37.9778V32.5759C0 32.5759 20.3699 28.1345 23.6589 26.9409C26.9479 25.7472 28.0811 25.7139 30.8837 26.741C33.6863 27.7681 50.4133 30.8049 53.1772 31.8209V37.1395C53.1772 37.6947 52.5415 38.2498 51.0933 39.0104V39.016Z" fill="#A32422"/>
<path d="M51.0935 33.6195C48.2578 35.1019 33.5539 41.1755 30.4031 42.8133C27.2522 44.4511 25.5386 44.4344 23.0622 43.2519C20.5857 42.0694 4.9753 35.7126 2.1506 34.3635C-0.674094 33.0144 -0.729372 32.0762 2.04005 30.988C4.80946 29.8999 20.3702 23.7707 23.6592 22.5826C26.9482 21.3945 28.0814 21.3557 30.884 22.3883C33.6866 23.4209 48.2965 29.2614 51.0604 30.2774C53.8243 31.2934 53.9348 32.1317 51.0935 33.6084V33.6195Z" fill="#DC382C"/>
<path d="M51.0933 30.218C48.2575 31.7003 33.5536 37.774 30.4028 39.4117C27.2519 41.0495 25.5383 41.0329 23.0619 39.8503C20.5854 38.6678 4.975 32.3166 2.15031 30.9619C0.740722 30.2846 0 29.7128 0 29.1743V23.7779C0 23.7779 20.3699 19.3365 23.6589 18.1373C26.9479 16.9381 28.0811 16.9104 30.8837 17.943C33.6863 18.9757 50.4133 22.0014 53.1772 23.0173V28.3415C53.1772 28.8967 52.5415 29.4519 51.0933 30.218Z" fill="#A32422"/>
<path d="M51.0935 24.816C48.2578 26.3039 33.5539 32.3719 30.4031 34.0097C27.2522 35.6475 25.5386 35.6364 23.0622 34.4483C20.5857 33.2602 4.9753 26.9145 2.1506 25.5599C-0.674094 24.2053 -0.729372 23.2781 2.04005 22.19C4.80946 21.1018 20.3702 14.9727 23.6592 13.7846C26.9482 12.5965 28.0814 12.5576 30.884 13.5847C33.6866 14.6118 48.2965 20.4856 51.0604 21.4738C53.8243 22.462 53.9348 23.3281 51.0935 24.8049V24.816Z" fill="#DC382C"/>
<path d="M51.0933 21.0843C48.2575 22.5722 33.5536 28.6459 30.4028 30.2836C27.2519 31.9214 25.5383 31.9048 23.0619 30.7167C20.5854 29.5286 4.975 23.1829 2.15031 21.8283C0.740722 21.1565 0 20.5847 0 20.0462V14.6443C0 14.6443 20.3699 10.2028 23.6589 9.00921C26.9479 7.81558 28.0811 7.78227 30.8837 8.80935C33.6863 9.83643 50.4133 12.8733 53.1772 13.8892V19.2134C53.1772 19.7686 52.5415 20.3237 51.0933 21.0843Z" fill="#A32422"/>
<path d="M51.0935 15.6879C48.2578 17.1536 33.5539 23.2605 30.4031 24.8817C27.2522 26.5028 25.5386 26.5028 23.0622 25.3202C20.5857 24.1377 4.9753 17.7809 2.1506 16.4318C-0.674094 15.0828 -0.729372 14.1445 2.04005 13.0564C4.80946 11.9682 20.3702 5.83905 23.6592 4.65097C26.9482 3.46289 28.0814 3.42403 30.884 4.45666C33.6866 5.48929 48.2965 11.3298 51.0604 12.3457C53.8243 13.3617 53.9348 14.2 51.0935 15.6768V15.6879Z" fill="#DC382C"/>
</g>
<path d="M27.4229 8.01645L30.933 6.86168L29.9822 9.14346L33.5532 10.487L28.9485 10.97L27.9148 13.4627L26.251 10.6813L20.9277 10.1983L24.9022 8.76039L23.7082 6.55078L27.4229 8.01645Z" fill="white"/>
<path d="M27.6442 22.5848L19.043 18.9983L31.3644 17.0996L27.6442 22.5848Z" fill="white"/>
<path d="M15.7209 11.875C19.3582 11.875 22.3045 13.0242 22.3045 14.4399C22.3045 15.8556 19.3472 17.0048 15.7209 17.0048C12.0947 17.0048 9.13184 15.8556 9.13184 14.4399C9.13184 13.0242 12.0837 11.875 15.7209 11.875Z" fill="white"/>
<path d="M39.0039 11.1699L46.295 14.0624L39.0094 16.9549L39.0039 11.1699Z" fill="#741113"/>
<path d="M39.0041 11.1699L39.0097 16.9549L38.2192 17.2658L30.9336 14.3733L39.0041 11.1699Z" fill="#AC2724"/>
<path d="M137.498 1.35966C137.516 1.13835 137.615 0.931796 137.778 0.781162C137.94 0.630528 138.153 0.546875 138.374 0.546875C138.595 0.546875 138.808 0.630528 138.971 0.781162C139.133 0.931796 139.233 1.13835 139.25 1.35966V24.7993C139.233 25.0206 139.133 25.2271 138.971 25.3778C138.808 25.5284 138.595 25.6121 138.374 25.6121C138.153 25.6121 137.94 25.5284 137.778 25.3778C137.615 25.2271 137.516 25.0206 137.498 24.7993V1.35966Z" fill="#494C4D"/>
<path d="M159.974 8.91008V24.7993C159.957 25.0163 159.859 25.2188 159.7 25.3664C159.54 25.5141 159.331 25.5961 159.115 25.5961C158.898 25.5961 158.689 25.5141 158.53 25.3664C158.371 25.2188 158.272 25.0163 158.255 24.7993V22.1511C157.511 23.2143 156.526 24.0848 155.382 24.691C154.237 25.2971 152.965 25.6216 151.672 25.6376C147.056 25.6376 143.38 21.6514 143.38 16.8325C143.38 12.0135 147.067 8.02734 151.672 8.02734C152.962 8.03759 154.232 8.35548 155.377 8.95485C156.521 9.55423 157.508 10.418 158.255 11.475V8.91008C158.272 8.69307 158.371 8.49058 158.53 8.34293C158.689 8.19527 158.898 8.11328 159.115 8.11328C159.331 8.11328 159.54 8.19527 159.7 8.34293C159.859 8.49058 159.957 8.69307 159.974 8.91008ZM158.255 16.8547C158.255 12.9018 155.287 9.73729 151.672 9.73729C148.056 9.73729 145.088 12.9018 145.088 16.8547C145.088 20.8075 148.09 23.9387 151.672 23.9387C155.254 23.9387 158.255 20.8075 158.255 16.8547Z" fill="#494C4D"/>
<path d="M165.093 17.2488V1.35966C165.11 1.13835 165.21 0.931796 165.373 0.781162C165.535 0.630528 165.748 0.546875 165.969 0.546875C166.19 0.546875 166.403 0.630528 166.565 0.781162C166.728 0.931796 166.828 1.13835 166.845 1.35966V11.4972C167.619 10.4335 168.631 9.56733 169.8 8.96848C170.968 8.36963 172.261 8.05487 173.572 8.04955C178.299 8.04955 182.058 12.0024 182.058 16.8935C182.074 18.0289 181.868 19.1565 181.451 20.2118C181.033 21.267 180.413 22.2293 179.625 23.0435C178.836 23.8577 177.896 24.5078 176.858 24.9568C175.819 25.4057 174.703 25.6446 173.572 25.6598C172.263 25.6618 170.971 25.3537 169.802 24.7605C168.633 24.1673 167.62 23.3056 166.845 22.2454V24.7993C166.828 25.0206 166.728 25.2271 166.565 25.3778C166.403 25.5284 166.19 25.612 165.969 25.612C165.748 25.612 165.535 25.5284 165.373 25.3778C165.21 25.2271 165.11 25.0206 165.093 24.7993V17.2488ZM166.845 16.8935C166.808 17.8039 166.955 18.7122 167.277 19.5642C167.598 20.4161 168.088 21.194 168.716 21.8511C169.344 22.5083 170.098 23.0311 170.933 23.3883C171.767 23.7454 172.665 23.9296 173.572 23.9296C174.48 23.9296 175.377 23.7454 176.212 23.3883C177.046 23.0311 177.8 22.5083 178.429 21.8511C179.057 21.194 179.547 20.4161 179.868 19.5642C180.19 18.7122 180.336 17.8039 180.3 16.8935C180.3 12.974 177.298 9.80946 173.572 9.80946C171.796 9.85208 170.104 10.5821 168.851 11.8473C167.597 13.1124 166.879 14.8148 166.845 16.5993V16.8935Z" fill="#494C4D"/>
<path d="M185.882 21.9968C185.954 21.9076 186.043 21.8339 186.143 21.7801C186.244 21.7263 186.354 21.6935 186.468 21.6836C186.582 21.6738 186.696 21.6871 186.804 21.7228C186.913 21.7585 187.013 21.8158 187.098 21.8913C188.315 22.7851 190.249 23.9399 192.471 23.9399C193.667 23.9659 194.836 23.5843 195.788 22.8573C196.169 22.6363 196.489 22.3238 196.719 21.9478C196.95 21.5718 197.084 21.1441 197.109 20.7032C197.076 19.876 196.75 19.2986 195.86 18.5436C195.108 17.9884 193.853 17.5387 192.134 17.25L192.062 17.2167C190.487 16.928 189.094 16.5671 188.093 15.851C187.527 15.5383 187.053 15.081 186.719 14.5254C186.385 13.9697 186.203 13.3353 186.192 12.6864C186.217 12.0014 186.402 11.3318 186.732 10.732C187.063 10.1321 187.529 9.61866 188.093 9.23324C189.374 8.41434 190.871 8.00224 192.388 8.05071C194.638 8.05071 196.258 9.09444 197.612 9.95497C197.801 10.0886 197.931 10.2893 197.977 10.5162C198.024 10.7431 197.982 10.9792 197.861 11.1764C197.737 11.3666 197.543 11.4997 197.321 11.5465C197.099 11.5933 196.868 11.5501 196.678 11.4262C195.39 10.5657 194.102 9.66628 192.388 9.66628C191.202 9.61656 190.033 9.97063 189.072 10.6711C188.741 10.903 188.468 11.2076 188.273 11.5617C188.077 11.9157 187.965 12.3099 187.944 12.7142C187.952 13.0679 188.048 13.414 188.223 13.7212C188.398 14.0284 188.646 14.2872 188.945 14.4741C190.035 15.1366 191.255 15.5534 192.521 15.6955H192.593C194.09 15.9067 195.535 16.3943 196.855 17.1334C197.45 17.5271 197.94 18.0605 198.283 18.6874C198.625 19.3143 198.811 20.0158 198.823 20.731C198.793 21.4414 198.596 22.1346 198.247 22.7533C197.898 23.3721 197.408 23.8987 196.816 24.2897C195.555 25.2244 194.022 25.7161 192.455 25.6887C190.076 25.6022 187.795 24.7166 185.976 23.1738C185.89 23.1051 185.818 23.0193 185.766 22.9216C185.714 22.8238 185.682 22.7164 185.673 22.6059C185.665 22.4954 185.679 22.3842 185.715 22.2794C185.751 22.1746 185.808 22.0784 185.882 21.9968Z" fill="#494C4D"/>
<path d="M70.1202 10.3481C70.7464 9.65733 71.5191 9.11661 72.3811 8.7658C73.2207 8.4035 74.121 8.20383 75.0344 8.17731C75.3588 8.14867 75.6855 8.18603 75.9952 8.28714C76.3048 8.38826 76.5909 8.55106 76.8365 8.7658C77.0216 8.9432 77.1667 9.15837 77.2621 9.39683C77.3574 9.63528 77.4008 9.89149 77.3893 10.1482C77.3946 10.6643 77.1958 11.1615 76.8365 11.5306C76.6636 11.7238 76.451 11.877 76.2133 11.9796C75.9757 12.0822 75.7186 12.1317 75.4601 12.1246C73.1937 12.3245 70.0484 14.5952 70.0484 17.6764V24.6716C70.0344 25.1914 69.8226 25.686 69.4565 26.0537C69.0905 26.4213 68.598 26.6341 68.0805 26.6481C67.816 26.6571 67.5529 26.6071 67.31 26.5014C67.0672 26.3958 66.8508 26.2373 66.6764 26.0374C66.4918 25.8576 66.3444 25.6429 66.2429 25.4057C66.1414 25.1684 66.0877 24.9132 66.085 24.655V10.0538C66.0877 9.79557 66.1414 9.54043 66.2429 9.30316C66.3444 9.06588 66.4918 8.85116 66.6764 8.67142C67.1074 8.36076 67.622 8.18849 68.1523 8.17731C68.4106 8.16921 68.6674 8.21766 68.9051 8.31928C69.1428 8.42091 69.3556 8.57327 69.5288 8.7658C69.7206 8.93991 69.8727 9.15355 69.9748 9.39212C70.0769 9.6307 70.1265 9.8886 70.1202 10.1482V10.3481Z" fill="#494C4D"/>
<path d="M93.972 16.7665C93.974 17.2425 93.7985 17.702 93.48 18.0545C93.104 18.4074 92.6173 18.6174 92.1036 18.6486H80.4953C80.6059 19.5754 81.055 20.428 81.7556 21.0414C82.6545 22.0113 83.8839 22.6059 85.1994 22.7069C85.8656 22.8202 86.5475 22.8 87.2059 22.6476C87.8643 22.4951 88.4861 22.2134 89.0357 21.8186C89.2284 21.6238 89.4588 21.4707 89.7126 21.3685C89.9664 21.2664 90.2383 21.2174 90.5116 21.2246C90.7469 21.2134 90.982 21.2516 91.2018 21.3366C91.4217 21.4217 91.6215 21.5518 91.7885 21.7187C91.9519 21.8695 92.0823 22.0527 92.1714 22.2567C92.2606 22.4608 92.3067 22.6812 92.3067 22.904C92.3067 23.1268 92.2606 23.3472 92.1714 23.5513C92.0823 23.7553 91.9519 23.9385 91.7885 24.0893C90.9311 24.8873 89.9253 25.5075 88.8287 25.9143C87.7322 26.321 86.5665 26.5065 85.3984 26.4599C84.1962 26.4869 83.0024 26.2528 81.8986 25.7737C80.7948 25.2946 79.807 24.5818 79.0028 23.684C77.3368 21.9174 76.3901 19.588 76.3494 17.1551C76.3253 15.9435 76.5482 14.7398 77.0045 13.6179C77.4608 12.4961 78.1408 11.4798 79.0028 10.6318C79.7883 9.77156 80.7471 9.08905 81.8155 8.62959C82.8839 8.17013 84.0374 7.94425 85.1994 7.96694C86.3293 7.92302 87.4556 8.12054 88.5038 8.54643C89.552 8.97233 90.4983 9.61689 91.28 10.4375C92.9462 12.0423 93.9356 14.2283 94.0439 16.5444V16.7387L93.972 16.7665ZM85.216 11.5312C83.9932 11.5511 82.8174 12.0077 81.8993 12.8192C81.1155 13.4828 80.5651 14.3821 80.3294 15.3841H90.6553C90.3656 14.381 89.7385 13.5098 88.8809 12.9191C87.8454 12.0814 86.5718 11.5954 85.2436 11.5312" fill="#494C4D"/>
<path d="M112.479 24.4727C112.476 24.7309 112.423 24.9861 112.321 25.2234C112.22 25.4606 112.072 25.6754 111.888 25.8551C111.709 26.0415 111.496 26.1902 111.259 26.2922C111.023 26.3943 110.769 26.4476 110.511 26.4491C110.058 26.4312 109.622 26.2679 109.268 25.9832C108.914 25.6984 108.66 25.3072 108.543 24.8669C107.083 25.9181 105.326 26.4725 103.53 26.4491C102.354 26.4634 101.188 26.2342 100.105 25.7757C99.0218 25.3172 98.0442 24.6393 97.2335 23.7843C96.3845 22.9312 95.7192 21.9119 95.279 20.7897C94.8387 19.6675 94.6328 18.4664 94.6741 17.2609C94.6561 14.8377 95.5734 12.5017 97.2335 10.7432C98.0383 9.87279 99.0122 9.17741 100.095 8.69996C101.178 8.22251 102.347 7.97315 103.53 7.96726C105.295 7.94438 107.02 8.49982 108.444 9.54952V2.64311C108.437 2.38341 108.486 2.12528 108.588 1.88659C108.69 1.6479 108.843 1.43435 109.035 1.26071C109.214 1.07526 109.428 0.92728 109.664 0.825317C109.901 0.723353 110.155 0.669433 110.412 0.666673C110.67 0.659642 110.927 0.709123 111.165 0.811692C111.403 0.914261 111.615 1.06747 111.788 1.26071C111.973 1.44045 112.12 1.65517 112.222 1.89245C112.323 2.12973 112.377 2.38486 112.38 2.64311V24.4727H112.479ZM103.635 22.4963C104.289 22.5081 104.937 22.3726 105.532 22.0998C106.127 21.8269 106.654 21.4236 107.073 20.9196C108.019 19.9397 108.548 18.6285 108.548 17.2637C108.548 15.8989 108.019 14.5877 107.073 13.6079C106.64 13.1195 106.111 12.7268 105.519 12.4544C104.927 12.1821 104.286 12.036 103.635 12.0256C102.978 12.0028 102.325 12.1339 101.727 12.4085C101.129 12.6831 100.603 13.0938 100.191 13.6079C99.2449 14.5877 98.716 15.8989 98.716 17.2637C98.716 18.6285 99.2449 19.9397 100.191 20.9196C100.618 21.4158 101.147 21.8136 101.741 22.0857C102.336 22.3578 102.981 22.4978 103.635 22.4963Z" fill="#494C4D"/>
<path d="M118.294 2.64298V3.43688C118.304 3.71594 118.255 3.99385 118.151 4.25289C118.047 4.51194 117.891 4.74643 117.692 4.94141C117.513 5.12125 117.297 5.2589 117.059 5.34437C116.821 5.42984 116.567 5.46098 116.315 5.43552C116.057 5.44362 115.8 5.39518 115.563 5.29356C115.325 5.19193 115.112 5.03956 114.939 4.84703C114.744 4.65406 114.591 4.42283 114.489 4.16778C114.388 3.91273 114.339 3.63935 114.348 3.36471V2.64298C114.349 2.38454 114.402 2.12903 114.504 1.89158C114.605 1.65413 114.753 1.43956 114.939 1.26059C115.118 1.07514 115.332 0.927152 115.568 0.825189C115.804 0.723226 116.058 0.669306 116.315 0.666545C116.574 0.660255 116.831 0.710073 117.068 0.812594C117.306 0.915116 117.519 1.06793 117.692 1.26059C117.886 1.43319 118.041 1.64629 118.145 1.88503C118.249 2.12377 118.3 2.38242 118.294 2.64298ZM114.978 8.67221C115.156 8.48577 115.37 8.33712 115.606 8.23509C115.842 8.13305 116.097 8.07969 116.354 8.07817C116.613 8.07039 116.87 8.11953 117.108 8.22214C117.346 8.32476 117.558 8.47837 117.731 8.67221C117.919 8.86727 118.066 9.09871 118.163 9.35255C118.26 9.60638 118.305 9.87733 118.294 10.149V24.5836C118.311 24.8445 118.266 25.1056 118.163 25.3457C118.06 25.5859 117.903 25.7984 117.703 25.966C117.524 26.1514 117.31 26.2994 117.074 26.4014C116.838 26.5034 116.584 26.5573 116.327 26.56C116.068 26.5671 115.811 26.5176 115.573 26.415C115.336 26.3125 115.123 26.1592 114.95 25.966C114.764 25.787 114.616 25.5725 114.515 25.335C114.413 25.0976 114.36 24.8421 114.359 24.5836V10.149C114.351 9.87518 114.399 9.60266 114.501 9.34853C114.603 9.0944 114.755 8.86414 114.95 8.67221" fill="#494C4D"/>
<path d="M132.247 10.0546C132.648 10.3347 132.929 10.7573 133.032 11.2371C133.113 11.7396 133.045 12.2548 132.838 12.7194C132.556 13.1217 132.134 13.403 131.655 13.5078C131.144 13.6033 130.616 13.498 130.179 13.2135C128.803 12.3252 127.725 11.8311 126.835 11.8311C126.055 11.7854 125.285 12.0306 124.674 12.5196C124.281 12.8194 124.082 13.0137 124.082 13.2135C124.056 13.3849 124.091 13.5599 124.182 13.7076C124.293 13.8295 124.426 13.9293 124.574 14.0019C125.376 14.5096 126.288 14.8144 127.233 14.8902C128.457 15.0965 129.648 15.4701 130.771 16.0005C131.763 16.4146 132.592 17.144 133.131 18.0769C133.613 18.8474 133.884 19.7323 133.916 20.6418C133.912 21.4811 133.704 22.3066 133.31 23.0467C132.916 23.7868 132.348 24.4192 131.655 24.8889C130.28 25.8768 128.625 26.3962 126.935 26.3712C124.674 26.3712 122.512 25.483 120.445 23.8063C120.068 23.4741 119.823 23.017 119.754 22.5183C119.72 22.1488 119.795 21.7775 119.969 21.4502C120.143 21.123 120.409 20.8541 120.734 20.677C121.058 20.4998 121.428 20.422 121.796 20.4532C122.164 20.4845 122.515 20.6234 122.805 20.8528C123.89 21.8912 125.337 22.4595 126.835 22.435C127.707 22.4651 128.566 22.2226 129.295 21.7411C129.687 21.3469 129.986 21.0526 129.986 20.7528C129.986 20.4531 129.986 20.3587 129.886 20.2587C129.886 20.1588 129.687 19.9645 129.394 19.8646C128.496 19.3081 127.49 18.9521 126.443 18.8208C125.272 18.648 124.141 18.2723 123.098 17.7105C122.143 17.2418 121.329 16.5273 120.738 15.6397C120.351 14.9463 120.149 14.164 120.152 13.369C120.151 12.5667 120.348 11.7767 120.725 11.0695C121.102 10.3623 121.648 9.75994 122.313 9.31618C123.646 8.40461 125.223 7.9224 126.835 7.93379C128.493 8.03372 130.279 8.72214 132.247 10.0102" fill="#494C4D"/>
<path d="M73.8736 44.4313H72.5635V40.0343H67.3784V44.4313H66.0684V34.7656H67.3784V39.0794H72.5635V34.7656H73.8736V44.4313Z" fill="#494C4D"/>
<path d="M87.8526 39.6005C87.8596 40.2803 87.7435 40.9556 87.5099 41.5936C87.2937 42.1746 86.9649 42.7067 86.5426 43.1592C86.1173 43.598 85.6051 43.9422 85.039 44.1697C83.7937 44.6507 82.4149 44.6507 81.1696 44.1697C80.6044 43.9435 80.0938 43.599 79.6715 43.1592C79.2442 42.7064 78.9148 42.1695 78.7042 41.5825C78.247 40.2935 78.247 38.8854 78.7042 37.5964C78.9162 37.0133 79.2454 36.4804 79.6715 36.0308C80.0933 35.5876 80.6039 35.2394 81.1696 35.0092C82.4149 34.5282 83.7937 34.5282 85.039 35.0092C85.6057 35.2406 86.1178 35.5886 86.5426 36.0308C86.9649 36.4833 87.2937 37.0154 87.5099 37.5964C87.7443 38.238 87.8605 38.9171 87.8526 39.6005ZM86.5149 39.6005C86.5219 39.0578 86.4398 38.5175 86.2717 38.0016C86.1301 37.5594 85.8964 37.1526 85.5863 36.808C85.2917 36.4711 84.9251 36.2054 84.5139 36.0308C83.6079 35.6831 82.6062 35.6831 81.7002 36.0308C81.2804 36.1968 80.9027 36.4547 80.5947 36.7858C80.2828 37.13 80.0473 37.5369 79.9037 37.9794C79.5796 39.0205 79.5796 40.1362 79.9037 41.1773C80.0498 41.6186 80.2851 42.025 80.5947 42.3709C80.9045 42.6986 81.2818 42.9544 81.7002 43.1204C82.6075 43.4609 83.6066 43.4609 84.5139 43.1204C84.9215 42.9522 85.2876 42.6964 85.5863 42.3709C85.8942 42.0247 86.1275 41.6183 86.2717 41.1773C86.4374 40.6684 86.5195 40.1359 86.5149 39.6005Z" fill="#494C4D"/>
<path d="M97.2166 41.2785C97.2608 41.4006 97.3106 41.5172 97.3548 41.6394C97.399 41.5117 97.4433 41.3951 97.493 41.2785C97.5428 41.1619 97.598 41.0509 97.6644 40.9343L100.92 34.9883C100.957 34.9055 101.021 34.8385 101.103 34.7996C101.189 34.7739 101.278 34.7627 101.368 34.7663H102.33V44.4319H101.186V37.3312C101.186 37.2368 101.186 37.1369 101.186 37.0258C101.186 36.9148 101.186 36.8093 101.186 36.6983L97.8689 42.7386C97.8283 42.8297 97.7623 42.907 97.679 42.9611C97.5956 43.0153 97.4983 43.0441 97.399 43.044H97.2885C97.189 43.0448 97.0915 43.0163 97.008 42.9621C96.9244 42.9078 96.8586 42.8301 96.8186 42.7386L93.419 36.6761C93.419 36.7927 93.419 36.9093 93.4467 37.0203C93.4743 37.1313 93.4467 37.2368 93.4467 37.3312V44.4319H92.3135V34.7663H93.2698C93.3612 34.7631 93.4526 34.7744 93.5406 34.7996C93.6197 34.8417 93.6835 34.9077 93.7231 34.9883L97.0397 40.9399C97.1054 41.0491 97.1644 41.1622 97.2166 41.2785Z" fill="#494C4D"/>
<path d="M113.319 34.7656V35.8316H108.698V39.0405H112.44V40.0676H108.698V43.3653H113.319V44.4313H107.36V34.7656H113.319Z" fill="#494C4D"/>
<path d="M132.069 39.6005C132.075 40.2766 131.959 40.948 131.727 41.5825C131.513 42.1646 131.184 42.6971 130.759 43.1481C130.335 43.5881 129.823 43.9325 129.256 44.1586C128.01 44.6396 126.632 44.6396 125.386 44.1586C124.822 43.931 124.312 43.5868 123.888 43.1481C123.464 42.6971 123.135 42.1646 122.921 41.5825C122.464 40.2935 122.464 38.8854 122.921 37.5964C123.135 37.0143 123.464 36.4818 123.888 36.0308C124.311 35.5887 124.821 35.2407 125.386 35.0092C126.632 34.5282 128.01 34.5282 129.256 35.0092C129.823 35.2393 130.336 35.5875 130.759 36.0308C131.184 36.4818 131.513 37.0143 131.727 37.5964C131.961 38.238 132.077 38.9171 132.069 39.6005ZM130.732 39.6005C130.739 39.0578 130.657 38.5175 130.489 38.0016C130.347 37.5594 130.113 37.1526 129.803 36.808C129.508 36.4711 129.142 36.2054 128.731 36.0308C127.825 35.6831 126.823 35.6831 125.917 36.0308C125.507 36.2003 125.139 36.4581 124.839 36.7858C124.529 37.1314 124.294 37.5379 124.148 37.9794C123.831 39.0216 123.831 40.1351 124.148 41.1773C124.297 41.6176 124.531 42.0235 124.839 42.3709C125.141 42.6953 125.508 42.9509 125.917 43.1204C126.824 43.4609 127.823 43.4609 128.731 43.1204C129.138 42.9522 129.504 42.6964 129.803 42.3709C130.111 42.0247 130.344 41.6183 130.489 41.1773C130.654 40.6684 130.736 40.1359 130.732 39.6005Z" fill="#494C4D"/>
<path d="M142.467 34.7656V35.8316H137.846V39.2126H141.793V40.2785H137.846V44.4313H136.536V34.7656H142.467Z" fill="#494C4D"/>
<path d="M153.534 40.3999V44.4305H152.235V34.7649H154.955C155.488 34.754 156.02 34.8176 156.536 34.9536C156.938 35.0608 157.315 35.2498 157.642 35.5088C157.921 35.7354 158.141 36.027 158.283 36.3582C158.539 37.0199 158.555 37.7513 158.327 38.4235C158.223 38.7166 158.066 38.9877 157.863 39.2229C157.651 39.4668 157.398 39.6716 157.116 39.8281C156.802 40.0011 156.466 40.1282 156.116 40.2056C156.288 40.3092 156.435 40.4495 156.547 40.6164L159.355 44.4527H158.2C158.095 44.4614 157.99 44.4399 157.897 44.3907C157.804 44.3415 157.727 44.2667 157.675 44.1751L155.176 40.7219C155.112 40.6261 155.027 40.5463 154.927 40.4887C154.799 40.4369 154.662 40.4141 154.524 40.4221L153.534 40.3999ZM153.534 39.445H154.894C155.229 39.4501 155.563 39.4033 155.884 39.3062C156.149 39.228 156.396 39.0957 156.608 38.9176C156.801 38.7543 156.953 38.5468 157.05 38.3124C157.152 38.0682 157.203 37.8055 157.199 37.5407C157.217 37.2948 157.176 37.0483 157.08 36.8214C156.984 36.5946 156.835 36.3939 156.647 36.2361C156.145 35.9101 155.551 35.7562 154.955 35.7975H153.534V39.445Z" fill="#494C4D"/>
<path d="M169.371 34.7656V35.8316H164.727V39.0405H168.464V40.0676H164.727V43.3653H169.349V44.4313H163.439V34.7656H169.371Z" fill="#494C4D"/>
<path d="M182.273 39.6016C182.281 40.276 182.165 40.9461 181.93 41.578C181.716 42.1482 181.386 42.6679 180.963 43.1048C180.536 43.5314 180.026 43.8658 179.465 44.0875C178.847 44.3221 178.191 44.4389 177.53 44.4317H173.932V34.766H177.53C178.191 34.7579 178.848 34.8766 179.465 35.1158C180.027 35.3348 180.537 35.6695 180.963 36.0984C181.385 36.5366 181.714 37.056 181.93 37.6252C182.164 38.2573 182.281 38.9273 182.273 39.6016ZM180.935 39.6016C180.943 39.0624 180.861 38.5258 180.692 38.0138C180.55 37.5733 180.317 37.1683 180.007 36.8257C179.711 36.4985 179.344 36.244 178.934 36.0818C178.487 35.9058 178.01 35.819 177.53 35.8264H175.231V43.3713H177.519C177.999 43.3786 178.476 43.2919 178.923 43.1159C179.331 42.9537 179.698 42.7013 179.996 42.3775C180.304 42.0362 180.538 41.6332 180.681 41.195C180.853 40.6817 180.939 40.1432 180.935 39.6016Z" fill="#494C4D"/>
<path d="M188.276 44.4313H186.972V34.7656H188.276V44.4313Z" fill="#494C4D"/>
<path d="M198.448 36.2749C198.415 36.334 198.372 36.3867 198.32 36.4303C198.268 36.4656 198.206 36.4831 198.143 36.4803C198.045 36.4694 197.953 36.4287 197.878 36.3637C197.757 36.2717 197.629 36.1882 197.497 36.1139C197.322 36.0098 197.137 35.9242 196.944 35.8585C196.691 35.7752 196.425 35.7358 196.159 35.7419C195.896 35.736 195.634 35.7774 195.385 35.864C195.182 35.9327 194.995 36.0402 194.832 36.1805C194.687 36.3133 194.572 36.4762 194.495 36.6579C194.417 36.8441 194.377 37.0444 194.379 37.2464C194.371 37.4861 194.441 37.7217 194.578 37.9182C194.72 38.1049 194.899 38.2599 195.103 38.3734C195.338 38.5076 195.587 38.6173 195.844 38.701L196.69 38.9897C196.977 39.0896 197.259 39.2007 197.535 39.3228C197.803 39.4397 198.051 39.597 198.271 39.7891C198.492 39.9813 198.671 40.2177 198.796 40.4831C198.937 40.8025 199.005 41.1497 198.995 41.4991C198.997 41.9052 198.924 42.3082 198.779 42.6872C198.641 43.0495 198.428 43.3786 198.155 43.6532C197.865 43.9397 197.519 44.1612 197.137 44.3027C196.701 44.4666 196.238 44.5476 195.772 44.5415C195.187 44.5482 194.607 44.4309 194.07 44.1973C193.573 43.9825 193.126 43.669 192.754 43.2757L193.13 42.6594C193.167 42.6097 193.211 42.5666 193.262 42.5317C193.313 42.4985 193.373 42.4812 193.434 42.4818C193.554 42.4951 193.667 42.5478 193.754 42.6317C193.898 42.7522 194.05 42.8635 194.208 42.9648C194.416 43.0987 194.636 43.2121 194.866 43.3034C195.169 43.4106 195.489 43.4614 195.811 43.4533C196.092 43.4568 196.372 43.4137 196.64 43.3256C196.867 43.248 197.075 43.1253 197.254 42.9648C197.419 42.8083 197.551 42.6193 197.64 42.4096C197.732 42.1801 197.777 41.9349 197.773 41.6879C197.784 41.4322 197.714 41.1797 197.574 40.9661C197.435 40.7762 197.258 40.6174 197.055 40.4998C196.822 40.3652 196.576 40.2572 196.319 40.1778L195.479 39.9168C195.192 39.8245 194.909 39.717 194.633 39.5948C194.365 39.4776 194.117 39.3183 193.898 39.1229C193.675 38.9204 193.498 38.6724 193.379 38.3956C193.236 38.0552 193.168 37.6878 193.18 37.3186C193.179 36.9791 193.247 36.6431 193.379 36.3304C193.502 36.0115 193.69 35.7221 193.931 35.481C194.201 35.2228 194.518 35.0209 194.866 34.8869C195.271 34.7308 195.703 34.6554 196.137 34.6649C196.639 34.6577 197.137 34.7443 197.607 34.9202C198.041 35.0851 198.436 35.3384 198.768 35.6642L198.448 36.2749Z" fill="#494C4D"/>
</g>
<defs>
<clipPath id="clip0_3624_22225">
<rect width="199" height="49" fill="white" transform="translate(0 0.5)"/>
</clipPath>
</defs>
</svg>
