<svg width="18" height="18" viewBox="0 0 18 18" fill="none" xmlns="http://www.w3.org/2000/svg">
<path d="M14.8337 2.33464H13.167V1.5013C13.167 1.28029 13.0792 1.06833 12.9229 0.912046C12.7666 0.755766 12.5547 0.667969 12.3337 0.667969C12.1126 0.667969 11.9007 0.755766 11.7444 0.912046C11.5881 1.06833 11.5003 1.28029 11.5003 1.5013V2.33464H6.50033V1.5013C6.50033 1.28029 6.41253 1.06833 6.25625 0.912046C6.09997 0.755766 5.88801 0.667969 5.66699 0.667969C5.44598 0.667969 5.23402 0.755766 5.07774 0.912046C4.92146 1.06833 4.83366 1.28029 4.83366 1.5013V2.33464H3.16699C2.50395 2.33464 1.86807 2.59803 1.39923 3.06687C0.930384 3.53571 0.666992 4.17159 0.666992 4.83464V14.8346C0.666992 15.4977 0.930384 16.1336 1.39923 16.6024C1.86807 17.0712 2.50395 17.3346 3.16699 17.3346H14.8337C15.4967 17.3346 16.1326 17.0712 16.6014 16.6024C17.0703 16.1336 17.3337 15.4977 17.3337 14.8346V4.83464C17.3337 4.17159 17.0703 3.53571 16.6014 3.06687C16.1326 2.59803 15.4967 2.33464 14.8337 2.33464ZM15.667 14.8346C15.667 15.0556 15.5792 15.2676 15.4229 15.4239C15.2666 15.5802 15.0547 15.668 14.8337 15.668H3.16699C2.94598 15.668 2.73402 15.5802 2.57774 15.4239C2.42146 15.2676 2.33366 15.0556 2.33366 14.8346V9.0013H15.667V14.8346ZM15.667 7.33464H2.33366V4.83464C2.33366 4.61362 2.42146 4.40166 2.57774 4.24538C2.73402 4.0891 2.94598 4.0013 3.16699 4.0013H4.83366V4.83464C4.83366 5.05565 4.92146 5.26761 5.07774 5.42389C5.23402 5.58017 5.44598 5.66797 5.66699 5.66797C5.88801 5.66797 6.09997 5.58017 6.25625 5.42389C6.41253 5.26761 6.50033 5.05565 6.50033 4.83464V4.0013H11.5003V4.83464C11.5003 5.05565 11.5881 5.26761 11.7444 5.42389C11.9007 5.58017 12.1126 5.66797 12.3337 5.66797C12.5547 5.66797 12.7666 5.58017 12.9229 5.42389C13.0792 5.26761 13.167 5.05565 13.167 4.83464V4.0013H14.8337C15.0547 4.0013 15.2666 4.0891 15.4229 4.24538C15.5792 4.40166 15.667 4.61362 15.667 4.83464V7.33464Z" fill="white"/>
</svg>
