<svg width="18" height="16" viewBox="0 0 18 16" fill="none" xmlns="http://www.w3.org/2000/svg">
<path d="M16.9692 7.46094L8.53613 0.141741C8.4714 0.0859374 8.38881 0.0546875 8.30176 0.0546875H6.32631C6.16113 0.0546875 6.08524 0.260045 6.21024 0.367188L14.0272 7.1529H0.964704C0.86649 7.1529 0.786133 7.23326 0.786133 7.33147V8.67076C0.786133 8.76897 0.86649 8.84933 0.964704 8.84933H14.025L6.20801 15.635C6.08301 15.7444 6.1589 15.9475 6.32408 15.9475H8.36649C8.4089 15.9475 8.45131 15.9319 8.48256 15.9029L16.9692 8.5413C17.0464 8.4741 17.1084 8.39111 17.1509 8.29792C17.1933 8.20473 17.2153 8.10352 17.2153 8.00112C17.2153 7.89871 17.1933 7.7975 17.1509 7.70431C17.1084 7.61113 17.0464 7.52813 16.9692 7.46094Z" fill="#FAFAFA"/>
</svg>
